<?xml version="1.0" standalone="no"?>
<!DOCTYPE svg PUBLIC "-//W3C//DTD SVG 1.1//EN" "http://www.w3.org/Graphics/SVG/1.1/DTD/svg11.dtd" >
<svg xmlns="http://www.w3.org/2000/svg" xmlns:xlink="http://www.w3.org/1999/xlink" version="1.1">
<metadata>
Created by FontForge 20161013 at Tue Jan 26 14:38:17 1993
 By ,,,
(c) Linotype-Hell AG
</metadata>
<defs>
<font id="Shelley-AllegroScript" horiz-adv-x="455" >
  <font-face 
    font-family="Shelley Allegro Script"
    font-weight="400"
    font-style="italic"
    font-stretch="normal"
    units-per-em="2048"
    panose-1="3 1 1 1 1 1 1 1 1 1"
    ascent="1638"
    descent="-410"
    x-height="569"
    cap-height="1432"
    bbox="-585 -659 2929 1830"
    underline-thickness="102"
    underline-position="-358"
    slope="-32"
    unicode-range="U+0020-FB02"
  />
<missing-glyph horiz-adv-x="1517" 
d="M247 0v1280h1024v-1280h-1024zM279 32h960v1216h-960v-1216z" />
    <glyph glyph-name=".notdef" horiz-adv-x="1517" 
d="M247 0v1280h1024v-1280h-1024zM279 32h960v1216h-960v-1216z" />
    <glyph glyph-name=".null" horiz-adv-x="0" 
 />
    <glyph glyph-name="nonmarkingreturn" horiz-adv-x="0" 
 />
    <glyph glyph-name="space" unicode=" " horiz-adv-x="398" 
 />
    <glyph glyph-name="exclam" unicode="!" horiz-adv-x="683" 
d="M669 967l152 9l-545 -803h-36zM198 123q26 0 41 -15.5t15 -44.5q0 -34 -20 -56t-45 -22q-23 0 -39 16.5t-16 45.5q0 33 19 54.5t45 21.5z" />
    <glyph glyph-name="quotedbl" unicode="&#x22;" horiz-adv-x="682" 
d="M463 821l-25 -318q-3 -37 -9 -46q-4 -7 -11 -7t-11 7q-7 9 -10 46l-24 318q-2 26 -2 53q0 57 13 75t33 18q22 0 33 -16q15 -21 15 -83q0 -21 -2 -47zM731 821l-24 -318q-3 -37 -9 -46q-4 -7 -11 -7t-12 7q-6 9 -9 46l-24 318q-2 26 -2 53q0 57 13 75t33 18q22 0 33 -16
q14 -21 14 -83q0 -21 -2 -47z" />
    <glyph glyph-name="numbersign" unicode="#" horiz-adv-x="797" 
d="M772 374l-19 -54h-161l-112 -320h-63l112 320h-190l-111 -320h-64l112 320h-170l19 54h170l78 224h-169l18 54h170l110 315h63l-110 -315h189l110 315h63l-110 -315h167l-19 -54h-166l-78 -224h161zM625 598h-189l-78 -224h189z" />
    <glyph glyph-name="dollar" unicode="$" horiz-adv-x="797" 
d="M710 964l62 122h36l-66 -130q74 -26 111.5 -75t37.5 -111q0 -65 -45.5 -111.5t-103.5 -46.5q-54 0 -83.5 25t-29.5 59q0 28 19 46.5t47 18.5q26 0 45.5 -18t28.5 -56q3 -14 7 -18q7 -6 17 -6q22 0 41 26q28 36 28 81q0 54 -34 98.5t-97 65.5l-205 -402q55 -109 70 -160
q16 -52 16 -113q0 -74 -29 -124q-45 -80 -113.5 -117.5t-164.5 -37.5q-26 0 -57 4l-62 -121h-36l65 126q-103 25 -154.5 82t-51.5 129q0 79 48 129t119 50q68 0 110.5 -36t42.5 -81q0 -30 -17 -48q-13 -14 -41 -14q-25 0 -40.5 16.5t-15.5 48.5q0 11 1 21q1 6 1 10
q0 13 -15 25q-22 16 -53 16q-48 0 -82 -37.5t-34 -96.5q0 -64 46 -115t148 -75l223 439q-67 141 -79 181q-13 40 -13 84q0 105 81 179.5t202 74.5q33 0 69 -7zM699 942q-27 6 -56 6q-86 0 -145 -55t-59 -125q0 -39 11 -76q12 -37 58 -126zM260 7q25 -2 45 -2q102 0 164.5 61
t62.5 152q0 35 -12 78q-10 32 -53 120z" />
    <glyph glyph-name="percent" unicode="%" horiz-adv-x="1593" 
d="M396 -9l827 1140h45l-827 -1140h-45zM246 579q0 108 53.5 215.5t136.5 188t156 116.5q56 27 116 27q68 0 109 -41.5t41 -115.5q0 -68 -31 -153q-31 -86 -88 -172q-58 -87 -123 -151t-127 -92q-39 -17 -80 -17q-53 0 -91.5 31t-55 79.5t-16.5 84.5zM807 997
q0 48 -23.5 72.5t-60.5 24.5q-58 0 -125 -58q-111 -97 -189.5 -252.5t-78.5 -253.5q0 -50 29.5 -80.5t69.5 -30.5q46 0 107 52q93 79 170 213q101 175 101 313zM823 180q0 108 53 215.5t136 188t157 116.5q55 27 116 27q68 0 108.5 -41t40.5 -116q0 -67 -30 -152
q-31 -85 -88 -172t-122 -151q-66 -64 -128 -92q-39 -18 -80 -18q-52 0 -90.5 30.5t-55.5 79t-17 85.5zM1384 599q0 48 -23 72.5t-61 24.5q-58 0 -125 -58q-110 -97 -188.5 -252.5t-78.5 -253.5q0 -50 29 -80.5t69 -30.5q47 0 108 52q93 80 170 214q100 175 100 312z" />
    <glyph glyph-name="ampersand" unicode="&#x26;" horiz-adv-x="1024" 
d="M735 249q15 18 184 243q133 178 173 221q82 87 155 127q52 28 100 28q38 0 59 -20t21 -51q0 -33 -20 -53t-50 -20q-19 0 -33 9t-32 36q-11 16 -16 19q-7 4 -18 4q-24 0 -56 -20q-58 -36 -144 -138q-61 -73 -192 -250q-70 -95 -121 -158q28 -72 37 -117q15 -69 15 -138
q0 -150 -77.5 -293.5t-221.5 -226t-304 -82.5q-144 0 -233 82t-89 193q0 57 23.5 102.5t59.5 75.5q36 31 80 50q45 19 76 19q5 0 7.5 -2.5t2.5 -7.5q0 -4 -3 -7q-1 -1 -14 -3q-94 -16 -151 -79t-57 -140q0 -85 72 -147t204 -62q121 0 226 49.5t189.5 137.5t124.5 180t40 212
q0 53 -7 94q-4 27 -22 86q-101 -119 -215 -171q-84 -38 -184 -38q-130 0 -203.5 69.5t-73.5 181.5q0 91 55.5 176t182.5 157q95 53 250 99q-14 54 -14 115q0 90 38 174.5t100.5 128.5t128.5 44q72 0 113.5 -40.5t41.5 -115.5q0 -65 -31 -114q-40 -65 -132 -117
q-65 -37 -216 -90q22 -75 54 -153q22 -54 117 -259zM558 683q227 75 294 146q68 71 68 157q0 62 -35.5 97.5t-94.5 35.5q-109 0 -177 -101.5t-68 -223.5q0 -55 13 -111zM540 654q-187 -78 -287.5 -191.5t-100.5 -245.5q0 -98 50 -151.5t137 -53.5q198 0 376 214
q-17 43 -38 87q-54 114 -90 206q-26 64 -47 135z" />
    <glyph glyph-name="quotesingle" unicode="'" 
d="M478 821l-25 -318q-3 -37 -9 -46q-4 -7 -11 -7t-11 7q-7 9 -10 46l-24 318q-2 26 -2 53q0 57 13 75t33 18q22 0 33 -16q15 -21 15 -83q0 -21 -2 -47z" />
    <glyph glyph-name="parenleft" unicode="(" horiz-adv-x="1024" 
d="M291 48q0 157 59 327q60 170 207 362q148 193 375 373q188 150 382 258q122 68 143 68q3 0 5 -2.5t2 -5.5q0 -7 -17 -15q-123 -53 -300 -189q-242 -186 -418 -412q-177 -226 -265 -448q-88 -223 -88 -410q0 -100 23 -176.5t78 -159.5q10 -15 10 -18q0 -2 -1.5 -3.5
t-3.5 -1.5q-7 0 -28 24q-65 71 -107 171q-56 132 -56 258z" />
    <glyph glyph-name="parenright" unicode=")" horiz-adv-x="1024" 
d="M876 984q0 -182 -76.5 -374t-258.5 -401q-153 -176 -369 -338q-153 -115 -311 -205q-126 -72 -151 -72q-3 0 -5 2t-2 6q0 7 17 15q121 52 298 188q243 186 421 413.5t271 466.5q81 205 81 390q0 100 -24 179.5t-77 157.5q-10 14 -10 18q0 2 1 4q2 1 5 1q4 0 9 -5
q52 -48 93 -122.5t64.5 -160t23.5 -163.5z" />
    <glyph glyph-name="asterisk" unicode="*" horiz-adv-x="796" 
d="M600 1145q-74 46 -148 98q-57 40 -65 51.5t-8 20.5q0 16 12 28.5t28 12.5q12 0 25 -10q16 -13 172 -177q4 43 8 134t7.5 106t11 21.5t24.5 6.5q22 0 35 -12q10 -8 10 -24q0 -14 -32 -114q-23 -74 -35 -118q46 20 176 87q39 20 48 23.5t17 3.5q15 0 24.5 -10t9.5 -27
q0 -22 -14.5 -36t-63.5 -25l-195 -42q64 -37 153 -97q63 -42 73 -55q6 -8 6 -19q0 -16 -11.5 -27.5t-29.5 -11.5q-12 0 -22 8q-21 17 -149 148l-29 30l-11 -199q-4 -57 -13.5 -68.5t-28.5 -11.5q-15 0 -25 10.5t-10 25.5q0 12 8 46q23 99 51 197l-141 -77q-54 -28 -82 -37
q-8 -3 -16 -3q-15 0 -25.5 11t-10.5 28q0 25 32 37q88 35 234 67z" />
    <glyph glyph-name="plus" unicode="+" horiz-adv-x="819" 
d="M405 313v253h61v-253h253v-61h-253v-252h-61v252h-252v61h252z" />
    <glyph glyph-name="comma" unicode="," 
d="M221 123q28 0 42 -12.5t14 -31.5q0 -29 -20.5 -73t-68.5 -91t-102 -78q-55 -31 -101 -44q-36 -10 -50 -10q-6 0 -8.5 2.5t-2.5 7.5q0 6 4 10q6 5 29 10q67 16 110 46q43 31 59 65q12 25 17 90t24.5 87t53.5 22z" />
    <glyph glyph-name="hyphen" unicode="-" horiz-adv-x="683" 
d="M95 251l28 76h463l-36 -76h-455z" />
    <glyph glyph-name="hyphen" unicode="&#xad;" horiz-adv-x="683" 
d="M95 251l28 76h463l-36 -76h-455z" />
    <glyph glyph-name="period" unicode="." 
d="M140 43q0 39 20.5 61t54.5 22q27 0 42.5 -15.5t15.5 -44.5q0 -38 -22.5 -60.5t-55.5 -22.5q-25 0 -40 15.5t-15 44.5z" />
    <glyph glyph-name="slash" unicode="/" horiz-adv-x="569" 
d="M545 1147h43l-559 -1147h-43z" />
    <glyph glyph-name="zero" unicode="0" horiz-adv-x="797" 
d="M826 804q0 -148 -62 -294q-63 -146 -170 -285t-198 -201q-57 -38 -114 -38q-81 0 -127 69.5t-46 158.5q0 138 62 274t172 260.5t209 178.5q75 40 135 40q64 0 101.5 -41t37.5 -122zM787 833q0 59 -25.5 87.5t-70.5 28.5q-51 0 -111 -46q-83 -65 -178.5 -213t-151 -306.5
t-55.5 -265.5q0 -52 24.5 -79.5t65.5 -27.5q34 0 78 23t100 82q79 83 163 226q85 143 123 272t38 219z" />
    <glyph glyph-name="one" unicode="1" horiz-adv-x="797" 
d="M180 0l41 67q13 21 103 157l242 374l135 211q21 35 48 85q-61 -68 -288 -277q-39 -36 -181 -149q-81 -64 -103 -73q-9 -4 -14 -4q-4 0 -7 2q-2 2 -2 6q0 6 7 13q7 8 82 65q173 132 309 258q137 126 206 205q26 30 37 30q4 0 6.5 -2.5t2.5 -6.5t-2 -9q-11 -44 -91 -216
q-120 -254 -192 -390q-127 -237 -185 -337q-22 1 -35 1q-58 0 -119 -10z" />
    <glyph glyph-name="two" unicode="2" horiz-adv-x="797" 
d="M280 653q0 -37 23.5 -61t57.5 -24q55 0 110 51q84 78 135 221q5 15 8 18q2 2 7 2t8 -3t3 -10q0 -23 -9 -65.5t-39 -94.5q-30 -53 -64 -84q-34 -32 -70 -47.5t-75 -15.5q-58 0 -89.5 30.5t-31.5 83.5q0 115 108 214t258 99q100 0 155.5 -53t55.5 -148q0 -75 -34.5 -137.5
t-99.5 -112.5t-188 -107.5t-165 -79.5q-94 -52 -164 -109q-71 -58 -96 -99q-3 -5 -3 -8q0 -2 1.5 -3.5t3.5 -1.5q6 0 21 15q55 53 97 72q43 19 85 19q69 0 101 -39q18 -22 23.5 -71t15 -60.5t27.5 -11.5q32 0 76 35q71 57 142 151q19 25 21 27q3 3 8 3t7.5 -2.5t2.5 -6.5
q0 -6 -7 -17l-64 -85q-46 -57 -89 -92q-44 -35 -76 -47q-33 -13 -69 -13q-42 0 -68.5 16.5t-38.5 43.5q-8 20 -16 83q-4 29 -12 37.5t-24 8.5q-40 0 -112.5 -52t-124.5 -134q-9 -14 -17 -14q-5 0 -8.5 3.5t-3.5 9.5q0 24 27 74q39 71 122 145q58 51 225 163q167 113 221 161
q76 67 118.5 145.5t42.5 144.5q0 62 -32 92.5t-98 30.5q-129 0 -229 -92.5t-100 -197.5z" />
    <glyph glyph-name="three" unicode="3" horiz-adv-x="796" 
d="M472 498q13 2 24 2q73 0 123 -47.5t50 -112.5q0 -121 -122.5 -233t-286.5 -112q-105 0 -160 48.5t-55 122.5q0 50 23.5 76t57.5 26q28 0 44.5 -16t16.5 -43q0 -25 -14 -42.5t-49 -27.5q-19 -5 -26 -13t-7 -18q0 -30 33.5 -57t93.5 -27q42 0 78 12q49 17 97.5 52t93 89.5
t69 114.5t24.5 103q0 37 -22 58t-65 21q-68 0 -134 -43q-16 -11 -25 -11q-6 0 -9.5 3.5t-3.5 9.5t4 10q5 4 33 18q210 102 313 216q78 86 78 166q0 49 -27 75t-82 26q-109 0 -200.5 -78t-91.5 -147q0 -27 16.5 -44t41.5 -17q50 0 101 42q79 65 118 158q4 10 6.5 12t6.5 2
t6 -2t2 -8q0 -47 -30.5 -106t-83.5 -93.5t-107 -34.5q-46 0 -72 24.5t-26 61.5q0 84 96.5 168.5t222.5 84.5q92 0 142 -45t50 -115q0 -57 -32.5 -105t-97.5 -87t-236 -117z" />
    <glyph glyph-name="four" unicode="4" horiz-adv-x="796" 
d="M519 955l164 12l-245 -350q-67 -93 -159 -212q-59 -76 -160 -196q62 26 117 26q41 0 110 -10q46 -7 91 -7l220 332q103 154 110 159q3 2 7 2q5 0 8 -3t3 -9t-23 -51q-98 -184 -214 -423q35 0 79 16t82 45q10 8 15 8q4 0 6.5 -2.5t2.5 -6.5q0 -13 -41 -41
q-62 -42 -156 -47q-38 -80 -88 -192q-72 1 -163 -10q83 130 132 197q-33 0 -83 7q-68 10 -100 10q-38 0 -69 -8q-32 -9 -78 -32q-11 -5 -13 -5q-4 0 -6 2t-2 5q0 6 6 14q69 90 147 214t166 290t134 266z" />
    <glyph glyph-name="five" unicode="5" horiz-adv-x="796" 
d="M515 846l-228 -356q61 52 107 72q47 21 96 21q89 0 143.5 -54t54.5 -142q0 -140 -133.5 -266t-306.5 -126q-97 0 -147.5 44.5t-50.5 109.5q0 52 28 83.5t65 31.5q27 0 43 -15.5t16 -42.5q0 -25 -12.5 -40.5t-48.5 -25.5q-24 -6 -31 -14.5t-7 -25.5q0 -36 30 -61t88 -25
q79 0 166 62.5t145.5 175t58.5 204.5q0 49 -27.5 76.5t-80.5 27.5q-43 0 -81 -19q-57 -26 -121 -89q-23 -23 -29.5 -27t-12.5 -4t-9.5 3.5t-3.5 8.5q0 4 4 12l310 501q6 10 11 10q7 0 46 -12q74 -22 142 -22q97 0 167 39q11 7 16 7q4 0 6 -2t2 -5q0 -15 -44 -52
q-97 -85 -251 -85q-59 0 -120 22z" />
    <glyph glyph-name="six" unicode="6" horiz-adv-x="796" 
d="M270 424q76 101 131 137q56 36 114 36q69 0 116 -52t47 -141q0 -92 -63.5 -197t-176.5 -176q-73 -46 -155 -46q-76 0 -124 58t-48 179q0 91 34 183q49 130 141.5 242.5t192.5 185.5q101 74 177 104q77 30 145 30q80 0 123 -38t43 -99q0 -45 -21 -69t-53 -24q-27 0 -43 16
t-16 42q0 18 7.5 31.5t29.5 30.5q14 12 17.5 17.5t3.5 15.5q0 19 -20 33q-28 20 -76 20q-45 0 -85 -14q-55 -21 -126.5 -77.5t-139.5 -139.5t-122 -175q-32 -54 -53 -113zM589 474q0 53 -21.5 76.5t-59.5 23.5q-50 0 -115 -51q-91 -71 -152.5 -198.5t-61.5 -217.5
q0 -46 23.5 -70.5t61.5 -24.5q32 0 68.5 19.5t79.5 63t76 92.5q46 70 73.5 149.5t27.5 137.5z" />
    <glyph glyph-name="seven" unicode="7" horiz-adv-x="796" 
d="M419 986l45 9l-113 -170q16 11 40 31q65 53 98 70q22 10 46 10q21 0 37.5 -7t69.5 -44q35 -25 57.5 -33t48.5 -8q88 0 142 95q12 21 25 21q8 0 13 -4.5t5 -11.5q0 -8 -6 -18.5t-29 -34.5q-70 -74 -198 -265q-205 -308 -382 -621q-68 -3 -164 -19q95 147 222 313
q128 166 451 542q-47 -27 -95 -43t-76 -16q-25 0 -55 11.5t-75 40.5t-69 29q-32 0 -65 -25.5t-93 -113.5q-31 -46 -53 -46q-11 0 -17.5 7t-6.5 21t12 31.5t54.5 54t69.5 84.5z" />
    <glyph glyph-name="eight" unicode="8" horiz-adv-x="797" 
d="M420 500q-45 71 -58 108q-18 50 -18 95q0 103 86.5 183.5t209.5 80.5q90 0 136 -42.5t46 -117.5q0 -60 -25 -105.5t-75 -82.5q-51 -37 -174 -98q83 -117 83 -222q0 -117 -102.5 -215.5t-234.5 -98.5q-103 0 -161.5 54.5t-58.5 131.5q0 74 61 145q92 104 285 184zM534 545
q90 39 140 79t74.5 89.5t24.5 99.5q0 61 -35.5 96.5t-97.5 35.5q-77 0 -134.5 -60.5t-57.5 -145.5q0 -39 15 -76t71 -118zM434 479q-159 -74 -226.5 -151.5t-67.5 -168.5q0 -65 41 -105t116 -40q100 0 165 65t65 169q0 50 -15 91q-22 58 -78 140z" />
    <glyph glyph-name="nine" unicode="9" horiz-adv-x="797" 
d="M695 578q-70 -119 -133 -166q-64 -48 -128 -48q-47 0 -84 23.5t-57 70t-20 93.5q0 78 36.5 158t88 135t117.5 89t142 34t122 -54.5t46 -174.5q0 -119 -49 -248.5t-138 -236.5q-68 -81 -153 -144.5t-163 -92.5q-78 -30 -143 -30q-94 0 -147 47.5t-53 114.5q0 40 18.5 61
t47.5 21q28 0 45 -16.5t17 -44.5q0 -32 -26 -58.5t-26 -36.5q0 -23 26 -42q33 -25 86 -25q75 0 158 43.5t164.5 138.5t138.5 207q42 84 67 182zM752 839q0 55 -23.5 80t-65.5 25q-57 0 -112 -52q-81 -76 -134.5 -205.5t-53.5 -212.5q0 -39 22.5 -61.5t60.5 -22.5q41 0 85 30
q61 40 117 121q57 82 80 162q24 81 24 136z" />
    <glyph glyph-name="colon" unicode=":" horiz-adv-x="683" 
d="M393 453q0 39 20.5 61t54.5 22q28 0 43 -15.5t15 -44.5q0 -37 -22 -60t-56 -23q-25 0 -40 15.5t-15 44.5zM142 37q0 40 20.5 62t54.5 22q27 0 42.5 -15.5t15.5 -43.5q0 -38 -22.5 -60.5t-55.5 -22.5q-25 0 -40 15t-15 43z" />
    <glyph glyph-name="semicolon" unicode=";" horiz-adv-x="683" 
d="M398 460q0 30 21.5 53t49.5 23q27 0 43 -16t16 -44q0 -32 -20 -52.5t-50 -20.5q-27 0 -43.5 16t-16.5 41zM221 123q28 0 42 -12.5t14 -31.5q0 -29 -20.5 -73t-68.5 -91t-102 -78q-55 -31 -101 -44q-36 -10 -50 -10q-6 0 -8.5 2.5t-2.5 7.5q0 6 4 10q6 5 29 10
q67 16 110 46q43 31 59 65q12 25 17 90t24.5 87t53.5 22z" />
    <glyph glyph-name="less" unicode="&#x3c;" horiz-adv-x="819" 
d="M699 53v-61l-566 260v61l566 261v-61l-497 -230z" />
    <glyph glyph-name="equal" unicode="=" horiz-adv-x="819" 
d="M719 423v-61h-566v61h566zM719 204v-62h-566v62h566z" />
    <glyph glyph-name="greater" unicode="&#x3e;" horiz-adv-x="819" 
d="M206 -8v61l497 230l-497 230v61l566 -261v-61z" />
    <glyph glyph-name="question" unicode="?" horiz-adv-x="796" 
d="M444 820q35 -12 49 -29t14 -38q0 -26 -17 -42.5t-42 -16.5q-28 0 -47 20t-19 53q0 81 83.5 157t189.5 76q79 0 128.5 -50t49.5 -132q0 -63 -26.5 -118t-73.5 -96q-33 -29 -140.5 -91t-161.5 -110q-55 -49 -115 -135q-46 -66 -51 -71t-11 -5q-3 0 -5 2t-2 5q0 7 6 17
q44 78 112 157q42 49 143 144q102 95 148 149.5t70 114.5t24 107q0 41 -28 67t-79 26q-79 0 -140 -55.5t-59 -105.5zM187 123q26 0 41 -15.5t15 -44.5q0 -34 -20 -56t-45 -22q-23 0 -39 16.5t-16 45.5q0 33 19 54.5t45 21.5z" />
    <glyph glyph-name="at" unicode="@" horiz-adv-x="1638" 
d="M1355 980l23 84h92l-131 -509q-15 -58 -15 -86q0 -43 34.5 -74t87.5 -31q75 0 149 53t123.5 170.5t49.5 240.5q0 149 -82.5 285.5t-234 217t-331.5 80.5q-191 0 -346 -89t-238.5 -254.5t-83.5 -359.5q0 -300 190 -486.5t507 -186.5q100 0 186 20q87 20 229 81l30 -36
q-152 -70 -252 -94q-100 -25 -210 -25q-188 0 -334 63.5t-239 156.5t-146 201q-70 144 -70 304q0 190 100.5 368.5t283.5 278.5t395 100q195 0 360.5 -85.5t252.5 -231.5t87 -306q0 -122 -51 -243q-32 -79 -80 -138q-49 -59 -115 -95t-145 -36q-76 0 -127.5 40.5
t-65.5 109.5h-4q-60 -78 -121.5 -113t-129.5 -35q-88 0 -145.5 64t-57.5 174q0 89 28 172q29 84 70 147t91.5 109.5t107.5 70.5t117 24q59 0 94.5 -22.5t66.5 -78.5zM1326 880q0 60 -34 95t-94 35q-74 0 -155 -58t-134.5 -168t-53.5 -221q0 -82 39.5 -127.5t99.5 -45.5
q48 0 93 27q78 47 134 136t85 202q20 76 20 125z" />
    <glyph glyph-name="A" unicode="A" horiz-adv-x="2163" 
d="M1760 5l-147 -10q21 45 47 112q-267 19 -426 151q-109 -91 -196 -139q-113 -64 -246 -98q-133 -35 -274 -35q-248 0 -387.5 123.5t-139.5 292.5q0 179 156 324.5t369 145.5q180 0 283 -89t103 -214q0 -161 -134.5 -253.5t-292.5 -92.5q-57 0 -76 10q-9 5 -9 13q0 4 3 7.5
t9 3.5q4 0 10 -2q30 -6 62 -6q166 0 299 111q91 76 91 198q0 68 -32 123t-97.5 85.5t-165.5 30.5q-143 0 -267 -61.5t-189 -163t-65 -197.5q0 -102 72 -189t193 -134q87 -33 212 -33q140 0 259 30q119 31 238 96q83 46 189 133q-97 95 -142 159q-45 65 -70 145t-25 153
q0 143 93 238t228 95q86 0 173 -42.5t160 -125.5q44 -49 80 -125q187 199 382 369t364 255q69 34 97 34q8 0 11.5 -2.5t3.5 -7.5q0 -7 -6 -17t-43 -53q-157 -185 -322 -464q-187 -316 -388 -761q107 0 185 39t155 133q14 16 20 16q4 0 7.5 -3t3.5 -7q0 -6 -38 -48
q-75 -85 -152.5 -118.5t-189.5 -34.5zM1755 303q184 371 387 662q170 243 333 395q6 5 6 8q0 1 -1 2t-3 1t-5 -2q-60 -25 -196 -125q-137 -101 -314 -263q-66 -61 -240 -239q18 -52 26 -110q9 -59 9 -157zM1688 754q-35 71 -74 116q-56 64 -128 99.5t-145 35.5
q-75 0 -142.5 -36t-104.5 -109t-37 -167q0 -114 53 -211q54 -98 133 -176q70 65 174 169q163 165 271 279zM1700 721l-125 -130q-179 -189 -312 -306q160 -139 404 -156q31 78 48 184q17 107 17 200q0 117 -32 208z" />
    <glyph glyph-name="B" unicode="B" horiz-adv-x="1934" 
d="M988 1403q130 33 275 33q122 0 230 -22q79 -17 170 -55q39 25 89 45q34 13 53 13q3 0 5.5 -2t2.5 -6q0 -2 -1 -3.5t-7 -3.5q-61 -20 -113 -56q98 -50 141.5 -122t43.5 -149q0 -59 -24 -109.5t-78.5 -101t-122.5 -81.5q-42 -20 -111 -34q74 -18 122 -46
q72 -43 113.5 -110.5t41.5 -154.5q0 -165 -155 -307.5t-361 -142.5q-101 0 -162.5 59.5t-61.5 147.5q0 63 40 134.5t118 132.5q51 41 62 41q4 0 7 -3t3 -8t-14 -15q-98 -71 -144 -146t-46 -137q0 -77 55 -131t137 -54q142 0 266.5 140t124.5 339q0 120 -52 181.5t-118 61.5
q-18 0 -54 -11q-56 -16 -88 -16q-22 0 -31.5 7.5t-9.5 19.5q0 15 12 23q17 12 57 12q10 0 32 -1q29 -2 44 -2q106 0 181 88q100 117 100 269q0 70 -26 118.5t-78 83.5q-88 -69 -152 -141t-120 -162q-56 -91 -180 -320q-125 -229 -185 -310q-95 -128 -216 -225.5t-227 -138
t-201 -40.5q-132 0 -200.5 55t-68.5 125q0 38 22.5 60t61.5 22q36 0 55.5 -19t19.5 -51q0 -22 -10.5 -44.5t-10.5 -34.5q0 -36 31.5 -60t111.5 -24q77 0 148 28q101 41 176.5 108.5t175.5 219.5q44 67 151 270q108 203 205 332t215 235q74 67 174 131q-53 30 -153 52
q-101 23 -222 23q-125 0 -250 -29q88 -102 88 -257q0 -143 -97.5 -304.5t-235 -241t-274.5 -79.5q-103 0 -163 58.5t-60 156.5q0 88 50 194.5t149 206.5q100 100 223 169q124 69 268 104q-34 33 -94 53.5t-133 20.5q-88 0 -170 -26t-157 -77q-76 -52 -145 -131
q-49 -56 -87 -129q-39 -73 -53 -110q-3 -10 -6 -12q-2 -2 -5 -2t-5 3q-3 3 -3 8q0 30 44 118t108 161q65 73 147 122t164 73q83 25 168 25q79 0 139 -20q61 -21 121 -65zM974 1375q-215 -51 -381 -180q-167 -130 -242 -274q-57 -110 -57 -203q0 -84 49.5 -134.5t123.5 -50.5
q80 0 172 46q93 47 180 135q87 89 151 219.5t64 261.5q0 111 -60 180z" />
    <glyph glyph-name="C" unicode="C" horiz-adv-x="1365" 
d="M1076 1254q130 78 258 125q128 48 233 48q83 0 121 -34t38 -93q0 -51 -35 -115t-136 -146q-139 -113 -347 -215q-155 -76 -313 -109q-108 -22 -269 -30q-112 -254 -112 -439q0 -94 28 -145.5t73.5 -71t117.5 -20.5q-8 51 -8 96q0 228 125.5 374.5t265.5 146.5
q74 0 117.5 -43t43.5 -117q0 -153 -132 -286q-162 -166 -384 -199q9 -60 34 -170q3 -13 3 -16q0 -5 -2.5 -8t-7.5 -3q-4 0 -8 6q-9 16 -35 143l-9 46q-103 2 -165 32q-83 40 -132.5 125t-49.5 203q0 158 97 352q-127 23 -208 70q-82 47 -132.5 131.5t-50.5 185.5
q0 167 132.5 289t342.5 122q167 0 306 -73q106 -54 200 -162zM1050 1242q-99 111 -212.5 167t-267.5 56q-211 0 -342 -134q-100 -102 -100 -224q0 -53 20 -103t58 -92.5t96 -76.5q59 -34 124 -50q66 -17 101 -17q85 128 188 224q104 97 335 250zM1076 1211
q-95 -65 -178 -143t-143 -157q-43 -57 -98 -153q172 0 299 23q128 23 282 92t272 157q118 89 164 170q33 57 33 106q0 44 -32 72t-103 28q-99 0 -231 -50q-132 -51 -243 -131q46 -62 96 -158q22 -41 22 -51q0 -4 -2.5 -6.5t-6.5 -2.5t-8 4q-4 5 -18 33q-47 94 -105 167z
M758 10q122 10 248.5 87t187 178t60.5 192q0 60 -33.5 95.5t-84.5 35.5q-71 0 -147 -57q-102 -76 -167.5 -219t-65.5 -265q0 -25 2 -47z" />
    <glyph glyph-name="D" unicode="D" horiz-adv-x="1820" 
d="M1627 1268q50 43 115 83t117 62l18 7q7 4 10 4q4 0 6 -2q2 -3 2 -8q0 -4 -3 -7q-2 -3 -15 -9q-133 -68 -222 -158q66 -64 108.5 -170t42.5 -230q0 -227 -114 -413q-136 -220 -382 -335q-211 -99 -510 -99q-42 0 -101 2q-60 3 -96 3q-54 0 -110 -7.5t-104 -7.5
q-131 0 -187 32q-31 18 -31 40q0 13 15 23q19 12 68 12q73 0 239 -34q81 -16 119 -16q63 0 135 48q100 65 176 176q54 79 230 393q104 185 154 260q69 102 142 184t157 153q-80 74 -197 114.5t-247 40.5q-80 0 -157 -19q58 -61 86 -130q29 -69 29 -165q0 -104 -33 -201
q-34 -97 -85 -171q-52 -74 -120 -132q-69 -59 -152 -92q-84 -34 -169 -34q-76 0 -141 35.5t-100 104.5t-35 147q0 197 173 387t495 266q-96 69 -235 69q-120 0 -221.5 -43.5t-192.5 -130.5q-92 -88 -143 -196q-68 -144 -97 -322q-5 -28 -6 -30q-2 -3 -5 -3q-4 0 -7 3
q-3 5 -3 13q0 68 34 190t108 235q74 114 163 181q90 67 181 97t185 30q169 0 268 -85q102 20 182 20q123 0 252 -42.5t211 -122.5zM980 1382q-184 -64 -302 -162q-147 -124 -220 -277.5t-73 -280.5q0 -83 46.5 -128.5t135.5 -45.5q106 0 197 48q92 48 162 125q70 78 120 194
q50 117 50 244q0 83 -30 156.5t-86 126.5zM1639 1223q-73 -84 -122.5 -159.5t-149.5 -265.5q-100 -191 -158 -280q-95 -145 -199 -254t-186 -159q-82 -51 -183 -84q104 -6 161 -6q476 0 745 268q232 230 232 554q0 124 -39.5 225.5t-100.5 160.5z" />
    <glyph glyph-name="E" unicode="E" horiz-adv-x="1138" 
d="M501 14q-4 31 -4 70q0 115 32 220q33 106 88.5 176.5t122 108t144.5 37.5q76 0 121 -45t45 -115q0 -95 -68.5 -210.5t-188.5 -186.5t-261 -82q7 -47 32 -160q6 -26 6 -29q0 -4 -2.5 -6.5t-5.5 -2.5q-7 0 -14 19q-27 87 -43 178q-156 0 -242.5 82t-86.5 213
q0 98 46.5 188.5t139.5 167.5t216 130q87 38 188 53q-75 25 -121 78q-57 -11 -123 -11q-188 0 -288.5 83.5t-100.5 198.5q0 132 107.5 228t291.5 96q101 0 187 -33q87 -33 178 -106q172 97 338 97q60 0 88.5 -25.5t28.5 -66.5q0 -49 -29 -96q-40 -66 -144 -145
q-104 -80 -244 -142q-91 -39 -210 -61q11 -39 36 -60t54 -21q7 0 24 2q30 3 45 3q53 0 75 -12q11 -7 11 -18q0 -10 -10 -17q-13 -10 -39 -10q-30 0 -78 13q-30 8 -46 8q-59 0 -144 -38t-150 -95q-65 -58 -106.5 -125t-62.5 -139t-21 -143q0 -115 51 -177.5t137 -71.5z
M619 948q-7 31 -7 58q0 93 62.5 173.5t202.5 163.5q-160 130 -346 130q-162 0 -256.5 -80t-94.5 -182q0 -107 94 -186.5t270 -79.5q27 0 75 3zM930 1296q-107 -83 -158 -161.5t-51 -160.5q0 -7 1 -19q100 11 190 47q90 37 170 83t140 100t89 110q17 33 17 65q0 31 -20.5 49
t-63.5 18q-57 0 -124.5 -25t-170.5 -93q98 -99 98 -110q0 -4 -2.5 -6.5t-6.5 -2.5t-9 6q-41 46 -99 100zM530 12q82 -3 167 33q86 36 159 100.5t122 152.5t49 167q0 60 -35 96.5t-87 36.5q-61 0 -129.5 -46.5t-128.5 -138t-89.5 -199t-29.5 -171.5q0 -12 2 -31z" />
    <glyph glyph-name="F" unicode="F" horiz-adv-x="1820" 
d="M813 978q0 86 62.5 169.5t190.5 149t338 88.5q166 19 483 19q268 0 340 5q171 11 258 29q12 2 15 2t4.5 -1t1.5 -3q0 -9 -11 -22q-28 -32 -83 -61t-104.5 -39.5t-136.5 -10.5q-135 0 -276 20q-206 28 -389 28q-221 0 -363 -51q-143 -51 -233 -152q-68 -76 -68 -166
q0 -71 55.5 -119t157.5 -48q328 0 566 359q12 18 18 18q4 0 6.5 -2t2.5 -5q0 -8 -29 -60q-67 -121 -153 -209q-58 -60 -114 -93.5t-120 -51.5t-133 -18q-128 0 -207 70t-79 155zM1458 643q130 212 186 288q85 116 177.5 196.5t191.5 131.5q22 12 33 12q4 0 6 -2t2 -5
q0 -4 -21 -19q-133 -95 -179 -152q-64 -81 -197 -328q-39 -74 -61 -111q22 0 75 13q71 17 192 63q92 35 143 62q7 4 12 4t8 -3t3 -7q0 -10 -24 -34q-70 -71 -112 -137t-84 -171q-9 -21 -11 -23.5t-10 -5.5q-56 -21 -150 -72q-13 -7 -16 -7q-2 0 -3 1t-1 2q0 7 16 38
q45 87 124 182t142 152q5 5 5 7q0 1 -1 2t-2 1t-6 -2q-70 -31 -153 -57q-84 -27 -162 -36q-89 -153 -157 -238q-98 -123 -230.5 -215t-306.5 -144q-175 -53 -352 -53q-271 0 -413.5 121t-142.5 293q0 108 46.5 191.5t120.5 140.5q75 58 158 91q113 45 228 45
q102 0 197.5 -35.5t147 -103t51.5 -165.5q0 -167 -135 -256t-303 -89q-122 0 -219 51q-36 19 -36 31q0 3 2.5 5.5t5.5 2.5t19 -10q39 -25 100.5 -41t129.5 -16q183 0 293.5 95t110.5 220q0 105 -82.5 175t-245.5 70q-151 0 -281 -64.5t-198 -171t-68 -200.5q0 -73 38.5 -139
t103 -113t159.5 -75.5t217 -28.5q147 0 290 43q143 44 235.5 108t165.5 157q54 69 213 307q-69 -14 -163 -73t-164 -140q-19 -21 -26 -21q-4 0 -6 2t-2 5q0 11 22 36q63 70 161 134t193 85z" />
    <glyph glyph-name="G" unicode="G" horiz-adv-x="1707" 
d="M1408 1261q291 166 507 166q77 0 115 -33t38 -84t-27 -101q-42 -80 -154 -175t-279 -180q-167 -86 -334 -130q-113 -30 -245 -37q-21 -82 -21 -138q0 -75 29.5 -108.5t85.5 -33.5q62 0 127 26q93 36 215 132q96 75 253 232q35 35 47 35q6 0 9.5 -3.5t3.5 -8.5
q0 -7 -17 -31q-48 -67 -69 -105q-32 -59 -124 -260q-93 -202 -148 -291q-96 -156 -226 -267q-130 -112 -297.5 -177t-336.5 -65t-298.5 59.5t-188.5 152.5t-59 195q0 113 73 223t207 179.5t273 69.5q179 0 287 -92.5t108 -213.5q0 -134 -115 -236.5t-303 -102.5
q-99 0 -201 32q-59 19 -59 34q0 3 2.5 5.5t6.5 2.5q5 0 16 -6q34 -17 97 -32q64 -16 125 -16q189 0 298.5 96t109.5 221q0 117 -89.5 179t-234.5 62q-136 0 -275.5 -65.5t-208.5 -168.5t-69 -211q0 -86 53 -163.5t169.5 -126.5t254.5 -49q139 0 270 51.5t241 151.5t267 337
q158 237 238 370q56 92 107 142q8 9 9 11q1 1 1 2l-1 2h-2q-2 1 -15 -13q-88 -93 -197 -176q-109 -84 -190 -117q-82 -34 -147 -34q-102 0 -168 67t-66 176q0 24 5 61q-67 0 -154.5 26t-157 79.5t-106.5 122.5t-37 158q0 110 58.5 207.5t171.5 154.5t250 57q80 0 161 -20
q82 -20 139 -51q58 -31 99 -65q41 -35 93 -91zM1387 1249q-95 109 -216 162q-121 54 -254 54q-210 0 -329 -114.5t-119 -247.5q0 -69 31.5 -127.5t91.5 -108t147.5 -77t170.5 -27.5q30 78 73 138q66 93 166.5 179.5t237.5 168.5zM1422 1209q-149 -105 -238.5 -215
t-133.5 -236q212 0 412 69q201 69 365 189q117 87 168 160q51 74 51 138q0 38 -31 65t-92 27q-105 0 -230 -45q-125 -46 -250 -136q112 -166 112 -199q0 -4 -2.5 -6.5t-6.5 -2.5q-8 0 -18 23q-37 77 -106 169z" />
    <glyph glyph-name="H" unicode="H" horiz-adv-x="2163" 
d="M1312 584q152 248 207 328q56 80 126.5 157t118.5 118q6 6 6 10v2q-1 1 -2 1t-15 -11q-36 -27 -112 -66q-77 -40 -130 -55q-54 -16 -103 -16q-78 0 -111 35.5t-33 123.5q0 41 9 95q5 29 5 39q0 19 -11 29.5t-28 10.5q-42 0 -132 -69q-143 -110 -291 -312q-47 -65 -53 -70
q-6 -6 -12 -6q-4 0 -6.5 2.5t-2.5 6.5q0 7 38 62q109 158 222 261t193 141q45 21 89 21q56 0 89.5 -37.5t33.5 -109.5q0 -13 -4 -51q-7 -66 -7 -86q0 -30 10.5 -41.5t35.5 -11.5q37 0 81 16q89 31 199 96q74 43 177 122q104 79 140 99q26 13 45 13q13 0 21 -7.5t8 -19.5
q0 -14 -9 -23q-6 -7 -39 -21q-105 -45 -144 -67q-39 -23 -74 -56q-36 -34 -78 -98q-43 -65 -166 -284q-76 -137 -128 -223q118 48 210 83l183 66q90 174 239 328q150 154 350 245q139 64 243 64q58 0 88.5 -28.5t30.5 -69.5q0 -74 -70 -156q-104 -122 -320 -224
q-217 -103 -399 -149q-147 -250 -218 -450q-54 -153 -54 -250q0 -36 13 -51.5t35 -15.5q32 0 71 20q59 32 137 109q78 78 131 145q4 5 9 5t8 -3t3 -8t-11 -17q-3 -4 -13 -17q-116 -137 -203 -202q-87 -66 -141 -66q-57 0 -89 41q-41 52 -41 159q0 116 40 241q41 126 145 315
q-57 -18 -179 -65q-159 -62 -213 -87q-108 -176 -173 -252q-102 -119 -231.5 -204t-261.5 -123.5t-272 -38.5q-163 0 -285 48.5t-183 143.5t-61 215q0 125 66.5 231.5t193 177.5t275.5 71q107 0 200 -39.5t139 -110t46 -156.5q0 -125 -112 -222q-141 -122 -319 -122
q-112 0 -209 41q-14 6 -14 14q0 5 3 8.5t7 3.5q2 0 12 -4q87 -39 181 -39q136 0 238 60t146 134q30 49 30 113q0 112 -79 180t-237 68q-143 0 -268.5 -62t-190.5 -166.5t-65 -216.5q0 -80 34 -141t88 -101q55 -41 119 -65q110 -40 234 -40q121 0 233.5 39.5t201.5 104
t179 170.5q60 71 169 232q-136 -53 -247 -138q-25 -19 -30 -19q-4 0 -6.5 3t-2.5 9q0 12 20 28q92 77 284 155zM2048 827q184 60 273 99q136 59 224 114q89 56 140 110q36 39 57 86q15 35 15 76q0 39 -17.5 58t-49.5 19q-67 0 -155.5 -49t-237.5 -204q-150 -155 -249 -309z
" />
    <glyph glyph-name="I" unicode="I" horiz-adv-x="1593" 
d="M1372 649q-85 0 -149 45q-90 63 -90 181q0 77 39.5 154t143.5 159q105 83 259 139q155 57 369 85q152 20 198 20q7 0 10 -2.5t3 -7.5q0 -4 -3 -6q-3 -3 -17 -6q-105 -25 -202.5 -102t-187.5 -214q-60 -92 -226 -420q50 0 129 46t141 121q6 9 11 9q4 0 6.5 -2.5t2.5 -6.5
q0 -20 -74 -84q-116 -100 -229 -108q-86 -157 -144 -240q-76 -109 -176 -186q-152 -117 -311 -176t-320 -59q-251 0 -411 136q-130 110 -130 270q0 113 72.5 223.5t204.5 180.5t271 70q114 0 214 -44.5t145.5 -115t45.5 -150.5q0 -84 -49 -163.5t-147 -128t-216 -48.5
q-119 0 -255 58q-21 9 -21 18q0 4 3 7t7 3t20 -7q126 -56 235 -56q113 0 207.5 44.5t143 120t48.5 147.5q0 64 -36.5 123t-109 92t-176.5 33q-129 0 -250 -51q-87 -38 -154.5 -96.5t-107 -133.5t-39.5 -168t49.5 -164.5t161 -122.5t265.5 -51q138 0 252 40q114 41 208 114
t194 205q67 88 172 276zM1386 675q91 166 164 273q74 108 167 206t193 171q54 39 121 68q-16 1 -23 1q-78 0 -228 -38t-257 -91q-107 -54 -171 -114q-65 -61 -102 -137t-37 -154q0 -91 46 -138t127 -47z" />
    <glyph glyph-name="J" unicode="J" horiz-adv-x="1707" 
d="M1332 -52q-128 -195 -271 -323q-143 -129 -320 -206q-177 -78 -339 -78q-152 0 -272 56.5t-175 150.5t-55 206q0 123 63.5 238t177 177.5t241.5 62.5q154 0 246.5 -86.5t92.5 -214.5q0 -51 -21 -136q155 65 260 98q106 33 268 69q30 55 60 112l117 222q29 53 147 259
q-78 9 -123 33q-60 31 -90.5 84t-30.5 124q0 87 36.5 161t130 155.5t242.5 153.5q150 72 337 117q188 45 298 45q26 0 33 -4q5 -3 5 -7q0 -5 -4 -8.5t-18 -6.5q-58 -11 -125 -53t-149 -128q-83 -87 -146 -187t-250 -450q61 0 130 42q70 43 125 111q15 18 19 21t10 3t8.5 -2
t2.5 -5q0 -9 -34 -47q-73 -82 -148 -123q-56 -31 -130 -33q-148 -283 -209 -386q-62 -104 -121 -184q77 24 132 55q98 54 180 123q62 53 123 133q5 7 10 7t8 -2.5t3 -5.5t-3 -9q-24 -44 -81 -101q-40 -41 -93 -82q-74 -56 -154 -96q-59 -30 -144 -55zM1567 587
q65 125 156 265t175 235t206 194q91 72 121 87q12 6 12 8q0 1 -1 2q-3 2 -17 2q-73 0 -252 -54q-180 -55 -316 -150q-137 -96 -197 -195.5t-60 -199.5q0 -109 64 -157q49 -37 109 -37zM667 -217q25 87 25 139q0 98 -73 164t-208 66q-227 0 -372 -170q-101 -119 -101 -262
q0 -52 17.5 -101.5t50.5 -90.5t86 -77q54 -37 131 -60t168 -23q95 0 174 25q123 39 255 124q133 85 229 191q66 72 165 221q-138 -30 -244 -63q-107 -34 -288 -106q-33 -43 -83 -90t-89.5 -67t-65.5 -20q-18 0 -27.5 9.5t-9.5 27.5q0 15 7.5 28t34.5 31q41 25 104 54z" />
    <glyph glyph-name="K" unicode="K" horiz-adv-x="2275" 
d="M1801 1214q-134 -74 -197 -96q-64 -22 -111 -22q-50 0 -85.5 20t-50.5 61t-16 142q-1 36 -7.5 45.5t-20.5 9.5q-21 0 -54 -15q-60 -28 -128 -87q-69 -59 -128 -139t-106 -153q-5 -8 -11 -8q-5 0 -7.5 2.5t-2.5 8.5q0 13 38 72q77 121 158 200q82 80 155 119q74 39 128 39
q58 0 86 -26t33 -92q3 -42 6 -69l4 -47q2 -23 11 -32t28 -9q22 0 44 6q65 17 136 52q71 36 148 81q125 75 185 124q44 37 62 37q12 0 23.5 -12.5t11.5 -26.5q0 -13 -9 -20q-13 -12 -100 -45t-131.5 -67t-91 -100t-154.5 -263q-192 -352 -275 -469q-113 -159 -243 -258
t-285.5 -152.5t-319.5 -53.5q-240 0 -377.5 122.5t-137.5 290.5q0 186 157.5 332.5t383.5 146.5q113 0 203 -41.5t135.5 -115t45.5 -148.5q0 -84 -55.5 -165.5t-161 -132.5t-208.5 -51q-106 0 -205 45q-21 9 -21 17q0 4 3 6.5t7 2.5t15 -6q33 -17 84 -29q52 -13 115 -13
q88 0 185.5 44.5t150.5 120.5t53 160q0 99 -71 158q-92 77 -249 77q-187 0 -336 -108q-183 -132 -183 -333q0 -147 105 -236q136 -115 355 -115q131 0 268 48t242 132q80 64 157 172q43 61 172 271l116 188q43 68 88.5 129.5t102 126.5t138.5 147zM1697 678q56 -16 92 -44
q53 -41 82.5 -103.5t29.5 -135.5q0 -35 -14 -118q-24 -144 -24 -186q0 -38 16.5 -57.5t41.5 -19.5q26 0 53 15q46 25 138 115t142 150q14 16 21 16q4 0 6.5 -2t2.5 -6q0 -6 -3 -11q-7 -10 -70 -78q-63 -69 -132 -134t-102 -81q-34 -17 -67 -17q-48 0 -90 36t-65 99
q-16 44 -16 111q0 63 17 151.5t17 129.5q0 54 -14 84.5t-42 48.5t-51 18q-9 0 -29 -6q-14 -3 -25 -3q-13 0 -21 6.5t-8 13.5q0 10 7 16t25 6q49 0 73 8q35 10 95 47t104 77q44 41 120 130q144 168 232 247q140 125 257 177q90 39 179 39q88 0 140.5 -44.5t52.5 -98.5
q0 -37 -21 -58.5t-57 -21.5q-38 0 -58.5 18t-20.5 42q0 20 14.5 49t14.5 41q0 18 -17 30q-23 17 -64 17q-70 0 -152.5 -53.5t-216.5 -213.5q-134 -161 -206 -229q-73 -69 -176.5 -128t-210.5 -89z" />
    <glyph glyph-name="L" unicode="L" horiz-adv-x="1479" 
d="M1119 758q-103 -189 -196 -319t-177 -210q-50 -47 -125 -94l200 -65q64 -20 102 -27q39 -7 86 -7q90 0 169 31.5t138 79.5q38 30 145 150q10 10 15 10t8 -3t3 -6t-2 -7q-7 -10 -77 -85t-101 -99q-73 -59 -154 -90t-160 -31q-56 0 -125 17q-105 26 -292 97
q-112 -63 -189 -86t-159 -23q-118 0 -179 45q-44 33 -44 86q0 42 35 68q46 35 139 35q135 0 402 -76q81 68 127 132q74 102 181 311q38 75 62 117q-110 -22 -214 -22q-168 0 -301 67q-101 50 -154.5 131t-53.5 182q0 108 58 204.5t182.5 157t278.5 60.5q109 0 222 -32
q113 -33 206 -97q94 -64 155 -142q113 114 204 165t149 51q48 0 74 -26t26 -79q0 -64 -52 -141q-86 -128 -241 -233t-371 -197zM1313 1204q-104 128 -254.5 194.5t-314.5 66.5q-142 0 -255.5 -53.5t-170.5 -138t-57 -172.5q0 -130 114 -221q148 -119 392 -119q111 0 222 21
q102 163 168 248t156 174zM1345 1165q-90 -144 -104 -168q-42 -74 -96 -184q288 88 491 295q126 127 126 228q0 35 -21 54.5t-61 19.5q-34 0 -64 -13q-58 -24 -130 -82q-73 -58 -128 -133q78 -120 78 -132q0 -4 -2.5 -6.5t-5.5 -2.5q-4 0 -8 4q-6 7 -38 60q-25 41 -37 60z
M543 111q-250 91 -387 91q-65 0 -96 -24.5t-31 -58.5q0 -40 39 -68q53 -39 153 -39q85 0 163 24q78 25 159 75z" />
    <glyph glyph-name="M" unicode="M" horiz-adv-x="2390" 
d="M1871 147q0 101 51 217q81 185 296 489q184 259 314 388q50 50 59 61q10 11 13 14q5 5 7 10v1l-1 1h-1q-2 0 -4 -1q-24 -12 -115 -96q-147 -135 -328 -335q-52 -57 -410 -483l-154 -182q-100 -116 -178 -194q-37 -37 -52 -43q-11 -5 -24 -5q-29 0 -47.5 23t-18.5 74
q0 118 83 291q109 227 366 533q257 307 354 396q9 8 9 12q0 3 -1 5q-1 1 -3 1q-1 0 -2 -1q-19 -8 -117 -87q-127 -101 -234 -199q-173 -158 -381 -392q-303 -340 -386 -416q-138 -127 -270 -187q-132 -61 -265 -61q-206 0 -324 114t-118 290q0 119 55.5 214.5t179 172.5
t277.5 77q196 0 310 -115q79 -80 79 -198q0 -89 -45 -162t-142 -124t-211 -51q-69 0 -145 20q-77 21 -98 38q-6 5 -6 12q0 4 3.5 7.5t7.5 3.5t11 -4q105 -53 225 -53q165 0 266 88.5t101 208.5q0 109 -82.5 178.5t-254.5 69.5q-223 0 -358 -119t-135 -271q0 -94 49 -183.5
t144 -138.5t211 -49q77 0 151 23q97 28 182 79q85 52 180 138q95 87 398 419q304 333 461 469q103 91 217 179q115 89 160 108q13 5 22 5q4 0 7 -2q3 -3 3 -6q0 -8 -24 -34q-8 -8 -35 -40q-148 -178 -191 -239q-182 -256 -335.5 -520t-213.5 -427q-9 -24 -9 -34
q0 -12 5.5 -18.5t13.5 -6.5q18 0 46 26q47 43 256 297q317 384 526 603q104 109 310 297q100 91 112 97q8 3 13 3q4 0 7 -3t3 -7q0 -6 -16 -29q-106 -156 -320 -490q-167 -259 -249 -429q-83 -170 -115 -293q-16 -62 -16 -95q0 -28 11.5 -41t32.5 -13q112 0 334 257
q28 32 35 32q4 0 7 -2.5t3 -5.5q0 -7 -15 -22l-91 -104q-64 -67 -137 -125q-53 -42 -86.5 -54.5t-68.5 -12.5q-63 0 -98.5 38.5t-35.5 122.5z" />
    <glyph glyph-name="N" unicode="N" horiz-adv-x="2275" 
d="M1881 1266q-302 -513 -387 -640q-178 -264 -324 -392q-146 -129 -306 -191.5t-333 -62.5q-180 0 -303 56.5t-180.5 147.5t-57.5 203q0 219 206 365q157 111 354 111q123 0 225.5 -41t147 -108t44.5 -145q0 -85 -53.5 -170t-164 -137.5t-238.5 -52.5q-92 0 -184 40
q-16 7 -16 13q0 3 3 5.5t7 2.5t13 -4q27 -12 72 -23q46 -11 95 -11q126 0 231 46t153 119t48 150q0 118 -108 181.5t-246 63.5q-129 0 -268.5 -63.5t-209 -166.5t-69.5 -215q0 -137 112 -227q147 -118 396 -118q150 0 307.5 61.5t293.5 180.5q136 120 317 381
q81 117 336 543l96 160q51 84 58.5 93.5t14 13t12.5 3.5q5 0 8 -3t3 -8q0 -10 -25 -71q-25 -62 -31 -89q-11 -43 -19.5 -129.5t-8.5 -186.5q0 -43 4 -101q6 -108 6 -164q0 -91 -20 -249t-58 -285q193 360 324 572q194 313 361 496q121 132 202 174q53 28 110 28
q49 0 73.5 -22t24.5 -58q0 -34 -21.5 -55.5t-54.5 -21.5q-30 0 -51 18q-16 14 -19 45q-3 22 -10.5 29.5t-22.5 7.5q-23 0 -60 -21q-90 -52 -241 -241q-174 -218 -407 -631q-167 -298 -260 -486q-12 -25 -20 -25q-6 0 -11 5q-3 3 -3 8q0 6 23 75q15 43 19 69q6 43 6 105
q0 117 -16.5 277.5t-16.5 231.5q0 95 12.5 174t32.5 147q15 48 73 213z" />
    <glyph glyph-name="O" unicode="O" horiz-adv-x="1593" 
d="M1067 1297q106 70 214 107q109 37 204 37q118 0 184.5 -61.5t66.5 -156.5q0 -41 -14 -102q-5 -20 -12 -20q-3 0 -4.5 2t-1.5 6q0 3 4 22q8 43 8 81q0 96 -60 153t-166 57q-81 0 -181 -35q-101 -35 -202 -107q68 -28 123 -76q42 21 70 28q38 10 79 10q114 0 183 -76
t69 -225q0 -148 -60 -292q-77 -185 -225 -356q-126 -145 -290 -233.5t-314 -88.5q-77 0 -146.5 42.5t-112 132.5t-42.5 204q0 130 46 265q47 135 135 259q88 125 207 236q73 68 212 170q-71 31 -167 31q-138 0 -271 -78t-209.5 -207.5t-95.5 -297.5q-2 -10 -4 -12
q-3 -4 -7 -4t-7 3.5t-3 10.5q0 65 38 177q38 113 104 196q67 83 143 134t152 75t160 24q100 0 193 -35zM1083 1263q-108 -81 -172 -151q-98 -110 -183 -256t-129 -293q-44 -148 -44 -293q0 -134 59.5 -202t155.5 -68q133 0 289.5 86t288.5 244q133 158 203 330
q56 137 56 276q0 143 -61.5 214t-163.5 71q-71 0 -135 -34q72 -83 109 -172q38 -90 38 -193q0 -116 -58 -226t-154 -169.5t-187 -59.5q-78 0 -128.5 55t-50.5 156q0 125 59.5 251t158.5 228q63 64 170 133q-48 43 -121 73zM1221 1176q-98 -57 -162 -122
q-106 -107 -164 -233.5t-58 -245.5q0 -87 39.5 -131t107.5 -44q120 0 217 120q127 157 127 374q0 94 -27.5 162t-79.5 120z" />
    <glyph glyph-name="P" unicode="P" horiz-adv-x="1593" 
d="M1638 1349q110 74 125 74q4 0 6.5 -3t2.5 -7q0 -8 -16 -17q-26 -14 -92 -59q76 -43 119.5 -86.5t71.5 -110t28 -132.5q0 -107 -65.5 -197.5t-152 -139t-191.5 -48.5q-78 0 -137 39q-40 26 -40 37q0 4 3 7.5t7 3.5q3 0 10 -5q61 -48 128 -48q81 0 154 53.5t121 158.5
t48 215q0 70 -32.5 129.5t-101.5 99.5q-60 -46 -96 -87q-55 -62 -138 -194q-60 -95 -144 -257q-101 -195 -178 -304q-122 -174 -261 -287.5t-262 -159.5q-91 -34 -188 -34q-126 0 -189.5 50.5t-63.5 117.5q0 40 22 63t59 23q38 0 59 -21t21 -58q0 -19 -9.5 -39.5t-9.5 -32.5
q0 -32 29.5 -54t101.5 -22q73 0 148 26t151.5 88t156.5 175q107 153 237 392q74 136 104 184q63 98 139 188.5t147 152.5q50 44 139 105q-74 35 -170 53t-194 18q-116 0 -230 -27q81 -89 81 -240q0 -147 -86.5 -302.5t-230.5 -243.5t-285 -88q-96 0 -160 53t-64 167
q0 96 51 196t150 197q100 98 208 163q109 66 284 112q-97 74 -229 74q-127 0 -247.5 -57t-205 -150t-165.5 -268q-3 -7 -9 -7q-3 0 -5 2.5t-2 6.5q0 19 44 104q44 86 95 149q52 63 124 116q72 54 167 88q96 35 200 35q76 0 134 -19t127 -66q89 17 128 21q69 8 143 8
q110 0 198 -18q89 -19 178 -56zM987 1368q-99 -22 -163 -48q-106 -44 -212 -121q-107 -77 -184 -171t-105 -173q-29 -80 -29 -144q0 -72 40.5 -127t134.5 -55q85 0 158 37q107 54 201 154q94 101 152 214q59 113 59 260q0 63 -15 107q-15 45 -37 67z" />
    <glyph glyph-name="Q" unicode="Q" horiz-adv-x="1479" 
d="M643 135q154 78 251 153q149 116 271.5 276.5t175.5 304.5t53 286q0 93 -28 144.5t-93 80t-145 28.5q-49 0 -110 -15q42 -42 69.5 -108.5t27.5 -139.5q0 -158 -87.5 -315t-235.5 -244.5t-283 -87.5q-59 0 -110.5 27.5t-78 79t-26.5 112.5q0 185 174 378q214 236 502 306
q-40 33 -100 51t-127 18q-89 0 -181 -34q-93 -35 -175 -100t-125 -124t-126 -226q-9 -17 -14 -17q-3 0 -5.5 3t-2.5 7q0 16 46 107q47 91 96 151q49 61 126 121q78 61 169 96t190 35q153 0 260 -79q70 17 127 17q88 0 173.5 -32.5t143.5 -116.5t58 -216q0 -123 -45.5 -242
t-143.5 -233.5t-268 -236.5q-123 -88 -368 -227q136 -52 209 -68q73 -17 137 -17q65 0 118 16q53 17 112 56t122 99q63 61 84 86q8 11 14 11q5 0 7.5 -3t2.5 -7q0 -5 -3 -10q-36 -51 -136 -138q-60 -52 -125 -91q-66 -39 -111 -54q-66 -22 -155 -22q-72 0 -149 17
q-78 18 -217 71q-219 -83 -363 -83q-113 0 -176 46q-44 33 -44 84q0 43 38 71q55 40 159 40q160 0 441 -92zM986 1384q-142 -29 -286 -121q-106 -69 -200 -169t-147 -215q-36 -78 -36 -164q0 -49 20 -93.5t59.5 -68t93.5 -23.5q109 0 225 78q146 97 242 264t96 314
q0 76 -17.5 121t-49.5 77zM548 83q-183 70 -262 89q-79 20 -135 20q-66 0 -98 -25q-24 -18 -24 -51q0 -41 39 -70q54 -39 163 -39q154 0 317 76z" />
    <glyph glyph-name="R" unicode="R" horiz-adv-x="1820" 
d="M922 1399q124 28 258 28q106 0 188 -14q83 -15 185 -50q50 32 91 48q26 11 33 11q4 0 6.5 -2.5t2.5 -5.5q0 -7 -16 -15q-47 -22 -84 -48q90 -45 139 -120t49 -166q0 -67 -28 -123.5t-88.5 -110.5t-136.5 -91t-184 -62q65 -24 111 -94.5t46 -153.5q0 -25 -5 -51
q-5 -27 -38 -160q-24 -97 -24 -142q0 -33 12 -47t31 -14q24 0 55 17q45 25 140 118t140 150q9 11 16 11q4 0 7 -2.5t3 -6.5q0 -7 -16 -24l-98 -108q-89 -90 -136 -129q-31 -26 -65 -40q-24 -9 -44 -9q-54 0 -102.5 57t-48.5 154q0 37 8 82q5 32 30.5 120t25.5 140
q0 63 -22.5 91.5t-52.5 28.5q-8 0 -25 -4q-24 -6 -38 -6q-36 0 -52 12q-12 7 -12 19t11 20q16 12 42 12q18 0 48.5 -10t42.5 -10q30 0 79 22q69 30 124.5 86t90 137t34.5 160q0 69 -26 126t-76 93q-92 -77 -168 -183q-77 -106 -172 -301q-116 -235 -191 -348
q-129 -194 -258 -304t-243 -154.5t-218 -44.5q-101 0 -173.5 43.5t-72.5 117.5q0 42 24.5 66.5t64.5 24.5q36 0 56.5 -20.5t20.5 -52.5q0 -17 -11.5 -41t-11.5 -40q0 -29 26.5 -49.5t95.5 -20.5q88 0 166 29.5t153.5 95.5t159.5 195.5t190 342.5q77 151 145 253t150 190
t234 217q-73 32 -164 49q-91 18 -172 18q-124 0 -243 -29q38 -46 58 -111q21 -66 21 -131q0 -123 -57 -246.5t-144.5 -210t-189 -133.5t-210.5 -47q-116 0 -170 62t-54 144q0 84 31 165q32 82 105 172q73 91 173 166q101 76 184 114t199 68q-43 32 -110 52q-68 21 -138 21
q-93 0 -188 -37q-96 -37 -183 -113q-88 -76 -145 -166q-29 -46 -77 -157q-6 -15 -14 -15q-4 0 -6.5 3t-2.5 7q0 15 37 96q53 114 148 207q95 94 206 145q111 52 231 52q88 0 170 -27q55 -18 107 -58zM908 1371q-169 -30 -348.5 -152t-259 -256.5t-79.5 -258.5
q0 -81 47.5 -128t128.5 -47q59 0 120.5 23t143.5 84q83 62 157 159t109.5 202.5t35.5 191.5q0 63 -16 110q-11 34 -39 72z" />
    <glyph glyph-name="S" unicode="S" horiz-adv-x="1593" 
d="M1702 1254q87 86 188 138q76 40 130 40q48 0 74.5 -26.5t26.5 -73.5q0 -73 -60 -175t-214.5 -203t-332.5 -146q-111 -261 -196 -395q-86 -135 -194.5 -225.5t-254 -145t-311.5 -54.5q-256 0 -397.5 121t-141.5 286q0 113 65.5 220t200 175t292.5 68q117 0 207.5 -38
t136.5 -109t46 -157q0 -135 -111.5 -235.5t-298.5 -100.5q-76 0 -143 14q-39 9 -94 32q-38 15 -42 20q-3 3 -3 7q0 3 2 5.5t6 2.5q6 0 18 -6q106 -56 242 -56q185 0 291.5 94.5t106.5 221.5q0 105 -72 165q-93 79 -256 79q-125 0 -232.5 -47t-179 -115.5t-103.5 -136
t-32 -142.5q0 -161 144 -254t339 -93q150 0 267 49t201 126.5t177 232.5q73 120 183 372q-61 -9 -123 -9q-189 0 -333 95t-144 265q0 139 118 244t324 105q166 0 301 -75q96 -54 182 -160zM1685 1240q-56 67 -109 108q-72 55 -164 88q-92 34 -192 34q-152 0 -273.5 -76.5
t-121.5 -219.5q0 -91 51 -158q75 -96 198 -142.5t238 -46.5q41 0 87 7q77 147 141 236.5t145 169.5zM1733 1210q31 -39 58 -92q16 -32 16 -37q0 -2 -1.5 -3.5t-4.5 -1.5q-5 0 -12 12q-43 73 -68 104q-88 -112 -192 -343q162 34 306 125.5t204.5 193.5t60.5 169
q0 34 -20.5 55t-55.5 21q-125 0 -291 -203z" />
    <glyph glyph-name="T" unicode="T" horiz-adv-x="1820" 
d="M842 987q0 -77 54 -127t150 -50q78 0 168 28q91 28 169 80q78 53 134 114q29 31 85 109l36 49q4 5 8 5q3 0 5 -2t2 -6q0 -15 -78 -135q-79 -120 -148 -181t-152 -91.5t-171 -30.5q-138 0 -212.5 66.5t-74.5 170.5q0 76 41 139q57 86 176.5 153.5t294.5 95.5
q175 29 510 29l244 -1q217 0 391 30q23 4 26 4t4 -1q2 -3 2 -5q0 -12 -21 -32q-49 -47 -130 -73.5t-209 -26.5q-66 0 -221 16q-325 32 -459 32q-308 0 -486 -133q-138 -104 -138 -226zM-21 393q0 116 71 223t199.5 172t286.5 65q184 0 284 -87t100 -213q0 -140 -111 -240.5
t-298 -100.5q-77 0 -143 14q-39 9 -94 32q-38 16 -43 20q-3 3 -3 7q0 3 2.5 5.5t6.5 2.5q6 0 17 -6q106 -56 243 -56q185 0 291 94.5t106 226.5q0 122 -94.5 181t-229.5 59q-132 0 -270.5 -65.5t-208 -169.5t-69.5 -213q0 -137 115 -230q152 -121 406 -121q150 0 290 44
t250 127.5t211 220.5q56 75 186 281t171 262q86 121 159 187q96 87 197 136q31 15 41 15q4 0 6.5 -2.5t2.5 -6.5q0 -6 -13 -12q-65 -32 -109 -74q-69 -67 -141 -178q-73 -112 -218 -370q-98 -173 -145 -233q-95 -121 -238 -220.5t-299 -148.5q-157 -50 -341 -50
q-255 0 -400 101q-174 119 -174 321z" />
    <glyph glyph-name="U" unicode="U" horiz-adv-x="1707" 
d="M2108 1410l-664 -1033q-91 -142 -118 -205.5t-27 -106.5q0 -22 9.5 -32t28.5 -10q22 0 48 11q38 15 95 58q58 43 114 101q73 77 100 111q7 9 13 9q4 0 6.5 -3t2.5 -7q0 -5 -5 -12q-7 -11 -62 -71q-56 -61 -103 -102q-75 -67 -127 -92q-53 -26 -87 -26t-54.5 25.5
t-20.5 90.5q0 67 18 136t65 172q-203 -238 -372 -350q-121 -79 -190 -79q-46 0 -74 32.5t-28 101.5q0 63 21 126q29 87 99 204q39 65 248 377q102 152 128 195q36 62 53.5 116t17.5 106q0 72 -50.5 116t-159.5 44q-50 0 -89 -10q80 -73 80 -200q0 -114 -48 -214
q-49 -100 -124 -174q-76 -74 -165 -117q-90 -44 -181 -44q-83 0 -135.5 52t-52.5 134q0 93 43 181t131 172q88 85 185 138q98 54 210 82q-77 38 -168 38q-129 0 -284.5 -92t-258.5 -264t-119 -359q-2 -19 -4 -22q-3 -4 -8 -4t-7.5 4t-2.5 14q0 86 37 194q38 109 106 214
t165 182q98 78 195 116q98 38 184 38q100 0 202 -51q49 11 106 11q137 0 205.5 -66.5t68.5 -192.5q0 -79 -22.5 -147.5t-100.5 -196.5t-264 -402q-113 -167 -147 -241q-35 -75 -35 -115q0 -26 12.5 -39.5t34.5 -13.5q42 0 114 38q129 67 270 208q170 168 343 436l384 592
l52 81q15 21 26 26q14 7 66 9zM913 1399q-102 -25 -170 -58q-123 -59 -224 -152t-139.5 -178.5t-38.5 -165.5q0 -73 39 -113t103 -40q73 0 158 44q85 45 162 124q77 80 130.5 189t53.5 198q0 47 -19 87t-55 65z" />
    <glyph glyph-name="V" unicode="V" horiz-adv-x="1593" 
d="M1259 1078q-41 -197 -100 -353q-60 -156 -168.5 -346.5t-236.5 -343.5q82 49 155 111q146 121 310 297q125 133 322 373q229 280 320 378q143 156 229 204q47 27 92 27q32 0 53.5 -21.5t21.5 -55.5q0 -31 -20 -52t-47 -21q-28 0 -62 29q-24 21 -44 21q-28 0 -61 -19
q-63 -37 -209 -198q-70 -77 -257 -305q-229 -280 -394 -447q-192 -195 -361 -320l-51 -39q-48 -38 -62 -38q-7 0 -12 5t-5 14q0 15 23 33q150 127 320 680q55 179 88 260q33 82 64 132q-69 9 -121.5 37t-89.5 74q-27 33 -56 96q-20 42 -32 57q-18 23 -45 36.5t-72 13.5
q-83 0 -201 -56q-86 -41 -160 -114q-75 -74 -116 -155t-41 -168q0 -96 45.5 -146t127.5 -50q58 0 111 26q77 37 142.5 109.5t117.5 180.5q32 66 55 158q5 21 7.5 24t6.5 3q5 0 7 -3q4 -4 4 -14q0 -43 -22 -125q-36 -131 -98 -226t-140.5 -138.5t-164.5 -43.5q-118 0 -181 85
q-47 64 -47 148q0 118 85 249t238.5 213t294.5 82q54 0 102 -21.5t76 -57.5t59.5 -114.5t54.5 -101t69 -29.5q112 182 198.5 249.5t149.5 67.5q34 0 55 -20.5t21 -53.5q0 -80 -101 -171.5t-247 -105.5zM1266 1107q81 4 161 48t118.5 101t38.5 102q0 25 -14.5 38.5
t-41.5 13.5q-35 0 -82.5 -30t-93.5 -97q-60 -89 -86 -176z" />
    <glyph glyph-name="W" unicode="W" horiz-adv-x="2048" 
d="M1039 1089q-52 0 -115 29t-103 75q-28 33 -60 103q-20 47 -31 61q-15 20 -41.5 33t-62.5 13q-86 0 -186 -45t-177 -119q-77 -75 -122 -161q-46 -87 -46 -166q0 -81 44 -143.5t135 -62.5q58 0 120.5 29.5t121.5 87.5q59 59 98 129q40 70 77 200q8 29 12 34q4 4 9 4
q4 0 6.5 -2.5t2.5 -7.5q0 -10 -14 -76q-22 -104 -62 -186q-41 -82 -97 -140q-57 -59 -119 -87t-131 -28q-100 0 -163.5 66.5t-63.5 174.5q0 110 83 237t236.5 211t274.5 84q65 0 120.5 -25t91.5 -70q28 -35 51 -104t41 -89q29 -31 84 -32q66 115 125 184.5t115 100.5t99 31
q38 0 60 -21t22 -52q0 -40 -28 -89.5t-87 -94.5t-121 -68q-42 -15 -116 -22l-81 -309q-37 -114 -95 -233q-74 -152 -180 -317q-64 -100 -145 -197q27 9 46 22q45 30 115 99q46 46 202 231q105 124 203 251q140 182 200 253q97 116 248 284l113 126q23 26 62 72q40 47 53 57
q11 8 20 8q8 0 13.5 -5t5.5 -12q0 -6 -6 -16t-36 -47q-81 -99 -109 -150q-21 -38 -75 -199q-67 -198 -113 -303t-141 -277t-166 -277q-41 -60 -90 -113q56 28 100 62q60 44 172 155q150 149 265 281q55 64 175 218q237 303 346 423q149 166 234 214q56 32 109 32
q37 0 57.5 -19t20.5 -48q0 -33 -20 -54.5t-48 -21.5q-27 0 -60 28q-22 19 -30 23q-12 6 -23 6q-22 0 -54 -19q-57 -36 -186 -180q-130 -145 -328 -400q-156 -200 -223 -272q-209 -224 -349 -346t-186 -144q-10 -4 -17 -4t-12 5t-5 13t17 34q75 108 120 202q61 127 137 337
q61 170 118 295q58 125 96 182q59 88 110 150q5 6 5 8q0 1 -1 2t-2 1q-6 0 -61 -55q-186 -189 -380 -447q-140 -184 -254 -319q-184 -217 -294 -312q-111 -95 -144 -111q-6 -3 -11 -3q-8 0 -12.5 5.5t-4.5 14.5q0 13 19 32q65 65 132 197q85 168 153 399q49 168 66 217
q28 82 57.5 146t68.5 129zM1128 1110q94 5 169 47q75 43 112 99.5t37 100.5q0 28 -14.5 42.5t-41.5 14.5q-37 0 -79 -30q-54 -40 -107.5 -124.5t-75.5 -149.5z" />
    <glyph glyph-name="X" unicode="X" horiz-adv-x="1479" 
d="M1229 733l-76 -142q-84 -160 -118 -268t-34 -189q0 -60 27 -92q19 -23 61 -23q57 0 128 45q108 69 251 240q7 9 12 9t8 -3t3 -8q0 -3 -2 -7q-20 -28 -98 -109t-131 -121t-100 -57q-34 -13 -73 -13q-74 0 -108 64t-34 198q0 36 4 77q-188 -176 -376 -267
q-154 -74 -265 -74q-94 0 -141.5 42.5t-47.5 112.5q0 57 31 107q56 94 194 185q139 91 360 168q102 35 385 112q77 144 108 211q40 90 55 150t15 118q0 111 -50 163.5t-145 52.5q-50 0 -95 -14q74 -73 74 -183q0 -127 -71.5 -253.5t-194 -199.5t-231.5 -73q-68 0 -109 41.5
t-41 111.5q0 77 45 173.5t133 181.5q89 85 188 141q59 32 158 69q-63 38 -160 38q-112 0 -227 -54.5t-214 -162.5t-163 -256q-43 -98 -64 -220q-2 -14 -4 -16.5t-7 -2.5q-4 0 -6 2.5t-2 11.5q0 55 36 162q36 108 104 214q68 107 160 185q92 79 192.5 117.5t193.5 38.5
q115 0 189 -50q58 17 110 17q123 0 194 -79.5t71 -232.5q0 -26 -3 -77q180 193 376 303q150 84 253 84q59 0 92.5 -33.5t33.5 -94.5q0 -46 -19 -89q-25 -59 -80 -118q-55 -60 -118 -101q-106 -69 -318 -154q-165 -67 -319 -109zM1243 763q216 60 408 146q160 72 230 132
q71 61 108 134.5t37 147.5q0 42 -20.5 63.5t-57.5 21.5q-53 0 -135 -42q-138 -72 -308 -254q-141 -152 -262 -349zM949 1396q-137 -48 -238 -121q-147 -106 -225 -236q-59 -96 -59 -189q0 -60 29 -90t83 -30q52 0 112 25q60 26 132 86q73 60 129 137q57 77 81 141
q25 64 25 125q0 53 -16.5 88t-52.5 64zM1072 692q-364 -97 -536 -178q-94 -45 -180 -110q-87 -66 -124 -130.5t-37 -130.5q0 -62 32 -94.5t90 -32.5q60 0 148 37.5t206 136t231 244.5q63 81 170 258z" />
    <glyph glyph-name="Y" unicode="Y" horiz-adv-x="1820" 
d="M1647 735q-113 -130 -194 -200q-122 -106 -227 -157q-72 -35 -123 -35q-47 0 -70 30q-31 38 -31 119q0 51 17.5 110.5t55.5 130.5q23 42 82 126q136 194 167 264q32 71 32 129q0 64 -57 112.5t-157 48.5q-137 0 -268 -59q-132 -59 -231 -143q-99 -85 -146 -175
q-29 -54 -29 -120q0 -70 40 -109t114 -39q105 0 208.5 56.5t195 187t117.5 283.5q1 8 4 11t8 3t8.5 -5t3.5 -17q0 -56 -29 -156q-30 -100 -74 -173q-44 -74 -97 -120q-54 -46 -135 -78t-167 -32q-103 0 -161.5 52.5t-58.5 133.5q0 104 78 204q103 132 272.5 223t343.5 91
q131 0 200 -68.5t69 -201.5q0 -83 -31 -161q-32 -79 -153 -260q-121 -182 -147 -237q-27 -56 -27 -82q0 -23 17 -39t47 -16q32 0 73 17q83 35 185 114t208 197q66 74 163 208q121 164 201 252q81 88 167 149q86 62 206 117q33 16 42 16q6 0 9.5 -4.5t3.5 -12.5q0 -5 -3 -8
q-3 -4 -28 -13q-119 -45 -202 -110t-144 -152q-45 -65 -149 -266q-203 -396 -316 -586q-114 -191 -256 -315q-142 -125 -338 -195.5t-392 -70.5q-272 0 -420 125t-148 290q0 112 71.5 221t206.5 178.5t280 69.5q180 0 299 -100q91 -78 91 -197q0 -140 -117 -245t-304 -105
q-71 0 -138 18q-32 9 -32 18q0 4 2.5 6.5t7.5 2.5q2 0 7 -2q65 -22 149 -22q178 0 287.5 96.5t109.5 223.5q0 105 -70 164q-92 76 -257 76q-227 0 -384 -140.5t-157 -301.5q0 -170 146.5 -262.5t358.5 -92.5q171 0 331.5 59.5t282.5 172t281 374.5q100 165 219 404z" />
    <glyph glyph-name="Z" unicode="Z" horiz-adv-x="1593" 
d="M1379 1113q173 186 308 267q96 56 190 56q61 0 90 -25t29 -66q0 -56 -45 -109q-62 -76 -189.5 -130t-276.5 -54q-47 0 -94 7l-497 -576q67 -23 111 -56t70.5 -72t49.5 -102q6 -17 37 -133q16 -57 31 -72t35 -15q22 0 48 10q33 13 76 43q32 22 87 74q91 86 139 140
q12 15 17 15q4 0 7 -3t3 -7q0 -5 -4 -11q-9 -13 -84 -88q-76 -76 -113 -107q-59 -50 -119 -77t-104 -27q-45 0 -82.5 29t-63.5 88q-16 35 -33.5 119t-31.5 116.5t-35.5 53t-73.5 43.5q-124 -140 -253 -250q-130 -110 -236 -159q-106 -50 -178 -50q-77 0 -118 37.5t-41 93.5
q0 54 41 119t131.5 132.5t210.5 106.5q121 40 260 40q103 0 175 -19l493 577q-85 33 -144 91q-44 44 -81 128q-22 52 -36 71q-19 26 -47.5 40.5t-73.5 14.5q-119 0 -261 -78t-219 -198.5t-77 -232.5q0 -54 20 -99t58 -67t92 -22q121 0 239 116q154 152 197 369q2 9 4 11.5
t5 2.5t5 -4q3 -5 3 -21q0 -45 -27 -143q-28 -98 -69 -168q-42 -71 -86 -111q-44 -41 -106 -67.5t-132 -26.5t-122 28t-78 81.5t-26 116.5q0 121 84.5 249.5t236.5 211.5t293 83q69 0 124 -24.5t96 -71.5q31 -36 66 -106t54.5 -95t40.5 -38zM1418 1093q44 -15 96 -15
q123 0 239.5 47.5t177.5 120.5q44 52 44 99q0 31 -23 52t-65 21q-83 0 -184 -62.5t-285 -262.5zM823 459q-76 27 -178 27q-106 0 -209 -30q-104 -31 -195 -90q-92 -60 -146 -141q-37 -57 -37 -106q0 -48 36 -81t98 -33q56 0 119 27q121 50 235 144q115 94 277 283z" />
    <glyph glyph-name="bracketleft" unicode="[" horiz-adv-x="1024" 
d="M482 -356l-12 -42l-505 -5l932 1870l502 -5l-19 -47l-414 5l-885 -1781z" />
    <glyph glyph-name="backslash" unicode="\" horiz-adv-x="569" 
d="M29 1147l559 -1147h-43l-559 1147h43z" />
    <glyph glyph-name="bracketright" unicode="]" horiz-adv-x="1024" 
d="M694 1419l12 43l505 5l-932 -1870l-502 5l19 47l414 -5l884 1780z" />
    <glyph glyph-name="asciicircum" unicode="^" horiz-adv-x="819" 
d="M402 558h-61l205 409h51l208 -409h-63l-169 336z" />
    <glyph glyph-name="underscore" unicode="_" horiz-adv-x="1024" 
d="M0 -256v102h1024v-102h-1024z" />
    <glyph glyph-name="grave" unicode="`" 
d="M141 1001q27 0 42 -20q11 -15 29 -82.5t47 -109t92 -90.5q21 -16 21 -23q0 -3 -2.5 -5.5t-6.5 -2.5q-17 0 -85 52q-94 72 -146 145q-40 57 -40 89q0 22 13 34.5t36 12.5z" />
    <glyph glyph-name="a" unicode="a" horiz-adv-x="797" 
d="M512 408l62 104q18 31 29 37q8 5 39 8q52 4 84 3q-61 -84 -159 -239q-98 -156 -127 -229q-10 -25 -10 -40q0 -13 7.5 -20.5t21.5 -7.5q30 0 69 20q54 28 119 98q65 71 129 152q7 9 14 9q4 0 7 -3t3 -8q0 -6 -20 -29l-95 -110q-55 -62 -98 -96q-43 -35 -85 -52
q-27 -10 -48 -10q-34 0 -59 32t-25 103q0 20 3 50q-109 -118 -187 -162q-40 -23 -77 -23q-48 0 -83 44.5t-35 143.5q0 43 8 82q1 7 1 11l1 4v1h-1q-2 0 -3 -1q-4 -3 -8 -3q-5 0 -7.5 2.5t-2.5 6.5q0 5 3 9q18 27 77 87q43 43 92 79q74 56 144 82t128 26q49 0 73 -24.5
t24 -74.5q0 -31 -8 -62zM493 469q0 40 -17 58t-51 18q-63 0 -129 -55q-88 -74 -156.5 -195.5t-68.5 -204.5q0 -33 13.5 -48.5t36.5 -15.5q47 0 115 56q121 97 189 209t68 178z" />
    <glyph glyph-name="b" unicode="b" horiz-adv-x="683" 
d="M605 1209l130 19l-481 -806q-127 -212 -156 -280q-20 -45 -20 -75q0 -25 12 -36.5t38 -11.5q42 0 98.5 24t106.5 70q51 47 83 103q33 57 49 128q8 39 13 122q3 56 11 69q14 25 45 25q23 0 37.5 -17.5t14.5 -54.5q0 -55 -34.5 -137t-94.5 -156l-20 -24q-1 -1 -1 -3
q0 -1 1 -2q2 -1 8 -1q42 0 100 29t117 100q7 8 13 8q5 0 8 -2.5t3 -7.5q0 -7 -27 -36q-54 -59 -112.5 -86t-106.5 -27q-7 0 -26 2q-61 -54 -85 -71q-61 -41 -112 -60t-92 -19q-49 0 -82.5 37t-33.5 100q0 52 30.5 120t131.5 201q34 44 34 50q0 2 -1 3t-2 1q-4 0 -27 -27
l-182 -206q-10 -13 -17 -13q-5 0 -7.5 2.5t-2.5 7.5t5 12q7 9 85 95q79 87 127 150q49 64 102 146q80 126 125 203z" />
    <glyph glyph-name="c" unicode="c" horiz-adv-x="569" 
d="M402 569q65 0 96 -28t31 -73q0 -39 -21.5 -62.5t-52.5 -23.5q-25 0 -39.5 14t-14.5 37q0 16 7.5 25.5t25.5 17t23.5 14t5.5 17.5q0 18 -12 29t-35 11q-30 0 -61 -15q-56 -27 -112.5 -84.5t-93.5 -127.5q-29 -54 -42 -112.5t-13 -100.5t20 -63t57 -21q51 0 107 27t136 102
q80 76 135 143q7 9 14 9q4 0 8 -3q2 -2 2 -6q0 -7 -12 -22q-82 -97 -156 -161q-75 -65 -129 -91q-55 -26 -116 -26q-66 0 -112.5 56.5t-46.5 168.5q0 18 2 43l2 19q0 1 -0.5 1.5t-1.5 0.5q-2 0 -4 -2q-6 -5 -10 -5t-6.5 3t-2.5 8q0 7 11 20q78 96 125 138q63 55 134.5 89
t151.5 34z" />
    <glyph glyph-name="d" unicode="d" horiz-adv-x="796" 
d="M964 1228l120 4l-564 -981q-83 -145 -83 -190q0 -17 7.5 -26t20.5 -9q91 0 306 263q11 14 18 14q4 0 7 -3t3 -7q0 -6 -8 -16q-82 -99 -145 -163q-64 -65 -107 -92q-44 -27 -82 -27q-37 0 -60.5 28t-23.5 87q0 39 17 92q-35 -48 -93 -103q-59 -56 -105 -80t-81 -24
q-47 0 -78 40q-41 54 -41 153q0 20 4 62l5 34v1h-1q-1 -1 -3 -2q-6 -6 -11 -6q-4 0 -6.5 2.5t-2.5 6.5q0 5 8 15q83 99 153 157t141 91t138 33q49 0 76 -25.5t27 -71.5q0 -28 -7 -51zM75 84q0 -30 13 -44t35 -14q57 0 124 57q107 89 177.5 201t70.5 199q0 39 -15.5 56.5
t-44.5 17.5q-55 0 -119 -49q-98 -74 -169.5 -201.5t-71.5 -222.5z" />
    <glyph glyph-name="e" unicode="e" horiz-adv-x="569" 
d="M91 202q-10 -52 -10 -86q0 -48 21.5 -71t60.5 -23q76 0 162 56q87 56 218 209q14 17 19 17t8 -2.5t3 -7.5q0 -6 -7 -14q-100 -118 -163 -174q-64 -56 -128 -83.5t-114 -27.5q-70 0 -120 57t-50 157q0 28 7 64v7q-1 0 -2 -1q-4 -3 -7 -3q-4 0 -7 3t-3 9q0 5 3 8
q13 19 74 80t122.5 104.5t120.5 66t102 22.5q54 0 83 -26.5t29 -67.5q0 -50 -38 -94q-51 -60 -165 -109q-114 -50 -219 -70zM98 225q175 35 264 120.5t89 158.5q0 21 -10 31t-31 10q-34 0 -69 -21q-86 -53 -159 -148q-52 -67 -84 -151z" />
    <glyph glyph-name="f" unicode="f" 
d="M-228 -543l-125 -16l318 580q-27 24 -27 56q0 31 16.5 48t43.5 17q17 0 26 -7l213 381q-119 -97 -231 -227q-12 -13 -18 -13q-5 0 -9 3q-2 2 -2 7q0 2 1 4q3 6 35 41q70 76 133 138q36 35 113 99q165 288 246 407q81 120 168 207q62 63 110 85q49 23 91 23q37 0 58 -22
t21 -61q0 -54 -28 -116t-113 -153q-86 -91 -215 -189q-98 -76 -240 -160l-276 -549q41 0 130 44q89 45 211 194q21 26 27 26q5 0 8 -3t3 -7q0 -13 -98 -118q-132 -143 -298 -169zM373 631q181 115 291 210q155 136 212 239q42 76 42 136q0 29 -13.5 43t-35.5 14
q-79 0 -177 -112q-158 -182 -319 -530z" />
    <glyph glyph-name="g" unicode="g" horiz-adv-x="796" 
d="M623 550l133 12l-340 -572q177 99 361 305q8 9 14 9q4 0 7 -3t3 -7t-2 -8q-7 -12 -76 -82q-70 -70 -151 -134t-170 -112q-123 -221 -194 -316q-125 -170 -224 -235q-73 -47 -130 -47q-42 0 -69 28t-27 80q0 54 33 106q57 93 187 187q101 73 328 194l140 292
q-88 -122 -172 -182t-149 -60q-53 0 -85.5 39t-32.5 122q0 40 9 101q3 17 3 19q0 3 -2 5t-5 2q-4 0 -9 -6q-7 -8 -12 -8t-7.5 3t-2.5 7q0 5 3 10q23 34 101.5 103t159.5 114q47 25 97 39q51 14 98 14q52 0 78 -25.5t26 -74.5q0 -34 -11 -73q33 46 90 154zM78 84
q0 -26 13.5 -39.5t42.5 -13.5q61 0 132 55q101 78 177 195t76 198q0 32 -16.5 49t-48.5 17q-56 0 -133 -57q-102 -75 -172.5 -202t-70.5 -202zM291 -76q-186 -107 -267 -168q-117 -88 -173 -178q-39 -63 -39 -127q0 -36 14 -51.5t41 -15.5q32 0 75 23t92 79q74 84 165 244
q56 98 92 194z" />
    <glyph glyph-name="h" unicode="h" horiz-adv-x="796" 
d="M17 2h-126l346 557q-20 -28 -31 -42q-12 -15 -41 -49l-63 -72l-83 -92l-27 -31q-10 -12 -17 -12q-4 0 -6.5 2.5t-2.5 7.5q0 9 18 28q127 136 218 251t196 285q85 136 213 374l126 12l-592 -996q-6 -9 -52 -76q168 188 220 237q106 102 177 140q45 24 76 24
q27 0 48.5 -25.5t21.5 -70.5q0 -26 -10 -55t-33 -64l-72 -102l-66 -95q-22 -34 -32 -61q-6 -18 -6 -32q0 -17 8 -25t22 -8q20 0 49 16q58 32 138 112t141 153q9 10 15 10q5 0 7.5 -2.5t2.5 -7.5q0 -7 -8 -15q-5 -6 -16 -19q-149 -173 -237 -231q-60 -40 -103 -40
q-37 0 -61 28t-24 81q0 43 15 85.5t47 90.5q23 35 82 103.5t76 98.5q10 16 10 29q0 11 -6 17t-19 6q-22 0 -69 -29q-98 -58 -248 -219q-94 -101 -222 -277z" />
    <glyph glyph-name="i" unicode="i" 
d="M446 811q-21 0 -35.5 14.5t-14.5 36.5q0 34 21 56.5t51 22.5q22 0 34.5 -13.5t12.5 -38.5q0 -33 -21 -55.5t-48 -22.5zM212 545l128 7l-254 -408q-30 -48 -30 -85q0 -21 11 -32t28 -11q27 0 66 21q61 34 140 111t135 148q6 8 13 8q5 0 7.5 -3t2.5 -7t-2 -9q-2 -2 -56 -64
q-54 -63 -122 -123q-69 -61 -121 -86q-40 -19 -70 -19q-39 0 -64.5 29t-25.5 88q0 55 25 111q37 82 165 265q-49 -49 -165 -178q-25 -27 -27 -28q-4 -3 -8 -3q-5 0 -7.5 2.5t-2.5 7.5q0 6 7 14z" />
    <glyph glyph-name="j" unicode="j" 
d="M459 811q-21 0 -35 14.5t-14 36.5q0 34 21 56.5t51 22.5q22 0 34.5 -13.5t12.5 -38.5q0 -33 -21 -55.5t-49 -22.5zM252 550l130 9l-326 -581q44 22 70 39q52 35 114 86q42 34 90 82q69 68 103 107q10 12 16 12q5 0 8 -3t3 -8q0 -4 -2 -7q-8 -13 -90 -95
q-82 -83 -155 -140q-74 -58 -175 -109q-129 -218 -169 -279q-90 -137 -162 -207q-55 -53 -112 -77q-42 -19 -84 -19q-46 0 -71 24.5t-25 71.5q0 53 32 104q44 72 187 181q144 110 312 202q45 79 96 189q94 204 193 378q-94 -68 -233 -226q-6 -7 -12 -7q-5 0 -7.5 3t-2.5 8
q0 7 11 19q4 4 23 25q43 50 133 135q46 44 105 83zM-66 -88q-182 -108 -278 -189q-97 -81 -149 -172q-38 -67 -38 -114q0 -24 15 -38.5t43 -14.5q49 0 91 30q78 56 157 183q58 93 159 315z" />
    <glyph glyph-name="k" unicode="k" horiz-adv-x="796" 
d="M621 1216l128 12l-719 -1219l-137 -7l344 557q-74 -98 -230 -269q-26 -29 -32 -29q-4 0 -6.5 2.5t-2.5 7.5t4 11q5 8 49 55q135 147 235 280q58 76 118 177zM367 325q42 -10 74.5 -49t32.5 -76q0 -17 -5 -37q-2 -7 -22 -68q-13 -40 -13 -51q0 -14 7 -21.5t18 -7.5
q18 0 47 17q50 27 140 117q39 39 123 138q15 17 20 17t8 -3t3 -8q0 -6 -6 -14q-73 -86 -148 -160q-75 -75 -124 -103q-36 -21 -70 -21q-43 0 -75 46t-32 106q0 21 5 39.5t23 56.5q13 28 13 41q0 11 -10 20t-28 9q-12 0 -35.5 -13t-42.5 -13q-14 0 -21.5 7t-7.5 17
q0 13 12 22q16 10 61 10h16q11 -1 16 -1q23 0 76 33q54 33 103 95q49 63 78 81t64 18q37 0 57 -17.5t20 -43.5q0 -25 -16 -40.5t-42 -15.5q-24 0 -39 16t-15 53q-22 -1 -40 -14t-38 -44q-36 -57 -76.5 -87.5t-110.5 -50.5z" />
    <glyph glyph-name="l" unicode="l" 
d="M631 1209l135 14q-102 -150 -329 -512q-228 -363 -320 -525q-40 -69 -50 -102q-5 -19 -5 -36q0 -18 7 -26t19 -8q29 0 67 21q60 32 137 105q78 74 129 138q22 26 29 26q4 0 6.5 -3t2.5 -7q0 -16 -105 -123q-175 -178 -267 -178q-37 0 -61.5 27.5t-24.5 79.5q0 50 23 106
q24 56 130 221l85 135q-39 -56 -107 -132l-150 -167q-3 -2 -7 -2t-6.5 3t-2.5 7q0 8 42 54q140 152 234 275q49 62 167 245q119 183 222 364z" />
    <glyph glyph-name="m" unicode="m" horiz-adv-x="1251" 
d="M156 21l-132 -14l277 429q35 54 35 79q0 15 -7.5 22.5t-20.5 7.5q-19 0 -38 -7q-31 -12 -69 -43q-39 -31 -94 -90l-92 -105q-17 -20 -20 -22q-4 -3 -9 -3q-4 0 -6.5 2.5t-2.5 6.5q0 5 4 11q2 2 65 75q64 73 105 112q59 55 93 71q35 16 68 16q37 0 57 -19.5t20 -54.5
q0 -41 -21 -98q-22 -58 -95 -186l199 227q80 86 126 112q32 19 64 19q29 0 48.5 -22t19.5 -65q0 -42 -17 -93q-18 -51 -85 -173q214 249 290 308q59 45 100 45q35 0 57 -25t22 -77q0 -40 -15.5 -74.5t-91 -141.5t-90 -137.5t-14.5 -55.5q0 -13 9 -21.5t22 -8.5q40 0 103 49
q99 78 208 214q9 12 17 12q4 0 7 -2.5t3 -7.5q0 -14 -96 -115q-168 -181 -249 -181q-34 0 -53 27q-30 38 -30 107q0 55 25 108t125 177q66 82 66 107q0 12 -6.5 18.5t-19.5 6.5q-44 0 -127 -79q-163 -156 -378 -448l-130 -14l139 223q96 153 128 219q24 51 24 70q0 12 -7 19
t-18 7q-32 0 -75 -39q-128 -114 -417 -485z" />
    <glyph glyph-name="n" unicode="n" horiz-adv-x="909" 
d="M9 7l268 391q59 87 59 117q0 14 -8 22t-20 8q-41 0 -93 -38q-77 -57 -210 -218q-12 -15 -19 -15q-5 0 -7.5 3t-2.5 7q0 6 8 15q87 103 141 158t100 83q46 29 88 29q33 0 54 -24.5t21 -73.5q0 -41 -23 -96q-24 -55 -105 -169l240 246q79 79 122 102q30 16 58 16
q34 0 56 -25.5t22 -73.5q0 -29 -9 -57t-27 -59q-10 -17 -60 -86q-82 -114 -107 -162q-11 -22 -11 -39q0 -20 9.5 -30t23.5 -10q23 0 51 16q51 28 128 104q77 77 132 143q10 13 16 13q5 0 8 -3t3 -7q0 -6 -8 -15q-69 -83 -147 -157q-79 -75 -131 -107q-27 -16 -56 -16
q-34 0 -58 29q-32 39 -32 97t22 105q23 48 140 199q44 56 51.5 69.5t7.5 23.5q0 9 -6.5 15t-18.5 6q-18 0 -39 -9q-31 -14 -82 -62q-125 -117 -236 -238q-62 -68 -175 -213z" />
    <glyph glyph-name="o" unicode="o" horiz-adv-x="682" 
d="M404 145q-84 -86 -143 -118t-115 -32q-60 0 -95.5 44.5t-35.5 156.5q0 34 5 70q4 26 4 29q0 2 -1 3t-2 1q-4 0 -10 -6q-20 -23 -29 -23q-5 0 -7.5 2.5t-2.5 6.5q0 6 8 15q74 86 148.5 145.5t149.5 94.5t136 35q63 0 97.5 -36t34.5 -104q0 -128 -122 -259q11 -2 22 -2
q58 0 107 27q49 28 110 100q7 9 13 9q5 0 7.5 -3t2.5 -7q0 -8 -31 -43q-60 -64 -116 -86.5t-135 -19.5zM501 454q0 47 -20.5 69.5t-57.5 22.5q-52 0 -112 -51q-97 -81 -156.5 -197t-59.5 -213q0 -34 15.5 -50t44.5 -16q59 0 129 50q94 68 155.5 177.5t61.5 207.5z" />
    <glyph glyph-name="p" unicode="p" horiz-adv-x="796" 
d="M453 908l104 16l-451 -760q168 192 223 245q91 88 162 126q37 20 68 20q32 0 54 -24.5t22 -70.5q0 -38 -13 -71q-14 -34 -75 -118q-90 -127 -108 -162t-18 -62q0 -16 7.5 -24.5t19.5 -8.5q16 0 33 7q34 14 84 54t100 95q80 86 105 118q13 15 19 15q5 0 8 -2.5t3 -7.5
t-9 -16q-90 -104 -137 -152q-84 -83 -143 -115q-32 -17 -62 -17q-37 0 -58 26q-29 36 -29 100q0 51 23 100.5t96.5 141.5t90.5 121q8 13 8 26q0 12 -7 18.5t-21 6.5q-22 0 -52 -16q-83 -46 -212 -180q-129 -135 -263 -335q-135 -200 -322 -538l-137 -9l728 1187
q-15 -19 -174 -216q-115 -142 -127 -150q-3 -3 -7 -3q-5 0 -7.5 3t-2.5 7q0 5 3 9q3 5 35 43q158 184 244 296q86 113 195 277z" />
    <glyph glyph-name="q" unicode="q" horiz-adv-x="796" 
d="M628 552l111 5l-554 -941q181 220 336 389q75 83 165 186l93 107q5 7 11 7q5 0 8 -3t3 -7q0 -6 -10 -17l-170 -198l-292 -328l-124 -145q-35 -46 -106 -152l-130 -14l484 801q-89 -117 -196 -192q-74 -52 -130 -52q-50 0 -85 43t-35 134q0 34 11 106q1 8 1 10q0 1 -1 2
t-3 1q-4 0 -10 -6q-10 -11 -18 -11q-4 0 -6.5 2.5t-2.5 7.5q0 7 47 56q112 116 224.5 171t194.5 55q51 0 76 -24.5t25 -73.5q0 -25 -12 -75zM521 480q0 31 -17.5 48t-51.5 17q-59 0 -131 -53q-103 -74 -169.5 -195t-66.5 -210q0 -34 12.5 -48.5t33.5 -14.5q60 0 143 67
q109 87 187 212q60 96 60 177z" />
    <glyph glyph-name="r" unicode="r" horiz-adv-x="683" 
d="M147 14l-131 -14l244 377q52 79 64 107q8 18 8 32t-7.5 21.5t-21.5 7.5q-38 0 -101 -48t-192 -202q-17 -21 -24 -21q-4 0 -6.5 3t-2.5 8t4 10q25 33 108 123q83 91 131 122q49 31 85 31q32 0 55 -26.5t23 -70.5q0 -86 -95 -231l-37 -58l96 99l109 105q8 7 12 13
q7 12 18 38q30 75 64.5 102t74.5 27q26 0 39 -10q9 -7 9 -21q0 -18 -15 -35q-26 -31 -94.5 -81t-93.5 -88t-25 -81q0 -31 19.5 -49.5t52.5 -18.5q31 0 58 18t83 87q10 13 16 13t9 -3q2 -2 2 -7t-5 -12q-27 -37 -62 -71q-22 -22 -48 -34.5t-56 -12.5q-46 0 -70.5 23.5
t-24.5 63.5q0 51 40 113q-76 -69 -121 -118q-90 -99 -191 -231z" />
    <glyph glyph-name="s" unicode="s" 
d="M244 557q-27 -23 -64 -64q-38 -41 -144 -169l-38 -43q-5 -5 -10 -5t-8 3t-3 7q0 7 12 20q13 14 88 102q75 89 111 126q27 28 60 56q29 62 66 62q15 0 24.5 -9t9.5 -24t-12 -28t-69 -36q-6 -36 -6 -67q0 -71 20 -148t20 -111q0 -36 -12.5 -63.5t-44.5 -61.5q74 45 176 171
q23 28 28 28t7.5 -2.5t2.5 -7.5q0 -6 -11 -20q-93 -112 -161 -170q-69 -58 -131.5 -83t-114.5 -25q-50 0 -82 30t-32 70q0 24 14.5 39t38.5 15q20 0 31 -9.5t11 -24.5q0 -12 -10 -24q-19 -22 -19 -41q0 -15 9.5 -24t25.5 -9q30 0 60.5 22t71 85.5t60.5 136.5q15 53 15 132
q1 115 10 164z" />
    <glyph glyph-name="t" unicode="t" 
d="M467 950l126 8l-133 -204h234q9 0 12 -3t3 -8q0 -6 -4 -9.5t-13 -3.5h-246l-207 -325q-126 -198 -163 -278q-24 -51 -24 -74q0 -18 10.5 -28.5t27.5 -10.5q26 0 66 21q54 29 140 114q87 86 140 147q7 9 12 9t8 -3t3 -7q0 -7 -5 -12q-30 -37 -130 -136
q-100 -100 -148 -127q-49 -27 -94 -27q-37 0 -61 28.5t-24 86.5q0 54 26 116q51 122 181 295q-54 -57 -199 -231q-22 -26 -30 -26q-4 0 -6.5 2t-2.5 7t5 11q13 18 214 256q67 79 90 109t59 83h-66q-9 0 -12 2.5t-3 7.5q0 7 4 10.5t13 3.5h76z" />
    <glyph glyph-name="u" unicode="u" horiz-adv-x="797" 
d="M250 564l113 5l-251 -394q-45 -70 -45 -114q0 -17 10 -28.5t24 -11.5q21 0 46 12q49 24 133 101q84 78 149 166q103 140 181 259l130 10l-193 -286q-78 -115 -101 -165q-14 -33 -14 -59q0 -16 8 -25t22 -9q39 0 100 47q96 75 191 194q25 31 29 35q4 3 9 3q4 0 6.5 -2.5
t2.5 -6.5q0 -15 -107 -130q-158 -168 -238 -168q-35 0 -56 27q-28 35 -28 102q0 36 14 87q-128 -137 -202 -186q-47 -32 -89 -32q-35 0 -57 27q-29 37 -29 99q0 41 13 81q14 40 54 102q17 26 141 198q-50 -36 -189 -190l-29 -31q-3 -3 -8 -3q-4 0 -7 3t-3 7q0 6 24 32
q119 129 246 244z" />
    <glyph glyph-name="v" unicode="v" horiz-adv-x="796" 
d="M521 140q-168 -145 -268 -145q-49 0 -82.5 37t-33.5 104q0 52 21.5 100.5t101 151t79.5 134.5q0 12 -7 18.5t-18 6.5q-36 0 -85 -34q-68 -47 -185 -181l-48 -54q-4 -4 -9 -4q-4 0 -7 3t-3 7q0 6 7 15q52 63 142 155q66 66 108 90q43 25 81 25q35 0 54 -22q24 -29 24 -82
q0 -46 -19 -90q-20 -45 -117 -178q-35 -48 -44.5 -71.5t-9.5 -47.5q0 -27 13.5 -41t38.5 -14q51 0 126.5 43t133 112.5t85.5 146.5q18 53 26 146q5 56 21 74.5t41 18.5q21 0 34 -13t13 -37q0 -58 -50.5 -156t-144.5 -194q44 0 105 26q62 27 132 106q7 8 13 8q5 0 7.5 -3
t2.5 -7q0 -15 -76 -81q-77 -66 -203 -73z" />
    <glyph glyph-name="w" unicode="w" horiz-adv-x="1024" 
d="M585 547l135 15q-74 -103 -164 -253q-90 -151 -105 -190q-11 -29 -11 -52t12 -35.5t34 -12.5q37 0 85 20t117 77q48 41 89 99q41 59 59 109t25.5 126.5t17.5 95.5q14 25 45 25q23 0 35.5 -12.5t12.5 -35.5q0 -59 -50.5 -160.5t-149.5 -198.5q26 0 73 14q48 15 81 39
q34 24 73 72q14 16 21 16q4 0 7 -2.5t3 -7.5q0 -11 -52 -63q-81 -80 -225 -92q-78 -73 -149 -109q-72 -36 -123 -36q-50 0 -81 35t-31 104q0 30 10 75q-84 -103 -175 -170q-61 -44 -103 -44q-45 0 -73.5 30t-28.5 90q0 57 29 116q45 91 180 264q-28 -22 -60 -54t-121 -129
q-25 -29 -28 -31q-5 -3 -9 -3t-7 3t-3 7q0 7 13 21l98 105q66 69 100 101q17 17 48 40l116 7l-118 -178q-86 -128 -109 -167q-51 -86 -62 -118q-7 -19 -7 -35q0 -17 12 -28.5t29 -11.5q32 0 79 31q115 76 207 191q93 115 199 301z" />
    <glyph glyph-name="x" unicode="x" horiz-adv-x="683" 
d="M391 348q60 101 143 171q60 50 116 50q36 0 56 -18t20 -45q0 -24 -12.5 -37.5t-33.5 -13.5t-33 11t-17 38q-2 13 -6.5 17.5t-15.5 4.5q-27 0 -55 -21q-54 -39 -116 -129q-63 -91 -90 -179t-27 -137q0 -20 7 -28.5t18 -8.5q20 0 50 15q40 20 100 78q79 75 145 152
q26 30 28 32q3 3 9 3q4 0 6.5 -2.5t2.5 -7.5q0 -6 -6 -13q-2 -2 -6 -7q-8 -9 -75 -84q-67 -76 -141 -138q-40 -33 -70 -44q-30 -12 -53 -12q-37 0 -61 32q-37 47 -37 117q0 26 10 77q-90 -130 -169 -184q-60 -42 -107 -42q-40 0 -63.5 21.5t-23.5 51.5q0 25 15 40t39 15
q25 0 38 -13t13 -42q0 -20 4.5 -26.5t13.5 -6.5q25 0 72 33q71 49 130.5 134t94.5 195q26 81 26 114q0 15 -6.5 22.5t-19.5 7.5q-80 0 -289 -242q-19 -23 -27 -23q-4 0 -6.5 3t-2.5 7q0 7 8 16q5 5 16 18q135 155 220 212q47 32 90 32q41 0 64.5 -29.5t23.5 -100.5
q0 -43 -10 -86z" />
    <glyph glyph-name="y" unicode="y" horiz-adv-x="910" 
d="M745 547l130 10l-340 -553q104 50 200 133t154 156q9 11 15 11q5 0 8 -3t3 -8t-10 -17q-106 -123 -211 -203q-75 -58 -181 -109q-145 -246 -226 -353q-109 -145 -215 -214q-58 -37 -111 -37q-44 0 -71 27.5t-27 76.5q0 40 20 82q29 63 105 135q76 73 206 155
q20 12 235 135l175 337q-173 -192 -268 -257q-64 -44 -110 -44q-31 0 -56.5 30.5t-25.5 87.5q0 43 16 82q16 40 85 140q70 100 84 128q11 22 11 43q0 14 -8.5 22t-24.5 8q-35 0 -92 -42t-190 -196q-27 -31 -29 -33q-4 -3 -9 -3q-4 0 -6.5 2.5t-2.5 7.5q0 8 12 21
q13 14 33 38q122 143 191 191q52 35 95 35q41 0 65.5 -26.5t24.5 -79.5q0 -50 -19 -96q-20 -47 -89 -146q-69 -100 -80 -123q-12 -24 -12 -40q0 -14 8 -22t20 -8q23 0 57 17q63 31 163 130q101 100 185 206q56 71 113 166zM413 -66q-194 -109 -297 -192q-104 -83 -163 -176
q-43 -67 -43 -122q0 -32 16.5 -48.5t44.5 -16.5q40 0 89 36q90 67 168 185.5t185 333.5z" />
    <glyph glyph-name="z" unicode="z" horiz-adv-x="683" 
d="M491 467q-62 -48 -118 -94q-138 -114 -229 -180q-47 -34 -47 -39q0 -2 1.5 -3.5t4.5 -1.5q5 0 26 15q64 43 104 58t76 15q44 0 67 -20.5t23 -53.5q0 -19 -7 -37q-5 -12 -26.5 -42.5t-21.5 -43.5q0 -7 5 -12t15 -5q18 0 40 13q44 25 117 100q73 76 113 124q29 36 34 41
q3 3 8 3t8 -3t3 -7q0 -6 -9 -16q-65 -79 -139 -154q-74 -76 -110 -99q-37 -23 -69 -23q-39 0 -68 28t-29 63q0 15 5 29t24 46q9 16 9 23t-7 12.5t-23 5.5q-20 0 -44 -9q-50 -19 -112 -58q-39 -24 -94 -71l-36 -46q-15 -16 -27 -22q-8 -5 -19 -5q-10 0 -16 6t-6 16
q0 16 16.5 32.5t97.5 63.5l126 112q51 43 172 138q71 55 150 111q-119 -53 -193 -53q-75 0 -121 38q-67 -60 -159 -173q-8 -10 -15 -10q-5 0 -8 2.5t-3 7.5q0 4 2 7q7 11 84 95q44 48 88 86q-10 16 -10 37q0 26 15.5 41.5t42.5 15.5q24 0 36.5 -11t12.5 -29q0 -17 -18 -45
q-8 -11 -8 -17q0 -7 10 -13q21 -13 57 -13q38 0 89 15q52 15 82 31q21 11 60 41q39 31 54 31q7 0 12 -5t5 -14q0 -15 -13 -26q-18 -16 -90 -49z" />
    <glyph glyph-name="braceleft" unicode="{" horiz-adv-x="1024" 
d="M404 -359l-11 -44q-75 0 -107 7q-43 10 -67.5 37t-24.5 71q0 30 11 67t50 116l186 370q53 105 53 145q0 31 -19.5 54t-66.5 43q78 25 106 40q38 20 71 51q33 32 56 72q43 75 61 113l195 399q57 117 121 176q65 60 139.5 84.5t174.5 24.5l-23 -42q-78 -9 -131 -33t-91 -68
q-51 -59 -92 -142l-186 -377q-25 -51 -68 -126q-26 -44 -64 -80t-75 -56t-111 -38q52 -20 69.5 -43t17.5 -59q0 -26 -9 -57q-10 -32 -45 -100l-183 -364q-59 -118 -59 -158q0 -33 23 -52q30 -25 99 -31z" />
    <glyph glyph-name="bar" unicode="|" 
d="M191 -439v2048h73v-2048h-73z" />
    <glyph glyph-name="braceright" unicode="}" horiz-adv-x="1024" 
d="M862 1423l11 44q76 0 107 -7q44 -10 68 -37.5t24 -70.5q0 -30 -11 -67t-50 -116l-186 -370q-52 -103 -70 -154q-9 -23 -9 -41q0 -32 21 -53q27 -28 91 -44q-132 -38 -189.5 -84t-104.5 -143l-194 -398q-57 -117 -122 -177t-139.5 -84t-174.5 -24l23 42q78 9 131 33t91 68
q51 59 92 142l186 377q44 90 81 133t91 70.5t147 46.5q-64 14 -93 44q-22 23 -22 63q0 19 5 37q7 26 25 66l51 99l183 364q59 118 59 158q0 32 -22 52q-31 25 -100 31z" />
    <glyph glyph-name="asciitilde" unicode="~" horiz-adv-x="819" 
d="M654 354l41 -41q-42 -57 -72 -76t-69 -19q-41 0 -106 31q-65 32 -87 39q-23 7 -42 7q-34 0 -57 -18t-43 -65l-41 40q31 53 62.5 74.5t76.5 21.5q51 0 154 -47q62 -28 87 -28q21 0 40 13.5t56 67.5z" />
    <glyph glyph-name="nonbreakingspace" unicode="&#xa0;" horiz-adv-x="797" 
 />
    <glyph glyph-name="exclamdown" unicode="&#xa1;" horiz-adv-x="683" 
d="M497 430q-26 0 -41 15.5t-15 43.5q0 34 20 56.5t45 22.5q23 0 39 -17t16 -46q0 -33 -19 -54t-45 -21zM26 -415l-152 -9l545 803h36z" />
    <glyph glyph-name="cent" unicode="&#xa2;" horiz-adv-x="796" 
d="M582 552l123 225h36l-130 -238q21 -18 29 -35t8 -41q0 -41 -20.5 -64.5t-49.5 -23.5q-27 0 -49 14l-197 -358q42 7 80 28q56 30 129 96t120 121q11 13 19 13q5 0 7 -1.5t2 -5.5q0 -10 -40 -54q-108 -121 -182 -171q-75 -50 -151 -57l-125 -227h-36l127 231q-78 9 -123 61
t-45 131q0 78 53 159.5t151 144t194 62.5q36 0 70 -10zM297 31l203 372q19 35 25 42t24 18.5t24 19t6 16.5q0 14 -13.5 24.5t-41.5 10.5q-40 0 -82.5 -22.5t-94 -78.5t-92.5 -141.5t-41 -159.5q0 -44 21.5 -69.5t61.5 -31.5z" />
    <glyph glyph-name="sterling" unicode="&#xa3;" horiz-adv-x="797" 
d="M436 507h99q15 0 18 -3q5 -4 5 -12q0 -9 -5 -13.5t-16 -4.5h-117q-35 -73 -78 -143q-24 -41 -76 -113q108 -85 168 -114q38 -18 72 -18q41 0 73 26q33 26 72 109q8 17 11.5 20.5t8.5 3.5q4 0 6.5 -3t2.5 -8q0 -22 -29 -82q-30 -60 -65 -95q-36 -36 -66 -49t-66 -13
q-30 0 -56.5 12.5t-63.5 53.5q-25 27 -92 117q-83 -102 -139 -139.5t-103 -37.5q-36 0 -58.5 23.5t-22.5 62.5q0 66 61 122.5t147 56.5q44 0 86 -17q50 102 95 225h-111q-12 0 -17 4q-5 5 -5 12q0 9 5 13t15 4h125q49 121 109 218q-56 38 -106 94q-26 29 -26 38q0 5 3 8t8 3
q8 0 21 -15q48 -57 114 -104q139 204 282 204q70 0 111 -38t41 -100q0 -84 -55.5 -138t-148.5 -54q-44 0 -80 11t-81 39q-12 -24 -28 -60q-24 -56 -48 -106zM524 702q53 -25 118 -25q101 0 156.5 46t55.5 103q0 42 -34.5 73t-89.5 31q-37 0 -71.5 -23t-66.5 -71
q-18 -27 -68 -134zM202 228q-38 16 -77 16q-71 0 -122.5 -47.5t-51.5 -101.5q0 -31 16.5 -48.5t43.5 -17.5t51 16q35 23 77 83q43 60 63 100z" />
    <glyph glyph-name="currency" unicode="&#xa4;" horiz-adv-x="797" 
d="M702 735l74 75l51 -51l-74 -75q36 -46 51 -85q23 -59 23 -123t-23 -123q-16 -39 -51 -84l74 -76l-51 -50l-74 75q-50 -39 -99 -57q-50 -18 -108 -18q-60 0 -117 21q-44 17 -93 54l-73 -75l-51 50l73 76q-36 48 -51 89q-22 58 -22 118q0 61 21 118q16 41 52 90l-73 75
l51 51l73 -75q48 36 90 53q59 22 120 22q59 0 115 -21q43 -16 92 -54zM766 477q0 71 -36 138t-100.5 104.5t-135.5 37.5q-111 0 -191.5 -82t-80.5 -198q0 -117 80.5 -199t191.5 -82t191.5 82t80.5 199z" />
    <glyph glyph-name="yen" unicode="&#xa5;" horiz-adv-x="797" 
d="M389 201l35 59l-191 1l-16 1q-14 0 -17 3q-6 5 -6 9q0 5 6 10t17 5l16 -1l209 -1q20 37 46 89q27 52 59 98q-72 -66 -137 -99q-50 -25 -77 -25q-31 0 -62.5 22.5t-31.5 82.5q0 24 5.5 52t17.5 58q6 14 28 53q23 39 41 74l48 88q8 17 16 46t8 51q0 26 -13.5 41t-31.5 15
q-40 0 -83 -40q-59 -55 -83 -137q-3 -11 -8 -15.5t-11 -4.5t-10 4t-4 11q0 9 13 43q22 56 45 87q30 41 70 62.5t73 21.5q36 0 64 -36q41 -52 41 -118q0 -51 -30 -123t-77 -144q-47 -73 -54 -89q-11 -24 -11 -38t11.5 -26t27.5 -12q21 0 38 7q29 12 82 48q54 37 78 62
q24 26 87 117t96 130q49 59 113 113q64 55 111 85q14 8 43 17q11 -11 11 -13q0 -16 -34 -34q-20 -10 -56 -46q-54 -56 -95 -121q-13 -20 -119 -218l-86 -160q-16 -26 -50 -77l95 -1h25l10 -4l-4 -6l-1 -8q0 -2 -3 -4q-9 -4 -18 -4h-10l-115 -1l-48 -62l102 2l21 -1l15 1
q5 0 8.5 -3.5t3.5 -9.5q0 -8 -6 -11q-10 -6 -50 -6h-119q-89 -88 -132 -118q-44 -30 -101 -48q-57 -19 -100 -19q-67 0 -117.5 33t-50.5 89q0 36 19.5 58t50.5 22q30 0 49 -19q14 -13 14 -48q0 -8 -8 -30q-10 -38 -10 -39q0 -10 11 -19q15 -12 34 -12q57 0 81 8q44 16 90 53
q35 27 85 90h-169l-20 -2q-26 2 -30.5 5t-4.5 9q0 5 3.5 9.5t6.5 5.5q15 1 26 2l16 -1z" />
    <glyph glyph-name="brokenbar" unicode="&#xa6;" 
d="M191 841v512h73v-512h-73zM191 -183v512h73v-512h-73z" />
    <glyph glyph-name="section" unicode="&#xa7;" horiz-adv-x="1024" 
d="M610 860q-26 66 -26 161q0 78 41 156.5t114.5 121.5t159.5 43q71 0 130 -30t91.5 -84t32.5 -116q0 -75 -41.5 -118.5t-106.5 -43.5q-56 0 -90.5 30.5t-34.5 70.5q0 28 18.5 45.5t48.5 17.5q29 0 44.5 -15.5t15.5 -44.5q0 -14 -5 -31q-3 -8 -3 -11q0 -9 7 -15t21 -6
q39 0 65.5 32t26.5 99q0 78 -61 134.5t-156 56.5q-65 0 -124 -32t-91 -90.5t-32 -124.5q0 -58 22 -117q23 -59 80 -141q107 -154 132 -215q25 -62 25 -135q0 -85 -41 -149t-124 -99t-174 -32q35 -88 35 -176q0 -150 -103.5 -237t-233.5 -87q-121 0 -201.5 76t-80.5 177
q0 80 49 130.5t127 50.5q68 0 108.5 -37.5t40.5 -90.5q0 -34 -19 -54t-49 -20q-28 0 -45 17.5t-17 46.5q0 16 9.5 35.5t9.5 27.5q0 11 -12 19q-19 14 -47 14q-53 0 -87.5 -37t-34.5 -103q0 -93 66.5 -156t173.5 -63q120 0 196.5 75.5t76.5 195.5q0 58 -19 108
q-20 50 -84 140q-103 146 -132 214t-29 132q0 65 30.5 121t79.5 93.5t99 52.5t128 17zM560 214q11 -1 21 -1q113 0 177.5 58t64.5 142q0 46 -13.5 91.5t-41.5 95.5q-16 30 -81 127q-34 51 -65 103q-71 -3 -136 -35q-66 -32 -95.5 -80t-29.5 -105q0 -43 17 -90
q13 -34 66 -116q54 -83 116 -190z" />
    <glyph glyph-name="dieresis" unicode="&#xa8;" 
d="M126 815q0 42 20.5 64t54.5 22q27 0 42.5 -15.5t15.5 -44.5q0 -37 -22.5 -60t-55.5 -23q-25 0 -40 15.5t-15 41.5zM422 815q0 42 20.5 64t54.5 22q28 0 43 -15.5t15 -44.5q0 -37 -22.5 -60t-55.5 -23q-25 0 -40 15.5t-15 41.5z" />
    <glyph glyph-name="copyright" unicode="&#xa9;" horiz-adv-x="1638" 
d="M806 1453q185 0 361.5 -95.5t275.5 -272.5t99 -368q0 -123 -38 -234q-39 -112 -104 -200t-156 -157t-205 -107t-233 -38q-122 0 -232 37q-111 38 -199 102t-158 154q-70 91 -109 206.5t-39 236.5q0 191 99 368t275.5 272.5t362.5 95.5zM806 1399q-172 0 -336 -88
t-255.5 -252t-91.5 -342q0 -111 35.5 -217t99.5 -190q64 -85 145 -145q82 -60 185 -95q104 -35 218 -35q110 0 216 35t190 99q85 64 145 146q61 83 96 186t35 216q0 178 -91.5 342t-255.5 252t-335 88zM1059 1103h23l11 -257h-26q-29 110 -95.5 163.5t-160.5 53.5
q-81 0 -143.5 -39.5t-98.5 -106.5q-47 -92 -47 -211q0 -106 38.5 -187.5t109.5 -122t155 -40.5q73 0 137 31t124 93l21 -22q-126 -146 -301 -146q-106 0 -195 49t-137 141.5t-48 202.5q0 172 109.5 285.5t269.5 113.5q70 0 153 -28q41 -14 55 -14q15 0 26.5 9t19.5 32z" />
    <glyph glyph-name="ordfeminine" unicode="&#xaa;" horiz-adv-x="477" 
d="M313 870l40 63q13 20 22.5 23.5t76.5 5.5q-107 -139 -166 -244q-27 -47 -27 -60q0 -8 5.5 -13t13.5 -5q24 0 65 29q60 43 142 134q4 5 7 5q4 0 6 -2q1 -1 1 -4q0 -5 -29 -36q-75 -79 -129 -118q-36 -25 -68 -25q-22 0 -37.5 19.5t-15.5 61.5q0 11 3 30
q-112 -111 -172 -111q-32 0 -54.5 27t-22.5 85q0 21 5 50q2 8 1 9v1h-1q-5 -3 -8 -3q-2 0 -3.5 1.5t-1.5 3.5q0 6 27 32q77 75 143 106.5t119 31.5q32 0 47 -14.5t15 -47.5q0 -13 -4 -35zM300 908q0 22 -11.5 33.5t-35.5 11.5q-36 0 -79 -32q-60 -45 -104 -118.5t-44 -123.5
q0 -18 8.5 -28t21.5 -10q34 0 79 35q81 63 131 140q34 53 34 92z" />
    <glyph glyph-name="guillemotleft" unicode="&#xab;" horiz-adv-x="797" 
d="M346 280v19q118 78 274 211q20 17 26 17q3 0 5.5 -2.5t2.5 -5.5q0 -8 -35 -57q-59 -83 -164 -175q47 -91 75 -168q17 -48 17 -60q0 -6 -2 -8.5t-6 -2.5q-9 0 -32 30q-87 113 -161 202zM111 280v19q128 84 267 204q27 24 33 24q4 0 6 -2t2 -6q0 -7 -35 -58
q-58 -82 -164 -174q48 -91 75 -168q18 -47 18 -59q0 -7 -2 -9.5t-7 -2.5q-9 0 -32 30q-61 81 -161 202z" />
    <glyph glyph-name="logicalnot" unicode="&#xac;" horiz-adv-x="819" 
d="M658 142v220h-505v61h566v-281h-61z" />
    <glyph glyph-name="registered" unicode="&#xae;" horiz-adv-x="1638" 
d="M846 1453q93 0 181 -47.5t137 -136.5t49 -184t-48.5 -183t-136 -136.5t-182.5 -48.5t-182.5 48.5t-136 136t-48.5 183.5t49.5 184.5t137.5 136t180 47.5zM846 1410q-82 0 -159 -42.5t-121 -121t-44 -161.5q0 -84 43 -161.5t120 -120.5t161 -43t161 43t120 120.5t43 161.5
t-43.5 162.5t-121.5 120.5t-159 42zM663 892v21q34 1 42.5 10.5t8.5 45.5v248q0 30 -9 39t-42 11v21h170q84 0 119.5 -30t35.5 -77q0 -37 -26 -65.5t-80 -37.5l117 -141q11 -13 22 -18t32 -6v-21h-81l-147 180q-41 -2 -61 -1v-109q0 -29 10 -38.5t44 -10.5v-21h-155z
M764 1104q95 0 126 15q44 20 44 68q0 37 -26 56.5t-113 19.5q-23 0 -27 -4t-4 -27v-128z" />
    <glyph glyph-name="macron" unicode="&#xaf;" 
d="M170 837h385q18 0 23.5 -4.5t5.5 -12.5q0 -16 -20.5 -28t-105.5 -12h-350q-20 0 -26 4t-6 11q0 14 17 26q24 16 77 16z" />
    <glyph glyph-name="degree" unicode="&#xb0;" horiz-adv-x="614" 
d="M329 967q72 0 142 -37.5t109 -107t39 -145.5q0 -74 -38.5 -143.5t-107.5 -107.5t-144 -38t-144 38t-107.5 107.5t-38.5 143.5q0 76 39 145.5t108.5 107t142.5 37.5zM329 900q-56 0 -109.5 -29t-83 -82t-29.5 -112q0 -92 65 -157t157 -65t157 65t65 157q0 58 -30 111.5
t-83 82.5t-109 29z" />
    <glyph glyph-name="plusminus" unicode="&#xb1;" horiz-adv-x="819" 
d="M405 362v204h61v-204h253v-61h-253v-203h-61v203h-252v61h252zM153 0v61h566v-61h-566z" />
    <glyph glyph-name="twosuperior" unicode="&#xb2;" horiz-adv-x="477" 
d="M162 779q0 -22 15 -36.5t38 -14.5q37 0 74 33q55 49 85 130q2 8 5 11q2 1 4 1q4 0 6 -2t2 -6q0 -32 -17 -68q-26 -58 -66.5 -87t-83.5 -29q-39 0 -59 18.5t-20 49.5q0 67 69 127.5t168 60.5q67 0 102.5 -32.5t35.5 -88.5q0 -62 -44.5 -112.5t-157.5 -98.5
q-113 -49 -160 -76q-70 -41 -117 -92q-8 -9 -8 -12v-2q1 -1 3 -1q3 0 14 9q36 31 62 42q27 12 56 12q39 0 58 -16t22.5 -47.5t9.5 -38.5t18 -7q22 0 51 22q47 35 91 90q15 18 19 18q3 0 5 -2t2 -4q0 -5 -26 -37q-48 -60 -100 -94q-34 -21 -73 -21q-44 0 -63 26
q-11 14 -17 60q-2 17 -7.5 22t-15.5 5q-26 0 -72 -30q-47 -31 -82 -81q-6 -9 -11 -9q-4 0 -6 2.5t-2 5.5q0 14 17 44q25 43 80 87q37 31 146 99q110 68 144 96q50 41 77 88t27 86q0 37 -20.5 55.5t-63.5 18.5q-86 0 -150 -56.5t-64 -117.5z" />
    <glyph glyph-name="threesuperior" unicode="&#xb3;" horiz-adv-x="477" 
d="M286 686q9 1 16 1q49 0 80.5 -29t31.5 -67q0 -70 -78 -138.5t-187 -68.5q-70 0 -105 29.5t-35 72.5q0 30 15 46t38 16q18 0 28.5 -10t10.5 -25q0 -16 -9 -26.5t-31 -16.5q-13 -3 -17.5 -7.5t-4.5 -10.5q0 -18 21.5 -34.5t60.5 -16.5q42 0 83 20q42 21 75 55q34 34 56 74
t22 73q0 23 -14 35.5t-43 12.5q-45 0 -83 -23q-14 -9 -20 -9q-4 0 -6 2t-2 5q0 7 23 17q134 59 203 129q51 52 51 100q0 30 -17 45.5t-53 15.5q-73 0 -140 -54q-50 -40 -50 -81q0 -16 10.5 -26t27.5 -10q35 0 77.5 34.5t64.5 85.5q4 8 9 8q2 0 3.5 -1t1.5 -5q0 -42 -34 -84
q-46 -56 -110 -56q-30 0 -47 15t-17 36q0 49 61.5 100.5t146.5 51.5q61 0 92.5 -27.5t31.5 -68.5q0 -34 -20.5 -62.5t-63.5 -52.5t-154 -70z" />
    <glyph glyph-name="acute" unicode="&#xb4;" 
d="M475 1001q23 0 36 -12.5t13 -34.5q0 -32 -40 -88q-52 -74 -147 -146q-67 -52 -83 -52q-5 0 -7.5 2.5t-2.5 5.5q0 4 3.5 8t31.5 26q53 41 87 93q21 33 36 88q20 74 33 92t40 18z" />
    <glyph glyph-name="mu" unicode="&#xb5;" horiz-adv-x="796" 
d="M249 564l114 5l-243 -384q-53 -84 -53 -121q0 -21 9.5 -32t25.5 -11q30 0 72 28q105 68 212 198q80 95 223 312l131 10l-225 -334q-83 -123 -83 -174q0 -18 8 -27t23 -9q13 0 33 9q30 13 75 49q46 36 91 83q73 77 114 127q8 11 14 11q4 0 6.5 -2.5t2.5 -7.5
q0 -14 -116 -136q-154 -161 -232 -161q-32 0 -51 25q-27 36 -27 101q0 36 11 90q-129 -139 -202 -187q-46 -31 -87 -31q-45 0 -69 44l-309 -560l-124 -12l631 1041q-24 -16 -36 -27q-28 -25 -92 -91l-83 -92q-15 -16 -16 -17q-3 -2 -7 -2t-7 3t-3 8q0 3 2 6q0 2 15 17
q97 107 137 145q9 9 115 106z" />
    <glyph glyph-name="paragraph" unicode="&#xb6;" horiz-adv-x="1229" 
d="M1303 1467l-10 -49h-103q-38 -23 -61.5 -49.5t-45.5 -77.5t-44 -136l-47 -206l-135 -630q-44 -209 -87 -309q-43 -101 -104 -176t-135 -124q-75 -50 -164 -78t-169 -28q-94 0 -133.5 29.5t-39.5 69.5q0 35 25 60.5t60 25.5q32 0 51.5 -18.5t19.5 -47.5q0 -37 -34 -66
q14 -1 23 -1q52 0 108 42q76 57 122 162q46 106 100 361l72 336q-39 -1 -57 -1q-121 0 -223.5 39.5t-155 123t-52.5 192.5q0 132 66.5 255t172 189.5t226 89t324.5 22.5h430zM902 1418q-41 -32 -65 -62.5t-42 -72.5q-26 -62 -49 -160l-42 -178l-150 -706q-52 -242 -81 -324
q-41 -111 -97.5 -175t-141.5 -98q126 6 247 83t184 200q63 124 128 430l116 547q48 223 79 325q22 73 51 117q22 33 70 74h-207z" />
    <glyph glyph-name="cedilla" unicode="&#xb8;" 
d="M79 -2h23l-47 -107q118 3 168 -32q36 -26 36 -75q0 -57 -51 -93q-81 -56 -234 -56q-87 0 -108 9q-8 4 -8 11q0 4 3.5 7t11.5 3q6 0 31 -2q26 -2 41 -2q93 0 161 30t68 86q0 36 -23 55t-87 19h-57z" />
    <glyph glyph-name="onesuperior" unicode="&#xb9;" horiz-adv-x="477" 
d="M97 387q27 42 108 156q82 114 205 292q35 50 57 88q-38 -39 -185 -164q-28 -23 -119 -90q-53 -39 -67 -45q-7 -3 -10 -3t-4.5 1.5t-1.5 3.5q0 4 5 8q5 5 53 39q112 79 201 155q90 76 134 123q17 18 23 18q3 0 4.5 -1.5t1.5 -3.5q0 -3 -1 -6q-8 -28 -53 -117
q-83 -163 -121 -229q-91 -158 -130 -219h-23q-36 0 -77 -6z" />
    <glyph glyph-name="ordmasculine" unicode="&#xba;" horiz-adv-x="409" 
d="M245 713q-59 -55 -95 -72q-37 -18 -75 -18t-60.5 27t-22.5 90q0 31 5 55q1 4 1 6q0 3 -0.5 3.5t-2.5 0.5q-3 0 -15 -11q-6 -6 -11 -6q-2 0 -3.5 1.5t-1.5 3.5q0 6 8 13q4 3 14 14q66 67 135 107t135 40q38 0 59.5 -21.5t21.5 -59.5q0 -78 -79 -158q6 -1 13 -1
q41 0 78.5 21.5t62.5 53.5q5 6 9 6q3 0 5 -2q2 -1 2 -4q0 -9 -39 -42q-60 -50 -144 -47zM308 898q0 28 -13 41.5t-38 13.5q-33 0 -72 -29q-58 -43 -99.5 -115.5t-41.5 -129.5q0 -22 10 -32t30 -10q38 0 86 32q64 44 101 109.5t37 119.5z" />
    <glyph glyph-name="guillemotright" unicode="&#xbb;" horiz-adv-x="796" 
d="M664 295v-19q-119 -79 -275 -211q-20 -17 -25 -17q-4 0 -6 2t-2 5q0 8 34 58q59 83 165 175q-48 91 -76 168q-17 47 -17 60q0 6 2 8.5t7 2.5q8 0 31 -30q88 -113 162 -202zM429 295v-19q-128 -85 -266 -204q-28 -24 -34 -24q-4 0 -6 2t-2 5q0 8 35 58q58 82 164 175
q-48 91 -75 168q-17 47 -17 59q0 7 2 9.5t6 2.5q9 0 32 -30q61 -81 161 -202z" />
    <glyph glyph-name="onequarter" unicode="&#xbc;" horiz-adv-x="1194" 
d="M1103 1143l-984 -1143h-47l983 1143h48zM3 544q27 42 108 156q82 114 205 292q35 51 57 88q-38 -39 -185 -164q-28 -23 -119 -90q-53 -39 -67 -45q-7 -2 -10 -2t-4.5 1t-1.5 3q0 4 5 8q5 5 53 40q112 78 201 154q90 76 134 123q17 18 23 18q3 0 4.5 -1.5t1.5 -3.5
q0 -3 -1 -5q-8 -29 -53 -118q-83 -163 -121 -229q-91 -158 -130 -219h-23q-36 0 -77 -6zM1012 573l106 7l-158 -208q-44 -57 -106 -131q-38 -45 -103 -116q40 16 76 16q27 0 72 -6q31 -4 59 -4l144 200q66 91 70 94q2 2 5 2q4 0 6 -2t2 -6q0 -3 -16 -30q-73 -129 -139 -254
q54 0 105 37q7 5 10 5q2 0 4 -2t2 -4q0 -8 -25 -23q-41 -27 -104 -30q-30 -60 -57 -115q-52 1 -106 -6q40 58 86 118q-20 0 -54 5q-44 5 -64 5q-51 0 -99 -25q-4 -2 -6 -2t-3.5 1.5t-1.5 3.5q0 3 4 8q71 86 147 207.5t144 254.5z" />
    <glyph glyph-name="onehalf" unicode="&#xbd;" horiz-adv-x="1194" 
d="M1128 1143l-984 -1143h-47l984 1143h47zM21 544q27 42 108 156q82 114 205 292q35 51 57 88q-38 -39 -185 -164q-28 -23 -119 -90q-53 -39 -67 -45q-7 -2 -10 -2t-4.5 1t-1.5 3q0 4 5 8q5 5 53 40q112 78 201 154q90 76 134 123q17 18 23 18q3 0 4.5 -1.5t1.5 -3.5
q0 -3 -1 -5q-8 -29 -53 -118q-83 -163 -121 -229q-91 -158 -130 -219h-23q-36 0 -77 -6zM874 392q0 -22 15 -36.5t38 -14.5q37 0 74 33q56 49 85 130q3 8 6 11q1 1 3 1q4 0 6 -2t2 -6q0 -32 -17 -68q-26 -58 -66.5 -87t-83.5 -29q-38 0 -58.5 19t-20.5 49q0 67 69 127.5
t169 60.5q66 0 101.5 -32.5t35.5 -87.5q0 -63 -44.5 -113t-157.5 -98q-113 -49 -160 -77q-70 -41 -117 -91q-8 -10 -8 -13v-2q1 -1 3 -1q4 0 14 9q36 31 63 42q27 12 55 12q39 0 58 -15.5t22.5 -47.5t9.5 -39t19 -7q21 0 50 22q47 35 91 90q15 18 19 18q3 0 5 -2q2 -1 2 -4
q0 -4 -26 -37q-48 -60 -100 -94q-34 -21 -73 -21q-43 0 -63 26q-11 14 -17 60q-2 17 -7.5 22t-15.5 5q-26 0 -72 -30q-46 -31 -82 -81q-6 -9 -11 -9q-3 0 -5.5 2.5t-2.5 5.5q0 14 17 44q25 43 80 87q37 31 146 99q110 68 144 96q50 41 77 88t27 86q0 37 -20.5 55.5
t-63.5 18.5q-86 0 -150 -56.5t-64 -117.5z" />
    <glyph glyph-name="threequarters" unicode="&#xbe;" horiz-adv-x="1194" 
d="M1168 1139l-983 -1143h-48l984 1143h47zM225 843q9 1 16 1q49 0 80.5 -29t31.5 -67q0 -70 -78 -138.5t-187 -68.5q-70 0 -105 29.5t-35 72.5q0 30 15 46t38 16q18 0 28.5 -10t10.5 -25q0 -16 -9 -26.5t-31 -15.5q-13 -4 -17.5 -8.5t-4.5 -10.5q0 -18 21.5 -34.5
t60.5 -16.5q42 0 83 20q42 21 75 55q34 35 56 74.5t22 72.5q0 23 -14 35.5t-43 12.5q-45 0 -83 -23q-14 -9 -20 -9q-4 0 -6 2t-2 6q0 6 23 17q134 58 203 128q51 53 51 100q0 30 -17 45.5t-53 15.5q-73 0 -140 -54q-50 -40 -50 -81q0 -16 10.5 -26t27.5 -10q35 0 77.5 35
t64.5 85q4 9 9 9q2 0 3.5 -1.5t1.5 -5.5q0 -42 -34 -84q-46 -56 -110 -56q-30 0 -47 15t-17 37q0 48 61.5 99.5t146.5 51.5q61 0 92.5 -27.5t31.5 -68.5q0 -33 -20.5 -62t-63.5 -53t-154 -70zM1044 573l107 7l-158 -208q-44 -57 -107 -131q-37 -45 -102 -116q40 16 76 16
q27 0 72 -6q31 -4 59 -4l143 200q67 91 71 94q2 2 5 2q4 0 5.5 -2t1.5 -6q0 -3 -15 -30q-73 -129 -139 -254q53 0 105 37q7 5 9 5q3 0 4.5 -2t1.5 -4q0 -8 -24 -23q-42 -27 -104 -30q-30 -60 -57 -115q-52 1 -106 -6q40 58 86 118q-20 0 -54 5q-45 5 -64 5q-51 0 -99 -25
q-4 -2 -6 -2t-3.5 1.5t-1.5 3.5q0 3 4 8q70 86 146.5 207.5t143.5 254.5z" />
    <glyph glyph-name="questiondown" unicode="&#xbf;" horiz-adv-x="796" 
d="M617 430q-26 0 -41 15.5t-15 43.5q0 34 20 56.5t45 22.5q23 0 39 -17t16 -46q0 -33 -19 -54t-45 -21zM361 -267q-35 13 -49 29.5t-14 38.5q0 25 17 41.5t42 16.5q28 0 47 -20t19 -52q0 -81 -83.5 -157.5t-189.5 -76.5q-79 0 -128.5 50.5t-49.5 132.5q0 62 26.5 117.5
t73.5 96.5q33 29 140.5 90.5t161.5 109.5q55 49 115 136q46 66 51 71t11 5q3 0 5 -2.5t2 -5.5q0 -6 -6 -16q-44 -79 -112 -157q-42 -49 -143.5 -144t-147.5 -149.5t-70 -114.5t-24 -108q0 -41 28 -67t79 -26q79 0 140 56t59 105z" />
    <glyph glyph-name="Agrave" unicode="&#xc0;" horiz-adv-x="2163" 
d="M1760 5l-147 -10q21 45 47 112q-267 19 -426 151q-109 -91 -196 -139q-113 -64 -246 -98q-133 -35 -274 -35q-248 0 -387.5 123.5t-139.5 292.5q0 179 156 324.5t369 145.5q180 0 283 -89t103 -214q0 -161 -134.5 -253.5t-292.5 -92.5q-57 0 -76 10q-9 5 -9 13q0 4 3 7.5
t9 3.5q4 0 10 -2q30 -6 62 -6q166 0 299 111q91 76 91 198q0 68 -32 123t-97.5 85.5t-165.5 30.5q-143 0 -267 -61.5t-189 -163t-65 -197.5q0 -102 72 -189t193 -134q87 -33 212 -33q140 0 259 30q119 31 238 96q83 46 189 133q-97 95 -142 159q-45 65 -70 145t-25 153
q0 143 93 238t228 95q86 0 173 -42.5t160 -125.5q44 -49 80 -125q187 199 382 369t364 255q69 34 97 34q8 0 11.5 -2.5t3.5 -7.5q0 -7 -6 -17t-43 -53q-157 -185 -322 -464q-187 -316 -388 -761q107 0 185 39t155 133q14 16 20 16q4 0 7.5 -3t3.5 -7q0 -6 -38 -48
q-75 -85 -152.5 -118.5t-189.5 -34.5zM1755 303q184 371 387 662q170 243 333 395q6 5 6 8q0 1 -1 2t-3 1t-5 -2q-60 -25 -196 -125q-137 -101 -314 -263q-66 -61 -240 -239q18 -52 26 -110q9 -59 9 -157zM1688 754q-35 71 -74 116q-56 64 -128 99.5t-145 35.5
q-75 0 -142.5 -36t-104.5 -109t-37 -167q0 -114 53 -211q54 -98 133 -176q70 65 174 169q163 165 271 279zM1700 721l-125 -130q-179 -189 -312 -306q160 -139 404 -156q31 78 48 184q17 107 17 200q0 117 -32 208zM2399 1827q27 0 42 -20q11 -15 29 -82.5t47 -109t92 -90.5
q21 -16 21 -23q0 -3 -2.5 -5.5t-6.5 -2.5q-17 0 -85 52q-94 72 -146 145q-40 57 -40 89q0 22 13 34.5t36 12.5z" />
    <glyph glyph-name="Aacute" unicode="&#xc1;" horiz-adv-x="2163" 
d="M1760 5l-147 -10q21 45 47 112q-267 19 -426 151q-109 -91 -196 -139q-113 -64 -246 -98q-133 -35 -274 -35q-248 0 -387.5 123.5t-139.5 292.5q0 179 156 324.5t369 145.5q180 0 283 -89t103 -214q0 -161 -134.5 -253.5t-292.5 -92.5q-57 0 -76 10q-9 5 -9 13q0 4 3 7.5
t9 3.5q4 0 10 -2q30 -6 62 -6q166 0 299 111q91 76 91 198q0 68 -32 123t-97.5 85.5t-165.5 30.5q-143 0 -267 -61.5t-189 -163t-65 -197.5q0 -102 72 -189t193 -134q87 -33 212 -33q140 0 259 30q119 31 238 96q83 46 189 133q-97 95 -142 159q-45 65 -70 145t-25 153
q0 143 93 238t228 95q86 0 173 -42.5t160 -125.5q44 -49 80 -125q187 199 382 369t364 255q69 34 97 34q8 0 11.5 -2.5t3.5 -7.5q0 -7 -6 -17t-43 -53q-157 -185 -322 -464q-187 -316 -388 -761q107 0 185 39t155 133q14 16 20 16q4 0 7.5 -3t3.5 -7q0 -6 -38 -48
q-75 -85 -152.5 -118.5t-189.5 -34.5zM1755 303q184 371 387 662q170 243 333 395q6 5 6 8q0 1 -1 2t-3 1t-5 -2q-60 -25 -196 -125q-137 -101 -314 -263q-66 -61 -240 -239q18 -52 26 -110q9 -59 9 -157zM1688 754q-35 71 -74 116q-56 64 -128 99.5t-145 35.5
q-75 0 -142.5 -36t-104.5 -109t-37 -167q0 -114 53 -211q54 -98 133 -176q70 65 174 169q163 165 271 279zM1700 721l-125 -130q-179 -189 -312 -306q160 -139 404 -156q31 78 48 184q17 107 17 200q0 117 -32 208zM2733 1827q23 0 36 -12.5t13 -34.5q0 -32 -40 -88
q-52 -74 -147 -146q-67 -52 -83 -52q-5 0 -7.5 2.5t-2.5 5.5q0 4 3.5 8t31.5 26q53 41 87 93q21 33 36 88q20 74 33 92t40 18z" />
    <glyph glyph-name="Acircumflex" unicode="&#xc2;" horiz-adv-x="2163" 
d="M1760 5l-147 -10q21 45 47 112q-267 19 -426 151q-109 -91 -196 -139q-113 -64 -246 -98q-133 -35 -274 -35q-248 0 -387.5 123.5t-139.5 292.5q0 179 156 324.5t369 145.5q180 0 283 -89t103 -214q0 -161 -134.5 -253.5t-292.5 -92.5q-57 0 -76 10q-9 5 -9 13q0 4 3 7.5
t9 3.5q4 0 10 -2q30 -6 62 -6q166 0 299 111q91 76 91 198q0 68 -32 123t-97.5 85.5t-165.5 30.5q-143 0 -267 -61.5t-189 -163t-65 -197.5q0 -102 72 -189t193 -134q87 -33 212 -33q140 0 259 30q119 31 238 96q83 46 189 133q-97 95 -142 159q-45 65 -70 145t-25 153
q0 143 93 238t228 95q86 0 173 -42.5t160 -125.5q44 -49 80 -125q187 199 382 369t364 255q69 34 97 34q8 0 11.5 -2.5t3.5 -7.5q0 -7 -6 -17t-43 -53q-157 -185 -322 -464q-187 -316 -388 -761q107 0 185 39t155 133q14 16 20 16q4 0 7.5 -3t3.5 -7q0 -6 -38 -48
q-75 -85 -152.5 -118.5t-189.5 -34.5zM1755 303q184 371 387 662q170 243 333 395q6 5 6 8q0 1 -1 2t-3 1t-5 -2q-60 -25 -196 -125q-137 -101 -314 -263q-66 -61 -240 -239q18 -52 26 -110q9 -59 9 -157zM1688 754q-35 71 -74 116q-56 64 -128 99.5t-145 35.5
q-75 0 -142.5 -36t-104.5 -109t-37 -167q0 -114 53 -211q54 -98 133 -176q70 65 174 169q163 165 271 279zM1700 721l-125 -130q-179 -189 -312 -306q160 -139 404 -156q31 78 48 184q17 107 17 200q0 117 -32 208zM2616 1829h28q40 -165 132 -324q4 -5 4 -8q0 -2 -1.5 -3.5
t-3.5 -1.5q-4 0 -10 4q-28 22 -73 84q-24 33 -81 128q-83 -83 -128 -121q-77 -66 -124 -91q-6 -4 -11 -4q-2 0 -3.5 1.5t-1.5 3.5q0 5 14 18q87 85 155 167t104 147z" />
    <glyph glyph-name="Atilde" unicode="&#xc3;" horiz-adv-x="2163" 
d="M1760 5l-147 -10q21 45 47 112q-267 19 -426 151q-109 -91 -196 -139q-113 -64 -246 -98q-133 -35 -274 -35q-248 0 -387.5 123.5t-139.5 292.5q0 179 156 324.5t369 145.5q180 0 283 -89t103 -214q0 -161 -134.5 -253.5t-292.5 -92.5q-57 0 -76 10q-9 5 -9 13q0 4 3 7.5
t9 3.5q4 0 10 -2q30 -6 62 -6q166 0 299 111q91 76 91 198q0 68 -32 123t-97.5 85.5t-165.5 30.5q-143 0 -267 -61.5t-189 -163t-65 -197.5q0 -102 72 -189t193 -134q87 -33 212 -33q140 0 259 30q119 31 238 96q83 46 189 133q-97 95 -142 159q-45 65 -70 145t-25 153
q0 143 93 238t228 95q86 0 173 -42.5t160 -125.5q44 -49 80 -125q187 199 382 369t364 255q69 34 97 34q8 0 11.5 -2.5t3.5 -7.5q0 -7 -6 -17t-43 -53q-157 -185 -322 -464q-187 -316 -388 -761q107 0 185 39t155 133q14 16 20 16q4 0 7.5 -3t3.5 -7q0 -6 -38 -48
q-75 -85 -152.5 -118.5t-189.5 -34.5zM1755 303q184 371 387 662q170 243 333 395q6 5 6 8q0 1 -1 2t-3 1t-5 -2q-60 -25 -196 -125q-137 -101 -314 -263q-66 -61 -240 -239q18 -52 26 -110q9 -59 9 -157zM1688 754q-35 71 -74 116q-56 64 -128 99.5t-145 35.5
q-75 0 -142.5 -36t-104.5 -109t-37 -167q0 -114 53 -211q54 -98 133 -176q70 65 174 169q163 165 271 279zM1700 721l-125 -130q-179 -189 -312 -306q160 -139 404 -156q31 78 48 184q17 107 17 200q0 117 -32 208zM2471 1744q15 0 31 -4q17 -4 78 -25q94 -31 120 -37t51 -6
q40 0 59.5 13t40.5 56q7 14 9.5 16.5t7.5 2.5t8 -3t3 -9q0 -22 -23.5 -66t-57 -65t-80.5 -21q-26 0 -48 5q-36 8 -132 42q-41 15 -57 18.5t-34 3.5q-34 0 -55 -14.5t-48 -60.5q-6 -10 -13 -10q-5 0 -7 2.5t-2 5.5q0 20 25 67.5t59 70.5q26 18 65 18z" />
    <glyph glyph-name="Adieresis" unicode="&#xc4;" horiz-adv-x="2163" 
d="M1760 5l-147 -10q21 45 47 112q-267 19 -426 151q-109 -91 -196 -139q-113 -64 -246 -98q-133 -35 -274 -35q-248 0 -387.5 123.5t-139.5 292.5q0 179 156 324.5t369 145.5q180 0 283 -89t103 -214q0 -161 -134.5 -253.5t-292.5 -92.5q-57 0 -76 10q-9 5 -9 13q0 4 3 7.5
t9 3.5q4 0 10 -2q30 -6 62 -6q166 0 299 111q91 76 91 198q0 68 -32 123t-97.5 85.5t-165.5 30.5q-143 0 -267 -61.5t-189 -163t-65 -197.5q0 -102 72 -189t193 -134q87 -33 212 -33q140 0 259 30q119 31 238 96q83 46 189 133q-97 95 -142 159q-45 65 -70 145t-25 153
q0 143 93 238t228 95q86 0 173 -42.5t160 -125.5q44 -49 80 -125q187 199 382 369t364 255q69 34 97 34q8 0 11.5 -2.5t3.5 -7.5q0 -7 -6 -17t-43 -53q-157 -185 -322 -464q-187 -316 -388 -761q107 0 185 39t155 133q14 16 20 16q4 0 7.5 -3t3.5 -7q0 -6 -38 -48
q-75 -85 -152.5 -118.5t-189.5 -34.5zM1755 303q184 371 387 662q170 243 333 395q6 5 6 8q0 1 -1 2t-3 1t-5 -2q-60 -25 -196 -125q-137 -101 -314 -263q-66 -61 -240 -239q18 -52 26 -110q9 -59 9 -157zM1688 754q-35 71 -74 116q-56 64 -128 99.5t-145 35.5
q-75 0 -142.5 -36t-104.5 -109t-37 -167q0 -114 53 -211q54 -98 133 -176q70 65 174 169q163 165 271 279zM1700 721l-125 -130q-179 -189 -312 -306q160 -139 404 -156q31 78 48 184q17 107 17 200q0 117 -32 208zM2402 1641q0 42 20.5 64t54.5 22q27 0 42.5 -15.5
t15.5 -44.5q0 -37 -22.5 -60t-55.5 -23q-25 0 -40 15.5t-15 41.5zM2698 1641q0 42 20.5 64t54.5 22q28 0 43 -15.5t15 -44.5q0 -37 -22.5 -60t-55.5 -23q-25 0 -40 15.5t-15 41.5z" />
    <glyph glyph-name="Aring" unicode="&#xc5;" horiz-adv-x="2163" 
d="M1760 5l-147 -10q21 45 47 112q-267 19 -426 151q-109 -91 -196 -139q-113 -64 -246 -98q-133 -35 -274 -35q-248 0 -387.5 123.5t-139.5 292.5q0 179 156 324.5t369 145.5q180 0 283 -89t103 -214q0 -161 -134.5 -253.5t-292.5 -92.5q-57 0 -76 10q-9 5 -9 13q0 4 3 7.5
t9 3.5q4 0 10 -2q30 -6 62 -6q166 0 299 111q91 76 91 198q0 68 -32 123t-97.5 85.5t-165.5 30.5q-143 0 -267 -61.5t-189 -163t-65 -197.5q0 -102 72 -189t193 -134q87 -33 212 -33q140 0 259 30q119 31 238 96q83 46 189 133q-97 95 -142 159q-45 65 -70 145t-25 153
q0 143 93 238t228 95q86 0 173 -42.5t160 -125.5q44 -49 80 -125q187 199 382 369t364 255q69 34 97 34q8 0 11.5 -2.5t3.5 -7.5q0 -7 -6 -17t-43 -53q-157 -185 -322 -464q-187 -316 -388 -761q107 0 185 39t155 133q14 16 20 16q4 0 7.5 -3t3.5 -7q0 -6 -38 -48
q-75 -85 -152.5 -118.5t-189.5 -34.5zM1755 303q184 371 387 662q170 243 333 395q6 5 6 8q0 1 -1 2t-3 1t-5 -2q-60 -25 -196 -125q-137 -101 -314 -263q-66 -61 -240 -239q18 -52 26 -110q9 -59 9 -157zM1688 754q-35 71 -74 116q-56 64 -128 99.5t-145 35.5
q-75 0 -142.5 -36t-104.5 -109t-37 -167q0 -114 53 -211q54 -98 133 -176q70 65 174 169q163 165 271 279zM1700 721l-125 -130q-179 -189 -312 -306q160 -139 404 -156q31 78 48 184q17 107 17 200q0 117 -32 208zM2501 1610q0 59 41.5 101t100.5 42t100.5 -42t41.5 -101
t-41.5 -100.5t-100.5 -41.5t-100.5 41.5t-41.5 100.5zM2643 1499q47 0 79.5 32.5t32.5 78.5t-33 79t-79 33t-78.5 -33t-32.5 -79t32.5 -78.5t78.5 -32.5z" />
    <glyph glyph-name="AE" unicode="&#xc6;" horiz-adv-x="2163" 
d="M1300 763q212 217 308 306q134 124 268 207t288 129q155 47 270 47q75 0 106.5 -26.5t31.5 -67.5q0 -81 -113 -190q-176 -169 -482 -257q15 -31 36.5 -46.5t57.5 -15.5q16 0 55 5q23 4 36 4q32 0 49.5 -13.5t17.5 -26.5q0 -14 -13 -25t-36 -11q-18 0 -44 10
q-47 19 -82 19q-58 0 -129 -33q-72 -34 -149 -83t-141 -114t-100.5 -138.5t-36.5 -142.5t35.5 -133.5t102 -103t130.5 -43.5q-7 54 -7 83q0 120 37 224t93 173t125 107t140 38q78 0 121.5 -43.5t43.5 -118.5q0 -73 -31 -150t-87 -142q-57 -65 -132 -112q-75 -48 -134 -67
q-59 -20 -130 -24q12 -77 41 -162q6 -17 6 -23q0 -5 -3 -8t-9 -3q-9 0 -16 11q-24 38 -47 158l-5 25q-79 1 -141 25.5t-104 65t-90 122.5q-31 -64 -85 -194l-161 -10l56 118q-94 18 -141 32q-86 25 -150 55q-65 30 -96 54q-126 -126 -269 -195q-144 -69 -292 -69
q-208 0 -329 114.5t-121 291.5q0 188 133 325.5t307 137.5q130 0 210 -79.5t80 -203.5q0 -62 -20 -112.5t-55 -90.5q-36 -41 -85 -73q-32 -20 -94 -45q-33 -13 -43 -13q-8 0 -12 4t-4 9t4 9t27 12q89 31 140 72t80 102t29 118q0 60 -31 113.5t-88 82t-120 28.5
q-97 0 -193.5 -56t-152.5 -161.5t-56 -201.5q0 -90 49 -176t142 -132t207 -46q70 0 141 19q72 20 139 54q68 34 123 74q79 57 127 107q-96 85 -134.5 167.5t-38.5 187.5q0 109 40.5 184.5t118.5 117.5t168 42q77 0 140.5 -29.5t107.5 -78.5q33 -37 65 -101zM1962 954
q148 42 212 69q109 46 204 119q96 73 138 141q25 40 25 72q0 28 -23 47.5t-72 19.5q-84 0 -163 -36q-80 -37 -165 -108q-86 -71 -124.5 -135t-38.5 -133q0 -30 7 -56zM1314 735q22 -70 32 -133q11 -63 11 -140q0 -62 -9 -134q81 173 270 474q118 187 200 286t166 164.5
t230 141.5q-56 -7 -150 -49q-144 -63 -253 -143t-245 -212zM1684 692q201 125 335 141q-95 32 -156 167q-122 -178 -179 -308zM1275 737q-39 81 -110.5 127t-152.5 46q-120 0 -205.5 -90t-85.5 -232q0 -79 31 -148t107 -137zM884 281q49 -38 157 -79q109 -42 221 -55
q44 108 55 160t11 150q0 143 -39 252l-112 -121l-236 -247zM1802 19q78 2 148 30q92 37 173 108t124.5 162.5t43.5 167.5q0 56 -34.5 90.5t-89.5 34.5q-36 0 -72 -15q-37 -16 -81 -55q-58 -51 -110 -135q-52 -85 -78 -186t-26 -170q0 -12 2 -32z" />
    <glyph glyph-name="Ccedilla" unicode="&#xc7;" horiz-adv-x="1365" 
d="M662 -149l63 129q-149 0 -242.5 97.5t-93.5 261.5q0 158 97 352q-127 23 -208 70q-82 47 -132.5 131.5t-50.5 185.5q0 167 132.5 289t342.5 122q167 0 306 -73q106 -54 200 -162q130 78 258 125q128 48 233 48q83 0 121 -34t38 -93q0 -51 -35 -115t-136 -146
q-139 -113 -347 -215q-155 -76 -313 -109q-108 -22 -269 -30q-112 -254 -112 -439q0 -94 28 -145.5t73.5 -71t117.5 -20.5q-8 51 -8 96q0 228 125.5 374.5t265.5 146.5q74 0 117.5 -43t43.5 -117q0 -106 -68.5 -210t-199 -184.5t-259.5 -90.5l-40 -90q118 3 168 -32
q36 -26 36 -75q0 -57 -51 -93q-81 -56 -234 -56q-87 0 -108 9q-8 4 -8 11q0 4 3.5 7t11.5 3q6 0 31 -2q26 -2 41 -2q93 0 161 30t68 86q0 36 -23 55t-87 19h-57zM1050 1242q-99 111 -212.5 167t-267.5 56q-211 0 -342 -134q-100 -102 -100 -224q0 -53 20 -103t58 -92.5
t96 -76.5q59 -34 124 -50q66 -17 101 -17q85 128 188 224q104 97 335 250zM1076 1211q-95 -65 -178 -143t-143 -157q-43 -57 -98 -153q172 0 299 23q128 23 282 92t272 157q118 89 164 170q33 57 33 106q0 44 -32 72t-103 28q-99 0 -231 -50q-132 -51 -243 -131
q46 -62 96 -158q22 -41 22 -51q0 -4 -2.5 -6.5t-6.5 -2.5t-8 4q-4 5 -18 33q-47 94 -105 167zM758 10q122 10 248.5 87t187 178t60.5 192q0 60 -33.5 95.5t-84.5 35.5q-71 0 -147 -57q-102 -76 -167.5 -219t-65.5 -265q0 -25 2 -47z" />
    <glyph glyph-name="Egrave" unicode="&#xc8;" horiz-adv-x="1138" 
d="M501 14q-4 31 -4 70q0 115 32 220q33 106 88.5 176.5t122 108t144.5 37.5q76 0 121 -45t45 -115q0 -95 -68.5 -210.5t-188.5 -186.5t-261 -82q7 -47 32 -160q6 -26 6 -29q0 -4 -2.5 -6.5t-5.5 -2.5q-7 0 -14 19q-27 87 -43 178q-156 0 -242.5 82t-86.5 213
q0 98 46.5 188.5t139.5 167.5t216 130q87 38 188 53q-75 25 -121 78q-57 -11 -123 -11q-188 0 -288.5 83.5t-100.5 198.5q0 132 107.5 228t291.5 96q101 0 187 -33q87 -33 178 -106q172 97 338 97q60 0 88.5 -25.5t28.5 -66.5q0 -49 -29 -96q-40 -66 -144 -145
q-104 -80 -244 -142q-91 -39 -210 -61q11 -39 36 -60t54 -21q7 0 24 2q30 3 45 3q53 0 75 -12q11 -7 11 -18q0 -10 -10 -17q-13 -10 -39 -10q-30 0 -78 13q-30 8 -46 8q-59 0 -144 -38t-150 -95q-65 -58 -106.5 -125t-62.5 -139t-21 -143q0 -115 51 -177.5t137 -71.5z
M619 948q-7 31 -7 58q0 93 62.5 173.5t202.5 163.5q-160 130 -346 130q-162 0 -256.5 -80t-94.5 -182q0 -107 94 -186.5t270 -79.5q27 0 75 3zM930 1296q-107 -83 -158 -161.5t-51 -160.5q0 -7 1 -19q100 11 190 47q90 37 170 83t140 100t89 110q17 33 17 65q0 31 -20.5 49
t-63.5 18q-57 0 -124.5 -25t-170.5 -93q98 -99 98 -110q0 -4 -2.5 -6.5t-6.5 -2.5t-9 6q-41 46 -99 100zM530 12q82 -3 167 33q86 36 159 100.5t122 152.5t49 167q0 60 -35 96.5t-87 36.5q-61 0 -129.5 -46.5t-128.5 -138t-89.5 -199t-29.5 -171.5q0 -12 2 -31zM1019 1828
q27 0 42 -20q11 -15 29 -82.5t47 -109t92 -90.5q21 -16 21 -23q0 -3 -2.5 -5.5t-6.5 -2.5q-17 0 -85 52q-94 72 -146 145q-40 57 -40 89q0 22 13 34.5t36 12.5z" />
    <glyph glyph-name="Eacute" unicode="&#xc9;" horiz-adv-x="1138" 
d="M501 14q-4 31 -4 70q0 115 32 220q33 106 88.5 176.5t122 108t144.5 37.5q76 0 121 -45t45 -115q0 -95 -68.5 -210.5t-188.5 -186.5t-261 -82q7 -47 32 -160q6 -26 6 -29q0 -4 -2.5 -6.5t-5.5 -2.5q-7 0 -14 19q-27 87 -43 178q-156 0 -242.5 82t-86.5 213
q0 98 46.5 188.5t139.5 167.5t216 130q87 38 188 53q-75 25 -121 78q-57 -11 -123 -11q-188 0 -288.5 83.5t-100.5 198.5q0 132 107.5 228t291.5 96q101 0 187 -33q87 -33 178 -106q172 97 338 97q60 0 88.5 -25.5t28.5 -66.5q0 -49 -29 -96q-40 -66 -144 -145
q-104 -80 -244 -142q-91 -39 -210 -61q11 -39 36 -60t54 -21q7 0 24 2q30 3 45 3q53 0 75 -12q11 -7 11 -18q0 -10 -10 -17q-13 -10 -39 -10q-30 0 -78 13q-30 8 -46 8q-59 0 -144 -38t-150 -95q-65 -58 -106.5 -125t-62.5 -139t-21 -143q0 -115 51 -177.5t137 -71.5z
M619 948q-7 31 -7 58q0 93 62.5 173.5t202.5 163.5q-160 130 -346 130q-162 0 -256.5 -80t-94.5 -182q0 -107 94 -186.5t270 -79.5q27 0 75 3zM930 1296q-107 -83 -158 -161.5t-51 -160.5q0 -7 1 -19q100 11 190 47q90 37 170 83t140 100t89 110q17 33 17 65q0 31 -20.5 49
t-63.5 18q-57 0 -124.5 -25t-170.5 -93q98 -99 98 -110q0 -4 -2.5 -6.5t-6.5 -2.5t-9 6q-41 46 -99 100zM530 12q82 -3 167 33q86 36 159 100.5t122 152.5t49 167q0 60 -35 96.5t-87 36.5q-61 0 -129.5 -46.5t-128.5 -138t-89.5 -199t-29.5 -171.5q0 -12 2 -31zM1352 1828
q23 0 36 -12.5t13 -34.5q0 -32 -40 -88q-52 -74 -147 -146q-67 -52 -83 -52q-5 0 -7.5 2.5t-2.5 5.5q0 4 3.5 8t31.5 26q53 41 87 93q21 33 36 88q20 74 33 92t40 18z" />
    <glyph glyph-name="Ecircumflex" unicode="&#xca;" horiz-adv-x="1138" 
d="M501 14q-4 31 -4 70q0 115 32 220q33 106 88.5 176.5t122 108t144.5 37.5q76 0 121 -45t45 -115q0 -95 -68.5 -210.5t-188.5 -186.5t-261 -82q7 -47 32 -160q6 -26 6 -29q0 -4 -2.5 -6.5t-5.5 -2.5q-7 0 -14 19q-27 87 -43 178q-156 0 -242.5 82t-86.5 213
q0 98 46.5 188.5t139.5 167.5t216 130q87 38 188 53q-75 25 -121 78q-57 -11 -123 -11q-188 0 -288.5 83.5t-100.5 198.5q0 132 107.5 228t291.5 96q101 0 187 -33q87 -33 178 -106q172 97 338 97q60 0 88.5 -25.5t28.5 -66.5q0 -49 -29 -96q-40 -66 -144 -145
q-104 -80 -244 -142q-91 -39 -210 -61q11 -39 36 -60t54 -21q7 0 24 2q30 3 45 3q53 0 75 -12q11 -7 11 -18q0 -10 -10 -17q-13 -10 -39 -10q-30 0 -78 13q-30 8 -46 8q-59 0 -144 -38t-150 -95q-65 -58 -106.5 -125t-62.5 -139t-21 -143q0 -115 51 -177.5t137 -71.5z
M619 948q-7 31 -7 58q0 93 62.5 173.5t202.5 163.5q-160 130 -346 130q-162 0 -256.5 -80t-94.5 -182q0 -107 94 -186.5t270 -79.5q27 0 75 3zM930 1296q-107 -83 -158 -161.5t-51 -160.5q0 -7 1 -19q100 11 190 47q90 37 170 83t140 100t89 110q17 33 17 65q0 31 -20.5 49
t-63.5 18q-57 0 -124.5 -25t-170.5 -93q98 -99 98 -110q0 -4 -2.5 -6.5t-6.5 -2.5t-9 6q-41 46 -99 100zM530 12q82 -3 167 33q86 36 159 100.5t122 152.5t49 167q0 60 -35 96.5t-87 36.5q-61 0 -129.5 -46.5t-128.5 -138t-89.5 -199t-29.5 -171.5q0 -12 2 -31zM1236 1830
h28q40 -165 132 -324q4 -5 4 -8q0 -2 -1.5 -3.5t-3.5 -1.5q-4 0 -10 4q-28 22 -73 84q-24 33 -81 128q-83 -83 -128 -121q-77 -66 -124 -91q-6 -4 -11 -4q-2 0 -3.5 1.5t-1.5 3.5q0 5 14 18q87 85 155 167t104 147z" />
    <glyph glyph-name="Edieresis" unicode="&#xcb;" horiz-adv-x="1138" 
d="M501 14q-4 31 -4 70q0 115 32 220q33 106 88.5 176.5t122 108t144.5 37.5q76 0 121 -45t45 -115q0 -95 -68.5 -210.5t-188.5 -186.5t-261 -82q7 -47 32 -160q6 -26 6 -29q0 -4 -2.5 -6.5t-5.5 -2.5q-7 0 -14 19q-27 87 -43 178q-156 0 -242.5 82t-86.5 213
q0 98 46.5 188.5t139.5 167.5t216 130q87 38 188 53q-75 25 -121 78q-57 -11 -123 -11q-188 0 -288.5 83.5t-100.5 198.5q0 132 107.5 228t291.5 96q101 0 187 -33q87 -33 178 -106q172 97 338 97q60 0 88.5 -25.5t28.5 -66.5q0 -49 -29 -96q-40 -66 -144 -145
q-104 -80 -244 -142q-91 -39 -210 -61q11 -39 36 -60t54 -21q7 0 24 2q30 3 45 3q53 0 75 -12q11 -7 11 -18q0 -10 -10 -17q-13 -10 -39 -10q-30 0 -78 13q-30 8 -46 8q-59 0 -144 -38t-150 -95q-65 -58 -106.5 -125t-62.5 -139t-21 -143q0 -115 51 -177.5t137 -71.5z
M619 948q-7 31 -7 58q0 93 62.5 173.5t202.5 163.5q-160 130 -346 130q-162 0 -256.5 -80t-94.5 -182q0 -107 94 -186.5t270 -79.5q27 0 75 3zM930 1296q-107 -83 -158 -161.5t-51 -160.5q0 -7 1 -19q100 11 190 47q90 37 170 83t140 100t89 110q17 33 17 65q0 31 -20.5 49
t-63.5 18q-57 0 -124.5 -25t-170.5 -93q98 -99 98 -110q0 -4 -2.5 -6.5t-6.5 -2.5t-9 6q-41 46 -99 100zM530 12q82 -3 167 33q86 36 159 100.5t122 152.5t49 167q0 60 -35 96.5t-87 36.5q-61 0 -129.5 -46.5t-128.5 -138t-89.5 -199t-29.5 -171.5q0 -12 2 -31zM1022 1642
q0 42 20.5 64t54.5 22q27 0 42.5 -15.5t15.5 -44.5q0 -37 -22.5 -60t-55.5 -23q-25 0 -40 15.5t-15 41.5zM1318 1642q0 42 20.5 64t54.5 22q28 0 43 -15.5t15 -44.5q0 -37 -22.5 -60t-55.5 -23q-25 0 -40 15.5t-15 41.5z" />
    <glyph glyph-name="Igrave" unicode="&#xcc;" horiz-adv-x="1593" 
d="M1372 649q-85 0 -149 45q-90 63 -90 181q0 77 39.5 154t143.5 159q105 83 259 139q155 57 369 85q152 20 198 20q7 0 10 -2.5t3 -7.5q0 -4 -3 -6q-3 -3 -17 -6q-105 -25 -202.5 -102t-187.5 -214q-60 -92 -226 -420q50 0 129 46t141 121q6 9 11 9q4 0 6.5 -2.5t2.5 -6.5
q0 -20 -74 -84q-116 -100 -229 -108q-86 -157 -144 -240q-76 -109 -176 -186q-152 -117 -311 -176t-320 -59q-251 0 -411 136q-130 110 -130 270q0 113 72.5 223.5t204.5 180.5t271 70q114 0 214 -44.5t145.5 -115t45.5 -150.5q0 -84 -49 -163.5t-147 -128t-216 -48.5
q-119 0 -255 58q-21 9 -21 18q0 4 3 7t7 3t20 -7q126 -56 235 -56q113 0 207.5 44.5t143 120t48.5 147.5q0 64 -36.5 123t-109 92t-176.5 33q-129 0 -250 -51q-87 -38 -154.5 -96.5t-107 -133.5t-39.5 -168t49.5 -164.5t161 -122.5t265.5 -51q138 0 252 40q114 41 208 114
t194 205q67 88 172 276zM1386 675q91 166 164 273q74 108 167 206t193 171q54 39 121 68q-16 1 -23 1q-78 0 -228 -38t-257 -91q-107 -54 -171 -114q-65 -61 -102 -137t-37 -154q0 -91 46 -138t127 -47zM1791 1829q27 0 42 -20q11 -15 29 -82.5t47 -109t92 -90.5
q21 -16 21 -23q0 -3 -2.5 -5.5t-6.5 -2.5q-17 0 -85 52q-94 72 -146 145q-40 57 -40 89q0 22 13 34.5t36 12.5z" />
    <glyph glyph-name="Iacute" unicode="&#xcd;" horiz-adv-x="1593" 
d="M1372 649q-85 0 -149 45q-90 63 -90 181q0 77 39.5 154t143.5 159q105 83 259 139q155 57 369 85q152 20 198 20q7 0 10 -2.5t3 -7.5q0 -4 -3 -6q-3 -3 -17 -6q-105 -25 -202.5 -102t-187.5 -214q-60 -92 -226 -420q50 0 129 46t141 121q6 9 11 9q4 0 6.5 -2.5t2.5 -6.5
q0 -20 -74 -84q-116 -100 -229 -108q-86 -157 -144 -240q-76 -109 -176 -186q-152 -117 -311 -176t-320 -59q-251 0 -411 136q-130 110 -130 270q0 113 72.5 223.5t204.5 180.5t271 70q114 0 214 -44.5t145.5 -115t45.5 -150.5q0 -84 -49 -163.5t-147 -128t-216 -48.5
q-119 0 -255 58q-21 9 -21 18q0 4 3 7t7 3t20 -7q126 -56 235 -56q113 0 207.5 44.5t143 120t48.5 147.5q0 64 -36.5 123t-109 92t-176.5 33q-129 0 -250 -51q-87 -38 -154.5 -96.5t-107 -133.5t-39.5 -168t49.5 -164.5t161 -122.5t265.5 -51q138 0 252 40q114 41 208 114
t194 205q67 88 172 276zM1386 675q91 166 164 273q74 108 167 206t193 171q54 39 121 68q-16 1 -23 1q-78 0 -228 -38t-257 -91q-107 -54 -171 -114q-65 -61 -102 -137t-37 -154q0 -91 46 -138t127 -47zM2125 1829q23 0 36 -12.5t13 -34.5q0 -32 -40 -88q-52 -74 -147 -146
q-67 -52 -83 -52q-5 0 -7.5 2.5t-2.5 5.5q0 4 3.5 8t31.5 26q53 41 87 93q21 33 36 88q20 74 33 92t40 18z" />
    <glyph glyph-name="Icircumflex" unicode="&#xce;" horiz-adv-x="1593" 
d="M1372 649q-85 0 -149 45q-90 63 -90 181q0 77 39.5 154t143.5 159q105 83 259 139q155 57 369 85q152 20 198 20q7 0 10 -2.5t3 -7.5q0 -4 -3 -6q-3 -3 -17 -6q-105 -25 -202.5 -102t-187.5 -214q-60 -92 -226 -420q50 0 129 46t141 121q6 9 11 9q4 0 6.5 -2.5t2.5 -6.5
q0 -20 -74 -84q-116 -100 -229 -108q-86 -157 -144 -240q-76 -109 -176 -186q-152 -117 -311 -176t-320 -59q-251 0 -411 136q-130 110 -130 270q0 113 72.5 223.5t204.5 180.5t271 70q114 0 214 -44.5t145.5 -115t45.5 -150.5q0 -84 -49 -163.5t-147 -128t-216 -48.5
q-119 0 -255 58q-21 9 -21 18q0 4 3 7t7 3t20 -7q126 -56 235 -56q113 0 207.5 44.5t143 120t48.5 147.5q0 64 -36.5 123t-109 92t-176.5 33q-129 0 -250 -51q-87 -38 -154.5 -96.5t-107 -133.5t-39.5 -168t49.5 -164.5t161 -122.5t265.5 -51q138 0 252 40q114 41 208 114
t194 205q67 88 172 276zM1386 675q91 166 164 273q74 108 167 206t193 171q54 39 121 68q-16 1 -23 1q-78 0 -228 -38t-257 -91q-107 -54 -171 -114q-65 -61 -102 -137t-37 -154q0 -91 46 -138t127 -47zM2008 1830h28q40 -165 132 -324q4 -5 4 -8q0 -2 -1.5 -3.5t-3.5 -1.5
q-4 0 -10 4q-28 22 -73 84q-24 33 -81 128q-83 -83 -128 -121q-77 -66 -124 -91q-6 -4 -11 -4q-2 0 -3.5 1.5t-1.5 3.5q0 5 14 18q87 85 155 167t104 147z" />
    <glyph glyph-name="Idieresis" unicode="&#xcf;" horiz-adv-x="1593" 
d="M1372 649q-85 0 -149 45q-90 63 -90 181q0 77 39.5 154t143.5 159q105 83 259 139q155 57 369 85q152 20 198 20q7 0 10 -2.5t3 -7.5q0 -4 -3 -6q-3 -3 -17 -6q-105 -25 -202.5 -102t-187.5 -214q-60 -92 -226 -420q50 0 129 46t141 121q6 9 11 9q4 0 6.5 -2.5t2.5 -6.5
q0 -20 -74 -84q-116 -100 -229 -108q-86 -157 -144 -240q-76 -109 -176 -186q-152 -117 -311 -176t-320 -59q-251 0 -411 136q-130 110 -130 270q0 113 72.5 223.5t204.5 180.5t271 70q114 0 214 -44.5t145.5 -115t45.5 -150.5q0 -84 -49 -163.5t-147 -128t-216 -48.5
q-119 0 -255 58q-21 9 -21 18q0 4 3 7t7 3t20 -7q126 -56 235 -56q113 0 207.5 44.5t143 120t48.5 147.5q0 64 -36.5 123t-109 92t-176.5 33q-129 0 -250 -51q-87 -38 -154.5 -96.5t-107 -133.5t-39.5 -168t49.5 -164.5t161 -122.5t265.5 -51q138 0 252 40q114 41 208 114
t194 205q67 88 172 276zM1386 675q91 166 164 273q74 108 167 206t193 171q54 39 121 68q-16 1 -23 1q-78 0 -228 -38t-257 -91q-107 -54 -171 -114q-65 -61 -102 -137t-37 -154q0 -91 46 -138t127 -47zM1794 1643q0 42 20.5 64t54.5 22q27 0 42.5 -15.5t15.5 -44.5
q0 -37 -22.5 -60t-55.5 -23q-25 0 -40 15.5t-15 41.5zM2090 1643q0 42 20.5 64t54.5 22q28 0 43 -15.5t15 -44.5q0 -37 -22.5 -60t-55.5 -23q-25 0 -40 15.5t-15 41.5z" />
    <glyph glyph-name="Eth" unicode="&#xd0;" horiz-adv-x="1820" 
d="M1181 706h-118q-4 0 -7 3.5t-3 10.5q0 8 3 11.5t7 3.5h135q89 153 128 209q62 90 131 166.5t149 143.5q-80 74 -197 114.5t-247 40.5q-80 0 -157 -19q58 -61 86 -130q29 -69 29 -165q0 -104 -33 -201q-34 -97 -85 -171q-52 -74 -120 -132q-69 -59 -152 -92
q-84 -34 -169 -34q-76 0 -141 35.5t-100 104.5t-35 147q0 197 173 387t495 266q-96 69 -235 69q-120 0 -221.5 -43.5t-192.5 -130.5q-92 -88 -143 -196q-68 -144 -97 -322q-5 -28 -6 -30q-2 -3 -5 -3q-4 0 -7 3q-3 5 -3 13q0 68 34 190t108 235q74 114 163 181q90 67 181 97
t185 30q169 0 268 -85q102 20 182 20q123 0 252 -42.5t211 -122.5q50 43 115 83t117 62l18 7q7 4 10 4q4 0 6 -2q2 -3 2 -8q0 -4 -3 -7q-2 -3 -15 -9q-133 -68 -222 -158q66 -64 108.5 -170t42.5 -230q0 -227 -114 -413q-136 -220 -382 -335q-211 -99 -510 -99q-42 0 -101 2
q-60 3 -96 3q-54 0 -110 -7.5t-104 -7.5q-131 0 -187 32q-31 18 -31 40q0 13 15 23q19 12 68 12q73 0 239 -34q81 -16 119 -16q65 0 139 50q100 68 181 187q57 86 249 429zM980 1382q-184 -64 -302 -162q-147 -124 -220 -277.5t-73 -280.5q0 -83 46.5 -128.5t135.5 -45.5
q106 0 197 48q92 48 162 125q70 78 120 194q50 117 50 244q0 83 -30 156.5t-86 126.5zM1319 706q-119 -228 -267 -397q-119 -134 -228 -205q-77 -49 -183 -83q104 -6 161 -6q476 0 745 268q232 230 232 554q0 124 -39.5 225.5t-100.5 160.5q-75 -86 -125.5 -164t-179.5 -324
h189q3 0 6 -3.5t3 -9.5q0 -8 -3 -13q-3 -3 -6 -3h-204z" />
    <glyph glyph-name="Ntilde" unicode="&#xd1;" horiz-adv-x="2275" 
d="M1881 1266q-302 -513 -387 -640q-178 -264 -324 -392q-146 -129 -306 -191.5t-333 -62.5q-180 0 -303 56.5t-180.5 147.5t-57.5 203q0 219 206 365q157 111 354 111q123 0 225.5 -41t147 -108t44.5 -145q0 -85 -53.5 -170t-164 -137.5t-238.5 -52.5q-92 0 -184 40
q-16 7 -16 13q0 3 3 5.5t7 2.5t13 -4q27 -12 72 -23q46 -11 95 -11q126 0 231 46t153 119t48 150q0 118 -108 181.5t-246 63.5q-129 0 -268.5 -63.5t-209 -166.5t-69.5 -215q0 -137 112 -227q147 -118 396 -118q150 0 307.5 61.5t293.5 180.5q136 120 317 381
q81 117 336 543l96 160q51 84 58.5 93.5t14 13t12.5 3.5q5 0 8 -3t3 -8q0 -10 -25 -71q-25 -62 -31 -89q-11 -43 -19.5 -129.5t-8.5 -186.5q0 -43 4 -101q6 -108 6 -164q0 -91 -20 -249t-58 -285q193 360 324 572q194 313 361 496q121 132 202 174q53 28 110 28
q49 0 73.5 -22t24.5 -58q0 -34 -21.5 -55.5t-54.5 -21.5q-30 0 -51 18q-16 14 -19 45q-3 22 -10.5 29.5t-22.5 7.5q-23 0 -60 -21q-90 -52 -241 -241q-174 -218 -407 -631q-167 -298 -260 -486q-12 -25 -20 -25q-6 0 -11 5q-3 3 -3 8q0 6 23 75q15 43 19 69q6 43 6 105
q0 117 -16.5 277.5t-16.5 231.5q0 95 12.5 174t32.5 147q15 48 73 213zM2281 1744q15 0 31 -4q17 -4 78 -25q94 -31 120 -37t51 -6q40 0 59.5 13t40.5 56q7 14 9.5 16.5t7.5 2.5t8 -3t3 -9q0 -22 -23.5 -66t-57 -65t-80.5 -21q-26 0 -48 5q-36 8 -132 42q-41 15 -57 18.5
t-34 3.5q-34 0 -55 -14.5t-48 -60.5q-6 -10 -13 -10q-5 0 -7 2.5t-2 5.5q0 20 25 67.5t59 70.5q26 18 65 18z" />
    <glyph glyph-name="Ograve" unicode="&#xd2;" horiz-adv-x="1593" 
d="M1067 1297q106 70 214 107q109 37 204 37q118 0 184.5 -61.5t66.5 -156.5q0 -41 -14 -102q-5 -20 -12 -20q-3 0 -4.5 2t-1.5 6q0 3 4 22q8 43 8 81q0 96 -60 153t-166 57q-81 0 -181 -35q-101 -35 -202 -107q68 -28 123 -76q42 21 70 28q38 10 79 10q114 0 183 -76
t69 -225q0 -148 -60 -292q-77 -185 -225 -356q-126 -145 -290 -233.5t-314 -88.5q-77 0 -146.5 42.5t-112 132.5t-42.5 204q0 130 46 265q47 135 135 259q88 125 207 236q73 68 212 170q-71 31 -167 31q-138 0 -271 -78t-209.5 -207.5t-95.5 -297.5q-2 -10 -4 -12
q-3 -4 -7 -4t-7 3.5t-3 10.5q0 65 38 177q38 113 104 196q67 83 143 134t152 75t160 24q100 0 193 -35zM1083 1263q-108 -81 -172 -151q-98 -110 -183 -256t-129 -293q-44 -148 -44 -293q0 -134 59.5 -202t155.5 -68q133 0 289.5 86t288.5 244q133 158 203 330
q56 137 56 276q0 143 -61.5 214t-163.5 71q-71 0 -135 -34q72 -83 109 -172q38 -90 38 -193q0 -116 -58 -226t-154 -169.5t-187 -59.5q-78 0 -128.5 55t-50.5 156q0 125 59.5 251t158.5 228q63 64 170 133q-48 43 -121 73zM1221 1176q-98 -57 -162 -122
q-106 -107 -164 -233.5t-58 -245.5q0 -87 39.5 -131t107.5 -44q120 0 217 120q127 157 127 374q0 94 -27.5 162t-79.5 120zM1246 1828q27 0 42 -20q11 -15 29 -82.5t47 -109t92 -90.5q21 -16 21 -23q0 -3 -2.5 -5.5t-6.5 -2.5q-17 0 -85 52q-94 72 -146 145q-40 57 -40 89
q0 22 13 34.5t36 12.5z" />
    <glyph glyph-name="Oacute" unicode="&#xd3;" horiz-adv-x="1593" 
d="M1067 1297q106 70 214 107q109 37 204 37q118 0 184.5 -61.5t66.5 -156.5q0 -41 -14 -102q-5 -20 -12 -20q-3 0 -4.5 2t-1.5 6q0 3 4 22q8 43 8 81q0 96 -60 153t-166 57q-81 0 -181 -35q-101 -35 -202 -107q68 -28 123 -76q42 21 70 28q38 10 79 10q114 0 183 -76
t69 -225q0 -148 -60 -292q-77 -185 -225 -356q-126 -145 -290 -233.5t-314 -88.5q-77 0 -146.5 42.5t-112 132.5t-42.5 204q0 130 46 265q47 135 135 259q88 125 207 236q73 68 212 170q-71 31 -167 31q-138 0 -271 -78t-209.5 -207.5t-95.5 -297.5q-2 -10 -4 -12
q-3 -4 -7 -4t-7 3.5t-3 10.5q0 65 38 177q38 113 104 196q67 83 143 134t152 75t160 24q100 0 193 -35zM1083 1263q-108 -81 -172 -151q-98 -110 -183 -256t-129 -293q-44 -148 -44 -293q0 -134 59.5 -202t155.5 -68q133 0 289.5 86t288.5 244q133 158 203 330
q56 137 56 276q0 143 -61.5 214t-163.5 71q-71 0 -135 -34q72 -83 109 -172q38 -90 38 -193q0 -116 -58 -226t-154 -169.5t-187 -59.5q-78 0 -128.5 55t-50.5 156q0 125 59.5 251t158.5 228q63 64 170 133q-48 43 -121 73zM1221 1176q-98 -57 -162 -122
q-106 -107 -164 -233.5t-58 -245.5q0 -87 39.5 -131t107.5 -44q120 0 217 120q127 157 127 374q0 94 -27.5 162t-79.5 120zM1580 1828q23 0 36 -12.5t13 -34.5q0 -32 -40 -88q-52 -74 -147 -146q-67 -52 -83 -52q-5 0 -7.5 2.5t-2.5 5.5q0 4 3.5 8t31.5 26q53 41 87 93
q21 33 36 88q20 74 33 92t40 18z" />
    <glyph glyph-name="Ocircumflex" unicode="&#xd4;" horiz-adv-x="1593" 
d="M1067 1297q106 70 214 107q109 37 204 37q118 0 184.5 -61.5t66.5 -156.5q0 -41 -14 -102q-5 -20 -12 -20q-3 0 -4.5 2t-1.5 6q0 3 4 22q8 43 8 81q0 96 -60 153t-166 57q-81 0 -181 -35q-101 -35 -202 -107q68 -28 123 -76q42 21 70 28q38 10 79 10q114 0 183 -76
t69 -225q0 -148 -60 -292q-77 -185 -225 -356q-126 -145 -290 -233.5t-314 -88.5q-77 0 -146.5 42.5t-112 132.5t-42.5 204q0 130 46 265q47 135 135 259q88 125 207 236q73 68 212 170q-71 31 -167 31q-138 0 -271 -78t-209.5 -207.5t-95.5 -297.5q-2 -10 -4 -12
q-3 -4 -7 -4t-7 3.5t-3 10.5q0 65 38 177q38 113 104 196q67 83 143 134t152 75t160 24q100 0 193 -35zM1083 1263q-108 -81 -172 -151q-98 -110 -183 -256t-129 -293q-44 -148 -44 -293q0 -134 59.5 -202t155.5 -68q133 0 289.5 86t288.5 244q133 158 203 330
q56 137 56 276q0 143 -61.5 214t-163.5 71q-71 0 -135 -34q72 -83 109 -172q38 -90 38 -193q0 -116 -58 -226t-154 -169.5t-187 -59.5q-78 0 -128.5 55t-50.5 156q0 125 59.5 251t158.5 228q63 64 170 133q-48 43 -121 73zM1221 1176q-98 -57 -162 -122
q-106 -107 -164 -233.5t-58 -245.5q0 -87 39.5 -131t107.5 -44q120 0 217 120q127 157 127 374q0 94 -27.5 162t-79.5 120zM1463 1830h28q40 -165 132 -324q4 -5 4 -8q0 -2 -1.5 -3.5t-3.5 -1.5q-4 0 -10 4q-28 22 -73 84q-24 33 -81 128q-83 -83 -128 -121
q-77 -66 -124 -91q-6 -4 -11 -4q-2 0 -3.5 1.5t-1.5 3.5q0 5 14 18q87 85 155 167t104 147z" />
    <glyph glyph-name="Otilde" unicode="&#xd5;" horiz-adv-x="1593" 
d="M1067 1297q106 70 214 107q109 37 204 37q118 0 184.5 -61.5t66.5 -156.5q0 -41 -14 -102q-5 -20 -12 -20q-3 0 -4.5 2t-1.5 6q0 3 4 22q8 43 8 81q0 96 -60 153t-166 57q-81 0 -181 -35q-101 -35 -202 -107q68 -28 123 -76q42 21 70 28q38 10 79 10q114 0 183 -76
t69 -225q0 -148 -60 -292q-77 -185 -225 -356q-126 -145 -290 -233.5t-314 -88.5q-77 0 -146.5 42.5t-112 132.5t-42.5 204q0 130 46 265q47 135 135 259q88 125 207 236q73 68 212 170q-71 31 -167 31q-138 0 -271 -78t-209.5 -207.5t-95.5 -297.5q-2 -10 -4 -12
q-3 -4 -7 -4t-7 3.5t-3 10.5q0 65 38 177q38 113 104 196q67 83 143 134t152 75t160 24q100 0 193 -35zM1083 1263q-108 -81 -172 -151q-98 -110 -183 -256t-129 -293q-44 -148 -44 -293q0 -134 59.5 -202t155.5 -68q133 0 289.5 86t288.5 244q133 158 203 330
q56 137 56 276q0 143 -61.5 214t-163.5 71q-71 0 -135 -34q72 -83 109 -172q38 -90 38 -193q0 -116 -58 -226t-154 -169.5t-187 -59.5q-78 0 -128.5 55t-50.5 156q0 125 59.5 251t158.5 228q63 64 170 133q-48 43 -121 73zM1221 1176q-98 -57 -162 -122
q-106 -107 -164 -233.5t-58 -245.5q0 -87 39.5 -131t107.5 -44q120 0 217 120q127 157 127 374q0 94 -27.5 162t-79.5 120zM1317 1744q15 0 31 -4q17 -4 78 -25q94 -31 120 -37t51 -6q40 0 59.5 13t40.5 56q7 14 9.5 16.5t7.5 2.5t8 -3t3 -9q0 -22 -23.5 -66t-57 -65
t-80.5 -21q-26 0 -48 5q-36 8 -132 42q-41 15 -57 18.5t-34 3.5q-34 0 -55 -14.5t-48 -60.5q-6 -10 -13 -10q-5 0 -7 2.5t-2 5.5q0 20 25 67.5t59 70.5q26 18 65 18z" />
    <glyph glyph-name="Odieresis" unicode="&#xd6;" horiz-adv-x="1593" 
d="M1067 1297q106 70 214 107q109 37 204 37q118 0 184.5 -61.5t66.5 -156.5q0 -41 -14 -102q-5 -20 -12 -20q-3 0 -4.5 2t-1.5 6q0 3 4 22q8 43 8 81q0 96 -60 153t-166 57q-81 0 -181 -35q-101 -35 -202 -107q68 -28 123 -76q42 21 70 28q38 10 79 10q114 0 183 -76
t69 -225q0 -148 -60 -292q-77 -185 -225 -356q-126 -145 -290 -233.5t-314 -88.5q-77 0 -146.5 42.5t-112 132.5t-42.5 204q0 130 46 265q47 135 135 259q88 125 207 236q73 68 212 170q-71 31 -167 31q-138 0 -271 -78t-209.5 -207.5t-95.5 -297.5q-2 -10 -4 -12
q-3 -4 -7 -4t-7 3.5t-3 10.5q0 65 38 177q38 113 104 196q67 83 143 134t152 75t160 24q100 0 193 -35zM1083 1263q-108 -81 -172 -151q-98 -110 -183 -256t-129 -293q-44 -148 -44 -293q0 -134 59.5 -202t155.5 -68q133 0 289.5 86t288.5 244q133 158 203 330
q56 137 56 276q0 143 -61.5 214t-163.5 71q-71 0 -135 -34q72 -83 109 -172q38 -90 38 -193q0 -116 -58 -226t-154 -169.5t-187 -59.5q-78 0 -128.5 55t-50.5 156q0 125 59.5 251t158.5 228q63 64 170 133q-48 43 -121 73zM1221 1176q-98 -57 -162 -122
q-106 -107 -164 -233.5t-58 -245.5q0 -87 39.5 -131t107.5 -44q120 0 217 120q127 157 127 374q0 94 -27.5 162t-79.5 120zM1249 1642q0 42 20.5 64t54.5 22q27 0 42.5 -15.5t15.5 -44.5q0 -37 -22.5 -60t-55.5 -23q-25 0 -40 15.5t-15 41.5zM1545 1642q0 42 20.5 64
t54.5 22q28 0 43 -15.5t15 -44.5q0 -37 -22.5 -60t-55.5 -23q-25 0 -40 15.5t-15 41.5z" />
    <glyph glyph-name="multiply" unicode="&#xd7;" horiz-adv-x="819" 
d="M389 283l-236 238l45 45l238 -240l238 240l45 -45l-238 -238l238 -238l-45 -45l-238 240l-238 -240l-45 45z" />
    <glyph glyph-name="Oslash" unicode="&#xd8;" horiz-adv-x="1593" 
d="M1610 1664h26l-125 -224q107 -8 166 -67.5t59 -149.5q0 -41 -14 -102q-5 -20 -12 -20q-3 0 -4.5 2t-1.5 6q0 3 4 22q8 43 8 81q0 94 -56.5 150t-158.5 60l-101 -181q42 0 89 -21.5t78 -59t47 -91.5q17 -54 17 -128q0 -141 -52 -272q-52 -132 -145 -263
q-94 -132 -208 -231q-115 -100 -246.5 -152t-238.5 -52q-20 0 -43 4l-134 -240h-26l137 245q-102 27 -168 123.5t-66 254.5q0 108 32 214q43 142 129 274q87 132 213 251q80 75 226 183q-71 31 -167 31q-138 0 -271 -78t-209.5 -207.5t-95.5 -297.5q-2 -10 -4 -12
q-3 -4 -7 -4t-7 3.5t-3 10.5q0 65 38 177q38 113 104 196q67 83 143 134t152 75t160 24q100 0 193 -35q106 71 215 107q110 37 204 37zM1475 1422q-81 -3 -177 -38q-96 -36 -191 -104q68 -28 123 -76q73 37 146 38zM903 392q-87 56 -87 186q0 125 59.5 251t158.5 228
q63 65 170 133q-48 43 -121 73q-108 -81 -172 -152q-98 -109 -183 -255.5t-129 -293.5t-44 -292q0 -109 38.5 -172t99.5 -85zM715 7q27 -7 54 -7q95 0 202 43q108 44 222 134q115 90 217 232q103 143 156 289q41 114 41 238q0 143 -61.5 214t-163.5 71q-71 0 -135 -34
q72 -83 109 -172q38 -90 38 -193q0 -116 -58 -226.5t-154 -169.5t-188 -59q-39 0 -71 14zM1288 1085q-25 49 -67 91q-98 -57 -162 -122q-106 -107 -164 -233.5t-58 -245.5q0 -60 20.5 -101.5t58.5 -59.5zM937 407q24 -7 48 -7q119 0 216 120q127 158 127 374q0 92 -29 166z
" />
    <glyph glyph-name="Ugrave" unicode="&#xd9;" horiz-adv-x="1707" 
d="M2108 1410l-664 -1033q-91 -142 -118 -205.5t-27 -106.5q0 -22 9.5 -32t28.5 -10q22 0 48 11q38 15 95 58q58 43 114 101q73 77 100 111q7 9 13 9q4 0 6.5 -3t2.5 -7q0 -5 -5 -12q-7 -11 -62 -71q-56 -61 -103 -102q-75 -67 -127 -92q-53 -26 -87 -26t-54.5 25.5
t-20.5 90.5q0 67 18 136t65 172q-203 -238 -372 -350q-121 -79 -190 -79q-46 0 -74 32.5t-28 101.5q0 63 21 126q29 87 99 204q39 65 248 377q102 152 128 195q36 62 53.5 116t17.5 106q0 72 -50.5 116t-159.5 44q-50 0 -89 -10q80 -73 80 -200q0 -114 -48 -214
q-49 -100 -124 -174q-76 -74 -165 -117q-90 -44 -181 -44q-83 0 -135.5 52t-52.5 134q0 93 43 181t131 172q88 85 185 138q98 54 210 82q-77 38 -168 38q-129 0 -284.5 -92t-258.5 -264t-119 -359q-2 -19 -4 -22q-3 -4 -8 -4t-7.5 4t-2.5 14q0 86 37 194q38 109 106 214
t165 182q98 78 195 116q98 38 184 38q100 0 202 -51q49 11 106 11q137 0 205.5 -66.5t68.5 -192.5q0 -79 -22.5 -147.5t-100.5 -196.5t-264 -402q-113 -167 -147 -241q-35 -75 -35 -115q0 -26 12.5 -39.5t34.5 -13.5q42 0 114 38q129 67 270 208q170 168 343 436l384 592
l52 81q15 21 26 26q14 7 66 9zM913 1399q-102 -25 -170 -58q-123 -59 -224 -152t-139.5 -178.5t-38.5 -165.5q0 -73 39 -113t103 -40q73 0 158 44q85 45 162 124q77 80 130.5 189t53.5 198q0 47 -19 87t-55 65zM1492 1828q27 0 42 -20q11 -15 29 -82.5t47 -109t92 -90.5
q21 -16 21 -23q0 -3 -2.5 -5.5t-6.5 -2.5q-17 0 -85 52q-94 72 -146 145q-40 57 -40 89q0 22 13 34.5t36 12.5z" />
    <glyph glyph-name="Uacute" unicode="&#xda;" horiz-adv-x="1707" 
d="M2108 1410l-664 -1033q-91 -142 -118 -205.5t-27 -106.5q0 -22 9.5 -32t28.5 -10q22 0 48 11q38 15 95 58q58 43 114 101q73 77 100 111q7 9 13 9q4 0 6.5 -3t2.5 -7q0 -5 -5 -12q-7 -11 -62 -71q-56 -61 -103 -102q-75 -67 -127 -92q-53 -26 -87 -26t-54.5 25.5
t-20.5 90.5q0 67 18 136t65 172q-203 -238 -372 -350q-121 -79 -190 -79q-46 0 -74 32.5t-28 101.5q0 63 21 126q29 87 99 204q39 65 248 377q102 152 128 195q36 62 53.5 116t17.5 106q0 72 -50.5 116t-159.5 44q-50 0 -89 -10q80 -73 80 -200q0 -114 -48 -214
q-49 -100 -124 -174q-76 -74 -165 -117q-90 -44 -181 -44q-83 0 -135.5 52t-52.5 134q0 93 43 181t131 172q88 85 185 138q98 54 210 82q-77 38 -168 38q-129 0 -284.5 -92t-258.5 -264t-119 -359q-2 -19 -4 -22q-3 -4 -8 -4t-7.5 4t-2.5 14q0 86 37 194q38 109 106 214
t165 182q98 78 195 116q98 38 184 38q100 0 202 -51q49 11 106 11q137 0 205.5 -66.5t68.5 -192.5q0 -79 -22.5 -147.5t-100.5 -196.5t-264 -402q-113 -167 -147 -241q-35 -75 -35 -115q0 -26 12.5 -39.5t34.5 -13.5q42 0 114 38q129 67 270 208q170 168 343 436l384 592
l52 81q15 21 26 26q14 7 66 9zM913 1399q-102 -25 -170 -58q-123 -59 -224 -152t-139.5 -178.5t-38.5 -165.5q0 -73 39 -113t103 -40q73 0 158 44q85 45 162 124q77 80 130.5 189t53.5 198q0 47 -19 87t-55 65zM1826 1828q23 0 36 -12.5t13 -34.5q0 -32 -40 -88
q-52 -74 -147 -146q-67 -52 -83 -52q-5 0 -7.5 2.5t-2.5 5.5q0 4 3.5 8t31.5 26q53 41 87 93q21 33 36 88q20 74 33 92t40 18z" />
    <glyph glyph-name="Ucircumflex" unicode="&#xdb;" horiz-adv-x="1707" 
d="M2108 1410l-664 -1033q-91 -142 -118 -205.5t-27 -106.5q0 -22 9.5 -32t28.5 -10q22 0 48 11q38 15 95 58q58 43 114 101q73 77 100 111q7 9 13 9q4 0 6.5 -3t2.5 -7q0 -5 -5 -12q-7 -11 -62 -71q-56 -61 -103 -102q-75 -67 -127 -92q-53 -26 -87 -26t-54.5 25.5
t-20.5 90.5q0 67 18 136t65 172q-203 -238 -372 -350q-121 -79 -190 -79q-46 0 -74 32.5t-28 101.5q0 63 21 126q29 87 99 204q39 65 248 377q102 152 128 195q36 62 53.5 116t17.5 106q0 72 -50.5 116t-159.5 44q-50 0 -89 -10q80 -73 80 -200q0 -114 -48 -214
q-49 -100 -124 -174q-76 -74 -165 -117q-90 -44 -181 -44q-83 0 -135.5 52t-52.5 134q0 93 43 181t131 172q88 85 185 138q98 54 210 82q-77 38 -168 38q-129 0 -284.5 -92t-258.5 -264t-119 -359q-2 -19 -4 -22q-3 -4 -8 -4t-7.5 4t-2.5 14q0 86 37 194q38 109 106 214
t165 182q98 78 195 116q98 38 184 38q100 0 202 -51q49 11 106 11q137 0 205.5 -66.5t68.5 -192.5q0 -79 -22.5 -147.5t-100.5 -196.5t-264 -402q-113 -167 -147 -241q-35 -75 -35 -115q0 -26 12.5 -39.5t34.5 -13.5q42 0 114 38q129 67 270 208q170 168 343 436l384 592
l52 81q15 21 26 26q14 7 66 9zM913 1399q-102 -25 -170 -58q-123 -59 -224 -152t-139.5 -178.5t-38.5 -165.5q0 -73 39 -113t103 -40q73 0 158 44q85 45 162 124q77 80 130.5 189t53.5 198q0 47 -19 87t-55 65zM1709 1830h28q40 -165 132 -324q4 -5 4 -8q0 -2 -1.5 -3.5
t-3.5 -1.5q-4 0 -10 4q-28 22 -73 84q-24 33 -81 128q-83 -83 -128 -121q-77 -66 -124 -91q-6 -4 -11 -4q-2 0 -3.5 1.5t-1.5 3.5q0 5 14 18q87 85 155 167t104 147z" />
    <glyph glyph-name="Udieresis" unicode="&#xdc;" horiz-adv-x="1707" 
d="M2108 1410l-664 -1033q-91 -142 -118 -205.5t-27 -106.5q0 -22 9.5 -32t28.5 -10q22 0 48 11q38 15 95 58q58 43 114 101q73 77 100 111q7 9 13 9q4 0 6.5 -3t2.5 -7q0 -5 -5 -12q-7 -11 -62 -71q-56 -61 -103 -102q-75 -67 -127 -92q-53 -26 -87 -26t-54.5 25.5
t-20.5 90.5q0 67 18 136t65 172q-203 -238 -372 -350q-121 -79 -190 -79q-46 0 -74 32.5t-28 101.5q0 63 21 126q29 87 99 204q39 65 248 377q102 152 128 195q36 62 53.5 116t17.5 106q0 72 -50.5 116t-159.5 44q-50 0 -89 -10q80 -73 80 -200q0 -114 -48 -214
q-49 -100 -124 -174q-76 -74 -165 -117q-90 -44 -181 -44q-83 0 -135.5 52t-52.5 134q0 93 43 181t131 172q88 85 185 138q98 54 210 82q-77 38 -168 38q-129 0 -284.5 -92t-258.5 -264t-119 -359q-2 -19 -4 -22q-3 -4 -8 -4t-7.5 4t-2.5 14q0 86 37 194q38 109 106 214
t165 182q98 78 195 116q98 38 184 38q100 0 202 -51q49 11 106 11q137 0 205.5 -66.5t68.5 -192.5q0 -79 -22.5 -147.5t-100.5 -196.5t-264 -402q-113 -167 -147 -241q-35 -75 -35 -115q0 -26 12.5 -39.5t34.5 -13.5q42 0 114 38q129 67 270 208q170 168 343 436l384 592
l52 81q15 21 26 26q14 7 66 9zM913 1399q-102 -25 -170 -58q-123 -59 -224 -152t-139.5 -178.5t-38.5 -165.5q0 -73 39 -113t103 -40q73 0 158 44q85 45 162 124q77 80 130.5 189t53.5 198q0 47 -19 87t-55 65zM1496 1642q0 42 20.5 64t54.5 22q27 0 42.5 -15.5t15.5 -44.5
q0 -37 -22.5 -60t-55.5 -23q-25 0 -40 15.5t-15 41.5zM1792 1642q0 42 20.5 64t54.5 22q28 0 43 -15.5t15 -44.5q0 -37 -22.5 -60t-55.5 -23q-25 0 -40 15.5t-15 41.5z" />
    <glyph glyph-name="Yacute" unicode="&#xdd;" horiz-adv-x="1820" 
d="M1647 735q-113 -130 -194 -200q-122 -106 -227 -157q-72 -35 -123 -35q-47 0 -70 30q-31 38 -31 119q0 51 17.5 110.5t55.5 130.5q23 42 82 126q136 194 167 264q32 71 32 129q0 64 -57 112.5t-157 48.5q-137 0 -268 -59q-132 -59 -231 -143q-99 -85 -146 -175
q-29 -54 -29 -120q0 -70 40 -109t114 -39q105 0 208.5 56.5t195 187t117.5 283.5q1 8 4 11t8 3t8.5 -5t3.5 -17q0 -56 -29 -156q-30 -100 -74 -173q-44 -74 -97 -120q-54 -46 -135 -78t-167 -32q-103 0 -161.5 52.5t-58.5 133.5q0 104 78 204q103 132 272.5 223t343.5 91
q131 0 200 -68.5t69 -201.5q0 -83 -31 -161q-32 -79 -153 -260q-121 -182 -147 -237q-27 -56 -27 -82q0 -23 17 -39t47 -16q32 0 73 17q83 35 185 114t208 197q66 74 163 208q121 164 201 252q81 88 167 149q86 62 206 117q33 16 42 16q6 0 9.5 -4.5t3.5 -12.5q0 -5 -3 -8
q-3 -4 -28 -13q-119 -45 -202 -110t-144 -152q-45 -65 -149 -266q-203 -396 -316 -586q-114 -191 -256 -315q-142 -125 -338 -195.5t-392 -70.5q-272 0 -420 125t-148 290q0 112 71.5 221t206.5 178.5t280 69.5q180 0 299 -100q91 -78 91 -197q0 -140 -117 -245t-304 -105
q-71 0 -138 18q-32 9 -32 18q0 4 2.5 6.5t7.5 2.5q2 0 7 -2q65 -22 149 -22q178 0 287.5 96.5t109.5 223.5q0 105 -70 164q-92 76 -257 76q-227 0 -384 -140.5t-157 -301.5q0 -170 146.5 -262.5t358.5 -92.5q171 0 331.5 59.5t282.5 172t281 374.5q100 165 219 404z
M1858 1829q23 0 36 -12.5t13 -34.5q0 -32 -40 -88q-52 -74 -147 -146q-67 -52 -83 -52q-5 0 -7.5 2.5t-2.5 5.5q0 4 3.5 8t31.5 26q53 41 87 93q21 33 36 88q20 74 33 92t40 18z" />
    <glyph glyph-name="Thorn" unicode="&#xde;" horiz-adv-x="1593" 
d="M892 1048h-142q34 77 81 128q68 75 172 132.5t228 88.5q125 31 300 31q45 0 103 -4q-144 -105 -235 -215.5t-161 -255.5q78 62 158 96q81 34 142 34q75 0 118.5 -42.5t43.5 -113.5q0 -160 -138 -299q-171 -173 -427 -173q-82 0 -162 14q-94 -133 -143 -187
q-79 -88 -175 -156q-97 -68 -192 -102q-96 -34 -182 -34q-78 0 -137 26t-87 68t-28 83q0 34 23 57t60 23q36 0 57.5 -20.5t21.5 -51.5q0 -18 -9 -41q-15 -35 -15 -47q0 -26 29.5 -48t95.5 -22q82 0 165.5 36t163.5 113q60 58 138 179q54 85 174 298q153 275 223 375
q70 101 167.5 192t263.5 195q-52 3 -76 3q-145 0 -279 -50t-214 -128q-60 -57 -126 -182zM987 493q72 -10 131 -10q95 0 173 33.5t140 92.5t102 140t40 153q0 53 -31 84t-87 31q-38 0 -90 -23q-53 -23 -146 -91q-26 -43 -70 -125q-90 -166 -162 -285z" />
    <glyph glyph-name="germandbls" unicode="&#xdf;" horiz-adv-x="797" 
d="M-242 -564l-135 -5l642 1138q-98 -84 -220 -234q-42 -51 -49 -56q-4 -4 -9 -4t-8 2.5t-3 6.5q0 6 6 13l104 123q37 43 77 84q41 41 89 81q18 16 26 28q9 13 66 119q114 209 230 349q116 141 191 183q44 25 92 25t74 -26.5t26 -78.5q0 -50 -23 -105q-44 -102 -140 -215
q-70 -83 -167 -157q-40 -30 -49 -43q-15 -22 -15 -43q0 -24 35 -110q52 -129 52 -236q0 -73 -29 -142q56 36 155 162q7 9 14 9q5 0 7.5 -2.5t2.5 -7.5q0 -6 -7 -14q-86 -108 -136 -155q-82 -77 -142.5 -106t-123.5 -29q-62 0 -94 29.5t-32 74.5q0 33 16 50t38 17
q18 0 29.5 -12t11.5 -34t-13 -46q-9 -15 -9 -23t8.5 -15t22.5 -7q52 0 117 85q87 113 87 243q0 83 -32 183q-21 66 -21 91q0 27 13 48q14 22 54 52q59 44 101 88q77 80 134 165q57 86 79 142q13 34 13 70q0 33 -16.5 50t-45.5 17q-46 0 -91 -34q-80 -59 -179 -215
q-62 -99 -208 -381z" />
    <glyph glyph-name="agrave" unicode="&#xe0;" horiz-adv-x="797" 
d="M512 408l62 104q18 31 29 37q8 5 39 8q52 4 84 3q-61 -84 -159 -239q-98 -156 -127 -229q-10 -25 -10 -40q0 -13 7.5 -20.5t21.5 -7.5q30 0 69 20q54 28 119 98q65 71 129 152q7 9 14 9q4 0 7 -3t3 -8q0 -6 -20 -29l-95 -110q-55 -62 -98 -96q-43 -35 -85 -52
q-27 -10 -48 -10q-34 0 -59 32t-25 103q0 20 3 50q-109 -118 -187 -162q-40 -23 -77 -23q-48 0 -83 44.5t-35 143.5q0 43 8 82q1 7 1 11l1 4v1h-1q-2 0 -3 -1q-4 -3 -8 -3q-5 0 -7.5 2.5t-2.5 6.5q0 5 3 9q18 27 77 87q43 43 92 79q74 56 144 82t128 26q49 0 73 -24.5
t24 -74.5q0 -31 -8 -62zM493 469q0 40 -17 58t-51 18q-63 0 -129 -55q-88 -74 -156.5 -195.5t-68.5 -204.5q0 -33 13.5 -48.5t36.5 -15.5q47 0 115 56q121 97 189 209t68 178zM339 1003q27 0 42 -20q11 -15 29 -82.5t47 -109t92 -90.5q21 -16 21 -23q0 -3 -2.5 -5.5
t-6.5 -2.5q-17 0 -85 52q-94 72 -146 145q-40 57 -40 89q0 22 13 34.5t36 12.5z" />
    <glyph glyph-name="aacute" unicode="&#xe1;" horiz-adv-x="797" 
d="M512 408l62 104q18 31 29 37q8 5 39 8q52 4 84 3q-61 -84 -159 -239q-98 -156 -127 -229q-10 -25 -10 -40q0 -13 7.5 -20.5t21.5 -7.5q30 0 69 20q54 28 119 98q65 71 129 152q7 9 14 9q4 0 7 -3t3 -8q0 -6 -20 -29l-95 -110q-55 -62 -98 -96q-43 -35 -85 -52
q-27 -10 -48 -10q-34 0 -59 32t-25 103q0 20 3 50q-109 -118 -187 -162q-40 -23 -77 -23q-48 0 -83 44.5t-35 143.5q0 43 8 82q1 7 1 11l1 4v1h-1q-2 0 -3 -1q-4 -3 -8 -3q-5 0 -7.5 2.5t-2.5 6.5q0 5 3 9q18 27 77 87q43 43 92 79q74 56 144 82t128 26q49 0 73 -24.5
t24 -74.5q0 -31 -8 -62zM493 469q0 40 -17 58t-51 18q-63 0 -129 -55q-88 -74 -156.5 -195.5t-68.5 -204.5q0 -33 13.5 -48.5t36.5 -15.5q47 0 115 56q121 97 189 209t68 178zM674 1003q23 0 36 -12.5t13 -34.5q0 -32 -40 -88q-52 -74 -147 -146q-67 -52 -83 -52
q-5 0 -7.5 2.5t-2.5 5.5q0 4 3.5 8t31.5 26q53 41 87 93q21 33 36 88q20 74 33 92t40 18z" />
    <glyph glyph-name="acircumflex" unicode="&#xe2;" horiz-adv-x="797" 
d="M512 408l62 104q18 31 29 37q8 5 39 8q52 4 84 3q-61 -84 -159 -239q-98 -156 -127 -229q-10 -25 -10 -40q0 -13 7.5 -20.5t21.5 -7.5q30 0 69 20q54 28 119 98q65 71 129 152q7 9 14 9q4 0 7 -3t3 -8q0 -6 -20 -29l-95 -110q-55 -62 -98 -96q-43 -35 -85 -52
q-27 -10 -48 -10q-34 0 -59 32t-25 103q0 20 3 50q-109 -118 -187 -162q-40 -23 -77 -23q-48 0 -83 44.5t-35 143.5q0 43 8 82q1 7 1 11l1 4v1h-1q-2 0 -3 -1q-4 -3 -8 -3q-5 0 -7.5 2.5t-2.5 6.5q0 5 3 9q18 27 77 87q43 43 92 79q74 56 144 82t128 26q49 0 73 -24.5
t24 -74.5q0 -31 -8 -62zM493 469q0 40 -17 58t-51 18q-63 0 -129 -55q-88 -74 -156.5 -195.5t-68.5 -204.5q0 -33 13.5 -48.5t36.5 -15.5q47 0 115 56q121 97 189 209t68 178zM556 1005h28q40 -165 132 -324q4 -5 4 -8q0 -2 -1.5 -3.5t-3.5 -1.5q-4 0 -10 4q-28 22 -73 84
q-24 33 -81 128q-83 -83 -128 -121q-77 -66 -124 -91q-6 -4 -11 -4q-2 0 -3.5 1.5t-1.5 3.5q0 5 14 18q87 85 155 167t104 147z" />
    <glyph glyph-name="atilde" unicode="&#xe3;" horiz-adv-x="797" 
d="M512 408l62 104q18 31 29 37q8 5 39 8q52 4 84 3q-61 -84 -159 -239q-98 -156 -127 -229q-10 -25 -10 -40q0 -13 7.5 -20.5t21.5 -7.5q30 0 69 20q54 28 119 98q65 71 129 152q7 9 14 9q4 0 7 -3t3 -8q0 -6 -20 -29l-95 -110q-55 -62 -98 -96q-43 -35 -85 -52
q-27 -10 -48 -10q-34 0 -59 32t-25 103q0 20 3 50q-109 -118 -187 -162q-40 -23 -77 -23q-48 0 -83 44.5t-35 143.5q0 43 8 82q1 7 1 11l1 4v1h-1q-2 0 -3 -1q-4 -3 -8 -3q-5 0 -7.5 2.5t-2.5 6.5q0 5 3 9q18 27 77 87q43 43 92 79q74 56 144 82t128 26q49 0 73 -24.5
t24 -74.5q0 -31 -8 -62zM493 469q0 40 -17 58t-51 18q-63 0 -129 -55q-88 -74 -156.5 -195.5t-68.5 -204.5q0 -33 13.5 -48.5t36.5 -15.5q47 0 115 56q121 97 189 209t68 178zM411 920q15 0 31 -4q17 -4 78 -25q94 -31 120 -37t51 -6q40 0 59.5 13t40.5 56q7 14 9.5 16.5
t7.5 2.5t8 -3t3 -9q0 -22 -23.5 -66t-57 -65t-80.5 -21q-26 0 -48 5q-36 8 -132 42q-41 15 -57 18.5t-34 3.5q-34 0 -55 -14.5t-48 -60.5q-6 -10 -13 -10q-5 0 -7 2.5t-2 5.5q0 20 25 67.5t59 70.5q26 18 65 18z" />
    <glyph glyph-name="adieresis" unicode="&#xe4;" horiz-adv-x="797" 
d="M512 408l62 104q18 31 29 37q8 5 39 8q52 4 84 3q-61 -84 -159 -239q-98 -156 -127 -229q-10 -25 -10 -40q0 -13 7.5 -20.5t21.5 -7.5q30 0 69 20q54 28 119 98q65 71 129 152q7 9 14 9q4 0 7 -3t3 -8q0 -6 -20 -29l-95 -110q-55 -62 -98 -96q-43 -35 -85 -52
q-27 -10 -48 -10q-34 0 -59 32t-25 103q0 20 3 50q-109 -118 -187 -162q-40 -23 -77 -23q-48 0 -83 44.5t-35 143.5q0 43 8 82q1 7 1 11l1 4v1h-1q-2 0 -3 -1q-4 -3 -8 -3q-5 0 -7.5 2.5t-2.5 6.5q0 5 3 9q18 27 77 87q43 43 92 79q74 56 144 82t128 26q49 0 73 -24.5
t24 -74.5q0 -31 -8 -62zM493 469q0 40 -17 58t-51 18q-63 0 -129 -55q-88 -74 -156.5 -195.5t-68.5 -204.5q0 -33 13.5 -48.5t36.5 -15.5q47 0 115 56q121 97 189 209t68 178zM343 818q0 42 20.5 64t54.5 22q27 0 42.5 -15.5t15.5 -44.5q0 -37 -22.5 -60t-55.5 -23
q-25 0 -40 15.5t-15 41.5zM639 818q0 42 20.5 64t54.5 22q28 0 43 -15.5t15 -44.5q0 -37 -22.5 -60t-55.5 -23q-25 0 -40 15.5t-15 41.5z" />
    <glyph glyph-name="aring" unicode="&#xe5;" horiz-adv-x="797" 
d="M512 408l62 104q18 31 29 37q8 5 39 8q52 4 84 3q-61 -84 -159 -239q-98 -156 -127 -229q-10 -25 -10 -40q0 -13 7.5 -20.5t21.5 -7.5q30 0 69 20q54 28 119 98q65 71 129 152q7 9 14 9q4 0 7 -3t3 -8q0 -6 -20 -29l-95 -110q-55 -62 -98 -96q-43 -35 -85 -52
q-27 -10 -48 -10q-34 0 -59 32t-25 103q0 20 3 50q-109 -118 -187 -162q-40 -23 -77 -23q-48 0 -83 44.5t-35 143.5q0 43 8 82q1 7 1 11l1 4v1h-1q-2 0 -3 -1q-4 -3 -8 -3q-5 0 -7.5 2.5t-2.5 6.5q0 5 3 9q18 27 77 87q43 43 92 79q74 56 144 82t128 26q49 0 73 -24.5
t24 -74.5q0 -31 -8 -62zM493 469q0 40 -17 58t-51 18q-63 0 -129 -55q-88 -74 -156.5 -195.5t-68.5 -204.5q0 -33 13.5 -48.5t36.5 -15.5q47 0 115 56q121 97 189 209t68 178zM441 801q0 59 41.5 101t100.5 42t100.5 -42t41.5 -101t-41.5 -100.5t-100.5 -41.5t-100.5 41.5
t-41.5 100.5zM583 690q47 0 79.5 32.5t32.5 78.5t-33 79t-79 33t-78.5 -33t-32.5 -79t32.5 -78.5t78.5 -32.5z" />
    <glyph glyph-name="ae" unicode="&#xe6;" horiz-adv-x="1024" 
d="M693 559l-62 -90q74 59 121 79q48 21 94 21q54 0 83 -26t29 -65q0 -33 -20 -65q-29 -49 -87 -89q-58 -41 -154 -77q-97 -36 -208 -57q-34 -68 -34 -104q0 -30 19 -47.5t56 -17.5q111 0 237.5 67.5t233.5 202.5q12 15 19 15q5 0 7.5 -2.5t2.5 -7.5q0 -10 -59 -73
q-104 -111 -227 -170.5t-241 -59.5q-64 0 -96 30.5t-32 86.5q0 33 14 80q-83 -98 -153 -143q-71 -45 -118 -45q-52 0 -88.5 43t-36.5 124q0 53 12 90q7 24 7 26q0 1 -1 2t-3 1t-8.5 -5.5t-10.5 -5.5q-5 0 -7.5 2.5t-2.5 7.5q0 6 8 15q2 2 11 12q58 69 136.5 132.5t155.5 93
t136 29.5q42 0 69.5 -19.5t40.5 -58.5l20 40q8 15 12.5 18t21.5 4zM505 225q194 32 291.5 121t97.5 152q0 20 -14 33.5t-36 13.5q-27 0 -63 -16q-36 -17 -81 -57q-60 -55 -116 -124q-38 -48 -79 -123zM510 462q0 36 -25 59t-66 23q-92 0 -217.5 -154t-125.5 -291
q0 -33 15 -49.5t39 -16.5q84 0 232 161t148 268z" />
    <glyph glyph-name="ccedilla" unicode="&#xe7;" horiz-adv-x="569" 
d="M167 -5l-46 -104q118 3 168 -32q36 -26 36 -75q0 -57 -51 -93q-81 -56 -234 -56q-87 0 -108 9q-8 4 -8 11q0 4 3.5 7t11.5 3q6 0 31 -2q26 -2 41 -2q93 0 161 30t68 86q0 36 -23 55t-87 19h-57l71 145q-69 10 -106 77t-37 147q0 36 5 61v2q-1 1 -2 1q-3 0 -5 -2
q-4 -5 -9 -5t-7.5 3t-2.5 8q0 6 8 16q4 4 12 14q108 135 205.5 193t197.5 58q64 0 95.5 -27.5t31.5 -71.5q0 -40 -22.5 -64t-54.5 -24q-22 0 -36.5 14t-14.5 36q0 16 7.5 26.5t26 18t23.5 14t5 17.5q0 18 -11.5 28.5t-33.5 10.5q-93 0 -208.5 -135.5t-115.5 -301.5
q0 -45 20 -66t59 -21q148 0 373 269q11 12 17 12q4 0 6.5 -2.5t2.5 -6.5q0 -6 -7 -15q-73 -88 -145 -153q-72 -66 -130 -98t-124 -34z" />
    <glyph glyph-name="egrave" unicode="&#xe8;" horiz-adv-x="569" 
d="M91 202q-10 -52 -10 -86q0 -48 21.5 -71t60.5 -23q76 0 162 56q87 56 218 209q14 17 19 17t8 -2.5t3 -7.5q0 -6 -7 -14q-100 -118 -163 -174q-64 -56 -128 -83.5t-114 -27.5q-70 0 -120 57t-50 157q0 28 7 64v7q-1 0 -2 -1q-4 -3 -7 -3q-4 0 -7 3t-3 9q0 5 3 8
q13 19 74 80t122.5 104.5t120.5 66t102 22.5q54 0 83 -26.5t29 -67.5q0 -50 -38 -94q-51 -60 -165 -109q-114 -50 -219 -70zM98 225q175 35 264 120.5t89 158.5q0 21 -10 31t-31 10q-34 0 -69 -21q-86 -53 -159 -148q-52 -67 -84 -151zM223 1003q27 0 42 -20
q11 -15 29 -82.5t47 -109t92 -90.5q21 -16 21 -23q0 -3 -2.5 -5.5t-6.5 -2.5q-17 0 -85 52q-94 72 -146 145q-40 57 -40 89q0 22 13 34.5t36 12.5z" />
    <glyph glyph-name="eacute" unicode="&#xe9;" horiz-adv-x="569" 
d="M91 202q-10 -52 -10 -86q0 -48 21.5 -71t60.5 -23q76 0 162 56q87 56 218 209q14 17 19 17t8 -2.5t3 -7.5q0 -6 -7 -14q-100 -118 -163 -174q-64 -56 -128 -83.5t-114 -27.5q-70 0 -120 57t-50 157q0 28 7 64v7q-1 0 -2 -1q-4 -3 -7 -3q-4 0 -7 3t-3 9q0 5 3 8
q13 19 74 80t122.5 104.5t120.5 66t102 22.5q54 0 83 -26.5t29 -67.5q0 -50 -38 -94q-51 -60 -165 -109q-114 -50 -219 -70zM98 225q175 35 264 120.5t89 158.5q0 21 -10 31t-31 10q-34 0 -69 -21q-86 -53 -159 -148q-52 -67 -84 -151zM558 1003q23 0 36 -12.5t13 -34.5
q0 -32 -40 -88q-52 -74 -147 -146q-67 -52 -83 -52q-5 0 -7.5 2.5t-2.5 5.5q0 4 3.5 8t31.5 26q53 41 87 93q21 33 36 88q20 74 33 92t40 18z" />
    <glyph glyph-name="ecircumflex" unicode="&#xea;" horiz-adv-x="569" 
d="M91 202q-10 -52 -10 -86q0 -48 21.5 -71t60.5 -23q76 0 162 56q87 56 218 209q14 17 19 17t8 -2.5t3 -7.5q0 -6 -7 -14q-100 -118 -163 -174q-64 -56 -128 -83.5t-114 -27.5q-70 0 -120 57t-50 157q0 28 7 64v7q-1 0 -2 -1q-4 -3 -7 -3q-4 0 -7 3t-3 9q0 5 3 8
q13 19 74 80t122.5 104.5t120.5 66t102 22.5q54 0 83 -26.5t29 -67.5q0 -50 -38 -94q-51 -60 -165 -109q-114 -50 -219 -70zM98 225q175 35 264 120.5t89 158.5q0 21 -10 31t-31 10q-34 0 -69 -21q-86 -53 -159 -148q-52 -67 -84 -151zM440 1005h28q40 -165 132 -324
q4 -5 4 -8q0 -2 -1.5 -3.5t-3.5 -1.5q-4 0 -10 4q-28 22 -73 84q-24 33 -81 128q-83 -83 -128 -121q-77 -66 -124 -91q-6 -4 -11 -4q-2 0 -3.5 1.5t-1.5 3.5q0 5 14 18q87 85 155 167t104 147z" />
    <glyph glyph-name="edieresis" unicode="&#xeb;" horiz-adv-x="569" 
d="M91 202q-10 -52 -10 -86q0 -48 21.5 -71t60.5 -23q76 0 162 56q87 56 218 209q14 17 19 17t8 -2.5t3 -7.5q0 -6 -7 -14q-100 -118 -163 -174q-64 -56 -128 -83.5t-114 -27.5q-70 0 -120 57t-50 157q0 28 7 64v7q-1 0 -2 -1q-4 -3 -7 -3q-4 0 -7 3t-3 9q0 5 3 8
q13 19 74 80t122.5 104.5t120.5 66t102 22.5q54 0 83 -26.5t29 -67.5q0 -50 -38 -94q-51 -60 -165 -109q-114 -50 -219 -70zM98 225q175 35 264 120.5t89 158.5q0 21 -10 31t-31 10q-34 0 -69 -21q-86 -53 -159 -148q-52 -67 -84 -151zM227 818q0 42 20.5 64t54.5 22
q27 0 42.5 -15.5t15.5 -44.5q0 -37 -22.5 -60t-55.5 -23q-25 0 -40 15.5t-15 41.5zM523 818q0 42 20.5 64t54.5 22q28 0 43 -15.5t15 -44.5q0 -37 -22.5 -60t-55.5 -23q-25 0 -40 15.5t-15 41.5z" />
    <glyph glyph-name="igrave" unicode="&#xec;" 
d="M212 545l128 7l-254 -408q-30 -48 -30 -85q0 -21 11 -32t28 -11q27 0 66 21q61 34 140 111t135 148q6 8 13 8q5 0 7.5 -3t2.5 -7t-2 -9q-2 -2 -56 -64q-54 -63 -122 -123q-69 -61 -121 -86q-40 -19 -70 -19q-39 0 -64.5 29t-25.5 88q0 55 25 111q37 82 165 265
q-49 -49 -165 -178q-25 -27 -27 -28q-4 -3 -8 -3q-5 0 -7.5 2.5t-2.5 7.5q0 6 7 14zM167 1003q27 0 42 -20q11 -15 29 -82.5t47 -109t92 -90.5q21 -16 21 -23q0 -3 -2.5 -5.5t-6.5 -2.5q-17 0 -85 52q-94 72 -146 145q-40 57 -40 89q0 22 13 34.5t36 12.5z" />
    <glyph glyph-name="iacute" unicode="&#xed;" 
d="M212 545l128 7l-254 -408q-30 -48 -30 -85q0 -21 11 -32t28 -11q27 0 66 21q61 34 140 111t135 148q6 8 13 8q5 0 7.5 -3t2.5 -7t-2 -9q-2 -2 -56 -64q-54 -63 -122 -123q-69 -61 -121 -86q-40 -19 -70 -19q-39 0 -64.5 29t-25.5 88q0 55 25 111q37 82 165 265
q-49 -49 -165 -178q-25 -27 -27 -28q-4 -3 -8 -3q-5 0 -7.5 2.5t-2.5 7.5q0 6 7 14zM501 1003q23 0 36 -12.5t13 -34.5q0 -32 -40 -88q-52 -74 -147 -146q-67 -52 -83 -52q-5 0 -7.5 2.5t-2.5 5.5q0 4 3.5 8t31.5 26q53 41 87 93q21 33 36 88q20 74 33 92t40 18z" />
    <glyph glyph-name="icircumflex" unicode="&#xee;" 
d="M212 545l128 7l-254 -408q-30 -48 -30 -85q0 -21 11 -32t28 -11q27 0 66 21q61 34 140 111t135 148q6 8 13 8q5 0 7.5 -3t2.5 -7t-2 -9q-2 -2 -56 -64q-54 -63 -122 -123q-69 -61 -121 -86q-40 -19 -70 -19q-39 0 -64.5 29t-25.5 88q0 55 25 111q37 82 165 265
q-49 -49 -165 -178q-25 -27 -27 -28q-4 -3 -8 -3q-5 0 -7.5 2.5t-2.5 7.5q0 6 7 14zM384 1005h28q40 -165 132 -324q4 -5 4 -8q0 -2 -1.5 -3.5t-3.5 -1.5q-4 0 -10 4q-28 22 -73 84q-24 33 -81 128q-83 -83 -128 -121q-77 -66 -124 -91q-6 -4 -11 -4q-2 0 -3.5 1.5t-1.5 3.5
q0 5 14 18q87 85 155 167t104 147z" />
    <glyph glyph-name="idieresis" unicode="&#xef;" 
d="M212 545l128 7l-254 -408q-30 -48 -30 -85q0 -21 11 -32t28 -11q27 0 66 21q61 34 140 111t135 148q6 8 13 8q5 0 7.5 -3t2.5 -7t-2 -9q-2 -2 -56 -64q-54 -63 -122 -123q-69 -61 -121 -86q-40 -19 -70 -19q-39 0 -64.5 29t-25.5 88q0 55 25 111q37 82 165 265
q-49 -49 -165 -178q-25 -27 -27 -28q-4 -3 -8 -3q-5 0 -7.5 2.5t-2.5 7.5q0 6 7 14zM170 817q0 42 20.5 64t54.5 22q27 0 42.5 -15.5t15.5 -44.5q0 -37 -22.5 -60t-55.5 -23q-25 0 -40 15.5t-15 41.5zM466 817q0 42 20.5 64t54.5 22q28 0 43 -15.5t15 -44.5q0 -37 -22.5 -60
t-55.5 -23q-25 0 -40 15.5t-15 41.5z" />
    <glyph glyph-name="eth" unicode="&#xf0;" horiz-adv-x="683" 
d="M901 1152v-24q-60 43 -125 43q-64 0 -105.5 -51.5t-41.5 -180.5q0 -35 4 -86h145q17 0 22.5 -3.5t5.5 -10.5t-5 -10.5t-23 -3.5h-142q2 -37 2 -84q0 -163 -47 -295t-160 -275q40 -1 66 7q43 12 82 40q40 28 89 83q10 11 16 11q4 0 7 -2.5t3 -6.5q0 -12 -57 -66
q-95 -89 -199 -89q-10 0 -23 1q-96 -91 -156 -122q-60 -32 -118 -32q-32 0 -62 19.5t-48.5 65.5t-18.5 111q0 49 17 122l-32 -34q-5 -4 -10 -4q-4 0 -7 3t-3 7q0 6 8 15q73 83 150 143t139 91q81 40 144 40q43 0 75.5 -24.5t54.5 -82.5q2 51 2 86q0 42 -2 82l-17 190h-130
q-20 0 -23 2q-6 4 -6 11t6 11q4 3 25 4h128q2 106 32 180.5t88.5 120t123.5 45.5q72 0 126 -47zM500 452q0 50 -20.5 73t-56.5 23q-51 0 -106 -44q-82 -64 -154.5 -199t-72.5 -208q0 -36 18.5 -56t49.5 -20q52 0 124 51q100 71 159 180t59 200z" />
    <glyph glyph-name="ntilde" unicode="&#xf1;" horiz-adv-x="909" 
d="M9 7l268 391q59 87 59 117q0 14 -8 22t-20 8q-41 0 -93 -38q-77 -57 -210 -218q-12 -15 -19 -15q-5 0 -7.5 3t-2.5 7q0 6 8 15q87 103 141 158t100 83q46 29 88 29q33 0 54 -24.5t21 -73.5q0 -41 -23 -96q-24 -55 -105 -169l240 246q79 79 122 102q30 16 58 16
q34 0 56 -25.5t22 -73.5q0 -29 -9 -57t-27 -59q-10 -17 -60 -86q-82 -114 -107 -162q-11 -22 -11 -39q0 -20 9.5 -30t23.5 -10q23 0 51 16q51 28 128 104q77 77 132 143q10 13 16 13q5 0 8 -3t3 -7q0 -6 -8 -15q-69 -83 -147 -157q-79 -75 -131 -107q-27 -16 -56 -16
q-34 0 -58 29q-32 39 -32 97t22 105q23 48 140 199q44 56 51.5 69.5t7.5 23.5q0 9 -6.5 15t-18.5 6q-18 0 -39 -9q-31 -14 -82 -62q-125 -117 -236 -238q-62 -68 -175 -213zM465 921q15 0 31 -4q17 -4 78 -25q94 -31 120 -37t51 -6q40 0 59.5 13t40.5 56q7 14 9.5 16.5
t7.5 2.5t8 -3t3 -9q0 -22 -23.5 -66t-57 -65t-80.5 -21q-26 0 -48 5q-36 8 -132 42q-41 15 -57 18.5t-34 3.5q-34 0 -55 -14.5t-48 -60.5q-6 -10 -13 -10q-5 0 -7 2.5t-2 5.5q0 20 25 67.5t59 70.5q26 18 65 18z" />
    <glyph glyph-name="ograve" unicode="&#xf2;" horiz-adv-x="682" 
d="M404 145q-84 -86 -143 -118t-115 -32q-60 0 -95.5 44.5t-35.5 156.5q0 34 5 70q4 26 4 29q0 2 -1 3t-2 1q-4 0 -10 -6q-20 -23 -29 -23q-5 0 -7.5 2.5t-2.5 6.5q0 6 8 15q74 86 148.5 145.5t149.5 94.5t136 35q63 0 97.5 -36t34.5 -104q0 -128 -122 -259q11 -2 22 -2
q58 0 107 27q49 28 110 100q7 9 13 9q5 0 7.5 -3t2.5 -7q0 -8 -31 -43q-60 -64 -116 -86.5t-135 -19.5zM501 454q0 47 -20.5 69.5t-57.5 22.5q-52 0 -112 -51q-97 -81 -156.5 -197t-59.5 -213q0 -34 15.5 -50t44.5 -16q59 0 129 50q94 68 155.5 177.5t61.5 207.5zM281 1003
q27 0 42 -20q11 -15 29 -82.5t47 -109t92 -90.5q21 -16 21 -23q0 -3 -2.5 -5.5t-6.5 -2.5q-17 0 -85 52q-94 72 -146 145q-40 57 -40 89q0 22 13 34.5t36 12.5z" />
    <glyph glyph-name="oacute" unicode="&#xf3;" horiz-adv-x="682" 
d="M404 145q-84 -86 -143 -118t-115 -32q-60 0 -95.5 44.5t-35.5 156.5q0 34 5 70q4 26 4 29q0 2 -1 3t-2 1q-4 0 -10 -6q-20 -23 -29 -23q-5 0 -7.5 2.5t-2.5 6.5q0 6 8 15q74 86 148.5 145.5t149.5 94.5t136 35q63 0 97.5 -36t34.5 -104q0 -128 -122 -259q11 -2 22 -2
q58 0 107 27q49 28 110 100q7 9 13 9q5 0 7.5 -3t2.5 -7q0 -8 -31 -43q-60 -64 -116 -86.5t-135 -19.5zM501 454q0 47 -20.5 69.5t-57.5 22.5q-52 0 -112 -51q-97 -81 -156.5 -197t-59.5 -213q0 -34 15.5 -50t44.5 -16q59 0 129 50q94 68 155.5 177.5t61.5 207.5zM615 1003
q23 0 36 -12.5t13 -34.5q0 -32 -40 -88q-52 -74 -147 -146q-67 -52 -83 -52q-5 0 -7.5 2.5t-2.5 5.5q0 4 3.5 8t31.5 26q53 41 87 93q21 33 36 88q20 74 33 92t40 18z" />
    <glyph glyph-name="ocircumflex" unicode="&#xf4;" horiz-adv-x="682" 
d="M404 145q-84 -86 -143 -118t-115 -32q-60 0 -95.5 44.5t-35.5 156.5q0 34 5 70q4 26 4 29q0 2 -1 3t-2 1q-4 0 -10 -6q-20 -23 -29 -23q-5 0 -7.5 2.5t-2.5 6.5q0 6 8 15q74 86 148.5 145.5t149.5 94.5t136 35q63 0 97.5 -36t34.5 -104q0 -128 -122 -259q11 -2 22 -2
q58 0 107 27q49 28 110 100q7 9 13 9q5 0 7.5 -3t2.5 -7q0 -8 -31 -43q-60 -64 -116 -86.5t-135 -19.5zM501 454q0 47 -20.5 69.5t-57.5 22.5q-52 0 -112 -51q-97 -81 -156.5 -197t-59.5 -213q0 -34 15.5 -50t44.5 -16q59 0 129 50q94 68 155.5 177.5t61.5 207.5zM498 1005
h28q40 -165 132 -324q4 -5 4 -8q0 -2 -1.5 -3.5t-3.5 -1.5q-4 0 -10 4q-28 22 -73 84q-24 33 -81 128q-83 -83 -128 -121q-77 -66 -124 -91q-6 -4 -11 -4q-2 0 -3.5 1.5t-1.5 3.5q0 5 14 18q87 85 155 167t104 147z" />
    <glyph glyph-name="otilde" unicode="&#xf5;" horiz-adv-x="682" 
d="M404 145q-84 -86 -143 -118t-115 -32q-60 0 -95.5 44.5t-35.5 156.5q0 34 5 70q4 26 4 29q0 2 -1 3t-2 1q-4 0 -10 -6q-20 -23 -29 -23q-5 0 -7.5 2.5t-2.5 6.5q0 6 8 15q74 86 148.5 145.5t149.5 94.5t136 35q63 0 97.5 -36t34.5 -104q0 -128 -122 -259q11 -2 22 -2
q58 0 107 27q49 28 110 100q7 9 13 9q5 0 7.5 -3t2.5 -7q0 -8 -31 -43q-60 -64 -116 -86.5t-135 -19.5zM501 454q0 47 -20.5 69.5t-57.5 22.5q-52 0 -112 -51q-97 -81 -156.5 -197t-59.5 -213q0 -34 15.5 -50t44.5 -16q59 0 129 50q94 68 155.5 177.5t61.5 207.5zM353 920
q15 0 31 -4q17 -4 78 -25q94 -31 120 -37t51 -6q40 0 59.5 13t40.5 56q7 14 9.5 16.5t7.5 2.5t8 -3t3 -9q0 -22 -23.5 -66t-57 -65t-80.5 -21q-26 0 -48 5q-36 8 -132 42q-41 15 -57 18.5t-34 3.5q-34 0 -55 -14.5t-48 -60.5q-6 -10 -13 -10q-5 0 -7 2.5t-2 5.5
q0 20 25 67.5t59 70.5q26 18 65 18z" />
    <glyph glyph-name="odieresis" unicode="&#xf6;" horiz-adv-x="682" 
d="M404 145q-84 -86 -143 -118t-115 -32q-60 0 -95.5 44.5t-35.5 156.5q0 34 5 70q4 26 4 29q0 2 -1 3t-2 1q-4 0 -10 -6q-20 -23 -29 -23q-5 0 -7.5 2.5t-2.5 6.5q0 6 8 15q74 86 148.5 145.5t149.5 94.5t136 35q63 0 97.5 -36t34.5 -104q0 -128 -122 -259q11 -2 22 -2
q58 0 107 27q49 28 110 100q7 9 13 9q5 0 7.5 -3t2.5 -7q0 -8 -31 -43q-60 -64 -116 -86.5t-135 -19.5zM501 454q0 47 -20.5 69.5t-57.5 22.5q-52 0 -112 -51q-97 -81 -156.5 -197t-59.5 -213q0 -34 15.5 -50t44.5 -16q59 0 129 50q94 68 155.5 177.5t61.5 207.5zM285 818
q0 42 20.5 64t54.5 22q27 0 42.5 -15.5t15.5 -44.5q0 -37 -22.5 -60t-55.5 -23q-25 0 -40 15.5t-15 41.5zM581 818q0 42 20.5 64t54.5 22q28 0 43 -15.5t15 -44.5q0 -37 -22.5 -60t-55.5 -23q-25 0 -40 15.5t-15 41.5z" />
    <glyph glyph-name="divide" unicode="&#xf7;" horiz-adv-x="819" 
d="M373 519q0 26 18.5 44.5t44.5 18.5t44.5 -18.5t18.5 -44.5t-18.5 -44.5t-44.5 -18.5t-44.5 18.5t-18.5 44.5zM719 252h-566v61h566v-61zM373 47q0 26 18.5 44.5t44.5 18.5t44.5 -18.5t18.5 -44.5t-18.5 -44.5t-44.5 -18.5t-44.5 18.5t-18.5 44.5z" />
    <glyph glyph-name="oslash" unicode="&#xf8;" horiz-adv-x="683" 
d="M462 563l98 179h28l-103 -189q61 -33 61 -124q0 -126 -122 -259q11 -2 21 -2q62 0 109.5 26t109.5 102q6 8 12 8q5 0 7.5 -3t2.5 -8q0 -6 -8 -15q-3 -2 -11 -12q-61 -74 -118.5 -99t-144.5 -22q-74 -75 -124 -106q-51 -32 -98 -41l-127 -230h-28l124 227q-62 -2 -99 42
t-37 152q0 46 7 91q2 12 2 15q0 2 -1 3t-3 1q-4 0 -20 -17q-11 -12 -18 -12q-5 0 -7.5 2.5t-2.5 6.5t3 9q25 36 99.5 105t142 109t117.5 53.5t82 13.5q26 0 46 -6zM451 542q-14 4 -29 4q-51 0 -112 -51q-98 -83 -156.5 -199t-58.5 -211q0 -35 17 -51t52 -15zM196 24
q64 18 140 88.5t120.5 166.5t44.5 171q0 59 -28 81z" />
    <glyph glyph-name="ugrave" unicode="&#xf9;" horiz-adv-x="797" 
d="M250 564l113 5l-251 -394q-45 -70 -45 -114q0 -17 10 -28.5t24 -11.5q21 0 46 12q49 24 133 101q84 78 149 166q103 140 181 259l130 10l-193 -286q-78 -115 -101 -165q-14 -33 -14 -59q0 -16 8 -25t22 -9q39 0 100 47q96 75 191 194q25 31 29 35q4 3 9 3q4 0 6.5 -2.5
t2.5 -6.5q0 -15 -107 -130q-158 -168 -238 -168q-35 0 -56 27q-28 35 -28 102q0 36 14 87q-128 -137 -202 -186q-47 -32 -89 -32q-35 0 -57 27q-29 37 -29 99q0 41 13 81q14 40 54 102q17 26 141 198q-50 -36 -189 -190l-29 -31q-3 -3 -8 -3q-4 0 -7 3t-3 7q0 6 24 32
q119 129 246 244zM337 1003q27 0 42 -20q11 -15 29 -82.5t47 -109t92 -90.5q21 -16 21 -23q0 -3 -2.5 -5.5t-6.5 -2.5q-17 0 -85 52q-94 72 -146 145q-40 57 -40 89q0 22 13 34.5t36 12.5z" />
    <glyph glyph-name="uacute" unicode="&#xfa;" horiz-adv-x="797" 
d="M250 564l113 5l-251 -394q-45 -70 -45 -114q0 -17 10 -28.5t24 -11.5q21 0 46 12q49 24 133 101q84 78 149 166q103 140 181 259l130 10l-193 -286q-78 -115 -101 -165q-14 -33 -14 -59q0 -16 8 -25t22 -9q39 0 100 47q96 75 191 194q25 31 29 35q4 3 9 3q4 0 6.5 -2.5
t2.5 -6.5q0 -15 -107 -130q-158 -168 -238 -168q-35 0 -56 27q-28 35 -28 102q0 36 14 87q-128 -137 -202 -186q-47 -32 -89 -32q-35 0 -57 27q-29 37 -29 99q0 41 13 81q14 40 54 102q17 26 141 198q-50 -36 -189 -190l-29 -31q-3 -3 -8 -3q-4 0 -7 3t-3 7q0 6 24 32
q119 129 246 244zM672 1003q23 0 36 -12.5t13 -34.5q0 -32 -40 -88q-52 -74 -147 -146q-67 -52 -83 -52q-5 0 -7.5 2.5t-2.5 5.5q0 4 3.5 8t31.5 26q53 41 87 93q21 33 36 88q20 74 33 92t40 18z" />
    <glyph glyph-name="ucircumflex" unicode="&#xfb;" horiz-adv-x="797" 
d="M250 564l113 5l-251 -394q-45 -70 -45 -114q0 -17 10 -28.5t24 -11.5q21 0 46 12q49 24 133 101q84 78 149 166q103 140 181 259l130 10l-193 -286q-78 -115 -101 -165q-14 -33 -14 -59q0 -16 8 -25t22 -9q39 0 100 47q96 75 191 194q25 31 29 35q4 3 9 3q4 0 6.5 -2.5
t2.5 -6.5q0 -15 -107 -130q-158 -168 -238 -168q-35 0 -56 27q-28 35 -28 102q0 36 14 87q-128 -137 -202 -186q-47 -32 -89 -32q-35 0 -57 27q-29 37 -29 99q0 41 13 81q14 40 54 102q17 26 141 198q-50 -36 -189 -190l-29 -31q-3 -3 -8 -3q-4 0 -7 3t-3 7q0 6 24 32
q119 129 246 244zM554 1005h28q40 -165 132 -324q4 -5 4 -8q0 -2 -1.5 -3.5t-3.5 -1.5q-4 0 -10 4q-28 22 -73 84q-24 33 -81 128q-83 -83 -128 -121q-77 -66 -124 -91q-6 -4 -11 -4q-2 0 -3.5 1.5t-1.5 3.5q0 5 14 18q87 85 155 167t104 147z" />
    <glyph glyph-name="udieresis" unicode="&#xfc;" horiz-adv-x="797" 
d="M250 564l113 5l-251 -394q-45 -70 -45 -114q0 -17 10 -28.5t24 -11.5q21 0 46 12q49 24 133 101q84 78 149 166q103 140 181 259l130 10l-193 -286q-78 -115 -101 -165q-14 -33 -14 -59q0 -16 8 -25t22 -9q39 0 100 47q96 75 191 194q25 31 29 35q4 3 9 3q4 0 6.5 -2.5
t2.5 -6.5q0 -15 -107 -130q-158 -168 -238 -168q-35 0 -56 27q-28 35 -28 102q0 36 14 87q-128 -137 -202 -186q-47 -32 -89 -32q-35 0 -57 27q-29 37 -29 99q0 41 13 81q14 40 54 102q17 26 141 198q-50 -36 -189 -190l-29 -31q-3 -3 -8 -3q-4 0 -7 3t-3 7q0 6 24 32
q119 129 246 244zM341 818q0 42 20.5 64t54.5 22q27 0 42.5 -15.5t15.5 -44.5q0 -37 -22.5 -60t-55.5 -23q-25 0 -40 15.5t-15 41.5zM637 818q0 42 20.5 64t54.5 22q28 0 43 -15.5t15 -44.5q0 -37 -22.5 -60t-55.5 -23q-25 0 -40 15.5t-15 41.5z" />
    <glyph glyph-name="yacute" unicode="&#xfd;" horiz-adv-x="910" 
d="M745 547l130 10l-340 -553q104 50 200 133t154 156q9 11 15 11q5 0 8 -3t3 -8t-10 -17q-106 -123 -211 -203q-75 -58 -181 -109q-145 -246 -226 -353q-109 -145 -215 -214q-58 -37 -111 -37q-44 0 -71 27.5t-27 76.5q0 40 20 82q29 63 105 135q76 73 206 155
q20 12 235 135l175 337q-173 -192 -268 -257q-64 -44 -110 -44q-31 0 -56.5 30.5t-25.5 87.5q0 43 16 82q16 40 85 140q70 100 84 128q11 22 11 43q0 14 -8.5 22t-24.5 8q-35 0 -92 -42t-190 -196q-27 -31 -29 -33q-4 -3 -9 -3q-4 0 -6.5 2.5t-2.5 7.5q0 8 12 21
q13 14 33 38q122 143 191 191q52 35 95 35q41 0 65.5 -26.5t24.5 -79.5q0 -50 -19 -96q-20 -47 -89 -146q-69 -100 -80 -123q-12 -24 -12 -40q0 -14 8 -22t20 -8q23 0 57 17q63 31 163 130q101 100 185 206q56 71 113 166zM413 -66q-194 -109 -297 -192q-104 -83 -163 -176
q-43 -67 -43 -122q0 -32 16.5 -48.5t44.5 -16.5q40 0 89 36q90 67 168 185.5t185 333.5zM730 1003q23 0 36 -12.5t13 -34.5q0 -32 -40 -88q-52 -74 -147 -146q-67 -52 -83 -52q-5 0 -7.5 2.5t-2.5 5.5q0 4 3.5 8t31.5 26q53 41 87 93q21 33 36 88q20 74 33 92t40 18z" />
    <glyph glyph-name="thorn" unicode="&#xfe;" horiz-adv-x="796" 
d="M626 1017l-301 -517q107 76 179 76q56 0 94 -42.5t38 -115.5q0 -130 -69 -235q24 0 63 10q40 10 75 33q35 24 71 68q12 15 19 15q5 0 7.5 -2.5t2.5 -7.5t-9 -16q-34 -44 -74 -71q-40 -28 -79 -40q-30 -9 -91 -15q-75 -79 -158 -120.5t-152 -41.5q-57 0 -89 35.5
t-34 114.5l-386 -666h-112l635 1075l-163 -170q-61 -64 -87 -93q-10 -12 -15 -12t-8 3t-3 7q0 5 7 13q3 3 8 9l173 189q85 96 109 127q64 86 110 159l125 200zM145 119q0 -46 22.5 -70.5t58.5 -24.5q50 0 106 44q85 66 155 195t70 206q0 41 -19.5 62t-51.5 21q-45 0 -98 -37
q-78 -53 -160.5 -190t-82.5 -206z" />
    <glyph glyph-name="ydieresis" unicode="&#xff;" horiz-adv-x="910" 
d="M745 547l130 10l-340 -553q104 50 200 133t154 156q9 11 15 11q5 0 8 -3t3 -8t-10 -17q-106 -123 -211 -203q-75 -58 -181 -109q-145 -246 -226 -353q-109 -145 -215 -214q-58 -37 -111 -37q-44 0 -71 27.5t-27 76.5q0 40 20 82q29 63 105 135q76 73 206 155
q20 12 235 135l175 337q-173 -192 -268 -257q-64 -44 -110 -44q-31 0 -56.5 30.5t-25.5 87.5q0 43 16 82q16 40 85 140q70 100 84 128q11 22 11 43q0 14 -8.5 22t-24.5 8q-35 0 -92 -42t-190 -196q-27 -31 -29 -33q-4 -3 -9 -3q-4 0 -6.5 2.5t-2.5 7.5q0 8 12 21
q13 14 33 38q122 143 191 191q52 35 95 35q41 0 65.5 -26.5t24.5 -79.5q0 -50 -19 -96q-20 -47 -89 -146q-69 -100 -80 -123q-12 -24 -12 -40q0 -14 8 -22t20 -8q23 0 57 17q63 31 163 130q101 100 185 206q56 71 113 166zM413 -66q-194 -109 -297 -192q-104 -83 -163 -176
q-43 -67 -43 -122q0 -32 16.5 -48.5t44.5 -16.5q40 0 89 36q90 67 168 185.5t185 333.5zM399 818q0 42 20.5 64t54.5 22q27 0 42.5 -15.5t15.5 -44.5q0 -37 -22.5 -60t-55.5 -23q-25 0 -40 15.5t-15 41.5zM695 818q0 42 20.5 64t54.5 22q28 0 43 -15.5t15 -44.5
q0 -37 -22.5 -60t-55.5 -23q-25 0 -40 15.5t-15 41.5z" />
    <glyph glyph-name="Cacute" unicode="&#x106;" horiz-adv-x="1365" 
d="M1076 1254q130 78 258 125q128 48 233 48q83 0 121 -34t38 -93q0 -51 -35 -115t-136 -146q-139 -113 -347 -215q-155 -76 -313 -109q-108 -22 -269 -30q-112 -254 -112 -439q0 -94 28 -145.5t73.5 -71t117.5 -20.5q-8 51 -8 96q0 228 125.5 374.5t265.5 146.5
q74 0 117.5 -43t43.5 -117q0 -153 -132 -286q-162 -166 -384 -199q9 -60 34 -170q3 -13 3 -16q0 -5 -2.5 -8t-7.5 -3q-4 0 -8 6q-9 16 -35 143l-9 46q-103 2 -165 32q-83 40 -132.5 125t-49.5 203q0 158 97 352q-127 23 -208 70q-82 47 -132.5 131.5t-50.5 185.5
q0 167 132.5 289t342.5 122q167 0 306 -73q106 -54 200 -162zM1050 1242q-99 111 -212.5 167t-267.5 56q-211 0 -342 -134q-100 -102 -100 -224q0 -53 20 -103t58 -92.5t96 -76.5q59 -34 124 -50q66 -17 101 -17q85 128 188 224q104 97 335 250zM1076 1211
q-95 -65 -178 -143t-143 -157q-43 -57 -98 -153q172 0 299 23q128 23 282 92t272 157q118 89 164 170q33 57 33 106q0 44 -32 72t-103 28q-99 0 -231 -50q-132 -51 -243 -131q46 -62 96 -158q22 -41 22 -51q0 -4 -2.5 -6.5t-6.5 -2.5t-8 4q-4 5 -18 33q-47 94 -105 167z
M758 10q122 10 248.5 87t187 178t60.5 192q0 60 -33.5 95.5t-84.5 35.5q-71 0 -147 -57q-102 -76 -167.5 -219t-65.5 -265q0 -25 2 -47zM1466 1829q23 0 36 -12.5t13 -34.5q0 -32 -40 -88q-52 -74 -147 -146q-67 -52 -83 -52q-5 0 -7.5 2.5t-2.5 5.5q0 4 3.5 8t31.5 26
q53 41 87 93q21 33 36 88q20 74 33 92t40 18z" />
    <glyph glyph-name="cacute" unicode="&#x107;" horiz-adv-x="569" 
d="M402 569q65 0 96 -28t31 -73q0 -39 -21.5 -62.5t-52.5 -23.5q-25 0 -39.5 14t-14.5 37q0 16 7.5 25.5t25.5 17t23.5 14t5.5 17.5q0 18 -12 29t-35 11q-30 0 -61 -15q-56 -27 -112.5 -84.5t-93.5 -127.5q-29 -54 -42 -112.5t-13 -100.5t20 -63t57 -21q51 0 107 27t136 102
q80 76 135 143q7 9 14 9q4 0 8 -3q2 -2 2 -6q0 -7 -12 -22q-82 -97 -156 -161q-75 -65 -129 -91q-55 -26 -116 -26q-66 0 -112.5 56.5t-46.5 168.5q0 18 2 43l2 19q0 1 -0.5 1.5t-1.5 0.5q-2 0 -4 -2q-6 -5 -10 -5t-6.5 3t-2.5 8q0 7 11 20q78 96 125 138q63 55 134.5 89
t151.5 34zM558 1003q23 0 36 -12.5t13 -34.5q0 -32 -40 -88q-52 -74 -147 -146q-67 -52 -83 -52q-5 0 -7.5 2.5t-2.5 5.5q0 4 3.5 8t31.5 26q53 41 87 93q21 33 36 88q20 74 33 92t40 18z" />
    <glyph glyph-name="Ccaron" unicode="&#x10c;" horiz-adv-x="1365" 
d="M1076 1254q130 78 258 125q128 48 233 48q83 0 121 -34t38 -93q0 -51 -35 -115t-136 -146q-139 -113 -347 -215q-155 -76 -313 -109q-108 -22 -269 -30q-112 -254 -112 -439q0 -94 28 -145.5t73.5 -71t117.5 -20.5q-8 51 -8 96q0 228 125.5 374.5t265.5 146.5
q74 0 117.5 -43t43.5 -117q0 -153 -132 -286q-162 -166 -384 -199q9 -60 34 -170q3 -13 3 -16q0 -5 -2.5 -8t-7.5 -3q-4 0 -8 6q-9 16 -35 143l-9 46q-103 2 -165 32q-83 40 -132.5 125t-49.5 203q0 158 97 352q-127 23 -208 70q-82 47 -132.5 131.5t-50.5 185.5
q0 167 132.5 289t342.5 122q167 0 306 -73q106 -54 200 -162zM1050 1242q-99 111 -212.5 167t-267.5 56q-211 0 -342 -134q-100 -102 -100 -224q0 -53 20 -103t58 -92.5t96 -76.5q59 -34 124 -50q66 -17 101 -17q85 128 188 224q104 97 335 250zM1076 1211
q-95 -65 -178 -143t-143 -157q-43 -57 -98 -153q172 0 299 23q128 23 282 92t272 157q118 89 164 170q33 57 33 106q0 44 -32 72t-103 28q-99 0 -231 -50q-132 -51 -243 -131q46 -62 96 -158q22 -41 22 -51q0 -4 -2.5 -6.5t-6.5 -2.5t-8 4q-4 5 -18 33q-47 94 -105 167z
M758 10q122 10 248.5 87t187 178t60.5 192q0 60 -33.5 95.5t-84.5 35.5q-71 0 -147 -57q-102 -76 -167.5 -219t-65.5 -265q0 -25 2 -47zM1304 1493h-29q-41 172 -132 323q-3 6 -3 9q0 2 1.5 3.5t2.5 1.5q5 0 10 -5q30 -22 75 -86q25 -34 80 -125q116 117 212 186
q42 30 50 30q2 0 4 -1.5t2 -4.5q0 -4 -19 -23q-85 -81 -152.5 -164t-101.5 -144z" />
    <glyph glyph-name="ccaron" unicode="&#x10d;" horiz-adv-x="569" 
d="M402 569q65 0 96 -28t31 -73q0 -39 -21.5 -62.5t-52.5 -23.5q-25 0 -39.5 14t-14.5 37q0 16 7.5 25.5t25.5 17t23.5 14t5.5 17.5q0 18 -12 29t-35 11q-30 0 -61 -15q-56 -27 -112.5 -84.5t-93.5 -127.5q-29 -54 -42 -112.5t-13 -100.5t20 -63t57 -21q51 0 107 27t136 102
q80 76 135 143q7 9 14 9q4 0 8 -3q2 -2 2 -6q0 -7 -12 -22q-82 -97 -156 -161q-75 -65 -129 -91q-55 -26 -116 -26q-66 0 -112.5 56.5t-46.5 168.5q0 18 2 43l2 19q0 1 -0.5 1.5t-1.5 0.5q-2 0 -4 -2q-6 -5 -10 -5t-6.5 3t-2.5 8q0 7 11 20q78 96 125 138q63 55 134.5 89
t151.5 34zM396 668h-29q-41 172 -132 323q-3 6 -3 9q0 2 1.5 3.5t2.5 1.5q5 0 10 -5q30 -22 75 -86q25 -34 80 -125q116 117 212 186q42 30 50 30q2 0 4 -1.5t2 -4.5q0 -4 -19 -23q-85 -81 -152.5 -164t-101.5 -144z" />
    <glyph glyph-name="dcroat" unicode="&#x111;" horiz-adv-x="796" 
d="M876 868h138v-24h-152l-341 -593q-83 -145 -83 -189q0 -18 8 -27t20 -9q15 0 28 5q25 11 65 43q53 42 112 102q60 61 108 122q5 6 10 6q4 0 7 -3t3 -8q0 -6 -10 -17l-74 -86q-83 -89 -144 -140q-39 -32 -68 -43q-29 -12 -52 -12q-29 0 -49 27q-28 34 -28 89q0 37 17 91
q-80 -108 -167 -165q-65 -42 -116 -42q-24 0 -46 13.5t-36 37t-23.5 62.5t-9.5 83q0 47 9 91v3h-2q0 -1 -1 -2q-5 -6 -11 -6q-4 0 -7 2.5t-3 7.5q0 6 10 17q80 93 160.5 158.5t148 92t120.5 26.5q51 0 77.5 -25.5t26.5 -71.5q0 -19 -7 -50l233 410h-258v24h272l203 360
l121 4zM125 26q34 0 69 21q66 38 140 119q75 82 118 165q43 84 43 155q0 36 -15.5 53.5t-41.5 17.5q-58 0 -125 -52q-97 -76 -167 -199.5t-70 -223.5q0 -28 13 -42t36 -14z" />
    <glyph glyph-name="Gbreve" unicode="&#x11e;" horiz-adv-x="1707" 
d="M1408 1261q291 166 507 166q77 0 115 -33t38 -84t-27 -101q-42 -80 -154 -175t-279 -180q-167 -86 -334 -130q-113 -30 -245 -37q-21 -82 -21 -138q0 -75 29.5 -108.5t85.5 -33.5q62 0 127 26q93 36 215 132q96 75 253 232q35 35 47 35q6 0 9.5 -3.5t3.5 -8.5
q0 -7 -17 -31q-48 -67 -69 -105q-32 -59 -124 -260q-93 -202 -148 -291q-96 -156 -226 -267q-130 -112 -297.5 -177t-336.5 -65t-298.5 59.5t-188.5 152.5t-59 195q0 113 73 223t207 179.5t273 69.5q179 0 287 -92.5t108 -213.5q0 -134 -115 -236.5t-303 -102.5
q-99 0 -201 32q-59 19 -59 34q0 3 2.5 5.5t6.5 2.5q5 0 16 -6q34 -17 97 -32q64 -16 125 -16q189 0 298.5 96t109.5 221q0 117 -89.5 179t-234.5 62q-136 0 -275.5 -65.5t-208.5 -168.5t-69 -211q0 -86 53 -163.5t169.5 -126.5t254.5 -49q139 0 270 51.5t241 151.5t267 337
q158 237 238 370q56 92 107 142q8 9 9 11q1 1 1 2l-1 2h-2q-2 1 -15 -13q-88 -93 -197 -176q-109 -84 -190 -117q-82 -34 -147 -34q-102 0 -168 67t-66 176q0 24 5 61q-67 0 -154.5 26t-157 79.5t-106.5 122.5t-37 158q0 110 58.5 207.5t171.5 154.5t250 57q80 0 161 -20
q82 -20 139 -51q58 -31 99 -65q41 -35 93 -91zM1387 1249q-95 109 -216 162q-121 54 -254 54q-210 0 -329 -114.5t-119 -247.5q0 -69 31.5 -127.5t91.5 -108t147.5 -77t170.5 -27.5q30 78 73 138q66 93 166.5 179.5t237.5 168.5zM1422 1209q-149 -105 -238.5 -215
t-133.5 -236q212 0 412 69q201 69 365 189q117 87 168 160q51 74 51 138q0 38 -31 65t-92 27q-105 0 -230 -45q-125 -46 -250 -136q112 -166 112 -199q0 -4 -2.5 -6.5t-6.5 -2.5q-8 0 -18 23q-37 77 -106 169zM1398 1528q-53 0 -98.5 28t-69 80t-23.5 94q0 7 3 11q2 2 7 2
q4 0 6.5 -2.5t5.5 -13.5q16 -60 64 -96.5t116 -36.5q63 0 126 27q63 28 151 99q16 13 24 13q3 0 4.5 -1.5t1.5 -4.5q0 -8 -36 -47q-62 -68 -139.5 -110t-142.5 -42z" />
    <glyph glyph-name="gbreve" unicode="&#x11f;" horiz-adv-x="796" 
d="M623 550l133 12l-340 -572q177 99 361 305q8 9 14 9q4 0 7 -3t3 -7t-2 -8q-7 -12 -76 -82q-70 -70 -151 -134t-170 -112q-123 -221 -194 -316q-125 -170 -224 -235q-73 -47 -130 -47q-42 0 -69 28t-27 80q0 54 33 106q57 93 187 187q101 73 328 194l140 292
q-88 -122 -172 -182t-149 -60q-53 0 -85.5 39t-32.5 122q0 40 9 101q3 17 3 19q0 3 -2 5t-5 2q-4 0 -9 -6q-7 -8 -12 -8t-7.5 3t-2.5 7q0 5 3 10q23 34 101.5 103t159.5 114q47 25 97 39q51 14 98 14q52 0 78 -25.5t26 -74.5q0 -34 -11 -73q33 46 90 154zM78 84
q0 -26 13.5 -39.5t42.5 -13.5q61 0 132 55q101 78 177 195t76 198q0 32 -16.5 49t-48.5 17q-56 0 -133 -57q-102 -75 -172.5 -202t-70.5 -202zM291 -76q-186 -107 -267 -168q-117 -88 -173 -178q-39 -63 -39 -127q0 -36 14 -51.5t41 -15.5q32 0 75 23t92 79q74 84 165 244
q56 98 92 194zM504 704q-53 0 -98.5 28t-69 80t-23.5 94q0 7 3 11q2 2 7 2q4 0 6.5 -2.5t5.5 -13.5q16 -60 64 -96.5t116 -36.5q63 0 126 27q63 28 151 99q16 13 24 13q3 0 4.5 -1.5t1.5 -4.5q0 -8 -36 -47q-62 -68 -139.5 -110t-142.5 -42z" />
    <glyph glyph-name="Idotaccent" unicode="&#x130;" horiz-adv-x="1593" 
d="M1372 649q-85 0 -149 45q-90 63 -90 181q0 77 39.5 154t143.5 159q105 83 259 139q155 57 369 85q152 20 198 20q7 0 10 -2.5t3 -7.5q0 -4 -3 -6q-3 -3 -17 -6q-105 -25 -202.5 -102t-187.5 -214q-60 -92 -226 -420q50 0 129 46t141 121q6 9 11 9q4 0 6.5 -2.5t2.5 -6.5
q0 -20 -74 -84q-116 -100 -229 -108q-86 -157 -144 -240q-76 -109 -176 -186q-152 -117 -311 -176t-320 -59q-251 0 -411 136q-130 110 -130 270q0 113 72.5 223.5t204.5 180.5t271 70q114 0 214 -44.5t145.5 -115t45.5 -150.5q0 -84 -49 -163.5t-147 -128t-216 -48.5
q-119 0 -255 58q-21 9 -21 18q0 4 3 7t7 3t20 -7q126 -56 235 -56q113 0 207.5 44.5t143 120t48.5 147.5q0 64 -36.5 123t-109 92t-176.5 33q-129 0 -250 -51q-87 -38 -154.5 -96.5t-107 -133.5t-39.5 -168t49.5 -164.5t161 -122.5t265.5 -51q138 0 252 40q114 41 208 114
t194 205q67 88 172 276zM1386 675q91 166 164 273q74 108 167 206t193 171q54 39 121 68q-16 1 -23 1q-78 0 -228 -38t-257 -91q-107 -54 -171 -114q-65 -61 -102 -137t-37 -154q0 -91 46 -138t127 -47zM1825 1555q-27 0 -45.5 19t-18.5 45q0 27 18.5 45.5t45.5 18.5
t45.5 -18.5t18.5 -45.5q0 -26 -18.5 -45t-45.5 -19z" />
    <glyph glyph-name="dotlessi" unicode="&#x131;" 
d="M212 545l128 7l-254 -408q-30 -48 -30 -85q0 -21 11 -32t28 -11q27 0 66 21q61 34 140 111t135 148q6 8 13 8q5 0 7.5 -3t2.5 -7t-2 -9q-2 -2 -56 -64q-54 -63 -122 -123q-69 -61 -121 -86q-40 -19 -70 -19q-39 0 -64.5 29t-25.5 88q0 55 25 111q37 82 165 265
q-49 -49 -165 -178q-25 -27 -27 -28q-4 -3 -8 -3q-5 0 -7.5 2.5t-2.5 7.5q0 6 7 14z" />
    <glyph glyph-name="Lslash" unicode="&#x141;" horiz-adv-x="1479" 
d="M1442 748l7 -24l-436 -149q-118 -191 -242 -321q-61 -63 -150 -119l200 -65q64 -20 102 -27q39 -7 86 -7q90 0 169 31.5t138 79.5q38 30 145 150q10 10 15 10t8 -3t3 -6t-2 -7q-7 -10 -77 -85t-101 -99q-73 -59 -154 -90t-160 -31q-56 0 -125 17q-105 26 -292 97
q-112 -63 -189 -86t-159 -23q-118 0 -179 45q-44 33 -44 86q0 42 35 68q46 35 139 35q135 0 402 -76q75 62 115 115q71 94 156 256l-341 -117l-8 26l366 125q62 120 82 155q-110 -22 -214 -22q-168 0 -301 67q-101 50 -154.5 131t-53.5 182q0 108 58 204.5t182.5 157
t278.5 60.5q109 0 222 -32q113 -33 206 -97q94 -64 155 -142q113 114 204 165t149 51q48 0 74 -26t26 -79q0 -64 -52 -141q-86 -128 -241 -233t-371 -197q-50 -92 -84 -148zM1313 1204q-104 128 -254.5 194.5t-314.5 66.5q-142 0 -255.5 -53.5t-170.5 -138t-57 -172.5
q0 -130 114 -221q148 -119 392 -119q111 0 222 21q102 163 168 248t156 174zM1345 1165q-90 -144 -104 -168q-42 -74 -96 -184q288 88 491 295q126 127 126 228q0 35 -21 54.5t-61 19.5q-34 0 -64 -13q-58 -24 -130 -82q-73 -58 -128 -133q78 -120 78 -132q0 -4 -2.5 -6.5
t-5.5 -2.5q-4 0 -8 4q-6 7 -38 60q-25 41 -37 60zM543 111q-250 91 -387 91q-65 0 -96 -24.5t-31 -58.5q0 -40 39 -68q53 -39 153 -39q85 0 163 24q78 25 159 75z" />
    <glyph glyph-name="lslash" unicode="&#x142;" 
d="M630 1209l136 14q-137 -202 -434 -682l341 97l3 -24l-362 -103q-43 -67 -154 -252q-76 -126 -91 -168q-8 -23 -8 -43q0 -18 7.5 -26t19.5 -8q44 0 113 51q104 76 227 223q14 16 21 16q4 0 7 -2.5t3 -6.5q0 -13 -100 -118q-176 -184 -273 -184q-36 0 -60.5 27.5
t-24.5 79.5q0 37 13 79q14 43 52 108q18 31 118 187l-19 -5q-6 -6 -13 -15q-11 -12 -162 -182q-10 -11 -15 -11q-4 0 -7 3t-3 8t6 12l153 173l-165 -47l-2 24l195 55q21 21 69 86q91 120 181 259q126 196 228 375zM203 504l36 58q-22 -31 -48 -61z" />
    <glyph glyph-name="OE" unicode="&#x152;" horiz-adv-x="2048" 
d="M998 1289q33 -19 50 -32q17 -14 52 -48q47 22 71 28q36 10 69 10q92 0 159 -81t67 -238q0 -130 -58 -267q105 74 204 117q70 31 175 52q-78 38 -121 83q-38 -7 -68 -7q-40 0 -48 5q-7 3 -7 10q0 6 4 9.5t12 3.5h49q17 1 40 5q-17 34 -17 65q0 84 66 169
q88 116 236.5 192.5t259.5 76.5q58 0 89.5 -27.5t31.5 -67.5q0 -50 -39 -114q-53 -84 -174 -160q-160 -99 -360 -144q14 -47 42 -69.5t66 -22.5q11 0 30 3q26 4 36 4q17 0 25.5 -7t8.5 -16q0 -11 -9.5 -18.5t-30.5 -7.5q-9 0 -28 4q-33 7 -54 7q-70 0 -156.5 -37.5
t-156.5 -111t-118.5 -177.5t-48.5 -223q0 -98 44.5 -158t119.5 -76q-4 32 -4 79q0 92 25 184q26 92 70 160q44 69 90.5 109.5t99 62.5t99.5 22q61 0 102 -44t41 -120q0 -99 -62.5 -216.5t-176 -193t-245.5 -85.5q11 -87 29 -162q1 -5 1 -8q0 -4 -3 -7t-7 -3q-9 0 -17 24
q-21 63 -36 156q-90 9 -147.5 38t-91.5 73.5t-49 100.5t-15 139q-163 -191 -312 -269t-271 -78q-90 0 -157.5 39.5t-111.5 127.5t-44 206q0 111 44 242t136.5 270.5t205.5 249.5q79 76 211 167q-57 17 -123 17q-100 0 -203 -43.5t-181.5 -128t-114.5 -181.5
q-26 -71 -54 -208q-2 -13 -6 -17t-10 -4t-10 5t-4 15q0 42 25 144t86 192q62 90 138 147q77 57 162 84q86 28 165 28t162 -25q111 74 199 106q88 33 173 33q99 0 165.5 -67t66.5 -174q0 -57 -13 -86q-2 -5 -8 -5q-4 0 -6.5 2.5t-2.5 8.5q0 3 2 17q4 29 4 62
q0 95 -57.5 153.5t-149.5 58.5q-155 0 -322 -132zM1736 956q172 35 333 131q129 77 183 157q38 57 38 104q0 28 -22 47.5t-58 19.5q-68 0 -169 -50q-147 -74 -227 -175t-80 -198q0 -14 2 -36zM1067 1192q-45 50 -102 76q-120 -91 -242.5 -247t-202 -354t-79.5 -366
q0 -145 57 -212t146 -67q93 0 208 54q116 55 218 155t184 223q83 124 130.5 245t47.5 249q0 131 -59.5 202.5t-139.5 71.5q-58 0 -117 -32q60 -72 88.5 -157t28.5 -175q0 -107 -42 -209q-29 -70 -85 -138q-56 -69 -121 -107.5t-126 -38.5q-70 0 -122 53.5t-52 173.5
q0 150 99.5 317t282.5 283zM1084 1173q-91 -60 -149 -118q-59 -59 -110 -137q-51 -79 -79 -162q-29 -84 -29 -167q0 -93 33.5 -135t80.5 -42q59 0 137.5 58t138.5 191t60 274q0 69 -23.5 131.5t-59.5 106.5zM1548 19q80 -4 173 41q70 34 134 97q64 64 107 151q44 88 44 173
q0 59 -31 91.5t-77 32.5q-57 0 -124 -56q-99 -83 -163.5 -216t-64.5 -262q0 -12 2 -52z" />
    <glyph glyph-name="oe" unicode="&#x153;" horiz-adv-x="1024" 
d="M527 367q68 93 159 145t163 52q60 0 88.5 -25t28.5 -67q0 -62 -69 -124q-99 -88 -345 -151q-16 -45 -16 -79q0 -48 22 -71.5t59 -23.5q49 0 121 35t149 109t119 130q5 7 12 7q4 0 7 -2.5t3 -7.5q0 -9 -55 -70q-114 -127 -204 -178q-91 -51 -157 -51q-61 0 -104 48
t-43 131q0 22 10 73q-100 -135 -180.5 -193.5t-149.5 -58.5q-58 0 -96.5 47t-38.5 144q0 32 6 77l2 21l1 9v4q-1 2 -2 2q-3 0 -15.5 -15t-19.5 -15q-5 0 -7.5 3t-2.5 7q0 5 3 9q14 20 75.5 82.5t125.5 109.5t118 68t102 21q67 0 100.5 -36t33.5 -110q0 -23 -3 -56zM560 221
q91 25 150 52q59 28 107 69q48 42 71 83.5t23 75.5q0 21 -11.5 32.5t-33.5 11.5q-31 0 -68.5 -17.5t-89 -67.5t-80.5 -98q-15 -24 -68 -141zM499 442q0 52 -23.5 77.5t-67.5 25.5q-52 0 -113 -51q-87 -72 -147 -196.5t-60 -209.5q0 -36 17 -55t46 -19q93 0 220.5 144.5
t127.5 283.5z" />
    <glyph glyph-name="Scedilla" unicode="&#x15e;" horiz-adv-x="1593" 
d="M592 -11l-44 -98q118 3 168 -32q37 -26 37 -75q0 -57 -52 -93q-80 -56 -234 -56q-87 0 -108 9q-8 4 -8 11q0 4 3.5 7t11.5 3q7 0 32 -2t40 -2q94 0 161.5 30t67.5 86q0 36 -23 55t-86 19h-57l66 137q-265 0 -406.5 120.5t-141.5 286.5q0 113 65.5 220t200 175t292.5 68
q117 0 207.5 -38t136.5 -109t46 -157q0 -135 -111.5 -235.5t-298.5 -100.5q-76 0 -143 14q-39 9 -94 32q-38 15 -42 20q-3 3 -3 7q0 3 2 5.5t6 2.5q6 0 18 -6q106 -56 242 -56q185 0 291.5 94.5t106.5 221.5q0 105 -72 165q-93 79 -256 79q-125 0 -232.5 -47t-179 -115.5
t-103.5 -136t-32 -142.5q0 -161 144 -254t339 -93q150 0 267 49t201 126.5t177 232.5q73 120 183 372q-61 -9 -123 -9q-189 0 -333 95t-144 265q0 139 118 244t324 105q166 0 301 -75q96 -54 182 -160q87 86 188 138q76 40 130 40q48 0 74.5 -26.5t26.5 -73.5
q0 -73 -60 -175t-214.5 -203t-332.5 -146q-114 -268 -199 -399q-86 -132 -186 -217t-236.5 -141t-300.5 -62zM1685 1240q-56 67 -109 108q-72 55 -164 88q-92 34 -192 34q-152 0 -273.5 -76.5t-121.5 -219.5q0 -91 51 -158q75 -96 198 -142.5t238 -46.5q41 0 87 7
q77 147 141 236.5t145 169.5zM1733 1210q31 -39 58 -92q16 -32 16 -37q0 -2 -1.5 -3.5t-4.5 -1.5q-5 0 -12 12q-43 73 -68 104q-88 -112 -192 -343q162 34 306 125.5t204.5 193.5t60.5 169q0 34 -20.5 55t-55.5 21q-125 0 -291 -203z" />
    <glyph glyph-name="scedilla" unicode="&#x15f;" 
d="M53 -5l-46 -104q118 3 168 -32q36 -26 36 -75q0 -57 -51 -93q-81 -56 -234 -56q-87 0 -108 9q-8 4 -8 11q0 4 3.5 7t11.5 3q6 0 31 -2q26 -2 41 -2q93 0 161 30t68 86q0 36 -23 55t-87 19h-57l70 144q-47 5 -74.5 33.5t-27.5 64.5q0 26 14.5 41.5t37.5 15.5
q21 0 31.5 -10t10.5 -26q0 -12 -14 -29t-14 -34t9.5 -25.5t27.5 -8.5q32 0 70 35q66 60 108 173q27 73 27 162q0 78 1 102t7 66q-56 -52 -202 -224l-45 -52q-3 -3 -8 -3q-4 0 -6.5 3t-2.5 8q0 4 2 8q8 13 165 193q56 63 103 102q19 38 33.5 50t32.5 12q15 0 24.5 -9t9.5 -23
q0 -18 -16.5 -34t-63.5 -26q-7 -36 -7 -60q0 -50 6 -95q3 -24 15 -69q18 -68 18 -101q0 -75 -57 -131q30 16 61 45q50 48 130 145q8 10 13 10t7.5 -2.5t2.5 -6.5q0 -8 -11 -21q-3 -3 -11 -13q-52 -65 -122 -132q-71 -68 -136 -99t-125 -35z" />
    <glyph glyph-name="Scaron" unicode="&#x160;" horiz-adv-x="1593" 
d="M1702 1254q87 86 188 138q76 40 130 40q48 0 74.5 -26.5t26.5 -73.5q0 -73 -60 -175t-214.5 -203t-332.5 -146q-111 -261 -196 -395q-86 -135 -194.5 -225.5t-254 -145t-311.5 -54.5q-256 0 -397.5 121t-141.5 286q0 113 65.5 220t200 175t292.5 68q117 0 207.5 -38
t136.5 -109t46 -157q0 -135 -111.5 -235.5t-298.5 -100.5q-76 0 -143 14q-39 9 -94 32q-38 15 -42 20q-3 3 -3 7q0 3 2 5.5t6 2.5q6 0 18 -6q106 -56 242 -56q185 0 291.5 94.5t106.5 221.5q0 105 -72 165q-93 79 -256 79q-125 0 -232.5 -47t-179 -115.5t-103.5 -136
t-32 -142.5q0 -161 144 -254t339 -93q150 0 267 49t201 126.5t177 232.5q73 120 183 372q-61 -9 -123 -9q-189 0 -333 95t-144 265q0 139 118 244t324 105q166 0 301 -75q96 -54 182 -160zM1685 1240q-56 67 -109 108q-72 55 -164 88q-92 34 -192 34q-152 0 -273.5 -76.5
t-121.5 -219.5q0 -91 51 -158q75 -96 198 -142.5t238 -46.5q41 0 87 7q77 147 141 236.5t145 169.5zM1733 1210q31 -39 58 -92q16 -32 16 -37q0 -2 -1.5 -3.5t-4.5 -1.5q-5 0 -12 12q-43 73 -68 104q-88 -112 -192 -343q162 34 306 125.5t204.5 193.5t60.5 169
q0 34 -20.5 55t-55.5 21q-125 0 -291 -203zM1441 1493h-29q-41 172 -132 323q-3 6 -3 9q0 2 1.5 3.5t2.5 1.5q5 0 10 -5q30 -22 75 -86q25 -34 80 -125q116 117 212 186q42 30 50 30q2 0 4 -1.5t2 -4.5q0 -4 -19 -23q-85 -81 -152.5 -164t-101.5 -144z" />
    <glyph glyph-name="scaron" unicode="&#x161;" 
d="M244 557q-27 -23 -64 -64q-38 -41 -144 -169l-38 -43q-5 -5 -10 -5t-8 3t-3 7q0 7 12 20q13 14 88 102q75 89 111 126q27 28 60 56q29 62 66 62q15 0 24.5 -9t9.5 -24t-12 -28t-69 -36q-6 -36 -6 -67q0 -71 20 -148t20 -111q0 -36 -12.5 -63.5t-44.5 -61.5q74 45 176 171
q23 28 28 28t7.5 -2.5t2.5 -7.5q0 -6 -11 -20q-93 -112 -161 -170q-69 -58 -131.5 -83t-114.5 -25q-50 0 -82 30t-32 70q0 24 14.5 39t38.5 15q20 0 31 -9.5t11 -24.5q0 -12 -10 -24q-19 -22 -19 -41q0 -15 9.5 -24t25.5 -9q30 0 60.5 22t71 85.5t60.5 136.5q15 53 15 132
q1 115 10 164zM339 668h-29q-41 172 -132 323q-3 6 -3 9q0 2 1.5 3.5t2.5 1.5q5 0 10 -5q30 -22 75 -86q25 -34 80 -125q116 117 212 186q42 30 50 30q2 0 4 -1.5t2 -4.5q0 -4 -19 -23q-85 -81 -152.5 -164t-101.5 -144z" />
    <glyph glyph-name="Ydieresis" unicode="&#x178;" horiz-adv-x="1820" 
d="M1647 735q-113 -130 -194 -200q-122 -106 -227 -157q-72 -35 -123 -35q-47 0 -70 30q-31 38 -31 119q0 51 17.5 110.5t55.5 130.5q23 42 82 126q136 194 167 264q32 71 32 129q0 64 -57 112.5t-157 48.5q-137 0 -268 -59q-132 -59 -231 -143q-99 -85 -146 -175
q-29 -54 -29 -120q0 -70 40 -109t114 -39q105 0 208.5 56.5t195 187t117.5 283.5q1 8 4 11t8 3t8.5 -5t3.5 -17q0 -56 -29 -156q-30 -100 -74 -173q-44 -74 -97 -120q-54 -46 -135 -78t-167 -32q-103 0 -161.5 52.5t-58.5 133.5q0 104 78 204q103 132 272.5 223t343.5 91
q131 0 200 -68.5t69 -201.5q0 -83 -31 -161q-32 -79 -153 -260q-121 -182 -147 -237q-27 -56 -27 -82q0 -23 17 -39t47 -16q32 0 73 17q83 35 185 114t208 197q66 74 163 208q121 164 201 252q81 88 167 149q86 62 206 117q33 16 42 16q6 0 9.5 -4.5t3.5 -12.5q0 -5 -3 -8
q-3 -4 -28 -13q-119 -45 -202 -110t-144 -152q-45 -65 -149 -266q-203 -396 -316 -586q-114 -191 -256 -315q-142 -125 -338 -195.5t-392 -70.5q-272 0 -420 125t-148 290q0 112 71.5 221t206.5 178.5t280 69.5q180 0 299 -100q91 -78 91 -197q0 -140 -117 -245t-304 -105
q-71 0 -138 18q-32 9 -32 18q0 4 2.5 6.5t7.5 2.5q2 0 7 -2q65 -22 149 -22q178 0 287.5 96.5t109.5 223.5q0 105 -70 164q-92 76 -257 76q-227 0 -384 -140.5t-157 -301.5q0 -170 146.5 -262.5t358.5 -92.5q171 0 331.5 59.5t282.5 172t281 374.5q100 165 219 404z
M1540 1643q0 42 20.5 64t54.5 22q27 0 42.5 -15.5t15.5 -44.5q0 -37 -22.5 -60t-55.5 -23q-25 0 -40 15.5t-15 41.5zM1836 1643q0 42 20.5 64t54.5 22q28 0 43 -15.5t15 -44.5q0 -37 -22.5 -60t-55.5 -23q-25 0 -40 15.5t-15 41.5z" />
    <glyph glyph-name="Zcaron" unicode="&#x17d;" horiz-adv-x="1593" 
d="M1379 1113q173 186 308 267q96 56 190 56q61 0 90 -25t29 -66q0 -56 -45 -109q-62 -76 -189.5 -130t-276.5 -54q-47 0 -94 7l-497 -576q67 -23 111 -56t70.5 -72t49.5 -102q6 -17 37 -133q16 -57 31 -72t35 -15q22 0 48 10q33 13 76 43q32 22 87 74q91 86 139 140
q12 15 17 15q4 0 7 -3t3 -7q0 -5 -4 -11q-9 -13 -84 -88q-76 -76 -113 -107q-59 -50 -119 -77t-104 -27q-45 0 -82.5 29t-63.5 88q-16 35 -33.5 119t-31.5 116.5t-35.5 53t-73.5 43.5q-124 -140 -253 -250q-130 -110 -236 -159q-106 -50 -178 -50q-77 0 -118 37.5t-41 93.5
q0 54 41 119t131.5 132.5t210.5 106.5q121 40 260 40q103 0 175 -19l493 577q-85 33 -144 91q-44 44 -81 128q-22 52 -36 71q-19 26 -47.5 40.5t-73.5 14.5q-119 0 -261 -78t-219 -198.5t-77 -232.5q0 -54 20 -99t58 -67t92 -22q121 0 239 116q154 152 197 369q2 9 4 11.5
t5 2.5t5 -4q3 -5 3 -21q0 -45 -27 -143q-28 -98 -69 -168q-42 -71 -86 -111q-44 -41 -106 -67.5t-132 -26.5t-122 28t-78 81.5t-26 116.5q0 121 84.5 249.5t236.5 211.5t293 83q69 0 124 -24.5t96 -71.5q31 -36 66 -106t54.5 -95t40.5 -38zM1418 1093q44 -15 96 -15
q123 0 239.5 47.5t177.5 120.5q44 52 44 99q0 31 -23 52t-65 21q-83 0 -184 -62.5t-285 -262.5zM823 459q-76 27 -178 27q-106 0 -209 -30q-104 -31 -195 -90q-92 -60 -146 -141q-37 -57 -37 -106q0 -48 36 -81t98 -33q56 0 119 27q121 50 235 144q115 94 277 283z
M1322 1493h-29q-41 172 -132 323q-3 6 -3 9q0 2 1.5 3.5t2.5 1.5q5 0 10 -5q30 -22 75 -86q25 -34 80 -125q116 117 212 186q42 30 50 30q2 0 4 -1.5t2 -4.5q0 -4 -19 -23q-85 -81 -152.5 -164t-101.5 -144z" />
    <glyph glyph-name="zcaron" unicode="&#x17e;" horiz-adv-x="683" 
d="M491 467q-62 -48 -118 -94q-138 -114 -229 -180q-47 -34 -47 -39q0 -2 1.5 -3.5t4.5 -1.5q5 0 26 15q64 43 104 58t76 15q44 0 67 -20.5t23 -53.5q0 -19 -7 -37q-5 -12 -26.5 -42.5t-21.5 -43.5q0 -7 5 -12t15 -5q18 0 40 13q44 25 117 100q73 76 113 124q29 36 34 41
q3 3 8 3t8 -3t3 -7q0 -6 -9 -16q-65 -79 -139 -154q-74 -76 -110 -99q-37 -23 -69 -23q-39 0 -68 28t-29 63q0 15 5 29t24 46q9 16 9 23t-7 12.5t-23 5.5q-20 0 -44 -9q-50 -19 -112 -58q-39 -24 -94 -71l-36 -46q-15 -16 -27 -22q-8 -5 -19 -5q-10 0 -16 6t-6 16
q0 16 16.5 32.5t97.5 63.5l126 112q51 43 172 138q71 55 150 111q-119 -53 -193 -53q-75 0 -121 38q-67 -60 -159 -173q-8 -10 -15 -10q-5 0 -8 2.5t-3 7.5q0 4 2 7q7 11 84 95q44 48 88 86q-10 16 -10 37q0 26 15.5 41.5t42.5 15.5q24 0 36.5 -11t12.5 -29q0 -17 -18 -45
q-8 -11 -8 -17q0 -7 10 -13q21 -13 57 -13q38 0 89 15q52 15 82 31q21 11 60 41q39 31 54 31q7 0 12 -5t5 -14q0 -15 -13 -26q-18 -16 -90 -49zM407 668h-29q-41 172 -132 323q-3 6 -3 9q0 2 1.5 3.5t2.5 1.5q5 0 10 -5q30 -22 75 -86q25 -34 80 -125q116 117 212 186
q42 30 50 30q2 0 4 -1.5t2 -4.5q0 -4 -19 -23q-85 -81 -152.5 -164t-101.5 -144z" />
    <glyph glyph-name="florin" unicode="&#x192;" horiz-adv-x="797" 
d="M425 543h-216q-25 0 -30 4q-6 4 -6 14q0 9 6.5 14.5t26.5 5.5h238q161 313 246 443q104 159 200 225q59 40 121 40q63 0 102 -41t39 -107q0 -52 -26 -82t-61 -30q-25 0 -40 13.5t-15 34.5q0 18 10 32q7 10 30.5 19.5t30.5 19t7 29.5q0 35 -21 55t-59 20q-31 0 -60 -15
q-39 -19 -72 -57q-50 -57 -105 -166q-74 -147 -207 -433h197q22 0 27 -4q6 -4 6 -14q0 -11 -5.5 -15.5t-24.5 -4.5h-216q-178 -374 -249 -507q-198 -365 -308 -512q-75 -101 -129.5 -131.5t-103.5 -30.5q-61 0 -101.5 41t-40.5 106q0 60 28.5 93t67.5 33q25 0 39.5 -13.5
t14.5 -33.5q0 -18 -10.5 -31.5t-35 -21t-32.5 -18t-8 -27.5q0 -33 23 -55.5t58 -22.5q33 0 65 19q46 26 106.5 117.5t207.5 399.5z" />
    <glyph glyph-name="circumflex" unicode="&#x2c6;" 
d="M358 1003h28q40 -165 132 -324q4 -5 4 -8q0 -2 -1.5 -3.5t-3.5 -1.5q-4 0 -10 4q-28 22 -73 84q-24 33 -81 128q-83 -83 -128 -121q-77 -66 -124 -91q-6 -4 -11 -4q-2 0 -3.5 1.5t-1.5 3.5q0 5 14 18q87 85 155 167t104 147z" />
    <glyph glyph-name="caron" unicode="&#x2c7;" 
d="M314 666h-29q-41 172 -132 323q-3 6 -3 9q0 2 1.5 3.5t2.5 1.5q5 0 10 -5q30 -22 75 -86q25 -34 80 -125q116 117 212 186q42 30 50 30q2 0 4 -1.5t2 -4.5q0 -4 -19 -23q-85 -81 -152.5 -164t-101.5 -144z" />
    <glyph glyph-name="breve" unicode="&#x2d8;" 
d="M313 702q-53 0 -98.5 28t-69 80t-23.5 94q0 7 3 11q2 2 7 2q4 0 6.5 -2.5t5.5 -13.5q16 -60 64 -96.5t116 -36.5q63 0 126 27q63 28 151 99q16 13 24 13q3 0 4.5 -1.5t1.5 -4.5q0 -8 -36 -47q-62 -68 -139.5 -110t-142.5 -42z" />
    <glyph glyph-name="dotaccent" unicode="&#x2d9;" 
d="M415 749q-27 0 -45.5 19t-18.5 45q0 27 18.5 45.5t45.5 18.5t45.5 -18.5t18.5 -45.5q0 -26 -18.5 -45t-45.5 -19z" />
    <glyph glyph-name="ring" unicode="&#x2da;" 
d="M159 898q0 59 41.5 101t100.5 42t100.5 -42t41.5 -101t-41.5 -100.5t-100.5 -41.5t-100.5 41.5t-41.5 100.5zM301 787q47 0 79.5 32.5t32.5 78.5t-33 79t-79 33t-78.5 -33t-32.5 -79t32.5 -78.5t78.5 -32.5z" />
    <glyph glyph-name="ogonek" unicode="&#x2db;" 
d="M161 43h24l-131 -119q-58 -53 -76 -82q-19 -29 -19 -52q0 -24 15.5 -38.5t44.5 -14.5q26 0 57 14q4 2 7 2t5 -2t2 -7q0 -10 -35 -34q-52 -37 -99 -37q-43 0 -66 22t-23 59q0 31 22.5 66t87.5 85l31 26q12 9 25 19z" />
    <glyph glyph-name="tilde" unicode="&#x2dc;" 
d="M210 916q15 0 31 -4q17 -4 78 -25q94 -31 120 -37t51 -6q40 0 59.5 13t40.5 56q7 14 9.5 16.5t7.5 2.5t8 -3t3 -9q0 -22 -23.5 -66t-57 -65t-80.5 -21q-26 0 -48 5q-36 8 -132 42q-41 15 -57 18.5t-34 3.5q-34 0 -55 -14.5t-48 -60.5q-6 -10 -13 -10q-5 0 -7 2.5t-2 5.5
q0 20 25 67.5t59 70.5q26 18 65 18z" />
    <glyph glyph-name="hungarumlaut" unicode="&#x2dd;" 
d="M672 1001q22 0 35 -12.5t13 -34.5q0 -32 -39 -88q-53 -74 -147 -146q-68 -52 -84 -52q-4 0 -6.5 2.5t-2.5 5.5q0 4 3 8t31 26q54 41 87 93q22 33 36 88q20 74 33 92t41 18zM458 1001q23 0 36 -12.5t13 -34.5q0 -32 -40 -88q-52 -74 -147 -146q-67 -52 -83 -52
q-5 0 -7.5 2.5t-2.5 5.5q0 4 3.5 8t31.5 26q53 41 87 93q21 33 36 88q20 74 33 92t40 18z" />
    <glyph glyph-name="pi" unicode="&#x3c0;" horiz-adv-x="1214" 
d="M1061 238h41q-19 -84 -39 -125q-29 -63 -70.5 -93.5t-94.5 -30.5q-58 0 -87 27.5t-29 75.5q0 36 18 125l60 282h-357q-53 -225 -83 -305q-44 -117 -98.5 -161t-118.5 -44q-59 0 -91 32t-32 88q0 36 11 90h43q-6 -35 -6 -59q0 -41 19.5 -61.5t55.5 -20.5q80 0 131 86
q51 87 116 355h-72q-84 0 -124 -23t-62 -90h-41q19 68 52.5 110t81.5 57q49 16 107 16h608q80 0 102 5q31 7 52 26t34 56h42q-17 -55 -46.5 -89.5t-72.5 -51t-126 -16.5h-49l-59 -282q-19 -92 -19 -123q0 -25 15.5 -39.5t45.5 -14.5q42 0 73 34q42 45 69 164z" />
    <glyph glyph-name="endash" unicode="&#x2013;" horiz-adv-x="1024" 
d="M1024 247h-1024v75h1024v-75z" />
    <glyph glyph-name="emdash" unicode="&#x2014;" horiz-adv-x="2048" 
d="M272 322h1517l-14 -75h-1517z" />
    <glyph glyph-name="quoteleft" unicode="&#x2018;" 
d="M270 667q-23 0 -36 13.5t-13 38.5q0 52 43.5 113.5t149.5 150.5q73 61 90 61q5 0 8 -2q3 -3 3 -6q0 -7 -16 -19q-76 -58 -107 -93q-31 -36 -40.5 -61t-12.5 -86.5t-23 -85.5t-46 -24z" />
    <glyph glyph-name="quoteright" unicode="&#x2019;" 
d="M544 1044q22 0 35 -13.5t13 -36.5q0 -49 -37.5 -107.5t-145.5 -154.5q-74 -65 -94 -65q-6 0 -9 2.5t-3 6.5q0 9 20 22q46 31 83 69t50.5 69t18 96t24 88.5t45.5 23.5z" />
    <glyph glyph-name="quotesinglbase" unicode="&#x201a;" 
d="M173 149q27 0 43.5 -16t16.5 -42q0 -52 -49 -119q-65 -90 -166 -166q-62 -46 -79 -46q-4 0 -7 3t-3 8q0 6 3.5 10.5t25.5 19.5q61 44 98 89q25 29 34 60q7 20 12 87t23.5 89.5t47.5 22.5z" />
    <glyph glyph-name="quotedblleft" unicode="&#x201c;" horiz-adv-x="796" 
d="M354 655q-27 0 -43.5 16.5t-16.5 41.5q0 46 45 111q61 87 168 168q68 51 86 51q4 0 7 -2.5t3 -7.5q0 -6 -6 -13q-2 -2 -40 -30q-59 -45 -90 -85q-22 -29 -31 -61q-6 -21 -12 -97q-4 -49 -23.5 -70.5t-46.5 -21.5zM652 655q-26 0 -42.5 16.5t-16.5 41.5q0 46 45 111
q60 87 168 168q67 51 86 51q4 0 7 -2.5t3 -7.5q0 -6 -6 -13q-3 -2 -40 -30q-60 -45 -90 -85q-22 -29 -32 -61q-6 -21 -12 -97q-3 -49 -23 -70.5t-47 -21.5z" />
    <glyph glyph-name="quotedblright" unicode="&#x201d;" horiz-adv-x="796" 
d="M534 1042q27 0 43.5 -15.5t16.5 -42.5q0 -52 -49 -119q-65 -90 -166 -165q-62 -46 -79 -46q-4 0 -7 3t-3 8t3.5 9.5t25.5 20.5q61 44 98 89q25 29 34 59q7 20 12 87.5t23.5 89.5t47.5 22zM822 1042q27 0 43 -15.5t16 -42.5q0 -52 -48 -119q-65 -90 -166 -165
q-62 -46 -79 -46q-4 0 -7 3t-3 8t3.5 9.5t24.5 20.5q62 44 99 89q24 29 34 59q7 20 12 87.5t23.5 89.5t47.5 22z" />
    <glyph glyph-name="quotedblbase" unicode="&#x201e;" horiz-adv-x="796" 
d="M173 149q27 0 43.5 -16t16.5 -42q0 -52 -49 -119q-65 -90 -166 -166q-62 -46 -79 -46q-4 0 -7 3t-3 8q0 6 3.5 10.5t25.5 19.5q61 44 98 89q25 29 34 60q7 20 12 87t23.5 89.5t47.5 22.5zM462 149q27 0 43.5 -16t16.5 -42q0 -52 -49 -119q-64 -90 -166 -166
q-62 -46 -78 -46q-5 0 -8 3t-3 8q0 6 3 10q4 5 26 20q61 44 99 89q24 29 33 60q7 20 12 87t23.5 89.5t47.5 22.5z" />
    <glyph glyph-name="dagger" unicode="&#x2020;" horiz-adv-x="1024" 
d="M164 -322h-38l332 647q71 139 83 270q44 43 79 95q51 74 118 208h-55q-58 0 -90 -7q-33 -7 -85 -29.5t-81 -22.5q-32 0 -54 21t-22 51q0 35 20.5 56t53.5 21q24 0 69 -21q86 -40 177 -40h81l19 36q37 71 55 128q10 33 15 98.5t21 88.5q25 36 70 36q33 0 54 -20.5
t21 -50.5q0 -22 -10.5 -39t-52 -53.5t-66.5 -69.5t-65 -113l-21 -41h33q67 0 129 11q37 7 94 29q38 15 62 15q33 0 52 -19.5t19 -54.5t-16 -50q-21 -21 -50 -21q-24 0 -72.5 21t-98.5 29q-51 9 -166 9q-36 -71 -71 -168q-22 -61 -29 -124q-42 -40 -72 -84q-49 -71 -101 -179
l-19 -38z" />
    <glyph glyph-name="daggerdbl" unicode="&#x2021;" horiz-adv-x="1024" 
d="M797 943l19 38q18 36 37 96q19 61 26.5 114.5t12.5 68.5q9 26 26 39.5t43 13.5q32 0 52 -20t20 -53q0 -22 -9.5 -40.5t-42.5 -50.5q-60 -59 -80 -86q-21 -28 -48 -82l-19 -38q89 0 156 12q51 8 118 32q33 12 52 12q31 0 50.5 -19.5t19.5 -52.5q0 -36 -17 -54t-49 -18
q-23 0 -69 18q-59 23 -108 32q-49 10 -125 10h-42l-97 -198q-43 -87 -58 -140t-18 -115q-27 -24 -46 -48q-45 -57 -62 -85q-47 -82 -63 -113l-68 -138q92 0 136 8q45 8 106 32q43 17 72 17q39 0 59 -19t20 -53q0 -36 -17.5 -54.5t-44.5 -18.5q-32 0 -92 24q-45 19 -84 26
q-54 10 -129 10h-41l-22 -45q-34 -66 -44 -103q-11 -38 -15 -95q-5 -78 -24.5 -104t-62.5 -26q-30 0 -49.5 19.5t-19.5 48.5q0 21 10 38.5t43 48.5q45 41 59 61q29 41 64 112l22 45h-51q-54 0 -97 -8q-44 -9 -96.5 -30t-73.5 -21q-32 0 -53 20.5t-21 54.5q0 33 20.5 53.5
t59.5 20.5q16 0 29 -3.5t42 -17.5q87 -41 178 -41h77l69 143q39 80 54 134q16 54 18 107q43 38 72 77q48 68 106 183l96 193h-46q-61 0 -96 -7q-36 -8 -84 -30.5t-87 -22.5q-35 0 -57 22t-22 54q0 33 20.5 53.5t58.5 20.5q28 0 72 -20q88 -42 178 -42h77z" />
    <glyph glyph-name="bullet" unicode="&#x2022;" horiz-adv-x="1024" 
d="M319 727q0 145 103 249t244 104q156 0 257.5 -99.5t101.5 -249.5q0 -149 -103 -252.5t-249 -103.5q-97 0 -181 48.5t-128.5 132.5t-44.5 171z" />
    <glyph glyph-name="ellipsis" unicode="&#x2026;" horiz-adv-x="2048" 
d="M267 126q31 0 53 -22t22 -53t-22 -53t-53 -22t-53 22t-22 53t22 53t53 22zM1633 126q31 0 53 -22t22 -53t-22 -53t-53 -22t-53 22t-22 53t21.5 53t53.5 22zM950 126q31 0 53 -22t22 -53t-22 -53t-53 -22t-53 22t-22 53t22 53t53 22z" />
    <glyph glyph-name="perthousand" unicode="&#x2030;" horiz-adv-x="1934" 
d="M249 -5h-45l832 1143h45zM57 601q0 84 48.5 188.5t132 188.5t162.5 124q57 29 120 29q66 0 107 -42t41 -113q0 -94 -53 -211q-54 -118 -138 -214q-85 -97 -160 -137q-48 -26 -99 -26q-63 0 -112 57t-49 156zM617 998q0 50 -23.5 75.5t-61.5 25.5q-53 0 -119 -55
q-102 -84 -187 -245t-85 -255q0 -59 28 -89.5t70 -30.5q39 0 87 35q67 49 144 156q77 108 112 211t35 172zM633 213q0 76 47.5 180.5t130.5 188.5t164 126q57 29 121 29q67 0 107.5 -41.5t40.5 -112.5q0 -95 -53 -212q-54 -118 -138 -214q-85 -97 -161 -137q-47 -25 -98 -25
q-64 0 -112.5 57.5t-48.5 160.5zM1193 605q0 50 -23.5 75.5t-61.5 25.5q-53 0 -118 -55q-101 -83 -187 -244t-86 -256q0 -59 28 -90t70 -31q38 0 87 36q67 49 144 156q77 108 112 211t35 172zM1278 213q0 77 47.5 181.5t131 188.5t163.5 125q57 29 120 29q67 0 108 -41.5
t41 -112.5q0 -95 -53 -212q-54 -118 -138 -214q-85 -97 -161 -137q-48 -25 -99 -25q-63 0 -111.5 57.5t-48.5 160.5zM1838 605q0 50 -23.5 75.5t-61.5 25.5q-53 0 -119 -55q-101 -83 -186.5 -244t-85.5 -256q0 -59 28 -90t69 -31q39 0 88 36q67 49 144 156q77 108 112 211
t35 172z" />
    <glyph glyph-name="guilsinglleft" unicode="&#x2039;" horiz-adv-x="569" 
d="M123 280v19q119 78 275 211q20 17 25 17q4 0 6 -2.5t2 -5.5q0 -8 -34 -57q-59 -83 -165 -175q48 -91 75 -168q18 -48 18 -60q0 -6 -2 -8.5t-7 -2.5q-8 0 -32 30q-87 113 -161 202z" />
    <glyph glyph-name="guilsinglright" unicode="&#x203a;" horiz-adv-x="569" 
d="M469 295v-19q-118 -79 -274 -211q-21 -17 -26 -17q-4 0 -6 2t-2 5q0 8 35 58q58 83 164 175q-48 91 -75 168q-17 47 -17 60q0 6 2 8.5t6 2.5q9 0 32 -30q87 -113 161 -202z" />
    <glyph glyph-name="franc" unicode="&#x20a3;" horiz-adv-x="797" 
d="M193 703q0 47 18 79q24 44 85 87t141.5 64t245.5 21l259 -4q37 0 51 1l69 12q26 4 28 4q5 0 6 -2l3 -7l3 -3q1 -2 -1 -6q-8 -14 -46 -37.5t-76 -41.5t-92 -18q-43 0 -118 15q-164 33 -272 33q-65 0 -122 -22.5t-92.5 -57t-51.5 -69.5q-7 -14 -7 -34q0 -36 18 -51
q33 -28 72 -28q32 0 72 10q41 10 56 18q11 6 74 45q23 15 28 20q9 12 16 12q4 0 7.5 -3t3.5 -8q0 -14 -64 -59q-94 -66 -180 -66q-63 0 -98.5 30t-35.5 66zM623 452h150l11 -1q12 -1 14 -3t2 -7q0 -13 -2 -15q-9 -7 -23 -7h-22h-148q-53 -108 -92 -162q-69 -94 -144.5 -155
t-168.5 -95q-57 -21 -110 -21q-89 0 -130 33.5t-41 85.5q0 40 21 61.5t52 21.5q27 0 44.5 -17.5t17.5 -45.5t-8 -50q-5 -16 -5 -22q0 -13 10 -21q15 -11 41 -11q34 0 84.5 20t92 57.5t95.5 119.5q29 43 120 200l-174 1q-35 0 -39 2t-9 15q0 5 7 12q4 5 12 5q2 0 18 -3l17 1
l177 -1l42 73q56 101 68 120q35 54 83 102t92 72q10 5 17 5q5 0 7 -2q1 -1 4 -13q0 -3 -11 -16q-8 -10 -33.5 -50t-36.5 -62l-56 -126q-36 -75 -46 -101z" />
    <glyph glyph-name="trademark" unicode="&#x2122;" horiz-adv-x="2028" 
d="M268 1231l14 236h638l13 -236h-33q-7 106 -50.5 148.5t-133.5 42.5h-80v-591q0 -74 7 -92q8 -19 28 -28t83 -9l-1 -31h-306v31q63 0 82 9q20 9 28.5 30t8.5 86v595h-75q-85 0 -124 -29q-55 -41 -65 -162h-34zM990 671v31q80 1 100 35q15 24 15 125v469q0 52 -8 69t-28 26
q-21 10 -75 10v31h193l260 -664l261 664h192v-31q-53 -1 -72 -10q-20 -10 -27.5 -27.5t-7.5 -71.5v-492q0 -79 6 -96t25.5 -27t72.5 -10v-31h-278v31q50 0 69.5 10.5t26.5 31.5t7 91v530l-269 -694h-30l-271 694v-508q0 -84 6 -106q7 -23 29 -35.5t78 -13.5v-31h-275z" />
    <glyph glyph-name="Omega" unicode="&#x2126;" horiz-adv-x="1479" 
d="M269 246h31q-4 -61 -4 -81q0 -70 19 -86q25 -22 117 -22h171l37 172q-142 23 -225.5 118t-83.5 226q0 132 82 269.5t221.5 210.5t292.5 73q123 0 222.5 -48.5t149.5 -133t50 -196.5q0 -130 -68.5 -251.5t-195.5 -198.5q-93 -56 -225 -70l-37 -171h174q79 0 112 14
q24 11 42 40q18 30 57 135h32l-69 -246h-398l56 260q66 0 145.5 30t146 93t112 156.5t45.5 207.5q0 176 -108 259t-251 83q-134 0 -258 -70.5t-192 -202t-68 -262.5q0 -70 27.5 -127t66 -92t83 -52.5t106.5 -22.5l-55 -260h-396z" />
    <glyph glyph-name="partialdiff" unicode="&#x2202;" horiz-adv-x="1024" 
d="M149 1317l-41 55q71 54 137 78q66 25 139 25q187 0 307 -153q155 -197 155 -570q0 -216 -41 -369q-42 -153 -103 -238t-135 -128t-162 -43q-146 0 -260 128t-114 330q0 198 108.5 313.5t270.5 115.5q201 0 357 -186q2 61 2 92q0 345 -131 521q-96 129 -245 129
q-129 0 -244 -100zM763 611q-77 95 -148 137q-95 58 -195 58q-133 0 -224.5 -102t-91.5 -284q0 -176 93.5 -284t210.5 -108q98 0 179 75.5t124 221.5q43 147 52 286z" />
    <glyph glyph-name="Delta" unicode="&#x2206;" horiz-adv-x="1025" 
d="M723 1126l197 -1126h-959l732 1126h30zM680 1036l-635 -985h803z" />
    <glyph glyph-name="product" unicode="&#x220f;" horiz-adv-x="1593" 
d="M1506 1609v-43q-88 -3 -113 -11q-25 -9 -37.5 -31.5t-12.5 -88.5v-1686q0 -73 11.5 -98t37.5 -35q26 -11 114 -11v-44h-402v44q84 0 111 9q28 10 40.5 35t12.5 100v1687q0 72 -23 95t-88 23h-715q-56 0 -78.5 -10t-30.5 -29.5t-8 -78.5v-1687q0 -76 14 -104
q11 -21 37 -30q26 -10 112 -10v-44h-400v44q86 1 112 10q27 10 38.5 33t11.5 101v1686q0 65 -12 88t-37 32q-26 10 -113 11v43h1418z" />
    <glyph glyph-name="summation" unicode="&#x2211;" horiz-adv-x="1479" 
d="M1274 1609l23 -303h-42q-18 153 -61.5 195.5t-160.5 42.5h-784l505 -885l-550 -1026h853q132 0 171.5 38.5t63.5 212.5h41l-23 -323h-1209l574 1078l-554 970h1153z" />
    <glyph glyph-name="minus" unicode="&#x2212;" horiz-adv-x="819" 
d="M719 252h-566v61h566v-61z" />
    <glyph glyph-name="fraction" unicode="&#x2215;" horiz-adv-x="341" 
d="M894 1143l-984 -1143h-47l984 1143h47z" />
    <glyph glyph-name="periodcentered" unicode="&#x2219;" 
d="M358 313q0 -29 -18 -47.5t-42 -18.5t-41.5 18.5t-17.5 47.5t17.5 47.5t41.5 18.5t42 -18.5t18 -47.5z" />
    <glyph glyph-name="radical" unicode="&#x221a;" horiz-adv-x="948" 
d="M882 1609l-341 -2048h-60l-328 760l-93 -40l-26 53l161 68l309 -720l315 1927h63z" />
    <glyph glyph-name="infinity" unicode="&#x221e;" horiz-adv-x="1479" 
d="M672 411q-109 -141 -181 -184q-72 -44 -159 -44q-127 0 -213 84.5t-86 205.5q0 78 38 148.5t106.5 109t147.5 38.5q68 0 122 -26q55 -27 113 -85q36 -36 102 -126q112 143 181 186q69 44 155 44q81 0 152.5 -38t109.5 -104.5t38 -145.5q0 -80 -38 -151t-106.5 -109
t-147.5 -38q-89 0 -166.5 51t-167.5 184zM622 483q-71 95 -104 128q-49 51 -95 73q-47 22 -100 22q-95 0 -161 -66.5t-66 -162.5q0 -97 66.5 -163.5t158.5 -66.5q46 0 86.5 19.5t80.5 60.5q41 42 134 156zM711 461q93 -133 159 -178t137 -45q59 0 113 30t84.5 86.5
t30.5 116.5q0 59 -29.5 113t-83.5 84t-110 30q-59 0 -114 -38q-56 -38 -187 -199z" />
    <glyph glyph-name="integral" unicode="&#x222b;" horiz-adv-x="797" 
d="M386 1106v-975q1 -263 -12 -341q-20 -122 -73 -174.5t-121 -52.5q-40 0 -62.5 21t-22.5 51q0 19 15.5 34t36.5 15q24 0 51 -32q18 -21 32 -21q9 0 18 8q24 21 39 72q16 51 22 159q1 12 4 180v1005q0 267 12 343q17 108 71.5 159.5t120.5 51.5q49 0 74 -21t25 -52
q0 -25 -15.5 -40t-39.5 -15q-40 0 -60 40q-13 25 -27 25q-15 0 -33 -21q-34 -43 -46 -145q-9 -70 -9 -274z" />
    <glyph glyph-name="approxequal" unicode="&#x2248;" horiz-adv-x="814" 
d="M651 426l41 -41q-42 -58 -72 -77q-31 -19 -70 -19q-21 0 -39 5t-65 27q-67 32 -93 40q-19 6 -37 6q-34 0 -57 -18.5t-43 -65.5l-41 41q31 53 62 74q32 21 77 21q51 0 154 -47q62 -28 87 -28q21 0 40 14t56 68zM651 283l41 -41q-42 -58 -72.5 -76.5t-69.5 -18.5
q-23 0 -44 6q-22 7 -76 33q-55 26 -75 32q-21 6 -40 6q-33 0 -56 -18t-43 -66l-41 41q31 53 62.5 74.5t76.5 21.5q53 0 154 -47q61 -28 87 -28q21 0 40 13.5t56 67.5z" />
    <glyph glyph-name="notequal" unicode="&#x2260;" horiz-adv-x="814" 
d="M475 362l-84 -158h326v-62h-358l-84 -158l-46 24l70 134h-148v62h180l84 158h-264v61h297l84 161l48 -24l-72 -137h209v-61h-242z" />
    <glyph glyph-name="lessequal" unicode="&#x2264;" horiz-adv-x="814" 
d="M696 114v-61l-566 261v61l566 260v-61l-497 -230zM696 -30h-566v61h566v-61z" />
    <glyph glyph-name="greaterequal" unicode="&#x2265;" horiz-adv-x="814" 
d="M130 574v61l566 -260v-62l-566 -260v61l497 230zM130 31h566v-61h-566v61z" />
    <glyph glyph-name="lozenge" unicode="&#x25ca;" horiz-adv-x="1214" 
d="M664 1291l348 -800l-348 -800h-62l-346 800l346 800h62zM633 1199l-302 -708l302 -709l303 709z" />
    <glyph glyph-name="fi" unicode="&#xfb01;" horiz-adv-x="910" 
d="M683 545l128 7l-248 -400q-39 -63 -39 -93q0 -21 9.5 -31.5t25.5 -10.5q26 0 63 21q70 40 147 119q78 80 120 136q8 11 15 11q5 0 7.5 -3t2.5 -7q0 -6 -6 -14q-91 -111 -158 -173t-122 -90q-42 -22 -74 -22q-37 0 -61 28.5t-24 86.5q0 54 26 113q27 59 152 246l-187 -187
q-125 -125 -166 -158q-69 -57 -126 -85q-41 -20 -103 -31l-293 -551l-125 -16l318 580q-27 24 -27 56q0 31 16.5 48t43.5 17q17 0 26 -7l213 382q-72 -63 -102 -92q-75 -74 -129 -136q-11 -13 -17 -13t-9 2.5t-3 7.5q0 6 38 47q122 135 244 235q165 288 246 407
q81 120 168 207q62 63 110 85q49 23 91 23q37 0 58 -22t21 -61q0 -53 -28 -116t-118 -158q-91 -95 -229 -199q-88 -66 -221 -145l-276 -550q37 5 62 15q41 17 93 53q36 25 93 80l124 121zM373 630q190 124 290 210q144 123 208 231q47 80 47 145q0 29 -13.5 43t-35.5 14
q-80 0 -178 -114q-162 -187 -318 -529zM917 810q-21 0 -35 14.5t-14 38.5q0 33 20.5 55.5t50.5 22.5q22 0 34.5 -13.5t12.5 -37.5q0 -34 -21 -57t-48 -23z" />
    <glyph glyph-name="fl" unicode="&#xfb02;" horiz-adv-x="910" 
d="M-228 -543l-125 -16l318 580q-27 24 -27 56q0 31 16.5 48t43.5 17q17 0 26 -7l213 381q-79 -62 -223 -218q-16 -18 -18 -20q-4 -2 -8 -2q-5 0 -8 2.5t-3 7.5q0 7 39 48q131 143 243 233q164 288 246 409q83 121 168 207q63 62 111 84q48 23 90 23q37 0 58 -22t21 -67
q0 -64 -39 -134q-55 -98 -232 -250q-128 -111 -325 -229l-276 -548q41 4 81 24q78 38 164 116q87 78 223 237q166 194 245 321l299 480l133 12l-387 -607q-218 -342 -285 -482q-27 -55 -27 -87q0 -17 8.5 -26t23.5 -9q28 0 65 21q62 35 137 110q76 75 131 146q5 8 12 8
q5 0 8 -3t3 -7q0 -13 -103 -123q-161 -174 -254 -174q-39 0 -64 28t-25 82q0 59 31 131q31 73 188 314q-183 -221 -284 -327t-179 -153t-161 -65zM373 631q179 114 280 201q154 130 218 240q47 80 47 144q0 29 -13.5 43t-35.5 14q-48 0 -101 -40q-90 -68 -201 -242
q-88 -137 -194 -360z" />
    <glyph glyph-name="frame" horiz-adv-x="1517" 
d="M247 0v1280h1024v-1280h-1024zM279 32h960v1216h-960v-1216z" />
  </font>
</defs>
</svg>
