<?xml version="1.0" standalone="no"?>
<!DOCTYPE svg PUBLIC "-//W3C//DTD SVG 1.1//EN" "http://www.w3.org/Graphics/SVG/1.1/DTD/svg11.dtd" >
<svg>
<metadata>
Created by FontForge 20090622 at Mon Apr 10 06:55:51 2017
 By deploy user
Copyright &#194;&#169; 1992, 2001 Adobe Systems Incorporated.  All Rights Reserved.
</metadata>
<defs>
<font id="BernhardModernStd-Roman" horiz-adv-x="556" >
  <font-face 
    font-family="Bernhard Modern Std Roman"
    font-weight="400"
    font-stretch="normal"
    units-per-em="1000"
    panose-1="2 7 4 3 7 3 10 2 4 2"
    ascent="770"
    descent="-230"
    x-height="322"
    cap-height="637"
    bbox="-64 -254 1123 851"
    underline-thickness="50"
    underline-position="-50"
    unicode-range="U+0020-U+FB02"
  />
<missing-glyph horiz-adv-x="500" 
d="M0 0v700h500v-700h-500zM250 395l170 255h-340zM280 350l170 -255v510zM80 50h340l-170 255zM50 605v-510l170 255z" />
    <glyph glyph-name="fi" unicode="fi" horiz-adv-x="519" 
d="M170 316h118q54 0 76 5q10 2 23 5.5t19.5 5t10.5 1.5q8 0 8 -13q0 -4 -0.5 -14.5t-0.5 -16.5q0 -13 -1 -67t-1 -70q0 -90 3 -129q38 -6 56 -12q10 -1 10 -10q0 -7 -11 -7q-2 0 -14.5 1.5t-33 3t-41.5 1.5q-19 0 -37 -1.5t-29 -3t-13 -1.5q-11 0 -11 7q0 9 10 10
q14 6 47 12q3 39 3 129q0 85 -2 141h-189q0 -187 3 -270q52 -6 83 -12q10 -1 10 -10q0 -7 -11 -7q-3 0 -20 1.5t-43.5 3t-52.5 1.5q-21 0 -41.5 -1.5t-33 -3t-14.5 -1.5q-11 0 -11 7q0 9 10 10q17 6 57 12q3 83 3 270q-41 0 -82 -6v35q14 -2 40 -4q28 -2 42 -2q0 10 -4 89.5
t-4 121.5q0 86 39 152q8 13 21.5 31t40.5 39t50 21q20 0 33.5 -13.5t13.5 -31.5t-12 -30t-31 -12t-28 9.5t-12.5 18.5t-8.5 9q-13 0 -22 -19t-12 -48t-4 -44.5t-1 -26.5q0 -76 1 -169.5t1 -96.5zM430 528q0 -19 -13.5 -32.5t-32.5 -13.5t-32.5 13.5t-13.5 32.5t13.5 32.5
t32.5 13.5t32.5 -13.5t13.5 -32.5z" />
    <glyph glyph-name="fl" unicode="fl" horiz-adv-x="519" 
d="M289 323v-37q-4 0 -48 3.5t-71 3.5q0 -187 3 -270q64 -8 82 -12q10 -1 10 -10q0 -7 -11 -7q-3 0 -18.5 1.5t-42 3t-54.5 1.5q-21 0 -41.5 -1.5t-33 -3t-14.5 -1.5q-11 0 -11 7q0 9 10 10q17 6 57 12q3 83 3 270q-41 0 -82 -6v35q14 -2 40 -4q28 -2 42 -2q0 10 -4 89.5
t-4 121.5q0 86 39 152q8 13 21.5 31t40.5 39t50 21q33 0 44 -32q4 1 51 17q43 15 64 15q12 0 15 -7.5t3 -23.5q0 -22 -2.5 -172t-2.5 -192q0 -248 2 -352q40 -6 57 -12q10 -1 10 -10q0 -7 -11 -7q-2 0 -14.5 1.5t-33 3t-41.5 1.5q-19 0 -37 -1.5t-29 -3t-13 -1.5
q-11 0 -11 7q0 9 10 10q14 6 47 12q3 156 3 352q0 39 -2 148.5t-2 144.5q0 53 -25 53q-6 0 -13 -1.5t-14 -4l-10 -3.5q-8 -29 -41 -29q-19 0 -28 9.5t-12.5 18.5t-8.5 9q-13 0 -22 -19t-12 -48t-4 -44.5t-1 -26.5q0 -76 1 -169.5t1 -96.5q67 0 119 7z" />
    <glyph glyph-name=".notdef" horiz-adv-x="500" 
d="M0 0v700h500v-700h-500zM250 395l170 255h-340zM280 350l170 -255v510zM80 50h340l-170 255zM50 605v-510l170 255z" />
    <glyph glyph-name=".null" horiz-adv-x="0" 
 />
    <glyph glyph-name="nonmarkingreturn" horiz-adv-x="333" 
 />
    <glyph glyph-name="space" unicode=" " horiz-adv-x="222" 
 />
    <glyph glyph-name="exclam" unicode="!" horiz-adv-x="241" 
d="M127 186q-2 -25 -12 -25q-9 0 -11 25q-7 98 -8 179q-1 36 -9 129t-8 109q0 15 24 30t38 15q7 0 11.5 -7t4.5 -14q0 -6 -2 -32.5l-5.5 -75t-5.5 -84.5q-2 -35 -9.5 -135t-7.5 -114zM164 37q0 -21 -14.5 -35t-34.5 -14t-34.5 14t-14.5 35t14.5 35t34.5 14t34.5 -14
t14.5 -35z" />
    <glyph glyph-name="quotedbl" unicode="&#x22;" horiz-adv-x="296" 
d="M112 597l-24 -156q-7 -26 -10 -26q-4 0 -11 26l-24 156q-4 24 -4 36q0 15 17 15h43q17 0 17 -15q0 -12 -4 -36zM253 597l-24 -156q-7 -26 -10 -26q-4 0 -11 26l-24 156q-4 24 -4 36q0 15 17 15h43q17 0 17 -15q0 -12 -4 -36z" />
    <glyph glyph-name="numbersign" unicode="#" horiz-adv-x="722" 
d="M466 195l-31 -207h-42l30 207h-161l-30 -207h-42l30 207h-162l8 42h161l18 125h-155l8 42h154l34 227h42l-34 -227h161l34 227h42l-34 -227h166l-8 -42h-164l-19 -125h160l-8 -42h-158zM448 362h-161l-18 -125h161z" />
    <glyph glyph-name="dollar" unicode="$" 
d="M296 -12v-92q0 -38 -12 -38q-11 0 -11 38v92q-39 2 -75 13t-69.5 32.5t-53 59t-19.5 87.5q0 29 13 29q2 0 4 -1t3 -3l2 -4t2 -5.5t2 -5.5q22 -57 72 -98.5t119 -59.5v257q-87 19 -120 36q-78 40 -78 124q0 79 61 127t137 55q0 36 -8 129l44 16q-13 -91 -13 -145
q26 0 54 -5.5t59 -19t50.5 -42t19.5 -67.5q0 -38 -14 -38q-5 0 -14 17q-22 41 -63 71t-92 42v-228q1 0 29.5 -6.5t35 -8.5l32.5 -10t35.5 -14.5l28 -19.5t26 -27t14.5 -34t7 -44q0 -95 -69.5 -152t-138.5 -57zM273 365v225q-76 0 -119 -29t-43 -81q0 -27 15 -48t40.5 -33
t48 -19t48.5 -13q7 -1 10 -2zM296 284v-255q79 0 125.5 38.5t46.5 92.5q0 19 -6 35t-19 27.5t-24.5 20t-32 15.5l-31 10.5t-33 9z" />
    <glyph glyph-name="percent" unicode="%" horiz-adv-x="815" 
d="M622 23q94 0 94 172q0 195 -87 195q-94 0 -94 -172q0 -195 87 -195zM603 631l-354 -631h-33l354 631h33zM185 241q94 0 94 172q0 195 -87 195q-94 0 -94 -172q0 -195 87 -195zM770 221q0 -94 -42 -157.5t-116 -63.5q-37 0 -63.5 16.5t-40.5 45.5t-20.5 61t-6.5 69
q0 94 42 157.5t116 63.5q37 0 63.5 -16.5t40.5 -45.5t20.5 -61t6.5 -69zM333 439q0 -94 -42 -157.5t-116 -63.5q-37 0 -63.5 16.5t-40.5 45.5t-20.5 61t-6.5 69q0 94 42 157.5t116 63.5q37 0 63.5 -16.5t40.5 -45.5t20.5 -61t6.5 -69z" />
    <glyph glyph-name="ampersand" unicode="&#x26;" horiz-adv-x="648" 
d="M246 401h8q31 0 66 -14.5t35 -29.5q0 -10 -11 -10q-1 0 -25 5t-44 5q-59 0 -101.5 -45t-42.5 -116q0 -78 51.5 -129t124.5 -51q78 0 129 49t51 118q0 21 -5 40.5t-8 26.5t-15 29q-79 -36 -125 -70q-11 -8 -18 -16.5t-10.5 -18.5t-5 -16t-2.5 -17t-1 -13q0 -9 -9 -9
q-13 0 -13 39q0 47 17.5 75t51.5 50q55 34 201 101q69 30 69 77q0 35 -19 35q-8 0 -12 -6.5t-6 -17.5t-4 -15q-5 -20 -30 -20q-14 0 -24 10.5t-10 26.5q0 21 18.5 35.5t41.5 14.5q28 0 47.5 -20.5t19.5 -56.5q0 -27 -9.5 -49.5t-31.5 -40.5t-35 -26.5t-45 -24l-36 -17.5
q29 -60 29 -105q0 -89 -66 -145t-157 -56q-95 0 -164.5 57.5t-69.5 155.5q0 89 56.5 142.5t112.5 58.5v2q-73 46 -73 120q0 62 42.5 95.5t99.5 33.5q56 0 94.5 -30t38.5 -50q0 -7 -7 -7q-3 0 -6.5 2.5t-9.5 9t-13 11.5q-39 25 -74 25q-40 0 -71 -29t-31 -76q0 -45 36 -103z
" />
    <glyph glyph-name="quotesingle" unicode="'" horiz-adv-x="148" 
d="M108 597l-24 -156q-7 -26 -10 -26q-4 0 -11 26l-24 156q-4 24 -4 36q0 15 17 15h43q17 0 17 -15q0 -12 -4 -36z" />
    <glyph glyph-name="parenleft" unicode="(" horiz-adv-x="278" 
d="M241 -136q3 -5 7 -11l6.5 -9.5t2.5 -5.5q0 -6 -7 -6q-8 0 -27 20t-43.5 59t-47 88.5t-37.5 117.5t-15 136t15 136t37.5 117.5t47 88.5t43.5 59t27 20q7 0 7 -6q0 -2 -2.5 -5.5l-6.5 -9.5t-7 -11q-46 -87 -71 -177t-25 -212t25 -212t71 -177z" />
    <glyph glyph-name="parenright" unicode=")" horiz-adv-x="278" 
d="M198 253q0 -68 -15 -136t-37.5 -117.5t-47 -88.5t-43.5 -59t-27 -20q-7 0 -7 6q0 2 2.5 5.5l6.5 9.5t7 11q46 87 71 177t25 212t-25 212t-71 177q-3 5 -7 11l-6.5 9.5t-2.5 5.5q0 6 7 6q8 0 27 -20t43.5 -59t47 -88.5t37.5 -117.5t15 -136z" />
    <glyph glyph-name="asterisk" unicode="*" horiz-adv-x="444" 
d="M248 414q0 -24 -26 -24t-26 24q0 5 2.5 15t6.5 23t5 19q4 16 4 18q0 8 -8 8q-6 0 -14 -8l-10 -10l-10.5 -10.5t-9.5 -9t-10 -8.5t-9 -5t-9 -2q-11 0 -18 7.5t-7 17.5q0 20 44 30.5t44 19.5t-44 19.5t-44 30.5q0 10 7 17.5t18 7.5q5 0 10.5 -2.5t12 -8t10.5 -9.5l13 -13
l12 -12q8 -8 14 -8q8 0 8 8q0 2 -4 18q-1 6 -5 19t-6.5 23t-2.5 15q0 24 26 24t26 -24q0 -5 -2.5 -15t-6.5 -23t-5 -19q-4 -16 -4 -18q0 -8 8 -8q6 0 14 8l10 10l10.5 10.5t9.5 9t10 8.5t9 5t9 2q11 0 18 -7.5t7 -17.5q0 -20 -44 -30.5t-44 -19.5t44 -19.5t44 -30.5
q0 -10 -7 -17.5t-18 -7.5q-5 0 -10.5 2.5t-12 8t-10.5 9.5l-13 13l-12 12q-8 8 -14 8q-8 0 -8 -8q0 -2 4 -18q1 -6 5 -19t6.5 -23t2.5 -15z" />
    <glyph glyph-name="plus" unicode="+" 
d="M300 220v-220h-44v220h-218v41h218v220h44v-220h218v-41h-218z" />
    <glyph glyph-name="comma" unicode="," horiz-adv-x="222" 
d="M132 13l-63 -140q-10 -23 -18 -23q-12 0 -12 12q0 5 13 52t16 74q5 47 5 98q2 7 7.5 10.5t12.5 4t23 0.5t23.5 -0.5t14 -5.5t6.5 -14q0 -6 -28 -68z" />
    <glyph glyph-name="hyphen" unicode="-" horiz-adv-x="389" 
d="M336 184v-52h-283v52h283z" />
    <glyph glyph-name="period" unicode="." horiz-adv-x="222" 
d="M160 37q0 -20 -14.5 -34.5t-34.5 -14.5t-34.5 14.5t-14.5 34.5t14.5 34.5t34.5 14.5t34.5 -14.5t14.5 -34.5z" />
    <glyph glyph-name="slash" unicode="/" horiz-adv-x="259" 
d="M248 648l-202 -665h-36l202 665h36z" />
    <glyph glyph-name="zero" unicode="0" 
d="M501 341q0 -153 -63 -253t-178 -100q-59 0 -101.5 29.5t-64 78t-31 97.5t-9.5 100q0 152 66.5 245t179.5 93q56 0 97 -24.5t62.5 -67t31.5 -91.5t10 -107zM280 11q37 0 65 21.5t43 52.5t24.5 73.5t12 76t2.5 68.5q0 305 -144 305q-155 0 -155 -294q0 -55 6.5 -103t22 -96
t47 -76t76.5 -28z" />
    <glyph glyph-name="one" unicode="1" 
d="M452 3q0 -9 -10 -9q-3 0 -29 1.5t-62 3t-65 1.5q-30 0 -68 -1.5t-65.5 -3t-30.5 -1.5q-10 0 -10 9t19 12q24 3 66.5 6t53.5 4q3 67 3 290q0 166 -3 250q-68 -10 -124 -10q-18 0 -18 11q0 14 43 14q41 0 80 13t63 25.5t27 12.5q7 0 7 -8q0 -20 -2 -33q-7 -67 -7 -275
q0 -223 3 -290q10 -1 49 -4t61 -6q19 -3 19 -12z" />
    <glyph glyph-name="two" unicode="2" 
d="M51 421q0 10 10 33t31.5 53.5t50.5 58t72.5 46.5t91.5 19q71 0 120.5 -43t49.5 -118q0 -55 -44.5 -124.5t-115 -136.5t-118 -106.5t-91.5 -72.5l2 -2q194 4 341 41q11 89 14 97q6 17 12 17t6 -8q0 -2 -1.5 -28t-3 -59.5t-1.5 -53.5q0 -23 3 -56.5t3 -34.5q0 -10 -10 -10
q-2 0 -4.5 2t-4 5.5t-3 7.5t-3 10.5l-2.5 11t-2 11.5t-2 11q-105 10 -202 10q-51 0 -95.5 -1.5t-70.5 -3t-31 -1.5q-15 0 -15 10q0 6 10.5 15t37 28.5t47.5 37.5l51 43.5l49.5 44.5t53.5 52l43.5 51t39.5 57.5t22.5 56.5t10.5 61q0 55 -39.5 89t-92.5 34q-59 0 -126 -50
q-29 -23 -46.5 -52t-24 -46t-13.5 -17q-10 0 -10 10z" />
    <glyph glyph-name="three" unicode="3" 
d="M475 172q0 -80 -64.5 -132t-157.5 -52q-54 0 -109.5 24t-85 48t-29.5 33t9 9q4 0 30 -20.5t72 -41.5t98 -21q74 0 121 38.5t47 101.5q0 64 -51.5 98.5t-114.5 34.5q-23 0 -60 -8l-36 -8q-10 0 -10 9q0 15 57.5 34.5t99.5 19.5q5 0 14 -0.5t13 -0.5q66 63 66 123
q0 57 -38 90t-96 33q-37 0 -71 -15t-53.5 -32.5l-35 -32.5t-19.5 -15q-10 0 -10 9q0 4 10 18t31 33.5t47 37.5t64 31t77 13q62 0 106.5 -33.5t44.5 -95.5q0 -54 -32.5 -100.5t-67.5 -68.5q134 -33 134 -161z" />
    <glyph glyph-name="four" unicode="4" 
d="M365 203h98q6 95 19 121q1 4 7 4q7 0 7 -7l-3 -61q-3 -60 -3 -80t3 -53l3 -33q0 -13 -9 -13t-15.5 23.5t-8.5 45.5q-40 4 -98 4q0 -99 3 -129q8 -1 38 -4t48 -6q19 -3 19 -12t-10 -9q-2 0 -23.5 1.5t-52.5 3t-56 1.5q-28 0 -63 -1.5t-59.5 -3t-27.5 -1.5q-10 0 -10 9
t19 12q22 3 59 6t47 4q3 30 3 129q-36 0 -138.5 -2t-109.5 -2q-16 0 -16 11q0 5 28 46l273 406q15 25 25 25q9 0 9 -13q-5 -171 -5 -422zM89 203h210q0 36 1 160t1 155h-2z" />
    <glyph glyph-name="five" unicode="5" 
d="M196 549l-54 -161q66 22 126 22q89 0 153 -46.5t64 -136.5q0 -100 -74.5 -169.5t-175.5 -69.5q-69 0 -117.5 41t-48.5 101q0 31 13 62q9 19 19 19q8 0 11 -8t4 -24t3 -24q13 -48 57 -85.5t101 -37.5q72 0 118 42.5t46 107.5q0 66 -52 109t-128 43q-39 0 -74 -12
t-57 -23.5t-29 -11.5q-12 0 -12 9q0 5 11 38l89 285h189q32 0 50.5 7t23.5 15l9.5 15t11.5 7q9 0 9 -11q0 -9 -10.5 -32t-22.5 -39q-30 -32 -81 -32h-172z" />
    <glyph glyph-name="six" unicode="6" 
d="M502 233q0 -102 -63.5 -173.5t-165.5 -71.5q-97 0 -158.5 70t-61.5 187q0 140 84 255q41 58 96 108.5t91.5 73.5t45.5 23q10 0 10 -10q0 -6 -23 -24q-103 -83 -148 -151.5t-76 -184.5l2 -2q71 105 178 105q82 0 135.5 -60t53.5 -145zM273 11q57 0 93.5 34.5t49 78.5
t12.5 96q0 77 -39.5 129t-102.5 52t-110 -49.5t-47 -131.5q0 -49 12.5 -94t47 -80t84.5 -35z" />
    <glyph glyph-name="seven" unicode="7" 
d="M381 619h107q4 7 9 12q5 6 14 6q15 0 15 -12q0 -5 -6.5 -16t-24 -37.5t-32.5 -51.5q-78 -131 -117.5 -271.5t-46.5 -224.5q77 -4 114 -12q7 -2 7 -8q0 -10 -10 -10q-2 0 -22 1.5t-54.5 3t-71.5 1.5t-71.5 -1.5t-54.5 -3t-22 -1.5q-10 0 -10 10q0 6 7 8q32 8 103 12
q55 182 108.5 300t146.5 264q-79 -1 -116.5 -2.5t-104.5 -9.5t-123 -23q-5 -40 -9 -60q-5 -32 -12 -32q-10 0 -10 9q0 1 3 43t3 71q0 25 -3 59.5t-3 36.5q0 8 7 8q12 0 24 -58q84 -11 256 -11z" />
    <glyph glyph-name="eight" unicode="8" 
d="M496 186q0 -88 -74.5 -143t-168.5 -55q-46 0 -90 15.5t-78 56.5t-34 100q0 34 14.5 62.5t40.5 49t48.5 33t51.5 24.5q-2 1 -13 7l-14.5 8t-13.5 8.5t-14 10l-13 11t-12.5 13.5t-9.5 15t-8.5 18t-4.5 20.5t-2 24.5q0 64 58.5 115t135.5 51q58 0 108 -36t50 -103
q0 -91 -111 -142q78 -36 102 -55q52 -41 52 -109zM312 363q87 37 87 94q0 54 -44.5 92t-106.5 38q-44 0 -74 -24t-30 -58q0 -20 9.5 -38t20 -29.5t34 -25.5t34.5 -19l39 -17t31 -13zM302 26q62 0 103.5 34t41.5 87q0 57 -64 97q-20 12 -53.5 28t-61.5 28t-31 14
q-22 -9 -36 -15.5t-36.5 -21.5t-34 -36t-11.5 -48q0 -72 57.5 -119.5t125.5 -47.5z" />
    <glyph glyph-name="nine" unicode="9" 
d="M416 119q-41 -58 -96 -108.5t-91.5 -73.5t-45.5 -23q-10 0 -10 10q0 6 23 24q103 83 148 151.5t76 184.5l-2 2q-71 -105 -178 -105q-82 0 -135.5 60t-53.5 145q0 102 63.5 173.5t165.5 71.5q97 0 158.5 -70t61.5 -187q0 -140 -84 -255zM267 218q63 0 110 49.5t47 131.5
q0 49 -12.5 94t-47 80t-84.5 35q-57 0 -93.5 -34.5t-49 -78.5t-12.5 -96q0 -77 39.5 -129t102.5 -52z" />
    <glyph glyph-name="colon" unicode=":" horiz-adv-x="222" 
d="M160 37q0 -20 -14.5 -34.5t-34.5 -14.5t-34.5 14.5t-14.5 34.5t14.5 34.5t34.5 14.5t34.5 -14.5t14.5 -34.5zM160 279q0 -20 -14.5 -34.5t-34.5 -14.5t-34.5 14.5t-14.5 34.5t14.5 34.5t34.5 14.5t34.5 -14.5t14.5 -34.5z" />
    <glyph glyph-name="semicolon" unicode=";" horiz-adv-x="222" 
d="M132 13l-63 -140q-10 -23 -18 -23q-12 0 -12 12q0 5 13 52t16 74q5 47 5 98q2 7 7.5 10.5t12.5 4t23 0.5t23.5 -0.5t14 -5.5t6.5 -14q0 -6 -28 -68zM164 279q0 -20 -14.5 -34.5t-34.5 -14.5t-34.5 14.5t-14.5 34.5t14.5 34.5t34.5 14.5t34.5 -14.5t14.5 -34.5z" />
    <glyph glyph-name="less" unicode="&#x3c;" 
d="M518 45v-44l-481 217v44l481 217v-44l-437 -195z" />
    <glyph glyph-name="equal" unicode="=" 
d="M518 325v-41h-480v41h480zM518 197v-41h-480v41h480z" />
    <glyph glyph-name="greater" unicode="&#x3e;" 
d="M519 218l-481 -217v44l437 195l-437 195v44l481 -217v-44z" />
    <glyph glyph-name="question" unicode="?" horiz-adv-x="407" 
d="M188 238q0 -20 15 -40t15 -23q0 -9 -10 -9q-7 0 -21.5 12.5t-28.5 37.5t-14 50q0 19 4 34.5t17 33.5t19.5 25.5t31 31.5l31.5 31q39 40 50 53t20.5 30t9.5 34q0 32 -25.5 54t-62.5 22q-48 0 -98.5 -35.5t-50.5 -80.5q0 -14 7 -31t7 -20q0 -9 -8 -9q-15 0 -31.5 37
t-16.5 63q0 51 51.5 80t107.5 29t103.5 -39t47.5 -100q0 -41 -26.5 -82t-58.5 -69t-58.5 -61t-26.5 -59zM240 37q0 -21 -14.5 -35t-34.5 -14t-34.5 14t-14.5 35t14.5 35t34.5 14t34.5 -14t14.5 -35z" />
    <glyph glyph-name="at" unicode="@" horiz-adv-x="1000" 
d="M737 75l14 -28q-115 -59 -220 -59q-98 0 -177 34t-125 87t-70 111.5t-24 114.5q0 165 112.5 271t271.5 106q146 0 246 -88t100 -221q0 -56 -22 -112t-68.5 -97t-105.5 -41q-32 0 -55 16t-31.5 32.5t-7.5 25.5h-6q-8 -19 -42 -44.5t-74 -29.5q-15 0 -29.5 4t-32.5 16
t-29 40.5t-11 69.5q0 31 13 72t37 82t66 69.5t92 28.5q22 0 38 -9.5t20.5 -17t15.5 -27.5l10 42h72l-68 -268l-2.5 -24.5t8.5 -28t32 -13.5q61 0 99.5 67t38.5 147q0 47 -21 95.5t-58.5 89.5t-96.5 67.5t-128 26.5q-130 0 -217 -96t-87 -263q0 -119 90 -208.5t224 -89.5
q64 0 109 12.5t99 37.5zM571 491q-46 0 -96 -59t-50 -145q0 -44 19 -66t49 -22q36 0 74 61t48 163q0 68 -44 68z" />
    <glyph glyph-name="A" unicode="A" horiz-adv-x="685" 
d="M446 198h-245q-28 -78 -54 -174q76 -4 113 -12q7 -2 7 -8q0 -10 -10 -10q-1 0 -18.5 1.5t-48 3t-62.5 1.5q-28 0 -55.5 -1.5t-43.5 -3t-17 -1.5q-10 0 -10 10q0 6 7 8q26 8 82 12q52 89 151 342q60 151 65 161l-59 124q27 9 74 33q28 -92 130 -328l147 -332q52 -4 74 -12
q7 -2 7 -8q0 -10 -10 -10q-1 0 -17.5 1.5t-44.5 3t-58 1.5q-34 0 -65 -1.5t-49 -3t-19 -1.5q-10 0 -10 10q0 6 7 8q28 8 99 12q-32 92 -67 174zM208 221h229l-117 278q-101 -246 -112 -278z" />
    <glyph glyph-name="B" unicode="B" horiz-adv-x="611" 
d="M196 321h33q29 0 50.5 1t53 5t54 14t44 24.5t33 39.5t11.5 57q0 75 -54 115t-128 40q-61 0 -93 -10q-4 -67 -4 -286zM229 298h-33q0 -207 4 -274q44 -10 103 -10q75 0 127 38t52 106q0 29 -10 52t-23.5 37.5t-38 24.5t-43.5 15t-49 7.5t-46 3t-43 0.5zM328 -9
q-34 0 -87 5q-64 4 -76 4q-49 0 -81 -3q-11 -1 -23.5 -2t-15.5 -1q-10 0 -10 10q0 6 7 8q25 8 84 12q4 67 4 292q0 224 -4 291q-59 4 -84 12q-7 2 -7 8q0 10 10 10q5 0 37 -3q63 -3 83 -3q31 0 91 5q72 4 92 4q80 0 138.5 -38t58.5 -116q0 -36 -14 -66t-39.5 -50
t-45.5 -31.5t-47 -22.5v-2q163 -16 163 -140q0 -84 -70.5 -133.5t-163.5 -49.5z" />
    <glyph glyph-name="C" unicode="C" horiz-adv-x="648" 
d="M589 80q-19 -31 -80 -64t-140 -33q-136 0 -222.5 89t-86.5 229q0 147 92 247t229 100q77 0 182 -32q11 58 14 64q3 9 10 9q8 0 8 -10q0 -2 -2.5 -27.5t-4.5 -58t-2 -50.5q0 -27 2.5 -82.5t2.5 -56.5q0 -14 -8 -14q-7 0 -10 13q-6 22 -10.5 68t-4.5 66q-101 81 -205 81
q-100 0 -166 -65.5t-66 -181.5q0 -142 84 -247t208 -105q40 0 73.5 12t51 27l30.5 27t17 12q8 0 8 -7q0 -4 -4 -10z" />
    <glyph glyph-name="D" unicode="D" horiz-adv-x="685" 
d="M195 24q4 0 22 -3t40 -5t40 -2q124 0 195 82.5t71 225.5q0 75 -23 133.5t-62 93t-85 51.5t-96 17q-23 0 -60.5 -5t-41.5 -5q-4 -70 -4 -291q0 -222 4 -292zM311 -9q-20 0 -73 5q-62 4 -80 4q-49 0 -81 -3q-9 0 -17.5 -1t-13.5 -1.5t-6 -0.5q-10 0 -10 10q0 6 7 8
q25 8 84 12q4 67 4 292q0 224 -4 291q-59 4 -84 12q-7 2 -7 8q0 10 10 10q6 0 37 -3q63 -3 81 -3q36 0 84 5q58 4 69 4q153 0 239.5 -87t86.5 -231q0 -148 -95.5 -239.5t-230.5 -91.5z" />
    <glyph glyph-name="E" unicode="E" horiz-adv-x="611" 
d="M220 309h-19q0 -218 7 -285q13 -1 39 -1q147 0 270 37q6 82 21 82q10 0 10 -10q0 -8 -3 -46t-3 -55q0 -10 3 -36t3 -34q0 -9 -10 -9q-3 0 -5 1.5t-4 5t-3 6t-3 9t-3 9.5q-105 17 -352 17q-50 0 -81 -3q-9 0 -17.5 -1t-13.5 -1.5t-6 -0.5q-10 0 -10 10q0 6 7 8q25 8 84 12
q4 67 4 293q0 223 -4 290q-59 4 -84 12q-7 2 -7 8q0 10 10 10q5 0 37 -3q63 -3 81 -3q195 0 346 17q1 3 2 9t2 8.5t2.5 7.5t2.5 7l2.5 5t3.5 4t5 1q8 0 8 -7q0 -3 -3 -36t-3 -48q0 -13 3 -52t3 -42q0 -14 -11 -14q-3 0 -5.5 3t-4.5 9.5t-3.5 13t-2.5 17t-2 17t-2 17t-1 14.5
q-100 26 -236 26q-8 0 -32 -0.5t-34 -0.5q-7 -67 -7 -275h19q166 0 263 24q6 72 24 72q8 0 8 -10q0 -2 -3 -41.5t-3 -55.5q0 -20 3 -60.5t3 -41.5q0 -11 -8 -11q-15 0 -24 85q-90 16 -263 16z" />
    <glyph glyph-name="F" unicode="F" horiz-adv-x="574" 
d="M220 309h-19q0 -58 10 -285q71 -4 104 -12q7 -2 7 -8q0 -10 -10 -10q-1 0 -21 1.5t-54 3t-69 1.5q-29 0 -56.5 -1.5t-44 -3t-17.5 -1.5q-10 0 -10 10q0 6 7 8q25 8 84 12q4 67 4 293q0 223 -4 290q-59 4 -84 12q-7 2 -7 8q0 10 10 10q5 0 37 -3q63 -3 81 -3q195 0 346 17
q1 3 2 9t2 8.5t2.5 7.5t2.5 7l2.5 5t3.5 4t5 1q8 0 8 -9q0 -3 -3 -35t-3 -47q0 -13 3 -52t3 -42q0 -14 -11 -14q-3 0 -5.5 3t-4.5 9.5t-3.5 13t-2.5 17t-2 17t-2 17t-1 14.5q-100 26 -236 26q-8 0 -32 -0.5t-34 -0.5q-7 -161 -7 -275h19q166 0 263 24q6 72 24 72q8 0 8 -10
q0 -2 -3 -41.5t-3 -55.5q0 -20 3 -60.5t3 -41.5q0 -11 -8 -11q-15 0 -24 85q-90 16 -263 16z" />
    <glyph glyph-name="G" unicode="G" horiz-adv-x="722" 
d="M562 67v218q-61 4 -91 12q-7 2 -7 8q0 10 10 10q1 0 18.5 -1.5t47 -3t59.5 -1.5q19 0 37.5 1.5t29 3t11.5 1.5q10 0 10 -10q0 -6 -7 -8q-12 -7 -44 -12q0 -2 -3 -54.5t-3 -77.5q0 -11 1 -31.5t1 -24.5q0 -6 5 -12.5t5 -11.5t-2 -8t-6.5 -4.5t-9 -2t-12.5 -1.5t-14 -2
q-18 -3 -50 -19.5t-56 -24.5q-72 -28 -132 -28q-78 0 -147.5 35t-115 106.5t-45.5 165.5q0 145 101 251.5t242 106.5q98 0 200 -53q14 86 27 86q8 0 8 -10q0 -1 -3 -26t-5.5 -61t-2.5 -62q0 -91 1 -112q0 -14 -8 -14q-15 0 -22 116q-33 30 -56.5 47.5t-71 36t-100.5 18.5
q-94 0 -169 -67.5t-75 -187.5q0 -147 87 -243.5t203 -96.5q15 0 28 1t26 4.5t20.5 5t21.5 8t18 8.5t20.5 11t19.5 10z" />
    <glyph glyph-name="H" unicode="H" horiz-adv-x="722" 
d="M194 328h334q0 212 -4 279q-59 4 -84 12q-7 2 -7 8q0 10 10 10q1 0 17.5 -1.5t44 -3t56.5 -1.5t56.5 1.5t44 3t17.5 1.5q10 0 10 -10q0 -6 -7 -8q-25 -8 -84 -12q-4 -67 -4 -291q0 -225 4 -292q59 -4 84 -12q7 -2 7 -8q0 -10 -10 -10q-1 0 -17.5 1.5t-44 3t-56.5 1.5
t-56.5 -1.5t-44 -3t-17.5 -1.5q-10 0 -10 10q0 6 7 8q25 8 84 12q4 67 4 281h-334q0 -214 4 -281q59 -4 84 -12q7 -2 7 -8q0 -10 -10 -10q-1 0 -17.5 1.5t-44 3t-56.5 1.5t-56.5 -1.5t-44 -3t-17.5 -1.5q-10 0 -10 10q0 6 7 8q25 8 84 12q4 67 4 292q0 224 -4 291
q-59 4 -84 12q-7 2 -7 8q0 10 10 10q1 0 17.5 -1.5t44 -3t56.5 -1.5t56.5 1.5t44 3t17.5 1.5q10 0 10 -10q0 -6 -7 -8q-25 -8 -84 -12q-4 -67 -4 -279z" />
    <glyph glyph-name="I" unicode="I" horiz-adv-x="333" 
d="M203 24q59 -4 84 -12q7 -2 7 -8q0 -10 -10 -10q-1 0 -17.5 1.5t-44 3t-56.5 1.5t-56.5 -1.5t-44 -3t-17.5 -1.5q-10 0 -10 10q0 6 7 8q25 8 84 12q4 67 4 292q0 224 -4 291q-59 4 -84 12q-7 2 -7 8q0 10 10 10q1 0 17.5 -1.5t44 -3t56.5 -1.5t56.5 1.5t44 3t17.5 1.5
q10 0 10 -10q0 -6 -7 -8q-25 -8 -84 -12q-4 -70 -4 -291q0 -222 4 -292z" />
    <glyph glyph-name="J" unicode="J" horiz-adv-x="315" 
d="M195 80q0 -52 -15.5 -95t-46 -77t-55.5 -54t-66 -47q-16 -11 -24 -11q-9 0 -9 8q0 7 6 12q1 1 17.5 12.5t29.5 22t32.5 33t32.5 47t22.5 62t9.5 80.5q0 337 -13 534q-50 3 -77 12q-7 2 -7 8q0 10 10 10q1 0 17 -1.5t42.5 -3t53.5 -1.5q28 0 55.5 1.5t43.5 3t17 1.5
q10 0 10 -10q0 -6 -7 -8q-25 -8 -84 -12q0 -60 2.5 -254t2.5 -273z" />
    <glyph glyph-name="K" unicode="K" horiz-adv-x="630" 
d="M209 292h-15q0 -203 4 -268q59 -4 84 -12q7 -2 7 -8q0 -10 -10 -10q-1 0 -17.5 1.5t-44 3t-56.5 1.5t-56.5 -1.5t-44 -3t-17.5 -1.5q-10 0 -10 10q0 6 7 8q25 8 84 12q4 67 4 292q0 224 -4 291q-59 4 -84 12q-7 2 -7 8q0 10 10 10q1 0 17.5 -1.5t44 -3t56.5 -1.5
t56.5 1.5t44 3t17.5 1.5q10 0 10 -10q0 -6 -7 -8q-25 -8 -84 -12q-4 -71 -4 -295q20 17 75.5 72.5l134.5 137l82 84.5q-41 5 -56 13q-7 2 -7 8q0 10 10 10l14 -1q14 -2 37.5 -3.5t46.5 -1.5q19 0 39 1.5t32.5 3t13.5 1.5q10 0 10 -10q0 -6 -7 -8q-10 -4 -30.5 -8t-24.5 -5
q-44 -30 -111.5 -87l-107 -93l-120.5 -111q74 0 106.5 -8t64.5 -43q26 -29 67.5 -93t73 -105.5t52.5 -41.5q10 0 21 7t15 7q8 0 8 -8q0 -13 -23.5 -32t-51.5 -19q-29 0 -59.5 27.5t-53.5 63.5l-57.5 88.5t-62.5 84.5q-13 15 -20 21.5t-33.5 17t-62.5 10.5z" />
    <glyph glyph-name="L" unicode="L" horiz-adv-x="574" 
d="M199 23h42q147 0 270 37q7 88 21 88q10 0 10 -13q0 -11 -3 -45.5t-3 -58.5q0 -20 3 -40t3 -24q0 -15 -10 -15q-3 0 -5 1.5t-4 5t-3 6t-3 9t-3 9.5q-105 17 -352 17q-47 0 -77 -3q-9 0 -22.5 -1.5t-18.5 -1.5q-10 0 -10 10q0 6 7 8q25 8 84 12q4 67 4 293q0 223 -4 290
q-59 4 -84 12q-7 2 -7 8q0 10 10 10q1 0 17.5 -1.5t44 -3t56.5 -1.5t56.5 1.5t44 3t17.5 1.5q10 0 10 -10q0 -6 -7 -8q-25 -8 -84 -12q-4 -67 -4 -290q0 -227 4 -294z" />
    <glyph glyph-name="M" unicode="M" horiz-adv-x="796" 
d="M466 340l106 296q32 -5 44 -5q18 0 54 2.5t39 2.5q10 0 10 -8q0 -9 -19 -12q-11 -3 -29 -6t-23 -4q0 -65 18 -276.5t32 -304.5q6 -1 27 -4t35 -6q19 -3 19 -12t-10 -9q-2 0 -19.5 1.5t-44.5 3t-50 1.5q-22 0 -52 -1.5t-52 -3t-25 -1.5q-10 0 -10 9t19 12q18 3 46.5 6
t36.5 4q0 37 -4.5 111.5t-9.5 137.5l-12 147.5t-9 103.5q0 6 -1 17t-1.5 20t-0.5 17h-2l-117 -317q-49 -141 -58 -163q-8 -23 -15 -23q-3 0 -5.5 2.5t-3.5 5t-3.5 8t-3.5 7.5q-184 376 -193 392h-2q-29 -263 -29 -415q0 -9 0.5 -26t0.5 -25q8 -1 36.5 -4t46.5 -6
q19 -3 19 -12t-10 -9q-2 0 -20.5 1.5t-46 3t-52.5 1.5q-21 0 -43 -1.5t-36 -3t-15 -1.5q-10 0 -10 9t19 12q13 3 33.5 6t25.5 4q42 227 60 507l-30 56q-8 16 -24 21.5t-27.5 7t-11.5 9.5q0 10 13 10q6 0 23.5 -2.5t21.5 -2.5q12 0 67 5q15 -48 101 -224l115 -234
q17 36 62 162z" />
    <glyph glyph-name="N" unicode="N" horiz-adv-x="704" 
d="M582 244q0 -53 1.5 -144t1.5 -100q0 -17 -9 -17q-6 0 -17 17l-97.5 129.5l-100 129.5l-115 145.5l-94.5 119.5l-2 -2q1 -27 1 -110q0 -294 20 -388q68 -4 100 -12q7 -2 7 -8q0 -10 -10 -10q-2 0 -19 1.5t-46.5 3t-60.5 1.5q-26 0 -50 -1.5t-37.5 -3t-14.5 -1.5
q-10 0 -10 10q0 6 7 8q22 8 74 12q18 99 18 388q0 27 -1.5 72.5t-1.5 60.5q0 11 -22.5 34.5t-56.5 36.5q-9 3 -9 8q0 12 13 12q7 0 27.5 -2.5t26.5 -2.5q9 0 51 5l12.5 -17.5l14.5 -20.5l193.5 -250t177.5 -222q6 39 6 118q0 270 -17 363q-59 4 -84 12q-7 2 -7 8q0 10 10 10
l16 -1q15 -2 41 -3.5t54 -1.5q24 0 47.5 1.5t38 3t15.5 1.5q10 0 10 -10q0 -6 -7 -8q-25 -8 -75 -12q-20 -86 -20 -363z" />
    <glyph glyph-name="O" unicode="O" horiz-adv-x="778" 
d="M725 327q0 -146 -95 -245t-249 -99q-145 0 -237 93.5t-92 227.5q0 146 95 245t249 99q145 0 237 -93.5t92 -227.5zM442 21q93 0 166 71t73 173q0 92 -52.5 173t-132 126.5t-161.5 45.5q-92 0 -165.5 -71t-73.5 -173q0 -92 52.5 -173t132 -126.5t161.5 -45.5z" />
    <glyph glyph-name="P" unicode="P" horiz-adv-x="574" 
d="M199 24q73 -3 111 -12q7 -2 7 -8q0 -10 -10 -10q-2 0 -22 1.5t-54 3t-69 1.5q-29 0 -56.5 -1.5t-44 -3t-17.5 -1.5q-10 0 -10 10q0 6 7 8q25 8 84 12q4 67 4 292q0 224 -4 291q-59 4 -84 12q-7 2 -7 8q0 10 10 10q6 0 37 -3q63 -3 81 -3q2 0 80 5q52 5 82 5q33 0 66 -6.5
t70 -22t60 -50.5t23 -84q0 -51 -25 -91t-64.5 -62.5t-83 -34t-86.5 -11.5q-14 0 -29 1t-32.5 2.5t-27.5 2.5q0 -199 4 -261zM277 302q52 0 94 13.5t72 49t30 89.5q0 74 -53.5 118.5t-124.5 44.5q-46 0 -96 -10q-4 -84 -4 -299q54 -6 82 -6z" />
    <glyph glyph-name="Q" unicode="Q" horiz-adv-x="796" 
d="M767 -100q0 -14 -51 -43.5t-94 -29.5q-34 0 -87.5 13.5t-120 34t-92.5 27.5q-57 16 -78 16q-26 0 -44 -2t-26.5 -4t-10.5 -2q-12 0 -12 9q0 32 172 43q11 2 33.5 9.5t34.5 9.5v2q-142 0 -233 94.5t-91 230.5q0 143 95 241.5t249 98.5q144 0 236.5 -93t92.5 -224
q0 -58 -12.5 -105.5t-30.5 -81.5t-50 -63t-60 -46.5t-72.5 -34.5t-75 -25.5t-79.5 -20.5v-2q23 -4 57.5 -13.5l84 -23.5t80.5 -22q78 -19 101 -19q24 0 48.5 16t28.5 16q7 0 7 -6zM457 17q93 0 166 71.5t73 176.5q0 92 -52.5 173t-132 126.5t-161.5 45.5q-92 0 -165.5 -71
t-73.5 -173q0 -94 52.5 -176t132 -127.5t161.5 -45.5z" />
    <glyph glyph-name="R" unicode="R" horiz-adv-x="593" 
d="M219 313h60q11 0 20 0.5t29.5 3t36 7t35 14.5t32 23.5t21.5 35.5t9 49q0 75 -55.5 123t-133.5 48q-13 0 -43.5 -5t-38.5 -5q-4 -70 -4 -291q0 -222 4 -292q65 -4 94 -12q7 -2 7 -8q0 -10 -10 -10q-1 0 -18.5 1.5t-48 3t-61.5 1.5q-29 0 -56.5 -1.5t-44 -3t-17.5 -1.5
q-10 0 -10 10q0 6 7 8q25 8 84 12q4 67 4 292q0 224 -4 291q-59 4 -84 12q-7 2 -7 8q0 10 10 10q6 0 37 -3q63 -3 81 -3q29 0 79 5q60 4 84 4q53 0 98 -12t81 -49.5t36 -96.5q0 -48 -24 -86t-61 -60t-76.5 -33t-75.5 -11l99 -124l50.5 -61.5l35.5 -45t23 -25t22 -15.5t22 -3
t26 6.5t15 6.5q7 0 7 -6q0 -13 -29.5 -29.5t-62.5 -16.5q-46 0 -87 48q-29 36 -95 125l-93 123q-20 24 -20 30q0 8 11 8z" />
    <glyph glyph-name="S" unicode="S" horiz-adv-x="537" 
d="M455 513v-65q0 -11 -7 -11q-5 0 -8 6.5t-5 20t-2.5 23l-1.5 28.5t-1 23q-29 24 -50 37.5t-55.5 25.5t-72.5 12q-66 0 -117 -40t-51 -106q0 -33 18 -55t51 -33t66 -17t77.5 -12t70.5 -13q63 -16 90.5 -49.5t27.5 -91.5q0 -95 -66.5 -154t-168.5 -59q-60 0 -167 37
q-1 -4 -4.5 -16.5t-5.5 -18l-5 -13.5t-6 -11.5t-6 -3.5q-6 0 -6 7q0 4 1 7t3 13.5t4 28.5q4 37 4 91q0 18 -2 44.5l-3.5 46.5t-1.5 21q0 10 8 10q16 0 25 -122q95 -86 200 -86q70 0 119.5 40.5t49.5 103.5q0 33 -18 55t-50 32.5t-64 15.5t-73.5 9.5t-64.5 10.5
q-131 33 -131 157q0 87 67 146.5t152 59.5q61 0 162 -36q2 5 5 14.5t5 16.5t5 14t6 10.5t6 3.5q6 0 6 -7q0 -1 -1.5 -8t-3.5 -19.5t-3 -25.5q-7 -47 -7 -98z" />
    <glyph glyph-name="T" unicode="T" horiz-adv-x="611" 
d="M433 4q0 -10 -10 -10q-1 0 -17.5 1.5t-44 3t-56.5 1.5t-56.5 -1.5t-44 -3t-17.5 -1.5q-10 0 -10 10q0 6 7 8q25 8 84 12q4 67 4 290q0 229 -4 298q-14 1 -42 1q-82 0 -170 -30q-7 -90 -21 -90q-10 0 -10 10q0 7 3 44.5t3 52.5q0 12 -3 43t-3 37q0 9 10 9q3 0 5 -2t4 -6.5
t3 -8.5l3 -11.5t3 -12.5q76 -17 252 -17t252 17q1 5 3 12.5l3 11.5t3 8.5t4 6.5t5 2q10 0 10 -9q0 -6 -3 -37t-3 -43q0 -15 3 -52.5t3 -44.5q0 -10 -10 -10q-14 0 -21 90q-88 30 -170 30q-28 0 -42 -1q-4 -69 -4 -298q0 -223 4 -290q59 -4 84 -12q7 -2 7 -8z" />
    <glyph glyph-name="U" unicode="U" horiz-adv-x="704" 
d="M180 272q0 -159 25 -198q46 -68 145 -68q84 0 148 52q42 38 53.5 113.5t11.5 210.5q0 56 -15 225q-63 4 -93 12q-7 2 -7 8q0 10 10 10q1 0 18 -1.5t44.5 -3t53.5 -1.5q24 0 48 1.5t38 3t15 1.5q10 0 10 -10q0 -6 -7 -8q-27 -9 -78 -12q-15 -169 -15 -225
q0 -65 -1.5 -101.5t-7.5 -91.5t-21.5 -91.5t-41.5 -56.5q-73 -58 -163 -58q-108 0 -178 62q-40 36 -49 85.5t-9 184.5q0 225 -4 292q-59 4 -84 12q-7 2 -7 8q0 10 10 10q1 0 17.5 -1.5t45.5 -3t60 -1.5t62 1.5t49.5 3t20.5 1.5q10 0 10 -10q0 -6 -7 -8q-33 -8 -103 -12
q-4 -67 -4 -335z" />
    <glyph glyph-name="V" unicode="V" horiz-adv-x="648" 
d="M133 607l213 -529q52 108 109 264q50 133 80 265q-52 4 -74 12q-7 2 -7 8q0 10 10 10q1 0 14.5 -1.5t35 -3t42.5 -1.5q20 0 41.5 1.5t34.5 3t14 1.5q10 0 10 -10q0 -6 -7 -8q-20 -9 -56 -12l-80 -190l-63.5 -150l-72.5 -172.5t-34 -79.5q0 -1 -4.5 -12.5t-8 -15.5
t-8.5 -4q-10 0 -21 30l-243 594q-41 4 -60 12q-7 2 -7 8q0 10 10 10q1 0 14.5 -1.5t36 -3t44.5 -1.5q25 0 49 1.5t37.5 3t14.5 1.5q10 0 10 -10q0 -6 -7 -8q-17 -7 -67 -12z" />
    <glyph glyph-name="W" unicode="W" horiz-adv-x="852" 
d="M647 239l-103 -247q-7 -16 -11 -16t-13 16l-93 235l-47 -117.5t-46 -117.5q-6 -16 -12 -16q-4 0 -14 16l-256 615q-36 3 -56 12q-7 2 -7 8q0 10 10 10q3 0 34 -1.5t79.5 -3t93.5 -1.5q47 0 95 1.5t77.5 3t30.5 1.5q10 0 10 -10q0 -6 -7 -8q-17 -7 -69 -12l106 -264
q58 150 84 264q-60 5 -75 12q-7 2 -7 8q0 10 10 10q2 0 31 -1.5t77.5 -3t98.5 -1.5q41 0 84.5 1.5t71 3t28.5 1.5q10 0 10 -10q0 -6 -7 -8q-18 -8 -50 -12q-38 -82 -158 -368zM270 607h-136l210 -530q2 4 72 177zM556 70l72 185q76 195 120 352h-164q-59 -135 -122 -296z
" />
    <glyph glyph-name="X" unicode="X" horiz-adv-x="667" 
d="M169 607l167 -246q135 198 156 246q-51 4 -73 12q-7 2 -7 8q0 10 10 10q1 0 15.5 -1.5t38.5 -3t48 -1.5q22 0 44 1.5t36 3.5l13 1q10 0 10 -10q0 -6 -7 -8q-19 -8 -64 -12q-107 -114 -208 -265q179 -257 231 -318q47 -4 66 -12q7 -2 7 -8q0 -10 -10 -10l-16 2
q-17 1 -45 2.5t-58 1.5q-28 0 -57 -1.5t-46.5 -3t-18.5 -1.5q-10 0 -10 10q0 6 7 8q28 8 88 12q-18 31 -179 260q-116 -175 -153 -260q62 -4 92 -12q7 -2 7 -8q0 -10 -10 -10l-18 2l-47 2.5t-57 1.5q-24 0 -48.5 -1.5t-39.5 -2.5l-15 -2q-10 0 -10 10q0 6 7 8q23 8 74 12
q38 41 106 135t99 144q-138 213 -213 304q-39 4 -54 12q-7 2 -7 8q0 10 10 10q1 0 15.5 -1.5t40 -3t51.5 -1.5t52.5 1.5t42.5 3t17 1.5q10 0 10 -10q0 -6 -7 -8q-26 -8 -83 -12z" />
    <glyph glyph-name="Y" unicode="Y" horiz-adv-x="593" 
d="M434 4q0 -10 -10 -10q-1 0 -18.5 1.5t-48 3t-61.5 1.5t-61.5 -1.5t-48 -3t-18.5 -1.5q-10 0 -10 10q0 6 7 8q29 8 94 12q4 65 4 273l-196 310q-48 5 -63 12q-7 2 -7 8q0 10 10 10q1 0 15.5 -1.5t40 -3t51.5 -1.5q24 0 48 1.5t38.5 3t15.5 1.5q10 0 10 -10q0 -6 -7 -8
q-17 -8 -69 -12q45 -79 167 -270q37 56 87 142.5t65 127.5q-57 4 -83 12q-7 2 -7 8q0 10 10 10q1 0 15.5 -1.5t38 -3t46.5 -1.5q22 0 44 1.5t35 3.5l14 1q10 0 10 -10q0 -6 -7 -8q-19 -8 -64 -12l-71 -101q-86 -129 -121 -188q0 -227 4 -294q65 -4 94 -12q7 -2 7 -8z" />
    <glyph glyph-name="Z" unicode="Z" horiz-adv-x="574" 
d="M146 23h22q209 0 333 34q0 39 11 76q2 8 9 8q11 0 11 -14q0 -6 -3 -35t-3 -36q0 -21 3 -57.5t3 -41.5q0 -8 -10 -8q-3 0 -5 1.5t-4 5.5t-3.5 7.5t-3.5 10t-3 9.5q-95 17 -261 17q-86 0 -132 -3q-13 0 -25 -1l-18 -1.5t-7 -0.5q-9 0 -9 7q0 4 7.5 16.5l26 41.5t29.5 48
q31 54 157 250l161 253l-92 -2q-155 0 -260 -28q-8 -92 -22 -92q-8 0 -8 18q0 2 3 43.5t3 60.5q0 4 -3 26.5t-3 34.5q0 17 11 17q3 0 5 -2t4 -6.5t3.5 -8.5t3.5 -11.5l3 -11.5q110 -17 236 -17q16 0 124 3q54 3 69 3q8 0 8 -5q0 -3 -4.5 -10t-21 -30.5t-33.5 -50.5
l-114 -181q-144 -227 -198 -337z" />
    <glyph glyph-name="bracketleft" unicode="[" horiz-adv-x="278" 
d="M163 -136h72q25 0 25 -11t-25 -11h-123q-11 0 -13.5 3t-2.5 15v770q0 12 2.5 15t13.5 3h123q25 0 25 -11t-25 -11h-72v-762z" />
    <glyph glyph-name="backslash" unicode="\" horiz-adv-x="259" 
d="M46 648l202 -665h-36l-202 665h36z" />
    <glyph glyph-name="bracketright" unicode="]" horiz-adv-x="278" 
d="M182 630v-770q0 -12 -2.5 -15t-13.5 -3h-123q-25 0 -25 11t25 11h72v762h-72q-25 0 -25 11t25 11h123q11 0 13.5 -3t2.5 -15z" />
    <glyph glyph-name="asciicircum" unicode="^" 
d="M300 631l218 -385h-44l-196 350l-196 -350h-44l218 385h44z" />
    <glyph glyph-name="underscore" unicode="_" horiz-adv-x="500" 
d="M500 -75v-50h-500v50h500z" />
    <glyph glyph-name="grave" unicode="`" horiz-adv-x="300" 
d="M52 499h61q5 0 9 -6l82 -97q6 -8 6 -12q0 -7 -7 -7q-5 0 -15 8l-137 100q-6 4 -6 8q0 6 7 6z" />
    <glyph glyph-name="a" unicode="a" horiz-adv-x="407" 
d="M257 5v43q-75 -60 -125 -60q-39 0 -64 28.5t-25 68.5q0 52 37.5 80t85.5 28q36 0 91 -22q0 67 -10 90.5t-54 23.5q-35 0 -74 -16.5t-43 -16.5q-10 0 -10 9q0 15 55.5 41t94.5 26q103 0 103 -96q0 -32 -0.5 -84t-0.5 -58q0 -55 15 -55q14 0 34.5 15.5t22.5 15.5q6 0 6 -7
q0 -15 -37.5 -43t-77.5 -28q-24 0 -24 17zM257 74v77q-49 19 -76 19q-77 0 -77 -75q0 -30 16.5 -49t45.5 -19q6 0 12 1t10.5 2t10.5 3.5t10 4.5t9.5 5.5t8 5.5l8.5 6.5t7.5 6t7.5 6.5t7 6z" />
    <glyph glyph-name="b" unicode="b" horiz-adv-x="444" 
d="M142 27v-33q-2 0 -21.5 3t-30.5 3q-18 0 -34 -1.5t-25 -3t-11 -1.5q-11 0 -11 7q0 9 10 10q26 7 61 12q4 113 4 338q0 199 -5 307q-2 46 -20 46q-11 0 -26.5 -9.5t-19.5 -9.5q-7 0 -7 9q0 12 47.5 39t77.5 27q12 0 15 -7.5t3 -23.5q0 -25 -2 -214t-2 -259q25 19 38.5 28
t43 21.5t55.5 12.5q57 0 86.5 -45t29.5 -108q0 -83 -40 -135t-112 -52q-61 0 -104 39zM240 11q43 0 67 42.5t24 109.5q0 55 -23 91t-64 36q-19 0 -40.5 -10t-30 -16.5t-28.5 -23.5q-3 -93 -3 -95q0 -64 17 -91q10 -19 33.5 -31t47.5 -12z" />
    <glyph glyph-name="c" unicode="c" horiz-adv-x="389" 
d="M344 83q0 -3 -5 -13t-17 -24t-28 -27t-42 -22t-55 -9q-61 0 -109 41.5t-48 118.5q0 74 52 127t127 53q43 0 90 -20l3 11.5t3.5 11l3.5 8t4 6.5t5 2q7 0 7 -10q0 -3 -3 -33.5t-3 -50.5q0 -18 1.5 -42t1.5 -26q0 -9 -7 -9q-5 0 -9 12t-7.5 35t-3.5 25q-14 21 -45 39t-65 18
q-42 0 -71 -29t-29 -85q0 -72 41 -116t94 -44q29 0 52.5 15t36.5 30t17 15q8 0 8 -8z" />
    <glyph glyph-name="d" unicode="d" horiz-adv-x="463" 
d="M362 373v-299v-20t1.5 -12t4 -7.5t7.5 -1.5q16 0 40.5 19.5t26.5 19.5q6 0 6 -8q0 -16 -34.5 -46t-69.5 -30q-43 0 -43 44v24h-2q-18 -26 -50 -47t-71 -21q-57 0 -95 43.5t-38 117.5q0 75 39.5 127t113.5 52q61 0 103 -44q0 40 -2 188.5t-2 195.5q0 46 -20 46
q-11 0 -26.5 -9.5t-19.5 -9.5q-7 0 -7 9q0 12 47.5 39t77.5 27q12 0 15 -7.5t3 -23.5q0 -20 -2.5 -167t-2.5 -199zM301 87v168q-40 53 -95 53q-45 0 -69.5 -39.5t-24.5 -104.5q0 -66 26 -98t70 -32q62 0 93 53z" />
    <glyph glyph-name="e" unicode="e" horiz-adv-x="389" 
d="M351 177h-253q0 -52 33.5 -101t93.5 -49q34 0 58 17t35.5 34t15.5 17q7 0 7 -7q0 -24 -40 -62t-104 -38q-72 0 -115.5 45t-43.5 117q0 70 44 124t123 54q73 0 109.5 -42t36.5 -109zM98 196l184 5q0 110 -85 110q-28 0 -48.5 -12.5t-30.5 -33t-14 -36.5t-6 -33z" />
    <glyph glyph-name="f" unicode="f" horiz-adv-x="315" 
d="M289 323v-37q-4 0 -48 3.5t-71 3.5q0 -187 3 -270q70 -7 98 -12q10 -1 10 -10q0 -7 -11 -7q-3 0 -22 1.5t-48.5 3t-60.5 1.5q-21 0 -41.5 -1.5t-33 -3t-14.5 -1.5q-11 0 -11 7q0 9 10 10q17 6 57 12q3 83 3 270q-41 0 -82 -6v35q14 -2 40 -4q28 -2 42 -2q0 10 -4 89.5
t-4 121.5q0 86 39 152q8 13 21.5 31t40.5 39t50 21q20 0 33.5 -13.5t13.5 -31.5t-12 -30t-31 -12t-28 9.5t-12.5 18.5t-8.5 9q-13 0 -22 -19t-12 -48t-4 -44.5t-1 -26.5q0 -76 1 -169.5t1 -96.5q67 0 119 7z" />
    <glyph glyph-name="g" unicode="g" horiz-adv-x="407" 
d="M301 305q17 22 17 29q0 16 -16.5 32t-16.5 27q0 13 8 21t21 8q43 0 43 -52q0 -18 -7 -32.5t-13.5 -21.5t-20.5 -20l3 -3q39 -38 39 -81q0 -60 -53.5 -105t-117.5 -45q-42 0 -72 15q-23 -26 -23 -42q0 -12 35.5 -16.5t91.5 -6t79 -4.5q29 -4 43 -16.5t14 -39.5
q0 -63 -55 -107.5t-131 -44.5q-41 0 -77.5 19t-36.5 50q0 10 3 20t9.5 21.5t11 18.5t12.5 18t10 13q-13 3 -18 4.5t-15.5 6.5t-14.5 13.5t-4 20.5q0 31 50 81q-53 42 -53 92q0 62 54.5 106t120.5 44q45 0 80 -23zM82 214q0 -40 52 -75t102 -35q37 0 62.5 21t25.5 50
q0 44 -49.5 77.5t-104.5 33.5q-40 0 -64 -20.5t-24 -51.5zM322 -83q0 28 -38 34t-163 6q-39 -49 -39 -74q0 -27 33 -42t67 -15q48 0 94 27.5t46 63.5z" />
    <glyph glyph-name="h" unicode="h" horiz-adv-x="481" 
d="M466 1q0 -7 -11 -7q-2 0 -14.5 1.5t-33 3t-41.5 1.5t-41.5 -1.5t-33 -3t-14.5 -1.5q-11 0 -11 7q0 6 10 10q17 6 57 12q3 39 3 129q0 30 -0.5 44.5t-4 36.5t-10.5 31.5t-20.5 17.5t-33.5 8q-54 0 -120 -39q0 -159 2 -228q40 -6 57 -12q10 -4 10 -10q0 -7 -11 -7
q-2 0 -14.5 1.5t-33 3t-41.5 1.5t-41.5 -1.5t-33 -3t-14.5 -1.5q-11 0 -11 7q0 6 10 10q17 6 57 12q3 103 3 352q0 50 -2 155t-2 138q0 46 -20 46q-11 0 -26.5 -9.5t-19.5 -9.5q-7 0 -7 9q0 12 47.5 39t77.5 27q12 0 15 -7.5t3 -23.5q0 -28 -2.5 -221t-2.5 -246
q100 56 159 56q51 0 72 -23t21 -67q0 -15 -1 -44t-1 -42q0 -90 3 -129q38 -6 56 -12q10 -4 10 -10z" />
    <glyph glyph-name="i" unicode="i" horiz-adv-x="259" 
d="M220 -6q-2 0 -14.5 1.5t-33 3t-41.5 1.5t-41.5 -1.5t-33 -3t-14.5 -1.5q-11 0 -11 7q0 9 10 10q17 6 57 12q3 39 3 129q0 83 -2 137q-8 0 -31.5 -1t-34.5 -1q-8 0 -8 7q0 3 2.5 5.5t8.5 4.5t12 3t18 3.5l21 4.5l32 8.5l26 7t12 2.5q8 0 8 -13q0 -4 -0.5 -14.5t-0.5 -16.5
q-2 -54 -2 -137q0 -90 3 -129q38 -6 56 -12q10 -1 10 -10q0 -7 -11 -7zM170 528q0 -19 -13.5 -32.5t-32.5 -13.5t-32.5 13.5t-13.5 32.5t13.5 32.5t32.5 13.5t32.5 -13.5t13.5 -32.5z" />
    <glyph glyph-name="j" unicode="j" horiz-adv-x="222" 
d="M154 11q0 -22 -2.5 -41t-5.5 -30.5t-8 -22t-8 -15t-7 -9.5t-5 -6q-16 -23 -50.5 -50.5t-47.5 -28.5q-8 0 -8 9q0 4 6 10q62 39 69 153q4 52 4 149q0 96 -2 160q-8 0 -31.5 -1t-34.5 -1q-8 0 -8 7q0 3 2.5 5.5t8.5 4.5t12 3t18 3.5l21 4.5l32 8.5l26 7t12 2.5q8 0 8 -13
q0 -4 -0.5 -14.5t-0.5 -16.5q-2 -64 -2 -160q0 -19 1 -58.5t1 -59.5zM160 528q0 -19 -13.5 -32.5t-32.5 -13.5t-32.5 13.5t-13.5 32.5t13.5 32.5t32.5 13.5t32.5 -13.5t13.5 -32.5z" />
    <glyph glyph-name="k" unicode="k" horiz-adv-x="463" 
d="M233 171l21 -26q24 9 37 15t32 18t28 27.5t9 35.5q0 23 -15.5 37t-45.5 14q-35 0 -74.5 -17t-42.5 -17q-9 0 -9 8q0 15 63.5 38.5t101.5 23.5q35 0 60 -19t25 -47q0 -66 -134 -121l-25 -9q7 -6 40.5 -41t55 -52.5t34.5 -17.5q14 0 24 12.5t16 12.5q7 0 7 -7
q0 -14 -20.5 -32.5t-48.5 -18.5q-9 0 -20.5 3.5t-22 8.5t-24 14.5l-23.5 17t-25 20.5t-23 20.5l-22.5 22l-20 20t-18.5 19.5t-14 15zM207 11q10 -1 10 -10q0 -7 -11 -7q-2 0 -14.5 1.5t-33 3t-41.5 1.5t-41.5 -1.5t-33 -3t-14.5 -1.5q-11 0 -11 7q0 9 10 10q17 6 57 12
q3 156 3 352q0 39 -2 148.5t-2 144.5q0 46 -20 46q-11 0 -26.5 -9.5t-19.5 -9.5q-7 0 -7 9q0 12 47.5 39t77.5 27q12 0 15 -7.5t3 -23.5q0 -22 -2.5 -172t-2.5 -192q0 -248 2 -352q40 -6 57 -12z" />
    <glyph glyph-name="l" unicode="l" horiz-adv-x="259" 
d="M223 11q10 -1 10 -10q0 -7 -11 -7q-2 0 -14.5 1.5t-33 3t-41.5 1.5t-41.5 -1.5t-33 -3t-14.5 -1.5q-11 0 -11 7q0 9 10 10q17 6 57 12q3 156 3 352q0 39 -2 148.5t-2 144.5q0 46 -20 46q-11 0 -26.5 -9.5t-19.5 -9.5q-7 0 -7 9q0 12 47.5 39t77.5 27q12 0 15 -7.5
t3 -23.5q0 -22 -2.5 -172t-2.5 -192q0 -248 2 -352q40 -6 57 -12z" />
    <glyph glyph-name="m" unicode="m" horiz-adv-x="722" 
d="M159 249v-97q0 -103 3 -129q38 -6 56 -12q10 -1 10 -10q0 -7 -11 -7q-2 0 -14.5 1.5t-33 3t-41.5 1.5t-41.5 -1.5t-33 -3t-14.5 -1.5q-11 0 -11 7q0 9 10 10q17 6 57 12q3 39 3 129q0 96 -3 137q-3 0 -32 -1t-35 -1q-9 0 -9 7q0 6 5 8.5t25 6.5l49 11q44 13 53 13
q10 0 10 -13q0 -3 -1 -23t-1 -27q106 58 149 58q77 0 90 -59q104 59 150 59q51 0 72 -23t21 -67q0 -15 -1 -44t-1 -42q0 -90 3 -129q38 -6 56 -12q10 -1 10 -10q0 -7 -11 -7q-2 0 -14.5 1.5t-33 3t-41.5 1.5t-41.5 -1.5t-33 -3t-14.5 -1.5q-11 0 -11 7q0 9 10 10q17 6 57 12
q3 39 3 129q0 30 -0.5 44.5t-4 36.5t-10.5 31.5t-20.5 17.5t-33.5 8q-13 0 -25.5 -2t-26 -8t-19.5 -9t-21 -12t-17 -10q0 -17 -0.5 -49.5t-0.5 -47.5q0 -90 3 -129q38 -6 56 -12q10 -1 10 -10q0 -7 -11 -7q-2 0 -14.5 1.5t-33 3t-41.5 1.5t-41.5 -1.5t-33 -3t-14.5 -1.5
q-11 0 -11 7q0 9 10 10q17 6 57 12q3 39 3 129q0 30 -0.5 44.5t-4 36.5t-10.5 31.5t-20.5 17.5t-33.5 8q-8 0 -17 -1.5l-15.5 -2.5t-15.5 -4.5l-14 -5.5t-14 -7t-11.5 -6.5l-12 -7t-10.5 -6.5z" />
    <glyph glyph-name="n" unicode="n" horiz-adv-x="500" 
d="M480 1q0 -7 -11 -7q-2 0 -14.5 1.5t-33 3t-41.5 1.5t-41.5 -1.5t-33 -3t-14.5 -1.5q-11 0 -11 7q0 9 10 10q17 6 57 12q3 39 3 129q0 30 -0.5 44.5t-4 36.5t-10.5 31.5t-20.5 17.5t-33.5 8q-45 0 -114 -41q0 -16 -0.5 -48t-0.5 -49q0 -103 3 -129q38 -6 56 -12
q10 -1 10 -10q0 -7 -11 -7q-2 0 -14.5 1.5t-33 3t-41.5 1.5t-41.5 -1.5t-33 -3t-14.5 -1.5q-11 0 -11 7q0 9 10 10q17 6 57 12q3 39 3 129q0 96 -3 137q-4 0 -32.5 -1t-34.5 -1q-9 0 -9 7q0 6 5 8.5t25 6.5l49 11q14 3 26 6.5l17.5 5t9.5 1.5q10 0 10 -13q0 -3 -1 -23
t-1 -27q106 58 154 58q51 0 72 -23t21 -67q0 -15 -1 -44t-1 -42q0 -90 3 -129q38 -6 56 -12q10 -1 10 -10z" />
    <glyph glyph-name="o" unicode="o" horiz-adv-x="463" 
d="M261 328q69 0 113 -37.5t44 -109.5q0 -89 -60.5 -141t-150.5 -52q-71 0 -116.5 39t-45.5 112q0 85 67 137t149 52zM108 162q0 -70 31 -112t92 -42q63 0 93.5 40t30.5 104q0 69 -27.5 112.5t-89.5 43.5q-58 0 -94 -38t-36 -108z" />
    <glyph glyph-name="p" unicode="p" horiz-adv-x="444" 
d="M261 -185q0 -7 -11 -7q-3 0 -22 1.5t-49.5 3t-62.5 1.5q-21 0 -41.5 -1.5t-33 -3t-14.5 -1.5q-11 0 -11 7q0 9 10 10q17 6 57 12q3 66 3 219q0 194 -3 233q-4 0 -32.5 -1t-34.5 -1q-9 0 -9 7q0 6 5 8.5t25 6.5l49 11q14 3 26 6.5l17.5 5t9.5 1.5q10 0 10 -13
q0 -41 -1 -57q49 44 83 56q26 9 52 9q61 0 90 -46t29 -108q0 -76 -47.5 -131t-107.5 -55q-13 0 -25 2t-20 4.5t-18 8l-13.5 7.5t-13 9t-10.5 8q0 -133 3 -190q76 -7 101 -12q10 -1 10 -10zM147 236v-172q52 -54 100 -54q45 0 65.5 41t20.5 102q0 23 -3.5 44t-11.5 43.5
t-26.5 36t-44.5 13.5q-8 0 -16 -1t-15.5 -4t-13 -5t-12.5 -6.5t-10.5 -7t-10 -8.5t-8.5 -8l-7.5 -7.5z" />
    <glyph glyph-name="q" unicode="q" horiz-adv-x="426" 
d="M356 212v-158q0 -151 3 -217q40 -6 57 -12q10 -1 10 -10q0 -7 -11 -7q-2 0 -14.5 1.5t-33 3t-41.5 1.5q-32 0 -62.5 -1.5t-49.5 -3t-22 -1.5q-11 0 -11 7q0 9 10 10q25 5 101 12q3 44 3 201q-58 -50 -112 -50q-58 0 -100.5 41.5t-42.5 118.5q0 82 48.5 131t108.5 49
q30 0 53.5 -13t36 -25.5t15.5 -12.5q5 0 16.5 15.5t32.5 31t50 15.5q19 0 19 -12q0 -6 -6.5 -7.5l-17 -4t-17.5 -9.5q-23 -21 -23 -94zM295 70v176q-35 60 -89 60q-42 0 -71.5 -37.5t-29.5 -94.5q0 -62 25.5 -107t81.5 -45q45 0 83 48z" />
    <glyph glyph-name="r" unicode="r" horiz-adv-x="333" 
d="M153 212h2q11 41 41.5 81t69.5 40q19 0 32 -12t13 -31q0 -17 -11.5 -29t-29.5 -12q-17 0 -26.5 12t-15.5 12q-37 0 -55.5 -57t-18.5 -119q0 -51 3 -74q74 -7 100 -12q10 -1 10 -10q0 -7 -11 -7q-3 0 -22 1.5t-49 3t-62 1.5q-21 0 -41.5 -1.5t-33 -3t-14.5 -1.5
q-11 0 -11 7q0 9 10 10q17 6 57 12q3 36 3 122q0 103 -3 144q-4 0 -32 -1t-35 -1q-9 0 -9 7q0 2 0.5 3.5t1.5 3t3 2t5.5 1.5l7 2t10 2.5t13.5 2.5t17 3.5l21 5.5q5 1 20.5 7t25.5 6t10 -13q4 -17 4 -108z" />
    <glyph glyph-name="s" unicode="s" horiz-adv-x="333" 
d="M277 269q0 -17 0.5 -30t1.5 -20t1 -9q0 -8 -7 -8q-9 0 -19 58q-55 42 -105 42q-29 0 -52.5 -16t-23.5 -40q0 -15 7 -24t22 -13t29.5 -6t38 -4t39.5 -5q85 -18 85 -89q0 -55 -39.5 -86t-101.5 -31q-35 0 -81 16q-1 -2 -2 -7t-1.5 -8t-1.5 -7t-2.5 -6.5l-3 -5t-3.5 -3.5
t-4 -1q-6 0 -6 7q0 1 2.5 27t2.5 50q0 16 -1.5 37.5t-1.5 26.5q0 10 7 10q3 0 6 -4t5 -12.5l3.5 -15t3 -18t2.5 -15.5q62 -38 111 -38q33 0 56.5 17t23.5 42q0 26 -22.5 34.5t-66.5 12t-68 12.5q-63 23 -63 87q0 46 34.5 74t87.5 28q43 0 88 -21q13 35 20 35q6 0 6 -7
q0 -1 -3.5 -24t-3.5 -42z" />
    <glyph glyph-name="t" unicode="t" horiz-adv-x="296" 
d="M280 323v-37q-7 0 -54 4t-75 4q0 -11 -1.5 -50.5t-1.5 -58.5q0 -55 2 -113q1 -19 11.5 -29.5t39.5 -10.5q26 0 49 19t26 19q9 0 9 -9q0 -18 -37 -45.5t-77 -27.5q-49 0 -66.5 27.5t-17.5 82.5q0 32 1.5 109.5t1.5 85.5q-36 0 -77 -6v35q14 -2 38 -4t39 -2v191h67
q-6 -98 -6 -191q77 0 129 7z" />
    <glyph glyph-name="u" unicode="u" horiz-adv-x="463" 
d="M316 -6v51q-93 -57 -158 -57q-38 0 -60 23.5t-22 67.5q1 29 1 117q0 71 -1 88q-4 0 -27 -1t-30 -1q-9 0 -9 7q0 3 0.5 4.5t3 3t5 2.5t8.5 2.5l12.5 3t17.5 4.5l23 6q42 13 51 13q10 0 10 -13q0 -3 -1 -23t-1 -27q0 -2 -0.5 -75t-0.5 -102q0 -33 15 -48.5t55 -15.5
q12 0 23.5 2t19.5 4t19 7t15.5 7.5l16 9t14.5 8.5v86q0 96 -3 136q-3 0 -27 -1t-31 -1q-9 0 -9 7q0 3 0.5 4.5t3 3t5 2.5t8.5 2.5l12.5 3t17.5 4.5l23 6q46 13 54 13q10 0 10 -13q0 -3 -1 -23t-1 -27q-1 -8 -1 -117q0 -87 4 -125q40 -6 57 -12q10 -1 10 -10q0 -7 -11 -7
q-2 0 -14 1.5t-28.5 3t-30.5 1.5t-48 -6z" />
    <glyph glyph-name="v" unicode="v" horiz-adv-x="426" 
d="M225 -1q-8 -16 -16 -16q-7 0 -15 16q-29 59 -113 248l-21 46q-38 10 -42 12q-10 5 -10 10q0 7 11 7q2 0 14.5 -1.5t32 -3t38.5 -1.5q16 0 31.5 1.5t25 3t11.5 1.5q11 0 11 -7q0 -5 -1 -6.5t-4 -2t-5 -1.5q-10 -6 -44 -12l45.5 -105.5l57.5 -132.5q55 118 90 238
q-35 10 -39 12q-2 1 -4 1.5t-3 1t-2 2.5t-1 5q0 7 11 7q2 0 11 -1.5t24 -3t30 -1.5t29.5 1.5t23.5 3t11 1.5q11 0 11 -7t-6 -8l-4 -2q-16 -7 -44 -12q-16 -36 -145 -294z" />
    <glyph glyph-name="w" unicode="w" 
d="M370 -2q-9 -15 -15 -15q-9 0 -15 15q-5 14 -30 77.5t-34 89.5q-11 -26 -40 -85.5t-37 -77.5q-9 -19 -18 -19q-10 0 -18 22l-95 253l-6.5 15l-6 13.5t-2.5 7.5q-35 9 -38 11q-2 1 -4 1.5t-3 1t-2 2.5t-1 5q0 7 11 7q4 0 26.5 -1.5t57.5 -3t71 -1.5q40 0 78 1.5t61.5 3
t27.5 1.5q11 0 11 -7q0 -6 -6 -8q-3 -1 -4 -2q-13 -5 -43 -11q60 -181 84 -233q63 149 80 232q-5 1 -14.5 3.5l-17 4.5t-11.5 4q-2 1 -4 1.5t-3 1t-2 2.5t-1 5q0 7 11 7q2 0 11.5 -1.5t25 -3t32.5 -1.5t37 3l21 3q11 0 11 -7q0 -6 -6 -8q-3 -1 -4 -2q-22 -9 -37 -12
q-1 0 -3 -5l-6 -15t-8 -19q-102 -217 -122 -256zM229 292h-107q4 -8 21.5 -57.5l38 -107t23.5 -66.5q21 45 59 140q-19 44 -35 91z" />
    <glyph glyph-name="x" unicode="x" horiz-adv-x="444" 
d="M429 1q0 -7 -11 -7q-2 0 -13 1.5t-30.5 3t-41.5 1.5q-20 0 -40 -1.5t-32.5 -3t-14.5 -1.5q-11 0 -11 7q0 9 10 10q30 9 46 12q-33 54 -81 117q-46 -59 -75 -117q22 -4 51 -12q10 -1 10 -10q0 -7 -11 -7q-2 0 -14 1.5t-31 3t-38 1.5t-36.5 -1.5t-28 -3t-11.5 -1.5
q-11 0 -11 7q0 9 10 10q11 4 51 12q66 66 122 131q-26 35 -90 106q-5 6 -32 33q-4 1 -22 5t-25 7q-1 0 -4.5 0.5t-4.5 2.5t-1 7q0 7 11 7q2 0 13 -1.5t30.5 -3t41.5 -1.5q20 0 40 1.5t32.5 3t14.5 1.5q11 0 11 -7q0 -9 -10 -10q-30 -9 -46 -12q1 -1 4 -5t6 -7.5t5 -7.5
q32 -43 61 -78q46 49 68 98q-14 3 -36 12q-10 1 -10 10q0 7 11 7q2 0 11 -1.5t24 -3t30 -1.5q22 0 41.5 1.5t30.5 3t13 1.5q11 0 11 -7q0 -9 -10 -10q-11 -4 -51 -12q-39 -27 -61 -47.5t-61 -65.5l16.5 -21l26 -32l28.5 -35l57 -69q4 -1 22 -5t25 -7q10 -1 10 -10z" />
    <glyph glyph-name="y" unicode="y" horiz-adv-x="407" 
d="M230 25q-67 -127 -98 -172t-57 -45q-19 0 -32 12t-13 32q0 21 12 32t30 11q22 0 39 -22q40 44 75 112l-113 271q-2 7 -8 19.5t-8 17.5q-5 1 -14.5 3.5l-16.5 4.5t-12 4q-10 1 -10 10q0 7 11 7q2 0 13.5 -1.5t29.5 -3t37 -1.5q17 0 33 1.5t25.5 3t11.5 1.5q11 0 11 -7
q0 -9 -10 -10q-18 -7 -39 -12q7 -22 41 -109t52 -128q61 151 83 237q-10 1 -36 12q-10 3 -10 10t11 7q2 0 11 -1.5t24 -3t30 -1.5q14 0 26.5 1.5t20 3t8.5 1.5q11 0 11 -7t-10 -10q-21 -10 -36 -12q-81 -183 -123 -268z" />
    <glyph glyph-name="z" unicode="z" horiz-adv-x="407" 
d="M354 -34q0 -9 -7 -9q-8 0 -17 37q-114 6 -159 6q-39 0 -68 -3q-10 0 -24.5 -1.5t-19.5 -1.5q-12 0 -12 10q0 2 1.5 5.5t5 7.5t6.5 8t8.5 10.5l9.5 11.5q70 85 193 251q-108 0 -189 -30q-9 -48 -17 -48t-8 10q0 8 3 31t3 36q0 6 -2 23.5t-2 29.5q0 11 6 11q3 0 5.5 -2
t4 -7t2.5 -8t2.5 -11t2.5 -11q40 -7 123 -7q27 0 73 4q6 0 30 1.5t35 1.5q12 0 12 -8t-34 -44q-84 -99 -189 -254q82 0 125.5 7.5t73.5 30.5q8 46 18 46q7 0 7 -8q0 -7 -3 -33t-3 -38q0 -19 2 -35.5t2 -19.5z" />
    <glyph glyph-name="braceleft" unicode="{" 
d="M397 -229v-25q-64 3 -117.5 52t-53.5 118q0 36 10 96q13 76 13 94q0 44 -26 78t-63 49v24q38 15 63.5 47.5t25.5 79.5q0 18 -13 94q-10 60 -10 96q0 69 53.5 118t117.5 52v-25q-42 -12 -64.5 -50.5t-22.5 -85.5q0 -37 6 -85t6 -79q0 -39 -12.5 -70t-36.5 -52t-38.5 -30.5
t-38.5 -21.5q24 -13 38.5 -23t38.5 -31t36.5 -51.5t12.5 -68.5q0 -7 -6 -79q-6 -64 -6 -85q0 -47 22.5 -85.5t64.5 -50.5z" />
    <glyph glyph-name="bar" unicode="|" horiz-adv-x="241" 
d="M142 750v-1000h-44v1000h44z" />
    <glyph glyph-name="braceright" unicode="}" 
d="M160 -254v25q42 12 64.5 50.5t22.5 85.5q0 21 -6 85q-6 72 -6 79q0 39 12.5 70t36.5 52t38.5 30.5t38.5 21.5q-24 13 -38.5 23t-38.5 31t-36.5 51.5t-12.5 68.5q0 31 6 79t6 85q0 47 -22.5 85.5t-64.5 50.5v25q64 -3 117.5 -52t53.5 -118q0 -36 -10 -96q-13 -76 -13 -94
q0 -44 26 -78t63 -49v-24q-38 -15 -63.5 -47.5t-25.5 -79.5q0 -18 13 -94q10 -60 10 -96q0 -69 -53.5 -118t-117.5 -52z" />
    <glyph glyph-name="asciitilde" unicode="~" 
d="M509 301h33q0 -25 -10.5 -55t-42 -58t-76.5 -28q-49 0 -119 41l-61 34q-63 34 -100 34q-23 0 -38.5 -6.5t-25 -22.5t-13.5 -26.5t-10 -34.5h-32q0 54 35.5 97t92.5 43q46 0 120 -40l61 -34q58 -34 99 -34q23 0 38 6t24 19t13.5 24.5t9.5 32.5q1 5 2 8z" />
    <glyph glyph-name="uni00A0" unicode="&#xa0;" horiz-adv-x="222" 
 />
    <glyph glyph-name="exclamdown" unicode="&#xa1;" horiz-adv-x="241" 
d="M161 -147q0 -15 -24 -30t-38 -15q-7 0 -11.5 7t-4.5 14q0 6 2 32.5l5.5 75t5.5 84.5l17 249q2 25 12 25q9 0 11 -25q8 -108 8 -179q0 -37 8.5 -130t8.5 -108zM174 419q0 -21 -14.5 -35t-34.5 -14t-34.5 14t-14.5 35t14.5 35t34.5 14t34.5 -14t14.5 -35z" />
    <glyph glyph-name="cent" unicode="&#xa2;" 
d="M302 110v-93q0 -16 -10 -16q-13 0 -13 16v92q-19 2 -40.5 7.5t-51 19.5t-51.5 34t-38 55t-16 79q0 42 14 76.5t34.5 56t48 38t51.5 24t49 11.5v162h23v-162q3 -1 20 -2t37.5 -5t41.5 -12q3 -1 18 -7t22 -9.5t14.5 -14t7.5 -24.5q0 -98 -18 -98q-5 0 -10.5 22t-14 48.5
t-39 50.5t-79.5 28v-333q48 0 85.5 17t57 34t23.5 17q5 0 5 -6q0 -4 -4 -10q-19 -28 -67.5 -62t-99.5 -34zM279 157v330q-50 -7 -87 -45t-37 -111q0 -77 31 -114t93 -60z" />
    <glyph glyph-name="sterling" unicode="&#xa3;" 
d="M422 320l-14 -33q-120 6 -136 6q17 -47 17 -80q0 -76 -47 -133q80 -33 131 -33q35 0 66 15.5t47.5 34l30.5 34t19 15.5q7 0 7 -8q0 -11 -7.5 -33t-22 -49.5t-44.5 -47.5t-68 -20q-46 0 -111 30q-23 10 -67 34q-20 -21 -32 -31.5t-35.5 -22t-48.5 -11.5q-33 0 -57 16
t-24 48q0 30 22.5 50.5t57.5 20.5q30 0 110 -32q1 2 5 8.5t5 9l3.5 8.5t3.5 11t2 12.5t1 16.5q0 49 -43 137q-28 0 -80 -2.5t-55 -2.5l-12 32q2 0 58 -2t79 -2l-14 27.5t-18 37t-12 36.5t-6 43q0 71 52.5 129.5t131.5 58.5q67 0 114 -37t47 -94q0 -27 -11 -27q-4 0 -7 4
t-7.5 13t-7.5 14q-22 32 -65 57.5t-91 25.5q-42 0 -73.5 -26t-31.5 -68q0 -27 15 -64.5t38 -79.5t26 -50q26 0 93 2zM106 10q48 0 90 54q-61 33 -94 33q-22 0 -35.5 -12t-13.5 -31q0 -21 15.5 -32.5t37.5 -11.5z" />
    <glyph glyph-name="currency" unicode="&#xa4;" 
d="M513 111l-30 -30l-66 66q-63 -47 -139 -47q-80 0 -140 47l-66 -66l-30 30l67 67q-47 51 -47 136q0 79 48 138l-70 70l32 31l69 -68q64 46 137 46q72 0 136 -46l69 68l32 -31l-70 -70q48 -49 48 -138q0 -83 -47 -136zM278 490q-72 0 -123.5 -52t-51.5 -124t51.5 -122.5
t123.5 -50.5q71 0 122.5 51t51.5 122q0 72 -51 124t-123 52z" />
    <glyph glyph-name="yen" unicode="&#xa5;" 
d="M498 338v-27q-84 4 -180 4q0 -224 3 -291q65 -4 94 -12q7 -2 7 -8q0 -10 -10 -10q-1 0 -18.5 1.5t-47.5 3t-60 1.5q-31 0 -61.5 -1.5t-48 -3t-18.5 -1.5q-10 0 -10 10q0 6 7 8q29 8 94 12q3 69 3 291q-97 0 -181 -4v27q71 -4 167 -4q-4 7 -21 34t-25 43q-66 0 -121 -4v27
q54 -4 110 -4l-110 177q-48 5 -63 12q-7 2 -7 8q0 10 10 10q1 0 15.5 -1.5t40 -3t51.5 -1.5q24 0 48 1.5t38.5 3t15.5 1.5q10 0 10 -10q0 -6 -7 -8q-17 -8 -69 -12q82 -148 153 -261q33 51 78.5 135.5t60.5 125.5q-57 4 -83 12q-7 2 -7 8q0 10 10 10q1 0 15.5 -1.5t38 -3
t46.5 -1.5q22 0 44 1.5t36 3.5l13 1q10 0 10 -10q0 -6 -7 -8q-19 -8 -64 -12l-71 -101q-8 -12 -23 -38.5t-22 -37.5q58 0 116 4v-27q-59 4 -127 4q-6 -12 -14.5 -27l-17 -30l-11.5 -20q100 0 170 4z" />
    <glyph glyph-name="brokenbar" unicode="&#xa6;" horiz-adv-x="241" 
d="M142 675v-350h-44v350h44zM142 175v-350h-44v350h44z" />
    <glyph glyph-name="section" unicode="&#xa7;" 
d="M423 131q0 -71 -50 -107t-111 -36q-57 0 -103.5 31t-46.5 92q0 31 19 60t31 29q7 0 7 -6q0 -2 -8 -18t-8 -31q0 -41 46.5 -77.5t98.5 -36.5q36 0 65.5 18.5t29.5 55.5q0 34 -36.5 61t-105 58t-99.5 52q-28 18 -45 48.5t-17 62.5q0 13 2 23.5t7.5 20.5t8 15t11 15.5
t9.5 12.5q-6 26 -6 40q0 66 47.5 100t110.5 34q56 0 103 -29.5t47 -84.5q0 -31 -19 -60t-31 -29q-7 0 -7 6q0 3 8 19t8 30q0 41 -46.5 77.5t-98.5 36.5q-36 0 -64 -18t-28 -56q0 -34 36.5 -59.5t104 -54t100.5 -50.5q28 -18 45 -48.5t17 -62.5q0 -42 -38 -94q6 -26 6 -40z
M405 192q21 19 21 45q0 47 -73 89q-39 22 -87.5 42.5t-76 37t-49.5 45.5q-21 -19 -21 -38q0 -47 73 -89q37 -21 87 -42.5t77 -39.5t49 -50z" />
    <glyph glyph-name="dieresis" unicode="&#xa8;" horiz-adv-x="300" 
d="M119 438q0 -16 -11 -27t-27 -11t-27 11t-11 27t11 27t27 11t27 -11t11 -27zM259 438q0 -16 -11 -27t-27 -11t-27 11t-11 27t11 27t27 11t27 -11t11 -27z" />
    <glyph glyph-name="copyright" unicode="&#xa9;" 
d="M365 444h21q0 -1 -2 -10t-2.5 -12t-3 -12.5t-4.5 -13t-6.5 -12t-9.5 -12t-12.5 -9.5t-16 -8.5t-20 -4.5t-24.5 -2q-56 0 -92.5 38t-36.5 96q0 60 38.5 102t84.5 42q23 0 44 -8t27 -8q4 0 6.5 2t6.5 8l4 5h15v-102l-15 -3q-1 1 -4.5 11t-5 13t-5.5 12t-7 13t-7.5 11
t-9 10.5t-10.5 7.5t-12.5 5.5t-13.5 1.5q-71 0 -71 -122q0 -52 19 -82t55 -30q56 0 70 73zM278 259q-95 0 -164.5 65.5t-69.5 159.5t69.5 159.5t164.5 65.5t164.5 -65.5t69.5 -159.5t-69.5 -159.5t-164.5 -65.5zM79 484q0 -79 58.5 -134.5t140.5 -55.5t140.5 55.5
t58.5 134.5q0 80 -58.5 135t-140.5 55t-140.5 -55t-58.5 -135z" />
    <glyph glyph-name="ordfeminine" unicode="&#xaa;" horiz-adv-x="389" 
d="M248 324v39q-75 -56 -120 -56q-37 0 -61 27t-24 66q0 47 35 74t83 27q37 0 87 -20q0 27 -0.5 39.5t-3.5 29t-9.5 23.5t-18.5 12t-30 5q-33 0 -70.5 -15.5t-41.5 -15.5q-9 0 -9 8q0 16 50.5 40t92.5 24q100 0 100 -92q0 -31 -0.5 -80t-0.5 -55q0 -52 14 -52t33.5 15
t20.5 15q7 0 7 -6q0 -15 -36.5 -42t-74.5 -27q-12 0 -17.5 3t-5.5 14zM248 388v74q-44 18 -73 18q-73 0 -73 -70q0 -29 15.5 -47t43.5 -18q37 0 87 43z" />
    <glyph glyph-name="guillemotleft" unicode="&#xab;" horiz-adv-x="315" 
d="M69 158q10 -18 46.5 -75.5t43.5 -69.5q5 -7 5 -10q0 -6 -6 -6q-4 0 -16 12q-30 30 -110 120q-17 19 -17 29t17 29q80 90 110 120q12 12 16 12q6 0 6 -6q0 -3 -5 -10q-7 -12 -43.5 -69.5t-46.5 -75.5zM195 158q10 -18 46.5 -75.5t43.5 -69.5q5 -8 5 -10q0 -6 -6 -6
q-4 0 -16 12q-30 30 -110 120q-17 19 -17 29t17 29q80 90 110 120q12 12 16 12q6 0 6 -6q0 -3 -5 -10q-7 -12 -43.5 -69.5t-46.5 -75.5z" />
    <glyph glyph-name="logicalnot" unicode="&#xac;" 
d="M518 325v-169h-44v128h-436v41h480z" />
    <glyph glyph-name="uni00AD" unicode="&#xad;" horiz-adv-x="389" 
d="M336 184v-52h-283v52h283z" />
    <glyph glyph-name="registered" unicode="&#xae;" 
d="M162 360v19q23 2 30 8.5t7 31.5v143q0 23 -6 28t-31 8v20h122q53 0 81 -13.5t28 -51.5q0 -23 -14 -37.5t-25.5 -18.5t-33.5 -9q27 -16 38.5 -39.5t15.5 -38t14 -14.5q16 0 16 33h20q0 -24 -12 -46.5t-41 -22.5t-42.5 19t-15 42t-12.5 42t-36 19h-11v-60q0 -28 5.5 -33.5
t32.5 -9.5v-19h-130zM254 560v-57h21q57 0 57 45q0 50 -43 50q-16 0 -24 -5t-9.5 -11.5t-1.5 -21.5zM278 259q-95 0 -164.5 65.5t-69.5 159.5t69.5 159.5t164.5 65.5t164.5 -65.5t69.5 -159.5t-69.5 -159.5t-164.5 -65.5zM79 484q0 -79 58.5 -134.5t140.5 -55.5t140.5 55.5
t58.5 134.5t-58.5 134.5t-140.5 55.5t-140.5 -55.5t-58.5 -134.5z" />
    <glyph glyph-name="macron" unicode="&#xaf;" horiz-adv-x="300" 
d="M253 457v-39h-201v39h201z" />
    <glyph glyph-name="degree" unicode="&#xb0;" horiz-adv-x="481" 
d="M363 509q0 -53 -36.5 -88t-88.5 -35q-51 0 -86 35t-35 88q0 50 36 86t87 36t87 -36t36 -86zM240 424q35 0 60 25t25 60q0 34 -25 59t-60 25t-60 -25t-25 -59q0 -35 25 -60t60 -25z" />
    <glyph glyph-name="plusminus" unicode="&#xb1;" 
d="M300 220v-220h-44v220h-218v41h218v220h44v-220h218v-41h-218zM38 -46h480v-41h-480v41z" />
    <glyph glyph-name="twosuperior" unicode="&#xb2;" horiz-adv-x="370" 
d="M315 220q0 -11 -8 -11q-3 0 -5.5 1t-4.5 3.5t-3 4.5t-2.5 6t-2 6.5t-2 7t-1.5 6.5q-41 6 -119 6q-21 0 -67 -2q-33 -3 -51 -3q-14 0 -14 12q0 3 2 6t8 7.5l12 9l17 13t21 15.5q35 28 55.5 46t48.5 47.5t42 58.5t14 57q0 31 -22 49.5t-52 18.5q-41 0 -68.5 -24.5
t-40.5 -48.5t-19 -24q-10 0 -10 10q0 29 46 78t114 49q43 0 76 -25t33 -73q0 -33 -26.5 -74.5t-68 -78.5t-70 -60t-52.5 -39l2 -2q107 3 189 24q6 68 21 68q8 0 8 -10q0 -3 -2 -30.5t-2 -49.5q0 -10 2 -31t2 -24z" />
    <glyph glyph-name="threesuperior" unicode="&#xb3;" horiz-adv-x="370" 
d="M201 452h13q37 37 37 72q0 28 -22 46.5t-54 18.5q-29 0 -52.5 -14t-37 -28t-18.5 -14q-11 0 -11 9q0 8 17.5 27t53 37.5t73.5 18.5t67 -21t29 -60q0 -52 -55 -97q76 -24 76 -89q0 -52 -41 -83t-98 -31q-34 0 -69 14t-54 29.5t-19 22.5q0 9 11 9q4 0 8.5 -2.5t8 -5
t11 -8.5t12.5 -9q37 -25 81 -25q43 0 69.5 22t26.5 57t-29.5 52t-63.5 17q-17 0 -37 -4.5t-23 -4.5q-12 0 -12 9q0 11 36.5 23t65.5 12z" />
    <glyph glyph-name="acute" unicode="&#xb4;" horiz-adv-x="300" 
d="M222 499h61q7 0 7 -6q0 -4 -6 -8l-137 -100q-10 -8 -15 -8q-7 0 -7 7q0 4 6 12l82 97q4 6 9 6z" />
    <glyph glyph-name="mu" unicode="&#xb5;" horiz-adv-x="463" 
d="M320 67v86q0 95 -3 136q-3 0 -27 -1t-31 -1q-9 0 -9 7q0 3 0.5 4.5t3 3t5 2.5t8.5 2.5l12.5 3t17.5 4.5l23 6q44 13 53 13q10 0 10 -13q0 -3 -1 -23t-1 -27q-1 -8 -1 -117q0 -92 4 -130q40 -6 57 -12q10 -1 10 -10q0 -7 -11 -7q-1 0 -4 0.5t-8.5 1.5t-10.5 1q-18 3 -50 3
h-47v50q-71 -62 -124 -62q-17 0 -54 8q0 -108 2 -159q67 -7 90 -12q10 -1 10 -10q0 -7 -11 -7q-3 0 -20 1.5t-45.5 3t-57.5 1.5q-21 0 -41.5 -1.5t-33 -3t-14.5 -1.5q-11 0 -11 7q0 9 10 10q17 6 57 12q4 51 4 256q0 158 -4 196q-4 0 -26 -1t-28 -1q-9 0 -9 7q0 3 0.5 4.5
t3 3t5 2.5t8.5 2.5l12.5 3t17.5 4.5l23 6q42 13 51 13q10 0 10 -13q0 -3 -1 -23t-1 -27q0 -6 -0.5 -77.5t-0.5 -99.5q0 -33 15 -48.5t55 -15.5q12 0 23.5 2t19.5 4t19 7t15.5 7.5l16 9t14.5 8.5z" />
    <glyph glyph-name="paragraph" unicode="&#xb6;" 
d="M438 681v-867h-37v867h-61v-867h-37v437q-36 4 -71 17.5t-70.5 38.5t-57.5 69.5t-22 101.5q0 62 26.5 110t71 75.5t95.5 41t106 13.5h115v-37h-58z" />
    <glyph glyph-name="periodcentered" unicode="&#xb7;" 
d="M327 316q0 -20 -14.5 -34.5t-34.5 -14.5t-34.5 14.5t-14.5 34.5t14.5 34.5t34.5 14.5t34.5 -14.5t14.5 -34.5z" />
    <glyph glyph-name="cedilla" unicode="&#xb8;" horiz-adv-x="300" 
d="M171 6l-38 -57q14 2 21 2q22 0 38 -12t16 -37q0 -29 -21 -49t-54 -20q-22 0 -42 11t-20 20q0 7 7 7q3 0 15.5 -6.5t26.5 -6.5q17 0 28.5 11.5t11.5 26.5q0 14 -10.5 21.5t-24.5 7.5q-5 0 -12.5 -1t-8.5 -1q-6 0 -6 6q0 3 9 16l41 61h23z" />
    <glyph glyph-name="onesuperior" unicode="&#xb9;" horiz-adv-x="370" 
d="M169 434v150q-30 -5 -66 -5q-21 0 -21 10q0 7 9 10q4 1 10 1.5t20.5 2t33.5 4.5q17 3 37 13.5t25 10.5q9 0 9 -9q0 -2 -1 -16t-1 -23q0 -25 -1.5 -75.5t-1.5 -73.5q0 -109 2 -158q64 -9 71 -11q9 -2 9 -10q0 -9 -12 -9q-1 0 -14 1t-35.5 2t-46.5 1t-46.5 -1t-35.5 -2
t-14 -1q-12 0 -12 9q0 6 9 10q19 6 71 11q2 49 2 158z" />
    <glyph glyph-name="ordmasculine" unicode="&#xba;" horiz-adv-x="444" 
d="M403 491q0 -85 -58 -134.5t-145 -49.5q-70 0 -114 38.5t-44 106.5q0 79 65 129t145 50q67 0 109 -35.5t42 -104.5zM222 327q58 0 87.5 38.5t29.5 98.5q0 64 -26 105.5t-83 41.5q-56 0 -90 -36t-34 -103q0 -145 116 -145z" />
    <glyph glyph-name="guillemotright" unicode="&#xbb;" horiz-adv-x="315" 
d="M283 129q-80 -90 -110 -120q-12 -12 -16 -12q-6 0 -6 6q0 3 5 10q7 12 43.5 69.5t46.5 75.5q-10 18 -46.5 75.5t-43.5 69.5q-5 7 -5 10q0 6 6 6q4 0 16 -12q30 -30 110 -120q17 -19 17 -29t-17 -29zM157 129q-80 -90 -110 -120q-12 -12 -16 -12q-6 0 -6 6q0 3 5 10
q7 12 43.5 69.5t46.5 75.5q-10 18 -46.5 75.5t-43.5 69.5q-5 7 -5 10q0 6 6 6q4 0 16 -12q30 -30 110 -120q17 -19 17 -29t-17 -29z" />
    <glyph glyph-name="onequarter" unicode="&#xbc;" horiz-adv-x="815" 
d="M682 125h50q0 4 1 12.5t1.5 14t2 13.5l2.5 13t3 10t5 7.5t6 2.5q9 0 9 -8q0 -6 -2 -33t-2 -35q0 -16 2 -39.5t2 -26.5q0 -11 -8 -11q-13 0 -22 41q-5 0 -24.5 1t-25.5 1q0 -40 2 -62q46 -9 51 -11q9 -2 9 -10q0 -9 -12 -9q-1 0 -11 1t-28 2t-37 1q-24 0 -45.5 -1t-33 -2
t-12.5 -1q-12 0 -12 9q0 8 9 10q3 1 66 11q2 21 2 62q-22 0 -83 -1.5t-65 -1.5q-16 0 -16 9q0 5 19 32l169 240q1 1 2.5 3.5t3 4l3.5 3.5t5 3t7 1q10 0 10 -11q0 -8 -1.5 -68t-1.5 -84v-93zM631 125v168h-2l-115 -168h117zM231 0l354 631h33l-354 -631h-33zM154 434v150
q-30 -5 -66 -5q-21 0 -21 10q0 7 9 10q1 0 25.5 2t38.5 6q15 2 37 13t25 11q9 0 9 -9q0 -2 -1 -16t-1 -23q0 -25 -1.5 -75.5t-1.5 -73.5q0 -109 2 -158q64 -9 71 -11q9 -2 9 -10q0 -9 -12 -9q-1 0 -14 1t-35.5 2t-46.5 1t-46.5 -1t-35.5 -2t-14 -1q-12 0 -12 9q0 6 9 10
q19 6 71 11q2 49 2 158z" />
    <glyph glyph-name="onehalf" unicode="&#xbd;" horiz-adv-x="815" 
d="M594 631l-354 -631h-33l354 631h33zM763 -30q0 -11 -8 -11q-14 0 -21 35q-40 6 -119 6q-21 0 -67 -2q-33 -3 -51 -3q-14 0 -14 11q0 3 2.5 6t8 8t11.5 9t17 12.5l21 16.5q35 28 55.5 46t48.5 47.5t42 58.5t14 57q0 31 -22 49.5t-52 18.5q-41 0 -68.5 -24.5t-40.5 -48.5
t-19 -24q-10 0 -10 10q0 29 46 78t114 49q43 0 76 -25t33 -73q0 -33 -26.5 -74.5t-68 -78.5t-70 -60t-52.5 -39l2 -2q107 3 189 24q1 5 2.5 16l2.5 18.5t3 16t5 13t7 4.5q9 0 9 -10l-2 -29q-2 -28 -2 -51q0 -15 2 -33.5t2 -21.5zM130 434v150q-30 -5 -66 -5q-21 0 -21 10
q0 7 9 10q1 0 25.5 2t38.5 6q15 2 37 13t25 11q9 0 9 -9q0 -2 -1 -16t-1 -23q0 -25 -1.5 -75.5t-1.5 -73.5q0 -109 2 -158q64 -9 71 -11q9 -2 9 -10q0 -9 -12 -9q-1 0 -14 1t-35.5 2t-46.5 1t-46.5 -1t-35.5 -2t-14 -1q-12 0 -12 9q0 6 9 10q19 6 71 11q2 49 2 158z" />
    <glyph glyph-name="threequarters" unicode="&#xbe;" horiz-adv-x="815" 
d="M691 125h50q0 4 1 12.5t1.5 14t2 13.5l2.5 13t3 10t5 7.5t6 2.5q9 0 9 -8q0 -3 -2 -31.5t-2 -36.5q0 -16 2 -40t2 -26q0 -11 -9 -11q-3 0 -6 3t-5.5 8t-4 9.5t-3 11.5t-2.5 9q-5 0 -25 1t-25 1q0 -40 2 -62q46 -9 51 -11q9 -2 9 -10q0 -9 -12 -9q-1 0 -11 1t-28 2t-37 1
q-24 0 -45.5 -1t-33 -2t-12.5 -1q-12 0 -12 9q0 8 9 10q3 1 66 11q2 21 2 62q-23 0 -83 -1.5t-65 -1.5q-16 0 -16 9q0 4 19 32l169 240q1 1 2.5 3.5t2.5 3.5t2.5 3t3.5 3t4.5 1.5t5.5 0.5q10 0 10 -11q0 -8 -1.5 -68t-1.5 -84v-93zM640 125v168h-2l-115 -168h117zM247 0
l354 631h33l-354 -631h-33zM211 452h13q37 37 37 72q0 28 -22 46.5t-54 18.5q-29 0 -52.5 -14t-37 -28t-18.5 -14q-11 0 -11 9q0 8 17.5 27t53 37.5t73.5 18.5t67 -21t29 -60q0 -52 -55 -97q76 -24 76 -89q0 -52 -41 -83t-98 -31q-34 0 -69 14t-54 29.5t-19 22.5q0 9 11 9
q4 0 8.5 -2.5t8 -5t11 -8.5t12.5 -9q38 -25 81 -25t69.5 22t26.5 57t-29.5 52t-63.5 17q-17 0 -37 -4.5t-23 -4.5q-12 0 -12 9q0 11 36.5 23t65.5 12z" />
    <glyph glyph-name="questiondown" unicode="&#xbf;" horiz-adv-x="407" 
d="M358 -83q0 -51 -51.5 -80t-107.5 -29t-103.5 39t-47.5 100q0 41 26.5 82t58.5 69t58.5 61t26.5 59q0 20 -15 40t-15 23q0 9 10 9q7 0 21.5 -12.5t28.5 -37.5t14 -50q0 -19 -4 -34.5t-17 -33.5t-19.5 -25.5t-31 -31.5l-31.5 -31q-39 -40 -50 -53t-20.5 -30t-9.5 -34
q0 -32 25.5 -54t62.5 -22q48 0 98.5 35.5t50.5 80.5q0 14 -7 31t-7 20q0 9 8 9q15 0 31.5 -37t16.5 -63zM264 419q0 -21 -14.5 -35t-34.5 -14t-34.5 14t-14.5 35t14.5 35t34.5 14t34.5 -14t14.5 -35z" />
    <glyph glyph-name="Agrave" unicode="&#xc0;" horiz-adv-x="685" 
d="M446 198h-245q-28 -78 -54 -174q76 -4 113 -12q7 -2 7 -8q0 -10 -10 -10q-1 0 -18.5 1.5t-48 3t-62.5 1.5q-28 0 -55.5 -1.5t-43.5 -3t-17 -1.5q-10 0 -10 10q0 6 7 8q26 8 82 12q52 89 151 342q60 151 65 161l-59 124q27 9 74 33q28 -92 130 -328l147 -332q52 -4 74 -12
q7 -2 7 -8q0 -10 -10 -10q-1 0 -17.5 1.5t-44.5 3t-58 1.5q-34 0 -65 -1.5t-49 -3t-19 -1.5q-10 0 -10 10q0 6 7 8q28 8 99 12q-32 92 -67 174zM208 221h229l-117 278q-101 -246 -112 -278zM240 819h61q5 0 9 -6l82 -97q6 -8 6 -12q0 -7 -7 -7q-5 0 -15 8l-137 100
q-6 4 -6 8q0 6 7 6z" />
    <glyph glyph-name="Aacute" unicode="&#xc1;" horiz-adv-x="685" 
d="M446 198h-245q-28 -78 -54 -174q76 -4 113 -12q7 -2 7 -8q0 -10 -10 -10q-1 0 -18.5 1.5t-48 3t-62.5 1.5q-28 0 -55.5 -1.5t-43.5 -3t-17 -1.5q-10 0 -10 10q0 6 7 8q26 8 82 12q52 89 151 342q60 151 65 161l-59 124q27 9 74 33q28 -92 130 -328l147 -332q52 -4 74 -12
q7 -2 7 -8q0 -10 -10 -10q-1 0 -17.5 1.5t-44.5 3t-58 1.5q-34 0 -65 -1.5t-49 -3t-19 -1.5q-10 0 -10 10q0 6 7 8q28 8 99 12q-32 92 -67 174zM208 221h229l-117 278q-101 -246 -112 -278zM395 819h61q7 0 7 -6q0 -4 -6 -8l-137 -100q-10 -8 -15 -8q-7 0 -7 7q0 4 6 12
l82 97q4 6 9 6z" />
    <glyph glyph-name="Acircumflex" unicode="&#xc2;" horiz-adv-x="685" 
d="M446 198h-245q-28 -78 -54 -174q76 -4 113 -12q7 -2 7 -8q0 -10 -10 -10q-1 0 -18.5 1.5t-48 3t-62.5 1.5q-28 0 -55.5 -1.5t-43.5 -3t-17 -1.5q-10 0 -10 10q0 6 7 8q26 8 82 12q52 89 151 342q60 151 65 161l-59 124q27 9 74 33q28 -92 130 -328l147 -332q52 -4 74 -12
q7 -2 7 -8q0 -10 -10 -10q-1 0 -17.5 1.5t-44.5 3t-58 1.5q-34 0 -65 -1.5t-49 -3t-19 -1.5q-10 0 -10 10q0 6 7 8q28 8 99 12q-32 92 -67 174zM208 221h229l-117 278q-101 -246 -112 -278zM340 819l77 -93q17 -21 17 -24q0 -5 -6 -5q-4 0 -22 12t-46 32.5l-39 28.5
q-81 -65 -89 -70q-4 -3 -8 -3q-7 0 -7 5t14 23l71 94h38z" />
    <glyph glyph-name="Atilde" unicode="&#xc3;" horiz-adv-x="685" 
d="M446 198h-245q-28 -78 -54 -174q76 -4 113 -12q7 -2 7 -8q0 -10 -10 -10q-1 0 -18.5 1.5t-48 3t-62.5 1.5q-28 0 -55.5 -1.5t-43.5 -3t-17 -1.5q-10 0 -10 10q0 6 7 8q26 8 82 12q52 89 151 342q60 151 65 161l-59 124q27 9 74 33q28 -92 130 -328l147 -332q52 -4 74 -12
q7 -2 7 -8q0 -10 -10 -10q-1 0 -17.5 1.5t-44.5 3t-58 1.5q-34 0 -65 -1.5t-49 -3t-19 -1.5q-10 0 -10 10q0 6 7 8q28 8 99 12q-32 92 -67 174zM208 221h229l-117 278q-101 -246 -112 -278zM452 791q0 -21 -14.5 -48t-43.5 -27q-7 0 -15.5 2t-15.5 4.5l-19 7t-19 7.5
q-51 20 -66 20q-19 0 -27.5 -20.5t-11.5 -20.5q-8 0 -8 11q0 22 14 48t43 26q10 0 65 -21q48 -20 69 -20q17 0 27.5 19.5t14.5 19.5q7 0 7 -8z" />
    <glyph glyph-name="Adieresis" unicode="&#xc4;" horiz-adv-x="685" 
d="M446 198h-245q-28 -78 -54 -174q76 -4 113 -12q7 -2 7 -8q0 -10 -10 -10q-1 0 -18.5 1.5t-48 3t-62.5 1.5q-28 0 -55.5 -1.5t-43.5 -3t-17 -1.5q-10 0 -10 10q0 6 7 8q26 8 82 12q52 89 151 342q60 151 65 161l-59 124q27 9 74 33q28 -92 130 -328l147 -332q52 -4 74 -12
q7 -2 7 -8q0 -10 -10 -10q-1 0 -17.5 1.5t-44.5 3t-58 1.5q-34 0 -65 -1.5t-49 -3t-19 -1.5q-10 0 -10 10q0 6 7 8q28 8 99 12q-32 92 -67 174zM208 221h229l-117 278q-101 -246 -112 -278zM292 758q0 -16 -11 -27t-27 -11t-27 11t-11 27t11 27t27 11t27 -11t11 -27z
M432 758q0 -16 -11 -27t-27 -11t-27 11t-11 27t11 27t27 11t27 -11t11 -27z" />
    <glyph glyph-name="Aring" unicode="&#xc5;" horiz-adv-x="685" 
d="M446 198h-245q-28 -78 -54 -174q76 -4 113 -12q7 -2 7 -8q0 -10 -10 -10q-1 0 -18.5 1.5t-48 3t-62.5 1.5q-28 0 -55.5 -1.5t-43.5 -3t-17 -1.5q-10 0 -10 10q0 6 7 8q26 8 82 12q52 89 151 342q60 151 65 161l-59 124q27 9 74 33q28 -92 130 -328l147 -332q52 -4 74 -12
q7 -2 7 -8q0 -10 -10 -10q-1 0 -17.5 1.5t-44.5 3t-58 1.5q-34 0 -65 -1.5t-49 -3t-19 -1.5q-10 0 -10 10q0 6 7 8q28 8 99 12q-32 92 -67 174zM208 221h229l-117 278q-101 -246 -112 -278zM408 774q0 -32 -22.5 -54.5t-54.5 -22.5t-54.5 22.5t-22.5 54.5t22.5 54.5
t54.5 22.5t54.5 -22.5t22.5 -54.5zM331 722q24 0 38 15.5t14 36.5t-14 36.5t-38 15.5q-23 0 -37.5 -15.5t-14.5 -36.5t14.5 -36.5t37.5 -15.5z" />
    <glyph glyph-name="AE" unicode="&#xc6;" horiz-adv-x="1019" 
d="M314 332h194q0 46 -3.5 149t-3.5 126h-2zM594 309h-19q0 -218 7 -285q13 -1 39 -1q147 0 270 37q6 82 21 82q10 0 10 -10q0 -8 -3 -46t-3 -55q0 -10 3 -36t3 -34q0 -9 -10 -9q-3 0 -5 1.5t-4 5t-3 6t-3 9t-3 9.5q-105 17 -353 17q-53 0 -84 -3q-9 0 -17.5 -1t-13.5 -1.5
t-6 -0.5q-10 0 -10 10q0 6 7 8q25 8 84 12q7 68 7 285h-208q-121 -194 -157 -285q82 -4 123 -12q7 -2 7 -8q0 -10 -10 -10q-1 0 -9 0.5t-22 1.5t-32.5 2t-44.5 1.5t-53 0.5q-25 0 -48.5 -1.5t-37 -3t-14.5 -1.5q-10 0 -10 10q0 6 7 8q24 9 66 12q76 101 95 129l130 184
l178 267q-3 0 -81 15q-7 2 -7 8q0 10 10 10q5 0 46 -3q78 -3 105 -3q195 0 346 17q1 2 2 6.5t1.5 7t1.5 6.5l1.5 6t2 5t2.5 4.5t2.5 3.5t3.5 2.5t4 0.5q8 0 8 -7q0 -3 -3 -36t-3 -48q0 -13 3 -52t3 -42q0 -14 -11 -14q-3 0 -5.5 3t-4.5 9.5t-3.5 13t-2.5 17t-2 17t-2 17
t-1 14.5q-100 26 -236 26q-8 0 -32 -0.5t-34 -0.5q-7 -67 -7 -275h19q166 0 263 24q6 72 24 72q8 0 8 -10q0 -2 -3 -41.5t-3 -55.5q0 -19 3 -58t3 -44q0 -11 -8 -11q-15 0 -24 85q-90 16 -263 16z" />
    <glyph glyph-name="Ccedilla" unicode="&#xc7;" horiz-adv-x="648" 
d="M367 -17l-23 -34q14 2 21 2q22 0 38 -12t16 -37q0 -29 -21 -49t-54 -20q-22 0 -42 11t-20 20q0 7 7 7q3 0 15.5 -6.5t26.5 -6.5q17 0 28.5 11.5t11.5 26.5q0 14 -10.5 21.5t-24.5 7.5q-5 0 -12.5 -1t-8.5 -1q-6 0 -6 6q0 3 9 16l27 39q-125 6 -205 94t-80 223
q0 147 92 247t229 100q77 0 182 -32q11 58 14 64q3 9 10 9q8 0 8 -10q0 -2 -2.5 -27.5t-4.5 -58t-2 -50.5q0 -27 2.5 -82.5t2.5 -56.5q0 -14 -8 -14q-7 0 -10 13q-6 22 -10.5 68t-4.5 66q-101 81 -205 81q-100 0 -166 -65.5t-66 -181.5q0 -142 84 -247t208 -105
q40 0 73.5 12t51 27l30.5 27t17 12q8 0 8 -7q0 -4 -4 -10q-19 -30 -81.5 -63.5t-140.5 -33.5z" />
    <glyph glyph-name="Egrave" unicode="&#xc8;" horiz-adv-x="611" 
d="M220 309h-19q0 -218 7 -285q13 -1 39 -1q147 0 270 37q6 82 21 82q10 0 10 -10q0 -8 -3 -46t-3 -55q0 -10 3 -36t3 -34q0 -9 -10 -9q-3 0 -5 1.5t-4 5t-3 6t-3 9t-3 9.5q-105 17 -352 17q-50 0 -81 -3q-9 0 -17.5 -1t-13.5 -1.5t-6 -0.5q-10 0 -10 10q0 6 7 8q25 8 84 12
q4 67 4 293q0 223 -4 290q-59 4 -84 12q-7 2 -7 8q0 10 10 10q5 0 37 -3q63 -3 81 -3q195 0 346 17q1 3 2 9t2 8.5t2.5 7.5t2.5 7l2.5 5t3.5 4t5 1q8 0 8 -7q0 -3 -3 -36t-3 -48q0 -13 3 -52t3 -42q0 -14 -11 -14q-3 0 -5.5 3t-4.5 9.5t-3.5 13t-2.5 17t-2 17t-2 17t-1 14.5
q-100 26 -236 26q-8 0 -32 -0.5t-34 -0.5q-7 -67 -7 -275h19q166 0 263 24q6 72 24 72q8 0 8 -10q0 -2 -3 -41.5t-3 -55.5q0 -20 3 -60.5t3 -41.5q0 -11 -8 -11q-15 0 -24 85q-90 16 -263 16zM218 819h61q5 0 9 -6l82 -97q6 -8 6 -12q0 -7 -7 -7q-5 0 -15 8l-137 100
q-6 4 -6 8q0 6 7 6z" />
    <glyph glyph-name="Eacute" unicode="&#xc9;" horiz-adv-x="611" 
d="M220 309h-19q0 -218 7 -285q13 -1 39 -1q147 0 270 37q6 82 21 82q10 0 10 -10q0 -8 -3 -46t-3 -55q0 -10 3 -36t3 -34q0 -9 -10 -9q-3 0 -5 1.5t-4 5t-3 6t-3 9t-3 9.5q-105 17 -352 17q-50 0 -81 -3q-9 0 -17.5 -1t-13.5 -1.5t-6 -0.5q-10 0 -10 10q0 6 7 8q25 8 84 12
q4 67 4 293q0 223 -4 290q-59 4 -84 12q-7 2 -7 8q0 10 10 10q5 0 37 -3q63 -3 81 -3q195 0 346 17q1 3 2 9t2 8.5t2.5 7.5t2.5 7l2.5 5t3.5 4t5 1q8 0 8 -7q0 -3 -3 -36t-3 -48q0 -13 3 -52t3 -42q0 -14 -11 -14q-3 0 -5.5 3t-4.5 9.5t-3.5 13t-2.5 17t-2 17t-2 17t-1 14.5
q-100 26 -236 26q-8 0 -32 -0.5t-34 -0.5q-7 -67 -7 -275h19q166 0 263 24q6 72 24 72q8 0 8 -10q0 -2 -3 -41.5t-3 -55.5q0 -20 3 -60.5t3 -41.5q0 -11 -8 -11q-15 0 -24 85q-90 16 -263 16zM378 819h61q7 0 7 -6q0 -4 -6 -8l-137 -100q-10 -8 -15 -8q-7 0 -7 7q0 4 6 12
l82 97q4 6 9 6z" />
    <glyph glyph-name="Ecircumflex" unicode="&#xca;" horiz-adv-x="611" 
d="M220 309h-19q0 -218 7 -285q13 -1 39 -1q147 0 270 37q6 82 21 82q10 0 10 -10q0 -8 -3 -46t-3 -55q0 -10 3 -36t3 -34q0 -9 -10 -9q-3 0 -5 1.5t-4 5t-3 6t-3 9t-3 9.5q-105 17 -352 17q-50 0 -81 -3q-9 0 -17.5 -1t-13.5 -1.5t-6 -0.5q-10 0 -10 10q0 6 7 8q25 8 84 12
q4 67 4 293q0 223 -4 290q-59 4 -84 12q-7 2 -7 8q0 10 10 10q5 0 37 -3q63 -3 81 -3q195 0 346 17q1 3 2 9t2 8.5t2.5 7.5t2.5 7l2.5 5t3.5 4t5 1q8 0 8 -7q0 -3 -3 -36t-3 -48q0 -13 3 -52t3 -42q0 -14 -11 -14q-3 0 -5.5 3t-4.5 9.5t-3.5 13t-2.5 17t-2 17t-2 17t-1 14.5
q-100 26 -236 26q-8 0 -32 -0.5t-34 -0.5q-7 -67 -7 -275h19q166 0 263 24q6 72 24 72q8 0 8 -10q0 -2 -3 -41.5t-3 -55.5q0 -20 3 -60.5t3 -41.5q0 -11 -8 -11q-15 0 -24 85q-90 16 -263 16zM328 819l77 -93q17 -21 17 -24q0 -5 -6 -5q-4 0 -22 12t-46 32.5l-39 28.5
q-81 -65 -89 -70q-4 -3 -8 -3q-7 0 -7 5t14 23l71 94h38z" />
    <glyph glyph-name="Edieresis" unicode="&#xcb;" horiz-adv-x="611" 
d="M220 309h-19q0 -218 7 -285q13 -1 39 -1q147 0 270 37q6 82 21 82q10 0 10 -10q0 -8 -3 -46t-3 -55q0 -10 3 -36t3 -34q0 -9 -10 -9q-3 0 -5 1.5t-4 5t-3 6t-3 9t-3 9.5q-105 17 -352 17q-50 0 -81 -3q-9 0 -17.5 -1t-13.5 -1.5t-6 -0.5q-10 0 -10 10q0 6 7 8q25 8 84 12
q4 67 4 293q0 223 -4 290q-59 4 -84 12q-7 2 -7 8q0 10 10 10q5 0 37 -3q63 -3 81 -3q195 0 346 17q1 3 2 9t2 8.5t2.5 7.5t2.5 7l2.5 5t3.5 4t5 1q8 0 8 -7q0 -3 -3 -36t-3 -48q0 -13 3 -52t3 -42q0 -14 -11 -14q-3 0 -5.5 3t-4.5 9.5t-3.5 13t-2.5 17t-2 17t-2 17t-1 14.5
q-100 26 -236 26q-8 0 -32 -0.5t-34 -0.5q-7 -67 -7 -275h19q166 0 263 24q6 72 24 72q8 0 8 -10q0 -2 -3 -41.5t-3 -55.5q0 -20 3 -60.5t3 -41.5q0 -11 -8 -11q-15 0 -24 85q-90 16 -263 16zM275 758q0 -16 -11 -27t-27 -11t-27 11t-11 27t11 27t27 11t27 -11t11 -27z
M415 758q0 -16 -11 -27t-27 -11t-27 11t-11 27t11 27t27 11t27 -11t11 -27z" />
    <glyph glyph-name="Igrave" unicode="&#xcc;" horiz-adv-x="333" 
d="M203 24q59 -4 84 -12q7 -2 7 -8q0 -10 -10 -10q-1 0 -17.5 1.5t-44 3t-56.5 1.5t-56.5 -1.5t-44 -3t-17.5 -1.5q-10 0 -10 10q0 6 7 8q25 8 84 12q4 67 4 292q0 224 -4 291q-59 4 -84 12q-7 2 -7 8q0 10 10 10q1 0 17.5 -1.5t44 -3t56.5 -1.5t56.5 1.5t44 3t17.5 1.5
q10 0 10 -10q0 -6 -7 -8q-25 -8 -84 -12q-4 -70 -4 -291q0 -222 4 -292zM54 819h61q5 0 9 -6l82 -97q6 -8 6 -12q0 -7 -7 -7q-5 0 -15 8l-137 100q-6 4 -6 8q0 6 7 6z" />
    <glyph glyph-name="Iacute" unicode="&#xcd;" horiz-adv-x="333" 
d="M203 24q59 -4 84 -12q7 -2 7 -8q0 -10 -10 -10q-1 0 -17.5 1.5t-44 3t-56.5 1.5t-56.5 -1.5t-44 -3t-17.5 -1.5q-10 0 -10 10q0 6 7 8q25 8 84 12q4 67 4 292q0 224 -4 291q-59 4 -84 12q-7 2 -7 8q0 10 10 10q1 0 17.5 -1.5t44 -3t56.5 -1.5t56.5 1.5t44 3t17.5 1.5
q10 0 10 -10q0 -6 -7 -8q-25 -8 -84 -12q-4 -70 -4 -291q0 -222 4 -292zM239 819h61q7 0 7 -6q0 -4 -6 -8l-137 -100q-10 -8 -15 -8q-7 0 -7 7q0 4 6 12l82 97q4 6 9 6z" />
    <glyph glyph-name="Icircumflex" unicode="&#xce;" horiz-adv-x="333" 
d="M203 24q59 -4 84 -12q7 -2 7 -8q0 -10 -10 -10q-1 0 -17.5 1.5t-44 3t-56.5 1.5t-56.5 -1.5t-44 -3t-17.5 -1.5q-10 0 -10 10q0 6 7 8q25 8 84 12q4 67 4 292q0 224 -4 291q-59 4 -84 12q-7 2 -7 8q0 10 10 10q1 0 17.5 -1.5t44 -3t56.5 -1.5t56.5 1.5t44 3t17.5 1.5
q10 0 10 -10q0 -6 -7 -8q-25 -8 -84 -12q-4 -70 -4 -291q0 -222 4 -292zM189 819l77 -93q17 -21 17 -24q0 -5 -6 -5q-4 0 -22 12t-46 32.5l-39 28.5q-81 -65 -89 -70q-5 -3 -8 -3q-7 0 -7 5t14 23l71 94h38z" />
    <glyph glyph-name="Idieresis" unicode="&#xcf;" horiz-adv-x="333" 
d="M203 24q59 -4 84 -12q7 -2 7 -8q0 -10 -10 -10q-1 0 -17.5 1.5t-44 3t-56.5 1.5t-56.5 -1.5t-44 -3t-17.5 -1.5q-10 0 -10 10q0 6 7 8q25 8 84 12q4 67 4 292q0 224 -4 291q-59 4 -84 12q-7 2 -7 8q0 10 10 10q1 0 17.5 -1.5t44 -3t56.5 -1.5t56.5 1.5t44 3t17.5 1.5
q10 0 10 -10q0 -6 -7 -8q-25 -8 -84 -12q-4 -70 -4 -291q0 -222 4 -292zM136 758q0 -16 -11 -27t-27 -11t-27 11t-11 27t11 27t27 11t27 -11t11 -27zM276 758q0 -16 -11 -27t-27 -11t-27 11t-11 27t11 27t27 11t27 -11t11 -27z" />
    <glyph glyph-name="Eth" unicode="&#xd0;" horiz-adv-x="685" 
d="M32 311v28q35 -3 93 -3q0 209 -4 271q-59 4 -84 12q-7 2 -7 8q0 10 10 10q6 0 37 -3q63 -3 81 -3q36 0 84 5q58 4 69 4q153 0 239.5 -87t86.5 -231q0 -150 -93 -240.5t-233 -90.5q-19 0 -66 5q-54 4 -87 4q-49 0 -81 -3q-9 0 -17.5 -1t-13.5 -1.5t-6 -0.5q-10 0 -10 10
q0 6 7 8q25 8 84 12q4 67 4 289q-11 -1 -46.5 -1.5t-46.5 -0.5zM364 339v-28q-98 2 -173 2q0 -219 4 -289q5 0 23 -3t39.5 -5t39.5 -2q124 0 195 82.5t71 225.5q0 75 -23 133.5t-62 93t-85 51.5t-96 17q-23 0 -60.5 -5t-41.5 -5q-4 -64 -4 -271q26 0 173 3z" />
    <glyph glyph-name="Ntilde" unicode="&#xd1;" horiz-adv-x="704" 
d="M582 244q0 -53 1.5 -144t1.5 -100q0 -17 -9 -17q-6 0 -17 17l-97.5 129.5l-100 129.5l-115 145.5l-94.5 119.5l-2 -2q1 -27 1 -110q0 -294 20 -388q68 -4 100 -12q7 -2 7 -8q0 -10 -10 -10q-2 0 -19 1.5t-46.5 3t-60.5 1.5q-26 0 -50 -1.5t-37.5 -3t-14.5 -1.5
q-10 0 -10 10q0 6 7 8q22 8 74 12q18 99 18 388q0 27 -1.5 72.5t-1.5 60.5q0 11 -22.5 34.5t-56.5 36.5q-9 3 -9 8q0 12 13 12q7 0 27.5 -2.5t26.5 -2.5q9 0 51 5l12.5 -17.5l14.5 -20.5l193.5 -250t177.5 -222q6 39 6 118q0 270 -17 363q-59 4 -84 12q-7 2 -7 8q0 10 10 10
l16 -1q15 -2 41 -3.5t54 -1.5q24 0 47.5 1.5t38 3t15.5 1.5q10 0 10 -10q0 -6 -7 -8q-25 -8 -75 -12q-20 -86 -20 -363zM475 791q0 -21 -14.5 -48t-43.5 -27q-7 0 -15.5 2t-15.5 4.5l-19 7t-19 7.5q-51 20 -66 20q-19 0 -27.5 -20.5t-11.5 -20.5q-8 0 -8 11q0 22 14 48
t43 26q10 0 65 -21q48 -20 69 -20q17 0 27.5 19.5t14.5 19.5q7 0 7 -8z" />
    <glyph glyph-name="Ograve" unicode="&#xd2;" horiz-adv-x="778" 
d="M725 327q0 -146 -95 -245t-249 -99q-145 0 -237 93.5t-92 227.5q0 146 95 245t249 99q145 0 237 -93.5t92 -227.5zM442 21q93 0 166 71t73 173q0 92 -52.5 173t-132 126.5t-161.5 45.5q-92 0 -165.5 -71t-73.5 -173q0 -92 52.5 -173t132 -126.5t161.5 -45.5zM296 819h61
q5 0 9 -6l82 -97q6 -8 6 -12q0 -7 -7 -7q-5 0 -15 8l-137 100q-6 4 -6 8q0 6 7 6z" />
    <glyph glyph-name="Oacute" unicode="&#xd3;" horiz-adv-x="778" 
d="M725 327q0 -146 -95 -245t-249 -99q-145 0 -237 93.5t-92 227.5q0 146 95 245t249 99q145 0 237 -93.5t92 -227.5zM442 21q93 0 166 71t73 173q0 92 -52.5 173t-132 126.5t-161.5 45.5q-92 0 -165.5 -71t-73.5 -173q0 -92 52.5 -173t132 -126.5t161.5 -45.5zM466 819h61
q7 0 7 -6q0 -4 -6 -8l-137 -100q-10 -8 -15 -8q-7 0 -7 7q0 4 6 12l82 97q4 6 9 6z" />
    <glyph glyph-name="Ocircumflex" unicode="&#xd4;" horiz-adv-x="778" 
d="M725 327q0 -146 -95 -245t-249 -99q-145 0 -237 93.5t-92 227.5q0 146 95 245t249 99q145 0 237 -93.5t92 -227.5zM442 21q93 0 166 71t73 173q0 92 -52.5 173t-132 126.5t-161.5 45.5q-92 0 -165.5 -71t-73.5 -173q0 -92 52.5 -173t132 -126.5t161.5 -45.5zM411 819
l77 -93q17 -21 17 -24q0 -5 -6 -5q-4 0 -22 12t-46 32.5l-39 28.5q-81 -65 -89 -70q-5 -3 -8 -3q-7 0 -7 5t14 23l71 94h38z" />
    <glyph glyph-name="Otilde" unicode="&#xd5;" horiz-adv-x="778" 
d="M725 327q0 -146 -95 -245t-249 -99q-145 0 -237 93.5t-92 227.5q0 146 95 245t249 99q145 0 237 -93.5t92 -227.5zM442 21q93 0 166 71t73 173q0 92 -52.5 173t-132 126.5t-161.5 45.5q-92 0 -165.5 -71t-73.5 -173q0 -92 52.5 -173t132 -126.5t161.5 -45.5zM508 791
q0 -21 -14.5 -48t-43.5 -27q-7 0 -15.5 2t-15.5 4.5l-19 7t-19 7.5q-51 20 -66 20q-19 0 -27.5 -20.5t-11.5 -20.5q-8 0 -8 11q0 22 14 48t43 26q10 0 65 -21q48 -20 69 -20q17 0 27.5 19.5t14.5 19.5q7 0 7 -8z" />
    <glyph glyph-name="Odieresis" unicode="&#xd6;" horiz-adv-x="778" 
d="M725 327q0 -146 -95 -245t-249 -99q-145 0 -237 93.5t-92 227.5q0 146 95 245t249 99q145 0 237 -93.5t92 -227.5zM442 21q93 0 166 71t73 173q0 92 -52.5 173t-132 126.5t-161.5 45.5q-92 0 -165.5 -71t-73.5 -173q0 -92 52.5 -173t132 -126.5t161.5 -45.5zM358 758
q0 -16 -11 -27t-27 -11t-27 11t-11 27t11 27t27 11t27 -11t11 -27zM498 758q0 -16 -11 -27t-27 -11t-27 11t-11 27t11 27t27 11t27 -11t11 -27z" />
    <glyph glyph-name="multiply" unicode="&#xd7;" 
d="M470 83l-30 -30l-160 159l-160 -159l-30 30l159 158l-159 159l31 31l159 -159l159 159l31 -31l-159 -159z" />
    <glyph glyph-name="Oslash" unicode="&#xd8;" horiz-adv-x="778" 
d="M728 635l-89 -88q86 -94 86 -220q0 -146 -95 -245t-249 -99q-140 0 -231 91l-99 -96l-15 15l98 96q-82 91 -82 215q0 146 95 245t249 99q136 0 227 -86l90 88zM586 496l-382 -370q51 -49 113.5 -77t124.5 -28q93 0 166 71t73 173q0 128 -95 231zM190 142l379 369
q-50 46 -112 72.5t-122 26.5q-92 0 -165.5 -71t-73.5 -173q0 -123 94 -224z" />
    <glyph glyph-name="Ugrave" unicode="&#xd9;" horiz-adv-x="704" 
d="M180 272q0 -159 25 -198q46 -68 145 -68q84 0 148 52q42 38 53.5 113.5t11.5 210.5q0 56 -15 225q-63 4 -93 12q-7 2 -7 8q0 10 10 10q1 0 18 -1.5t44.5 -3t53.5 -1.5q24 0 48 1.5t38 3t15 1.5q10 0 10 -10q0 -6 -7 -8q-27 -9 -78 -12q-15 -169 -15 -225
q0 -65 -1.5 -101.5t-7.5 -91.5t-21.5 -91.5t-41.5 -56.5q-73 -58 -163 -58q-108 0 -178 62q-40 36 -49 85.5t-9 184.5q0 225 -4 292q-59 4 -84 12q-7 2 -7 8q0 10 10 10q1 0 17.5 -1.5t45.5 -3t60 -1.5t62 1.5t49.5 3t20.5 1.5q10 0 10 -10q0 -6 -7 -8q-33 -8 -103 -12
q-4 -67 -4 -335zM264 819h61q5 0 9 -6l82 -97q6 -8 6 -12q0 -7 -7 -7q-5 0 -15 8l-137 100q-6 4 -6 8q0 6 7 6z" />
    <glyph glyph-name="Uacute" unicode="&#xda;" horiz-adv-x="704" 
d="M180 272q0 -159 25 -198q46 -68 145 -68q84 0 148 52q42 38 53.5 113.5t11.5 210.5q0 56 -15 225q-63 4 -93 12q-7 2 -7 8q0 10 10 10q1 0 18 -1.5t44.5 -3t53.5 -1.5q24 0 48 1.5t38 3t15 1.5q10 0 10 -10q0 -6 -7 -8q-27 -9 -78 -12q-15 -169 -15 -225
q0 -65 -1.5 -101.5t-7.5 -91.5t-21.5 -91.5t-41.5 -56.5q-73 -58 -163 -58q-108 0 -178 62q-40 36 -49 85.5t-9 184.5q0 225 -4 292q-59 4 -84 12q-7 2 -7 8q0 10 10 10q1 0 17.5 -1.5t45.5 -3t60 -1.5t62 1.5t49.5 3t20.5 1.5q10 0 10 -10q0 -6 -7 -8q-33 -8 -103 -12
q-4 -67 -4 -335zM434 819h61q7 0 7 -6q0 -4 -6 -8l-137 -100q-10 -8 -15 -8q-7 0 -7 7q0 4 6 12l82 97q4 6 9 6z" />
    <glyph glyph-name="Ucircumflex" unicode="&#xdb;" horiz-adv-x="704" 
d="M180 272q0 -159 25 -198q46 -68 145 -68q84 0 148 52q42 38 53.5 113.5t11.5 210.5q0 56 -15 225q-63 4 -93 12q-7 2 -7 8q0 10 10 10q1 0 18 -1.5t44.5 -3t53.5 -1.5q24 0 48 1.5t38 3t15 1.5q10 0 10 -10q0 -6 -7 -8q-27 -9 -78 -12q-15 -169 -15 -225
q0 -65 -1.5 -101.5t-7.5 -91.5t-21.5 -91.5t-41.5 -56.5q-73 -58 -163 -58q-108 0 -178 62q-40 36 -49 85.5t-9 184.5q0 225 -4 292q-59 4 -84 12q-7 2 -7 8q0 10 10 10q1 0 17.5 -1.5t45.5 -3t60 -1.5t62 1.5t49.5 3t20.5 1.5q10 0 10 -10q0 -6 -7 -8q-33 -8 -103 -12
q-4 -67 -4 -335zM387 819l77 -93q17 -21 17 -24q0 -5 -6 -5q-4 0 -22 12t-46 32.5l-39 28.5q-81 -65 -89 -70q-5 -3 -8 -3q-7 0 -7 5t14 23l71 94h38z" />
    <glyph glyph-name="Udieresis" unicode="&#xdc;" horiz-adv-x="704" 
d="M180 272q0 -159 25 -198q46 -68 145 -68q84 0 148 52q42 38 53.5 113.5t11.5 210.5q0 56 -15 225q-63 4 -93 12q-7 2 -7 8q0 10 10 10q1 0 18 -1.5t44.5 -3t53.5 -1.5q24 0 48 1.5t38 3t15 1.5q10 0 10 -10q0 -6 -7 -8q-27 -9 -78 -12q-15 -169 -15 -225
q0 -65 -1.5 -101.5t-7.5 -91.5t-21.5 -91.5t-41.5 -56.5q-73 -58 -163 -58q-108 0 -178 62q-40 36 -49 85.5t-9 184.5q0 225 -4 292q-59 4 -84 12q-7 2 -7 8q0 10 10 10q1 0 17.5 -1.5t45.5 -3t60 -1.5t62 1.5t49.5 3t20.5 1.5q10 0 10 -10q0 -6 -7 -8q-33 -8 -103 -12
q-4 -67 -4 -335zM336 758q0 -16 -11 -27t-27 -11t-27 11t-11 27t11 27t27 11t27 -11t11 -27zM476 758q0 -16 -11 -27t-27 -11t-27 11t-11 27t11 27t27 11t27 -11t11 -27z" />
    <glyph glyph-name="Yacute" unicode="&#xdd;" horiz-adv-x="593" 
d="M434 4q0 -10 -10 -10q-1 0 -18.5 1.5t-48 3t-61.5 1.5t-61.5 -1.5t-48 -3t-18.5 -1.5q-10 0 -10 10q0 6 7 8q29 8 94 12q4 65 4 273l-196 310q-48 5 -63 12q-7 2 -7 8q0 10 10 10q1 0 15.5 -1.5t40 -3t51.5 -1.5q24 0 48 1.5t38.5 3t15.5 1.5q10 0 10 -10q0 -6 -7 -8
q-17 -8 -69 -12q45 -79 167 -270q37 56 87 142.5t65 127.5q-57 4 -83 12q-7 2 -7 8q0 10 10 10q1 0 15.5 -1.5t38 -3t46.5 -1.5q22 0 44 1.5t35 3.5l14 1q10 0 10 -10q0 -6 -7 -8q-19 -8 -64 -12l-71 -101q-86 -129 -121 -188q0 -227 4 -294q65 -4 94 -12q7 -2 7 -8z
M369 819h61q7 0 7 -6q0 -4 -6 -8l-137 -100q-10 -8 -15 -8q-7 0 -7 7q0 4 6 12l82 97q4 6 9 6z" />
    <glyph glyph-name="Thorn" unicode="&#xde;" horiz-adv-x="574" 
d="M290 4q0 -10 -10 -10q-1 0 -17.5 1.5t-44 3t-56.5 1.5t-56.5 -1.5t-44 -3t-17.5 -1.5q-10 0 -10 10q0 6 7 8q25 8 84 12q4 67 4 292q0 224 -4 291q-59 4 -84 12q-7 2 -7 8q0 10 10 10q1 0 17.5 -1.5t44 -3t56.5 -1.5t56.5 1.5t44 3t17.5 1.5q10 0 10 -10q0 -6 -7 -8
q-25 -8 -84 -12q-2 -26 -4 -111q56 12 129 12q33 0 66 -6.5t70 -22.5t60 -51t23 -85q0 -51 -25 -91t-64.5 -62.5t-83 -34t-86.5 -11.5q-14 0 -29 1t-32.5 2.5t-27.5 2.5q0 -82 4 -126q59 -4 84 -12q7 -2 7 -8zM195 473v-300q54 -6 82 -6q52 0 94 13.5t72 49t30 89.5
q0 76 -53.5 121t-124.5 45q-38 0 -100 -12z" />
    <glyph glyph-name="germandbls" unicode="&#xdf;" horiz-adv-x="500" 
d="M455 110q0 -48 -35 -83t-81 -35q-16 0 -43 6.5t-32 6.5q-10 0 -19 -9t-13 -9q-7 0 -7 10q0 5 1 25.5t1 29.5q0 17 -1 37t-1 22q0 12 8 12q6 0 9 -6.5t6 -20t7 -22.5q14 -29 38.5 -43t45.5 -14q30 0 50.5 16.5t20.5 44.5q0 26 -24 58.5t-53.5 59t-53.5 59.5t-24 59
q0 13 5.5 26.5t13.5 24l23.5 31.5t28.5 41q43 72 43 134q0 59 -32.5 108t-83.5 49q-19 0 -34 -10t-23.5 -30.5t-13.5 -39t-7 -50.5t-2.5 -49.5t-0.5 -49.5q0 -31 -1 -104t-1 -89q0 -197 4 -312q-45 6 -46 6q-13 0 -42.5 -3t-35.5 -3q-11 0 -11 7q0 9 10 10q17 6 57 12
q3 79 3 283q0 12 -1.5 93t-1.5 133q0 96 48.5 159.5t128.5 63.5q60 0 99 -33.5t39 -100.5q0 -44 -18 -91t-40 -78t-40 -59t-18 -39q0 -13 12.5 -30t44 -52.5t53.5 -63.5q40 -50 40 -98z" />
    <glyph glyph-name="agrave" unicode="&#xe0;" horiz-adv-x="407" 
d="M257 5v43q-75 -60 -125 -60q-39 0 -64 28.5t-25 68.5q0 52 37.5 80t85.5 28q36 0 91 -22q0 67 -10 90.5t-54 23.5q-35 0 -74 -16.5t-43 -16.5q-10 0 -10 9q0 15 55.5 41t94.5 26q103 0 103 -96q0 -32 -0.5 -84t-0.5 -58q0 -55 15 -55q14 0 34.5 15.5t22.5 15.5q6 0 6 -7
q0 -15 -37.5 -43t-77.5 -28q-24 0 -24 17zM257 74v77q-49 19 -76 19q-77 0 -77 -75q0 -30 16.5 -49t45.5 -19q6 0 12 1t10.5 2t10.5 3.5t10 4.5t9.5 5.5t8 5.5l8.5 6.5t7.5 6t7.5 6.5t7 6zM106 499h61q5 0 9 -6l82 -97q6 -8 6 -12q0 -7 -7 -7q-5 0 -15 8l-137 100q-6 4 -6 8
q0 6 7 6z" />
    <glyph glyph-name="aacute" unicode="&#xe1;" horiz-adv-x="407" 
d="M257 5v43q-75 -60 -125 -60q-39 0 -64 28.5t-25 68.5q0 52 37.5 80t85.5 28q36 0 91 -22q0 67 -10 90.5t-54 23.5q-35 0 -74 -16.5t-43 -16.5q-10 0 -10 9q0 15 55.5 41t94.5 26q103 0 103 -96q0 -32 -0.5 -84t-0.5 -58q0 -55 15 -55q14 0 34.5 15.5t22.5 15.5q6 0 6 -7
q0 -15 -37.5 -43t-77.5 -28q-24 0 -24 17zM257 74v77q-49 19 -76 19q-77 0 -77 -75q0 -30 16.5 -49t45.5 -19q6 0 12 1t10.5 2t10.5 3.5t10 4.5t9.5 5.5t8 5.5l8.5 6.5t7.5 6t7.5 6.5t7 6zM269 499h61q7 0 7 -6q0 -4 -6 -8l-137 -100q-10 -8 -15 -8q-7 0 -7 7q0 4 6 12
l82 97q4 6 9 6z" />
    <glyph glyph-name="acircumflex" unicode="&#xe2;" horiz-adv-x="407" 
d="M257 5v43q-75 -60 -125 -60q-39 0 -64 28.5t-25 68.5q0 52 37.5 80t85.5 28q36 0 91 -22q0 67 -10 90.5t-54 23.5q-35 0 -74 -16.5t-43 -16.5q-10 0 -10 9q0 15 55.5 41t94.5 26q103 0 103 -96q0 -32 -0.5 -84t-0.5 -58q0 -55 15 -55q14 0 34.5 15.5t22.5 15.5q6 0 6 -7
q0 -15 -37.5 -43t-77.5 -28q-24 0 -24 17zM257 74v77q-49 19 -76 19q-77 0 -77 -75q0 -30 16.5 -49t45.5 -19q6 0 12 1t10.5 2t10.5 3.5t10 4.5t9.5 5.5t8 5.5l8.5 6.5t7.5 6t7.5 6.5t7 6zM226 499l77 -93q17 -21 17 -24q0 -5 -6 -5q-4 0 -22 12t-46 32.5l-39 28.5
q-81 -65 -89 -70q-4 -3 -8 -3q-7 0 -7 5t14 23l71 94h38z" />
    <glyph glyph-name="atilde" unicode="&#xe3;" horiz-adv-x="407" 
d="M257 5v43q-75 -60 -125 -60q-39 0 -64 28.5t-25 68.5q0 52 37.5 80t85.5 28q36 0 91 -22q0 67 -10 90.5t-54 23.5q-35 0 -74 -16.5t-43 -16.5q-10 0 -10 9q0 15 55.5 41t94.5 26q103 0 103 -96q0 -32 -0.5 -84t-0.5 -58q0 -55 15 -55q14 0 34.5 15.5t22.5 15.5q6 0 6 -7
q0 -15 -37.5 -43t-77.5 -28q-24 0 -24 17zM257 74v77q-49 19 -76 19q-77 0 -77 -75q0 -30 16.5 -49t45.5 -19q6 0 12 1t10.5 2t10.5 3.5t10 4.5t9.5 5.5t8 5.5l8.5 6.5t7.5 6t7.5 6.5t7 6zM323 471q0 -21 -14.5 -48t-43.5 -27q-7 0 -15.5 2t-15.5 4.5l-19 7t-19 7.5
q-51 20 -66 20q-19 0 -27.5 -20.5t-11.5 -20.5q-8 0 -8 11q0 22 14 48t43 26q10 0 65 -21q48 -20 69 -20q17 0 27.5 19.5t14.5 19.5q7 0 7 -8z" />
    <glyph glyph-name="adieresis" unicode="&#xe4;" horiz-adv-x="407" 
d="M257 5v43q-75 -60 -125 -60q-39 0 -64 28.5t-25 68.5q0 52 37.5 80t85.5 28q36 0 91 -22q0 67 -10 90.5t-54 23.5q-35 0 -74 -16.5t-43 -16.5q-10 0 -10 9q0 15 55.5 41t94.5 26q103 0 103 -96q0 -32 -0.5 -84t-0.5 -58q0 -55 15 -55q14 0 34.5 15.5t22.5 15.5q6 0 6 -7
q0 -15 -37.5 -43t-77.5 -28q-24 0 -24 17zM257 74v77q-49 19 -76 19q-77 0 -77 -75q0 -30 16.5 -49t45.5 -19q6 0 12 1t10.5 2t10.5 3.5t10 4.5t9.5 5.5t8 5.5l8.5 6.5t7.5 6t7.5 6.5t7 6zM173 438q0 -16 -11 -27t-27 -11t-27 11t-11 27t11 27t27 11t27 -11t11 -27zM313 438
q0 -16 -11 -27t-27 -11t-27 11t-11 27t11 27t27 11t27 -11t11 -27z" />
    <glyph glyph-name="aring" unicode="&#xe5;" horiz-adv-x="407" 
d="M257 5v43q-75 -60 -125 -60q-39 0 -64 28.5t-25 68.5q0 52 37.5 80t85.5 28q36 0 91 -22q0 67 -10 90.5t-54 23.5q-35 0 -74 -16.5t-43 -16.5q-10 0 -10 9q0 15 55.5 41t94.5 26q103 0 103 -96q0 -32 -0.5 -84t-0.5 -58q0 -55 15 -55q14 0 34.5 15.5t22.5 15.5q6 0 6 -7
q0 -15 -37.5 -43t-77.5 -28q-24 0 -24 17zM257 74v77q-49 19 -76 19q-77 0 -77 -75q0 -30 16.5 -49t45.5 -19q6 0 12 1t10.5 2t10.5 3.5t10 4.5t9.5 5.5t8 5.5l8.5 6.5t7.5 6t7.5 6.5t7 6zM284 454q0 -32 -22.5 -54.5t-54.5 -22.5t-54.5 22.5t-22.5 54.5t22.5 54.5
t54.5 22.5t54.5 -22.5t22.5 -54.5zM207 402q24 0 38 15.5t14 36.5t-14 36.5t-38 15.5q-23 0 -37.5 -15.5t-14.5 -36.5t14.5 -36.5t37.5 -15.5z" />
    <glyph glyph-name="ae" unicode="&#xe6;" horiz-adv-x="611" 
d="M571 177h-253q0 -52 33.5 -101t93.5 -49q34 0 58 17t35.5 34t15.5 17q7 0 7 -7q0 -24 -40 -62t-104 -38q-85 0 -141 74q-83 -74 -144 -74q-39 0 -64 28.5t-25 68.5q0 52 37.5 80t85.5 28q39 0 94 -22q0 67 -10 90.5t-54 23.5q-36 0 -76 -16.5t-44 -16.5q-10 0 -10 9
q0 15 55.5 41t94.5 26q34 0 56.5 -8.5t37.5 -33.5q47 42 115 42q73 0 109.5 -42t36.5 -109zM260 74v77q-49 19 -76 19q-80 0 -80 -75q0 -30 17 -49t48 -19q6 0 12 1t10.5 2t10.5 3.5t10 4.5t9.5 5.5t8 5.5l8.5 6.5t7.5 6t7.5 6.5t7 6zM318 194l184 5q0 112 -85 112
q-28 0 -48.5 -13t-30.5 -34t-14 -37t-6 -33z" />
    <glyph glyph-name="ccedilla" unicode="&#xe7;" horiz-adv-x="389" 
d="M151 -59l32 48q-53 4 -98 45.5t-45 113.5q0 74 52 127t127 53q43 0 90 -20l3 11.5t3.5 11l3.5 8t4 6.5t5 2q7 0 7 -10q0 -3 -3 -33.5t-3 -50.5q0 -18 1.5 -42t1.5 -26q0 -9 -7 -9q-5 0 -9 12t-7.5 35t-3.5 25q-14 21 -45 39t-65 18q-42 0 -71 -29t-29 -85q0 -72 41 -116
t94 -44q29 0 52.5 15t36.5 30t17 15q8 0 8 -8q0 -3 -5.5 -13t-17 -24t-27 -27t-39.5 -22t-50 -9l-28 -43q14 2 21 2q22 0 38 -12t16 -37q0 -29 -21 -49t-54 -20q-22 0 -42 11t-20 20q0 7 7 7q3 0 15.5 -6.5t26.5 -6.5q17 0 28.5 11.5t11.5 26.5q0 14 -10.5 21.5t-24.5 7.5
q-5 0 -12.5 -1t-8.5 -1q-6 0 -6 6q0 3 9 16z" />
    <glyph glyph-name="egrave" unicode="&#xe8;" horiz-adv-x="389" 
d="M351 177h-253q0 -52 33.5 -101t93.5 -49q34 0 58 17t35.5 34t15.5 17q7 0 7 -7q0 -24 -40 -62t-104 -38q-72 0 -115.5 45t-43.5 117q0 70 44 124t123 54q73 0 109.5 -42t36.5 -109zM98 196l184 5q0 110 -85 110q-28 0 -48.5 -12.5t-30.5 -33t-14 -36.5t-6 -33zM97 499h61
q5 0 9 -6l82 -97q6 -8 6 -12q0 -7 -7 -7q-5 0 -15 8l-137 100q-6 4 -6 8q0 6 7 6z" />
    <glyph glyph-name="eacute" unicode="&#xe9;" horiz-adv-x="389" 
d="M351 177h-253q0 -52 33.5 -101t93.5 -49q34 0 58 17t35.5 34t15.5 17q7 0 7 -7q0 -24 -40 -62t-104 -38q-72 0 -115.5 45t-43.5 117q0 70 44 124t123 54q73 0 109.5 -42t36.5 -109zM98 196l184 5q0 110 -85 110q-28 0 -48.5 -12.5t-30.5 -33t-14 -36.5t-6 -33zM262 499
h61q7 0 7 -6q0 -4 -6 -8l-137 -100q-10 -8 -15 -8q-7 0 -7 7q0 4 6 12l82 97q4 6 9 6z" />
    <glyph glyph-name="ecircumflex" unicode="&#xea;" horiz-adv-x="389" 
d="M351 177h-253q0 -52 33.5 -101t93.5 -49q34 0 58 17t35.5 34t15.5 17q7 0 7 -7q0 -24 -40 -62t-104 -38q-72 0 -115.5 45t-43.5 117q0 70 44 124t123 54q73 0 109.5 -42t36.5 -109zM98 196l184 5q0 110 -85 110q-28 0 -48.5 -12.5t-30.5 -33t-14 -36.5t-6 -33zM212 499
l77 -93q17 -21 17 -24q0 -5 -6 -5q-4 0 -22 12t-46 32.5l-39 28.5q-81 -65 -89 -70q-4 -3 -8 -3q-7 0 -7 5t14 23l71 94h38z" />
    <glyph glyph-name="edieresis" unicode="&#xeb;" horiz-adv-x="389" 
d="M351 177h-253q0 -52 33.5 -101t93.5 -49q34 0 58 17t35.5 34t15.5 17q7 0 7 -7q0 -24 -40 -62t-104 -38q-72 0 -115.5 45t-43.5 117q0 70 44 124t123 54q73 0 109.5 -42t36.5 -109zM98 196l184 5q0 110 -85 110q-28 0 -48.5 -12.5t-30.5 -33t-14 -36.5t-6 -33zM164 438
q0 -16 -11 -27t-27 -11t-27 11t-11 27t11 27t27 11t27 -11t11 -27zM304 438q0 -16 -11 -27t-27 -11t-27 11t-11 27t11 27t27 11t27 -11t11 -27z" />
    <glyph glyph-name="igrave" unicode="&#xec;" horiz-adv-x="259" 
d="M162 152q0 -90 3 -129q38 -6 56 -12q10 -1 10 -10q0 -7 -11 -7q-2 0 -14.5 1.5t-33 3t-41.5 1.5t-41.5 -1.5t-33 -3t-14.5 -1.5q-11 0 -11 7q0 9 10 10q17 6 57 12q3 39 3 129q0 83 -2 137q-8 0 -31.5 -1t-34.5 -1q-8 0 -8 7q0 3 2.5 5.5t8.5 4.5t12 3t18 3.5l21 4.5
l32 8.5l26 7t12 2.5q8 0 8 -13q0 -4 -0.5 -14.5t-0.5 -16.5q-2 -54 -2 -137zM21 499h61q5 0 9 -6l82 -97q6 -8 6 -12q0 -7 -7 -7q-5 0 -15 8l-137 100q-6 4 -6 8q0 6 7 6z" />
    <glyph glyph-name="iacute" unicode="&#xed;" horiz-adv-x="259" 
d="M162 152q0 -90 3 -129q38 -6 56 -12q10 -1 10 -10q0 -7 -11 -7q-2 0 -14.5 1.5t-33 3t-41.5 1.5t-41.5 -1.5t-33 -3t-14.5 -1.5q-11 0 -11 7q0 9 10 10q17 6 57 12q3 39 3 129q0 83 -2 137q-8 0 -31.5 -1t-34.5 -1q-8 0 -8 7q0 3 2.5 5.5t8.5 4.5t12 3t18 3.5l21 4.5
l32 8.5l26 7t12 2.5q8 0 8 -13q0 -4 -0.5 -14.5t-0.5 -16.5q-2 -54 -2 -137zM176 499h61q7 0 7 -6q0 -4 -6 -8l-137 -100q-10 -8 -15 -8q-7 0 -7 7q0 4 6 12l82 97q4 6 9 6z" />
    <glyph glyph-name="icircumflex" unicode="&#xee;" horiz-adv-x="259" 
d="M162 152q0 -90 3 -129q38 -6 56 -12q10 -1 10 -10q0 -7 -11 -7q-2 0 -14.5 1.5t-33 3t-41.5 1.5t-41.5 -1.5t-33 -3t-14.5 -1.5q-11 0 -11 7q0 9 10 10q17 6 57 12q3 39 3 129q0 83 -2 137q-8 0 -31.5 -1t-34.5 -1q-8 0 -8 7q0 3 2.5 5.5t8.5 4.5t12 3t18 3.5l21 4.5
l32 8.5l26 7t12 2.5q8 0 8 -13q0 -4 -0.5 -14.5t-0.5 -16.5q-2 -54 -2 -137zM141 499l77 -93q17 -21 17 -24q0 -5 -6 -5q-4 0 -22 12t-46 32.5l-39 28.5q-81 -65 -89 -70q-5 -3 -8 -3q-7 0 -7 5t14 23l71 94h38z" />
    <glyph glyph-name="idieresis" unicode="&#xef;" horiz-adv-x="259" 
d="M162 152q0 -90 3 -129q38 -6 56 -12q10 -1 10 -10q0 -7 -11 -7q-2 0 -14.5 1.5t-33 3t-41.5 1.5t-41.5 -1.5t-33 -3t-14.5 -1.5q-11 0 -11 7q0 9 10 10q17 6 57 12q3 39 3 129q0 83 -2 137q-8 0 -31.5 -1t-34.5 -1q-8 0 -8 7q0 3 2.5 5.5t8.5 4.5t12 3t18 3.5l21 4.5
l32 8.5l26 7t12 2.5q8 0 8 -13q0 -4 -0.5 -14.5t-0.5 -16.5q-2 -54 -2 -137zM93 438q0 -16 -11 -27t-27 -11t-27 11t-11 27t11 27t27 11t27 -11t11 -27zM233 438q0 -16 -11 -27t-27 -11t-27 11t-11 27t11 27t27 11t27 -11t11 -27z" />
    <glyph glyph-name="eth" unicode="&#xf0;" horiz-adv-x="463" 
d="M430 544l-116 -38q21 -32 33 -52.5t31.5 -60.5t29.5 -84.5t10 -90.5q0 -118 -58 -174t-153 -56q-71 0 -116.5 39t-45.5 112q0 85 67 137t149 52q44 0 80 -28l2 2q-33 103 -84 185l-117 -42l-8 22l113 39q-50 90 -176 201l16 13q156 -103 214 -195l122 41zM231 8
q63 0 93.5 40t30.5 104q0 156 -117 156q-58 0 -94 -38t-36 -108t31 -112t92 -42z" />
    <glyph glyph-name="ntilde" unicode="&#xf1;" horiz-adv-x="500" 
d="M480 1q0 -7 -11 -7q-2 0 -14.5 1.5t-33 3t-41.5 1.5t-41.5 -1.5t-33 -3t-14.5 -1.5q-11 0 -11 7q0 9 10 10q17 6 57 12q3 39 3 129q0 30 -0.5 44.5t-4 36.5t-10.5 31.5t-20.5 17.5t-33.5 8q-45 0 -114 -41q0 -16 -0.5 -48t-0.5 -49q0 -103 3 -129q38 -6 56 -12
q10 -1 10 -10q0 -7 -11 -7q-2 0 -14.5 1.5t-33 3t-41.5 1.5t-41.5 -1.5t-33 -3t-14.5 -1.5q-11 0 -11 7q0 9 10 10q17 6 57 12q3 39 3 129q0 96 -3 137q-4 0 -32.5 -1t-34.5 -1q-9 0 -9 7q0 6 5 8.5t25 6.5l49 11q14 3 26 6.5l17.5 5t9.5 1.5q10 0 10 -13q0 -3 -1 -23
t-1 -27q106 58 154 58q51 0 72 -23t21 -67q0 -15 -1 -44t-1 -42q0 -90 3 -129q38 -6 56 -12q10 -1 10 -10zM369 471q0 -21 -14.5 -48t-43.5 -27q-7 0 -15.5 2t-15.5 4.5l-19 7t-19 7.5q-51 20 -66 20q-19 0 -27.5 -20.5t-11.5 -20.5q-8 0 -8 11q0 22 14 48t43 26
q10 0 65 -21q48 -20 69 -20q17 0 27.5 19.5t14.5 19.5q7 0 7 -8z" />
    <glyph glyph-name="ograve" unicode="&#xf2;" horiz-adv-x="463" 
d="M261 328q69 0 113 -37.5t44 -109.5q0 -89 -60.5 -141t-150.5 -52q-71 0 -116.5 39t-45.5 112q0 85 67 137t149 52zM108 162q0 -70 31 -112t92 -42q63 0 93.5 40t30.5 104q0 69 -27.5 112.5t-89.5 43.5q-58 0 -94 -38t-36 -108zM134 499h61q5 0 9 -6l82 -97q6 -8 6 -12
q0 -7 -7 -7q-5 0 -15 8l-137 100q-6 4 -6 8q0 6 7 6z" />
    <glyph glyph-name="oacute" unicode="&#xf3;" horiz-adv-x="463" 
d="M261 328q69 0 113 -37.5t44 -109.5q0 -89 -60.5 -141t-150.5 -52q-71 0 -116.5 39t-45.5 112q0 85 67 137t149 52zM108 162q0 -70 31 -112t92 -42q63 0 93.5 40t30.5 104q0 69 -27.5 112.5t-89.5 43.5q-58 0 -94 -38t-36 -108zM299 499h61q7 0 7 -6q0 -4 -6 -8l-137 -100
q-10 -8 -15 -8q-7 0 -7 7q0 4 6 12l82 97q4 6 9 6z" />
    <glyph glyph-name="ocircumflex" unicode="&#xf4;" horiz-adv-x="463" 
d="M261 328q69 0 113 -37.5t44 -109.5q0 -89 -60.5 -141t-150.5 -52q-71 0 -116.5 39t-45.5 112q0 85 67 137t149 52zM108 162q0 -70 31 -112t92 -42q63 0 93.5 40t30.5 104q0 69 -27.5 112.5t-89.5 43.5q-58 0 -94 -38t-36 -108zM254 499l77 -93q17 -21 17 -24q0 -5 -6 -5
q-4 0 -22 12t-46 32.5l-39 28.5q-81 -65 -89 -70q-4 -3 -8 -3q-7 0 -7 5t14 23l71 94h38z" />
    <glyph glyph-name="otilde" unicode="&#xf5;" horiz-adv-x="463" 
d="M261 328q69 0 113 -37.5t44 -109.5q0 -89 -60.5 -141t-150.5 -52q-71 0 -116.5 39t-45.5 112q0 85 67 137t149 52zM108 162q0 -70 31 -112t92 -42q63 0 93.5 40t30.5 104q0 69 -27.5 112.5t-89.5 43.5q-58 0 -94 -38t-36 -108zM351 471q0 -21 -14.5 -48t-43.5 -27
q-7 0 -15.5 2t-15.5 4.5l-19 7t-19 7.5q-51 20 -66 20q-19 0 -27.5 -20.5t-11.5 -20.5q-8 0 -8 11q0 22 14 48t43 26q10 0 65 -21q48 -20 69 -20q17 0 27.5 19.5t14.5 19.5q7 0 7 -8z" />
    <glyph glyph-name="odieresis" unicode="&#xf6;" horiz-adv-x="463" 
d="M261 328q69 0 113 -37.5t44 -109.5q0 -89 -60.5 -141t-150.5 -52q-71 0 -116.5 39t-45.5 112q0 85 67 137t149 52zM108 162q0 -70 31 -112t92 -42q63 0 93.5 40t30.5 104q0 69 -27.5 112.5t-89.5 43.5q-58 0 -94 -38t-36 -108zM201 438q0 -16 -11 -27t-27 -11t-27 11
t-11 27t11 27t27 11t27 -11t11 -27zM341 438q0 -16 -11 -27t-27 -11t-27 11t-11 27t11 27t27 11t27 -11t11 -27z" />
    <glyph glyph-name="divide" unicode="&#xf7;" 
d="M316 359q0 -16 -11 -27t-27 -11t-27 11t-11 27t11 27t27 11t27 -11t11 -27zM518 261v-41h-480v41h480zM316 122q0 -16 -11 -27t-27 -11t-27 11t-11 27t11 27t27 11t27 -11t11 -27z" />
    <glyph glyph-name="oslash" unicode="&#xf8;" horiz-adv-x="463" 
d="M418 317l-36 -33q36 -39 36 -103q0 -89 -60.5 -141t-150.5 -52q-72 0 -115 38l-42 -38l-13 14l41 37q-33 39 -33 100q0 85 67 137t149 52q65 0 105 -31l39 34zM123 79l204 183q-30 46 -89 46q-58 0 -94 -38t-36 -108q0 -45 15 -83zM336 244l-204 -182q31 -54 99 -54
q63 0 93.5 40t30.5 104q0 51 -19 92z" />
    <glyph glyph-name="ugrave" unicode="&#xf9;" horiz-adv-x="463" 
d="M316 -6v51q-93 -57 -158 -57q-38 0 -60 23.5t-22 67.5q1 29 1 117q0 71 -1 88q-4 0 -27 -1t-30 -1q-9 0 -9 7q0 3 0.5 4.5t3 3t5 2.5t8.5 2.5l12.5 3t17.5 4.5l23 6q42 13 51 13q10 0 10 -13q0 -3 -1 -23t-1 -27q0 -2 -0.5 -75t-0.5 -102q0 -33 15 -48.5t55 -15.5
q12 0 23.5 2t19.5 4t19 7t15.5 7.5l16 9t14.5 8.5v86q0 96 -3 136q-3 0 -27 -1t-31 -1q-9 0 -9 7q0 3 0.5 4.5t3 3t5 2.5t8.5 2.5l12.5 3t17.5 4.5l23 6q46 13 54 13q10 0 10 -13q0 -3 -1 -23t-1 -27q-1 -8 -1 -117q0 -87 4 -125q40 -6 57 -12q10 -1 10 -10q0 -7 -11 -7
q-2 0 -14 1.5t-28.5 3t-30.5 1.5t-48 -6zM134 499h61q5 0 9 -6l82 -97q6 -8 6 -12q0 -7 -7 -7q-5 0 -15 8l-137 100q-6 4 -6 8q0 6 7 6z" />
    <glyph glyph-name="uacute" unicode="&#xfa;" horiz-adv-x="463" 
d="M316 -6v51q-93 -57 -158 -57q-38 0 -60 23.5t-22 67.5q1 29 1 117q0 71 -1 88q-4 0 -27 -1t-30 -1q-9 0 -9 7q0 3 0.5 4.5t3 3t5 2.5t8.5 2.5l12.5 3t17.5 4.5l23 6q42 13 51 13q10 0 10 -13q0 -3 -1 -23t-1 -27q0 -2 -0.5 -75t-0.5 -102q0 -33 15 -48.5t55 -15.5
q12 0 23.5 2t19.5 4t19 7t15.5 7.5l16 9t14.5 8.5v86q0 96 -3 136q-3 0 -27 -1t-31 -1q-9 0 -9 7q0 3 0.5 4.5t3 3t5 2.5t8.5 2.5l12.5 3t17.5 4.5l23 6q46 13 54 13q10 0 10 -13q0 -3 -1 -23t-1 -27q-1 -8 -1 -117q0 -87 4 -125q40 -6 57 -12q10 -1 10 -10q0 -7 -11 -7
q-2 0 -14 1.5t-28.5 3t-30.5 1.5t-48 -6zM284 499h61q7 0 7 -6q0 -4 -6 -8l-137 -100q-10 -8 -15 -8q-7 0 -7 7q0 4 6 12l82 97q4 6 9 6z" />
    <glyph glyph-name="ucircumflex" unicode="&#xfb;" horiz-adv-x="463" 
d="M316 -6v51q-93 -57 -158 -57q-38 0 -60 23.5t-22 67.5q1 29 1 117q0 71 -1 88q-4 0 -27 -1t-30 -1q-9 0 -9 7q0 3 0.5 4.5t3 3t5 2.5t8.5 2.5l12.5 3t17.5 4.5l23 6q42 13 51 13q10 0 10 -13q0 -3 -1 -23t-1 -27q0 -2 -0.5 -75t-0.5 -102q0 -33 15 -48.5t55 -15.5
q12 0 23.5 2t19.5 4t19 7t15.5 7.5l16 9t14.5 8.5v86q0 96 -3 136q-3 0 -27 -1t-31 -1q-9 0 -9 7q0 3 0.5 4.5t3 3t5 2.5t8.5 2.5l12.5 3t17.5 4.5l23 6q46 13 54 13q10 0 10 -13q0 -3 -1 -23t-1 -27q-1 -8 -1 -117q0 -87 4 -125q40 -6 57 -12q10 -1 10 -10q0 -7 -11 -7
q-2 0 -14 1.5t-28.5 3t-30.5 1.5t-48 -6zM254 499l77 -93q17 -21 17 -24q0 -5 -6 -5q-4 0 -22 12t-46 32.5l-39 28.5q-81 -65 -89 -70q-4 -3 -8 -3q-7 0 -7 5t14 23l71 94h38z" />
    <glyph glyph-name="udieresis" unicode="&#xfc;" horiz-adv-x="463" 
d="M316 -6v51q-93 -57 -158 -57q-38 0 -60 23.5t-22 67.5q1 29 1 117q0 71 -1 88q-4 0 -27 -1t-30 -1q-9 0 -9 7q0 3 0.5 4.5t3 3t5 2.5t8.5 2.5l12.5 3t17.5 4.5l23 6q42 13 51 13q10 0 10 -13q0 -3 -1 -23t-1 -27q0 -2 -0.5 -75t-0.5 -102q0 -33 15 -48.5t55 -15.5
q12 0 23.5 2t19.5 4t19 7t15.5 7.5l16 9t14.5 8.5v86q0 96 -3 136q-3 0 -27 -1t-31 -1q-9 0 -9 7q0 3 0.5 4.5t3 3t5 2.5t8.5 2.5l12.5 3t17.5 4.5l23 6q46 13 54 13q10 0 10 -13q0 -3 -1 -23t-1 -27q-1 -8 -1 -117q0 -87 4 -125q40 -6 57 -12q10 -1 10 -10q0 -7 -11 -7
q-2 0 -14 1.5t-28.5 3t-30.5 1.5t-48 -6zM201 438q0 -16 -11 -27t-27 -11t-27 11t-11 27t11 27t27 11t27 -11t11 -27zM341 438q0 -16 -11 -27t-27 -11t-27 11t-11 27t11 27t27 11t27 -11t11 -27z" />
    <glyph glyph-name="yacute" unicode="&#xfd;" horiz-adv-x="407" 
d="M230 25q-67 -127 -98 -172t-57 -45q-19 0 -32 12t-13 32q0 21 12 32t30 11q22 0 39 -22q40 44 75 112l-113 271q-2 7 -8 19.5t-8 17.5q-5 1 -14.5 3.5l-16.5 4.5t-12 4q-10 1 -10 10q0 7 11 7q2 0 13.5 -1.5t29.5 -3t37 -1.5q17 0 33 1.5t25.5 3t11.5 1.5q11 0 11 -7
q0 -9 -10 -10q-18 -7 -39 -12q7 -22 41 -109t52 -128q61 151 83 237q-10 1 -36 12q-10 3 -10 10t11 7q2 0 11 -1.5t24 -3t30 -1.5q14 0 26.5 1.5t20 3t8.5 1.5q11 0 11 -7t-10 -10q-21 -10 -36 -12q-81 -183 -123 -268zM276 499h61q7 0 7 -6q0 -4 -6 -8l-137 -100
q-10 -8 -15 -8q-7 0 -7 7q0 4 6 12l82 97q4 6 9 6z" />
    <glyph glyph-name="thorn" unicode="&#xfe;" horiz-adv-x="426" 
d="M128 236v-172l27.5 -25.5t30.5 -18.5t42 -10q45 0 65.5 41t20.5 102q0 23 -3.5 44t-11.5 43.5t-26.5 36t-44.5 13.5q-8 0 -16 -1t-15.5 -4t-13 -5t-12.5 -6.5t-10.5 -7t-10 -8.5t-8.5 -8l-7.5 -7.5zM128 27q0 -82 3 -190q76 -7 101 -12q10 -1 10 -10q0 -7 -11 -7
q-3 0 -22 1.5t-49.5 3t-62.5 1.5q-21 0 -41.5 -1.5t-33 -3t-14.5 -1.5q-11 0 -11 7q0 9 10 10q17 6 57 12q3 108 3 359q0 361 -7 472q0 46 -20 46q-11 0 -26.5 -9.5t-19.5 -9.5q-7 0 -7 9q0 12 47.5 39t77.5 27q12 0 15 -7.5t3 -23.5q0 -400 -1 -476q49 44 83 56q26 9 52 9
q61 0 90 -46t29 -108q0 -76 -47.5 -131t-107.5 -55q-13 0 -25 2t-20 4.5t-18 8l-13.5 7.5t-13 9t-10.5 8z" />
    <glyph glyph-name="ydieresis" unicode="&#xff;" horiz-adv-x="407" 
d="M230 25q-67 -127 -98 -172t-57 -45q-19 0 -32 12t-13 32q0 21 12 32t30 11q22 0 39 -22q40 44 75 112l-113 271q-2 7 -8 19.5t-8 17.5q-5 1 -14.5 3.5l-16.5 4.5t-12 4q-10 1 -10 10q0 7 11 7q2 0 13.5 -1.5t29.5 -3t37 -1.5q17 0 33 1.5t25.5 3t11.5 1.5q11 0 11 -7
q0 -9 -10 -10q-18 -7 -39 -12q7 -22 41 -109t52 -128q61 151 83 237q-10 1 -36 12q-10 3 -10 10t11 7q2 0 11 -1.5t24 -3t30 -1.5q14 0 26.5 1.5t20 3t8.5 1.5q11 0 11 -7t-10 -10q-21 -10 -36 -12q-81 -183 -123 -268zM188 438q0 -16 -11 -27t-27 -11t-27 11t-11 27t11 27
t27 11t27 -11t11 -27zM328 438q0 -16 -11 -27t-27 -11t-27 11t-11 27t11 27t27 11t27 -11t11 -27z" />
    <glyph glyph-name="dotlessi" unicode="&#x131;" horiz-adv-x="259" 
d="M162 152q0 -90 3 -129q38 -6 56 -12q10 -1 10 -10q0 -7 -11 -7q-2 0 -14.5 1.5t-33 3t-41.5 1.5t-41.5 -1.5t-33 -3t-14.5 -1.5q-11 0 -11 7q0 9 10 10q17 6 57 12q3 39 3 129q0 83 -2 137q-8 0 -31.5 -1t-34.5 -1q-8 0 -8 7q0 3 2.5 5.5t8.5 4.5t12 3t18 3.5l21 4.5
l32 8.5l26 7t12 2.5q8 0 8 -13q0 -4 -0.5 -14.5t-0.5 -16.5q-2 -54 -2 -137z" />
    <glyph glyph-name="Lslash" unicode="&#x141;" horiz-adv-x="574" 
d="M199 24h42q145 0 270 36q7 88 21 88q10 0 10 -13q0 -11 -3 -45.5t-3 -58.5q0 -20 3 -40t3 -24q0 -15 -10 -15q-3 0 -5 1.5t-4 5t-3 6t-3 9t-3 9.5q-105 17 -352 17q-50 0 -81 -3q-9 0 -17.5 -1t-13.5 -1.5t-6 -0.5q-10 0 -10 10q0 6 7 8q25 8 84 12q4 46 4 205
q-68 -58 -71 -62l-18 22l48.5 37t40.5 32q0 270 -4 349q-59 4 -84 12q-7 2 -7 8q0 10 10 10q1 0 17.5 -1.5t44 -3t56.5 -1.5t56.5 1.5t44 3t17.5 1.5q10 0 10 -10q0 -6 -7 -8q-25 -8 -84 -12q-4 -67 -4 -292q66 55 131 115l18 -22l-149 -122q0 -203 4 -262z" />
    <glyph glyph-name="lslash" unicode="&#x142;" horiz-adv-x="259" 
d="M223 348l16 -15l-74 -72q-1 -83 1 -238q40 -6 57 -12q10 -1 10 -10q0 -7 -11 -7q-2 0 -14.5 1.5t-33 3t-41.5 1.5t-41.5 -1.5t-33 -3t-14.5 -1.5q-11 0 -11 7q0 9 10 10q17 6 57 12q2 102 2 173q-40 -37 -59 -59l-16 16q44 40 75 71q1 65 1 151q0 39 -2 148.5t-2 144.5
q0 46 -20 46q-11 0 -26.5 -9.5t-19.5 -9.5q-7 0 -7 9q0 12 47.5 39t77.5 27q12 0 15 -7.5t3 -23.5q0 -22 -2.5 -172t-2.5 -192q0 -47 1 -89q30 30 58 62z" />
    <glyph glyph-name="OE" unicode="&#x152;" horiz-adv-x="981" 
d="M594 309h-19q0 -218 7 -285q13 -1 39 -1q147 0 270 37q6 82 21 82q10 0 10 -10q0 -8 -3 -46t-3 -55q0 -10 3 -36t3 -34q0 -9 -10 -9q-3 0 -5 1.5t-4 5t-3 6t-3 9t-3 9.5q-105 17 -352 17q-29 0 -87 -8q-50 -9 -77 -9q-145 0 -237 93.5t-92 227.5q0 146 95 245t249 99
q35 0 85 -8q47 -9 64 -9q195 0 346 17q1 3 2 9t2 8.5t2.5 7.5t2.5 7l2.5 5t3.5 4t5 1q8 0 8 -7q0 -3 -3 -36t-3 -48q0 -13 3 -52t3 -42q0 -14 -11 -14q-3 0 -5.5 3t-4.5 9.5t-3.5 13t-2.5 17t-2 17t-2 17t-1 14.5q-100 26 -236 26q-8 0 -32 -0.5t-34 -0.5q-7 -67 -7 -275h19
q166 0 263 24q6 72 24 72q8 0 8 -10q0 -2 -3 -41.5t-3 -55.5q0 -19 3 -58t3 -44q0 -11 -8 -11q-15 0 -24 85q-90 16 -263 16zM504 31q0 29 2.5 131t2.5 147q0 57 -2 154t-2 107q-72 40 -173 40q-92 0 -165.5 -71t-73.5 -173q0 -92 52.5 -173t132 -126.5t161.5 -45.5
q17 0 65 10z" />
    <glyph glyph-name="oe" unicode="&#x153;" horiz-adv-x="704" 
d="M666 177h-253q0 -52 33.5 -101t93.5 -49q34 0 58 17t35.5 34t15.5 17q7 0 7 -7q0 -24 -40 -62t-104 -38q-94 0 -137 70q-61 -70 -168 -70q-71 0 -116.5 39t-45.5 112q0 85 67 137t149 52q91 0 133 -58q42 58 126 58q73 0 109.5 -42t36.5 -109zM413 194l184 5
q0 112 -85 112q-28 0 -48.5 -13t-30.5 -34t-14 -37t-6 -33zM108 162q0 -70 31 -112t92 -42q63 0 93.5 40t30.5 104q0 69 -27.5 112.5t-89.5 43.5q-58 0 -94 -38t-36 -108z" />
    <glyph glyph-name="Scaron" unicode="&#x160;" horiz-adv-x="537" 
d="M455 513v-65q0 -11 -7 -11q-5 0 -8 6.5t-5 20t-2.5 23l-1.5 28.5t-1 23q-29 24 -50 37.5t-55.5 25.5t-72.5 12q-66 0 -117 -40t-51 -106q0 -33 18 -55t51 -33t66 -17t77.5 -12t70.5 -13q63 -16 90.5 -49.5t27.5 -91.5q0 -95 -66.5 -154t-168.5 -59q-60 0 -167 37
q-1 -4 -4.5 -16.5t-5.5 -18l-5 -13.5t-6 -11.5t-6 -3.5q-6 0 -6 7q0 4 1 7t3 13.5t4 28.5q4 37 4 91q0 18 -2 44.5l-3.5 46.5t-1.5 21q0 10 8 10q16 0 25 -122q95 -86 200 -86q70 0 119.5 40.5t49.5 103.5q0 33 -18 55t-50 32.5t-64 15.5t-73.5 9.5t-64.5 10.5
q-131 33 -131 157q0 87 67 146.5t152 59.5q61 0 162 -36q2 5 5 14.5t5 16.5t5 14t6 10.5t6 3.5q6 0 6 -7q0 -1 -1.5 -8t-3.5 -19.5t-3 -25.5q-7 -47 -7 -98zM377 791l-71 -94h-38l-77 93q-17 21 -17 24q0 5 6 5q4 0 22 -12t46 -32.5l39 -28.5q81 65 89 70q5 3 8 3q7 0 7 -5
t-14 -23z" />
    <glyph glyph-name="scaron" unicode="&#x161;" horiz-adv-x="333" 
d="M277 269q0 -17 0.5 -30t1.5 -20t1 -9q0 -8 -7 -8q-9 0 -19 58q-55 42 -105 42q-29 0 -52.5 -16t-23.5 -40q0 -15 7 -24t22 -13t29.5 -6t38 -4t39.5 -5q85 -18 85 -89q0 -55 -39.5 -86t-101.5 -31q-35 0 -81 16q-1 -2 -2 -7t-1.5 -8t-1.5 -7t-2.5 -6.5l-3 -5t-3.5 -3.5
t-4 -1q-6 0 -6 7q0 1 2.5 27t2.5 50q0 16 -1.5 37.5t-1.5 26.5q0 10 7 10q3 0 6 -4t5 -12.5l3.5 -15t3 -18t2.5 -15.5q62 -38 111 -38q33 0 56.5 17t23.5 42q0 26 -22.5 34.5t-66.5 12t-68 12.5q-63 23 -63 87q0 46 34.5 74t87.5 28q43 0 88 -21q13 35 20 35q6 0 6 -7
q0 -1 -3.5 -24t-3.5 -42zM265 471l-71 -94h-38l-77 93q-17 21 -17 24q0 5 6 5q4 0 22 -12t46 -32.5l39 -28.5q81 65 89 70q4 3 8 3q7 0 7 -5t-14 -23z" />
    <glyph glyph-name="Ydieresis" unicode="&#x178;" horiz-adv-x="593" 
d="M434 4q0 -10 -10 -10q-1 0 -18.5 1.5t-48 3t-61.5 1.5t-61.5 -1.5t-48 -3t-18.5 -1.5q-10 0 -10 10q0 6 7 8q29 8 94 12q4 65 4 273l-196 310q-48 5 -63 12q-7 2 -7 8q0 10 10 10q1 0 15.5 -1.5t40 -3t51.5 -1.5q24 0 48 1.5t38.5 3t15.5 1.5q10 0 10 -10q0 -6 -7 -8
q-17 -8 -69 -12q45 -79 167 -270q37 56 87 142.5t65 127.5q-57 4 -83 12q-7 2 -7 8q0 10 10 10q1 0 15.5 -1.5t38 -3t46.5 -1.5q22 0 44 1.5t35 3.5l14 1q10 0 10 -10q0 -6 -7 -8q-19 -8 -64 -12l-71 -101q-86 -129 -121 -188q0 -227 4 -294q65 -4 94 -12q7 -2 7 -8z
M281 758q0 -16 -11 -27t-27 -11t-27 11t-11 27t11 27t27 11t27 -11t11 -27zM421 758q0 -16 -11 -27t-27 -11t-27 11t-11 27t11 27t27 11t27 -11t11 -27z" />
    <glyph glyph-name="Zcaron" unicode="&#x17d;" horiz-adv-x="574" 
d="M146 23h22q209 0 333 34q0 39 11 76q2 8 9 8q11 0 11 -14q0 -6 -3 -35t-3 -36q0 -21 3 -57.5t3 -41.5q0 -8 -10 -8q-3 0 -5 1.5t-4 5.5t-3.5 7.5t-3.5 10t-3 9.5q-95 17 -261 17q-86 0 -132 -3q-13 0 -25 -1l-18 -1.5t-7 -0.5q-9 0 -9 7q0 4 7.5 16.5l26 41.5t29.5 48
q31 54 157 250l161 253l-92 -2q-155 0 -260 -28q-8 -92 -22 -92q-8 0 -8 18q0 2 3 43.5t3 60.5q0 4 -3 26.5t-3 34.5q0 17 11 17q3 0 5 -2t4 -6.5t3.5 -8.5t3.5 -11.5l3 -11.5q110 -17 236 -17q16 0 124 3q54 3 69 3q8 0 8 -5q0 -3 -4.5 -10t-21 -30.5t-33.5 -50.5
l-114 -181q-144 -227 -198 -337zM385 791l-71 -94h-38l-77 93q-17 21 -17 24q0 5 6 5q4 0 22 -12t46 -32.5l39 -28.5q81 65 89 70q4 3 8 3q7 0 7 -5t-14 -23z" />
    <glyph glyph-name="zcaron" unicode="&#x17e;" horiz-adv-x="407" 
d="M354 -34q0 -9 -7 -9q-8 0 -17 37q-114 6 -159 6q-39 0 -68 -3q-10 0 -24.5 -1.5t-19.5 -1.5q-12 0 -12 10q0 2 1.5 5.5t5 7.5t6.5 8t8.5 10.5l9.5 11.5q70 85 193 251q-108 0 -189 -30q-9 -48 -17 -48t-8 10q0 8 3 31t3 36q0 6 -2 23.5t-2 29.5q0 11 6 11q3 0 5.5 -2
t4 -7t2.5 -8t2.5 -11t2.5 -11q40 -7 123 -7q27 0 73 4q6 0 30 1.5t35 1.5q12 0 12 -8t-34 -44q-84 -99 -189 -254q82 0 125.5 7.5t73.5 30.5q8 46 18 46q7 0 7 -8q0 -7 -3 -33t-3 -38q0 -19 2 -35.5t2 -19.5zM302 471l-71 -94h-38l-77 93q-17 21 -17 24q0 5 6 5q4 0 22 -12
t46 -32.5l39 -28.5q81 65 89 70q5 3 8 3q7 0 7 -5t-14 -23z" />
    <glyph glyph-name="florin" unicode="&#x192;" horiz-adv-x="370" 
d="M207 293l-16 -74q-10 -54 -27 -116.5t-42.5 -132.5t-60 -116t-70.5 -46q-14 0 -24 8.5t-10 22.5q0 18 19 32t41 14q17 0 31 -7q5 12 10 26.5t11 36l10 36.5t11 45.5t9.5 43t11 50.5t10.5 48l28 129q-9 0 -38 -1t-37 -1l10 29q5 0 11.5 -0.5t15 -1.5t12.5 -1q14 -1 32 -1
l17 76q54 219 116 305q52 66 92 66q19 0 28.5 -10t9.5 -23q0 -16 -14 -28t-31 -12q-22 0 -47 18q-47 -83 -96 -315l-18 -77q66 0 101 4l-11 -31q-26 4 -95 4z" />
    <glyph glyph-name="circumflex" unicode="&#x2c6;" horiz-adv-x="300" 
d="M172 499l77 -93q17 -21 17 -24q0 -5 -6 -5q-4 0 -22 12t-46 32.5l-39 28.5q-81 -65 -89 -70q-5 -3 -8 -3q-7 0 -7 5t14 23l71 94h38z" />
    <glyph glyph-name="caron" unicode="&#x2c7;" horiz-adv-x="300" 
d="M248 471l-71 -94h-38l-77 93q-17 21 -17 24q0 5 6 5q4 0 22 -12t46 -32.5l39 -28.5q81 65 89 70q5 3 8 3q7 0 7 -5t-14 -23z" />
    <glyph glyph-name="uni02C9" unicode="&#x2c9;" horiz-adv-x="300" 
d="M253 457v-39h-201v39h201z" />
    <glyph glyph-name="breve" unicode="&#x2d8;" horiz-adv-x="300" 
d="M243 477q0 -15 -28 -52.5t-62 -37.5q-35 0 -62.5 37.5t-27.5 52.5q0 10 9 10q7 0 17 -12.5t26.5 -25t38.5 -12.5q20 0 36 12.5t27 25t17 12.5q9 0 9 -10z" />
    <glyph glyph-name="dotaccent" unicode="&#x2d9;" horiz-adv-x="300" 
d="M148 438q0 -16 -11.5 -27.5t-27.5 -11.5q-17 0 -28 11.5t-11 27.5t11 27.5t28 11.5q16 0 27.5 -11.5t11.5 -27.5z" />
    <glyph glyph-name="ring" unicode="&#x2da;" horiz-adv-x="300" 
d="M230 454q0 -32 -22.5 -54.5t-54.5 -22.5t-54.5 22.5t-22.5 54.5t22.5 54.5t54.5 22.5t54.5 -22.5t22.5 -54.5zM153 402q24 0 38 15.5t14 36.5t-14 36.5t-38 15.5q-23 0 -37.5 -15.5t-14.5 -36.5t14.5 -36.5t37.5 -15.5z" />
    <glyph glyph-name="ogonek" unicode="&#x2db;" horiz-adv-x="300" 
d="M318 -83q0 -16 -24 -29.5t-50 -13.5q-28 0 -51 16t-23 48q0 38 39 73q36 34 43 34q2 0 2 -2l-9 -11q-9 -10 -17.5 -29t-8.5 -41q0 -24 12.5 -39t33.5 -15q15 0 29.5 8.5t17.5 8.5q6 0 6 -8z" />
    <glyph glyph-name="tilde" unicode="&#x2dc;" horiz-adv-x="300" 
d="M269 471q0 -21 -14.5 -48t-43.5 -27q-7 0 -15.5 2t-15.5 4.5l-19 7t-19 7.5q-51 20 -66 20q-19 0 -27.5 -20.5t-11.5 -20.5q-8 0 -8 11q0 22 14 48t43 26q10 0 65 -21q48 -20 69 -20q17 0 27.5 19.5t14.5 19.5q7 0 7 -8z" />
    <glyph glyph-name="hungarumlaut" unicode="&#x2dd;" horiz-adv-x="300" 
d="M148 493h42q12 0 12 -6q0 -4 -21.5 -20.5t-61.5 -43.5t-53 -37q-3 -3 -8 -3t-5 7q0 3 12 17.5l34.5 40.5l31.5 37q6 8 17 8zM255 493h42q12 0 12 -6q0 -4 -21.5 -20.5t-61.5 -43.5t-53 -37q-3 -3 -8 -3t-5 7q0 3 12 17.5l34.5 40.5l31.5 37q6 8 17 8z" />
    <glyph glyph-name="uni03A9" unicode="&#x3a9;" horiz-adv-x="728" 
d="M693 123l-25 -123h-227l-6 17q1 2 30 42t40 60l31.5 59.5t29 78.5t8.5 79q-1 138 -62 202.5t-149 64.5q-93 0 -151.5 -67t-58.5 -206q0 -25 4 -50t9 -44t16 -44t18 -39t22.5 -38.5t21.5 -33l24 -33.5t21 -30l-7 -18h-225l-23 123l20 1q15 -45 30 -59t45 -14h110
q-31 25 -53 46.5t-50.5 58t-44 82.5t-15.5 98q0 132 82.5 212.5t206.5 80.5q126 0 205 -76t79 -207q0 -60 -28.5 -120t-59 -95.5t-76.5 -79.5h112q32 0 45 12.5t29 60.5z" />
    <glyph glyph-name="uni03BC" unicode="&#x3bc;" horiz-adv-x="463" 
d="M320 67v86q0 95 -3 136q-3 0 -27 -1t-31 -1q-9 0 -9 7q0 3 0.5 4.5t3 3t5 2.5t8.5 2.5l12.5 3t17.5 4.5l23 6q44 13 53 13q10 0 10 -13q0 -3 -1 -23t-1 -27q-1 -8 -1 -117q0 -92 4 -130q40 -6 57 -12q10 -1 10 -10q0 -7 -11 -7q-1 0 -4 0.5t-8.5 1.5t-10.5 1q-18 3 -50 3
h-47v50q-71 -62 -124 -62q-17 0 -54 8q0 -108 2 -159q67 -7 90 -12q10 -1 10 -10q0 -7 -11 -7q-3 0 -20 1.5t-45.5 3t-57.5 1.5q-21 0 -41.5 -1.5t-33 -3t-14.5 -1.5q-11 0 -11 7q0 9 10 10q17 6 57 12q4 51 4 256q0 158 -4 196q-4 0 -26 -1t-28 -1q-9 0 -9 7q0 3 0.5 4.5
t3 3t5 2.5t8.5 2.5l12.5 3t17.5 4.5l23 6q42 13 51 13q10 0 10 -13q0 -3 -1 -23t-1 -27q0 -6 -0.5 -77.5t-0.5 -99.5q0 -33 15 -48.5t55 -15.5q12 0 23.5 2t19.5 4t19 7t15.5 7.5l16 9t14.5 8.5z" />
    <glyph glyph-name="pi" unicode="&#x3c0;" horiz-adv-x="542" 
d="M493 431l20 -9q-11 -46 -33 -73q-16 -3 -68 -3q-4 -36 -4 -228q0 -83 44 -83q25 0 50 31l12 -17q-33 -60 -93 -60q-38 0 -58.5 25t-20.5 88q0 88 11 246q-62 1 -169 1v-19q0 -93 -13.5 -170.5t-27.5 -111.5t-23 -43q-30 -13 -51 -16l-5 14q48 54 68.5 155t20.5 193
q-31 0 -56 -7.5t-36 -15t-33 -24.5l-13 17q35 41 56 55q41 27 101 26q31 0 122 -1.5t141 -1.5q22 0 34 6t24 26z" />
    <glyph glyph-name="endash" unicode="&#x2013;" 
d="M506 181v-46h-457v46h457z" />
    <glyph glyph-name="emdash" unicode="&#x2014;" horiz-adv-x="1000" 
d="M951 181v-46h-902v46h902z" />
    <glyph glyph-name="quoteleft" unicode="&#x2018;" horiz-adv-x="148" 
d="M108 483h11q9 0 9 -8q0 -9 -22.5 -19t-40.5 -10q-22 0 -33.5 12.5t-11.5 32.5q0 36 41.5 96.5t55.5 60.5q9 0 9 -9q0 -2 -21 -45.5t-21 -76.5q0 -34 24 -34z" />
    <glyph glyph-name="quoteright" unicode="&#x2019;" horiz-adv-x="148" 
d="M40 611h-11q-9 0 -9 8q0 9 22.5 19t40.5 10q22 0 33.5 -12.5t11.5 -32.5q0 -36 -41.5 -96.5t-55.5 -60.5q-9 0 -9 9q0 2 21 45.5t21 76.5q0 34 -24 34z" />
    <glyph glyph-name="quotesinglbase" unicode="&#x201a;" horiz-adv-x="148" 
d="M40 56h-11q-9 0 -9 8q0 9 22.5 19t40.5 10q22 0 33.5 -12.5t11.5 -32.5q0 -36 -41.5 -96.5t-55.5 -60.5q-9 0 -9 9q0 2 21 45.5t21 76.5q0 34 -24 34z" />
    <glyph glyph-name="quotedblleft" unicode="&#x201c;" horiz-adv-x="296" 
d="M239 483h11q9 0 9 -8q0 -9 -22.5 -19t-40.5 -10q-26 0 -41 24l-11.5 -5.5t-18 -8t-21 -7t-23.5 -3.5q-20 0 -32.5 11.5t-12.5 32.5q0 37 42.5 97.5t54.5 60.5q9 0 9 -9q0 -2 -20.5 -45.5t-20.5 -76.5q0 -34 23 -34q11 0 27 8q0 36 41.5 96.5t55.5 60.5q9 0 9 -9
q0 -2 -21 -45.5t-21 -76.5q0 -34 24 -34z" />
    <glyph glyph-name="quotedblright" unicode="&#x201d;" horiz-adv-x="296" 
d="M56 611h-11q-9 0 -9 8q0 9 22.5 19t40.5 10q26 0 41 -24l11.5 5.5t18 8t21 7t23.5 3.5q20 0 32.5 -11.5t12.5 -32.5q0 -37 -42.5 -97.5t-54.5 -60.5q-9 0 -9 9q0 2 20.5 45.5t20.5 76.5q0 34 -23 34q-11 0 -27 -8q0 -36 -41.5 -96.5t-55.5 -60.5q-9 0 -9 9q0 2 21 45.5
t21 76.5q0 34 -24 34z" />
    <glyph glyph-name="quotedblbase" unicode="&#x201e;" horiz-adv-x="296" 
d="M56 56h-11q-9 0 -9 8q0 9 22.5 19t40.5 10q26 0 41 -24l11.5 5.5t18 8t21 7t23.5 3.5q20 0 32.5 -11.5t12.5 -32.5q0 -37 -42.5 -97.5t-54.5 -60.5q-9 0 -9 9q0 2 20.5 45.5t20.5 76.5q0 34 -23 34q-11 0 -27 -8q0 -36 -41.5 -96.5t-55.5 -60.5q-9 0 -9 9q0 2 21 45.5
t21 76.5q0 34 -24 34z" />
    <glyph glyph-name="dagger" unicode="&#x2020;" 
d="M308 19q0 -36 -30 -36t-30 36q0 40 12 208q10 180 10 187q-29 -2 -87 -11.5t-75 -11.5q-14 0 -22.5 9t-8.5 22q0 12 8.5 21t22.5 9q17 -2 75 -11.5t87 -11.5q-3 44 -12 112q-2 13 -4.5 32t-4 28t-1.5 12q0 17 8.5 26t21.5 9q30 0 30 -35q0 -5 -4.5 -36.5t-10 -75
t-7.5 -72.5q29 2 87 11.5t75 11.5q14 1 22.5 -8t8.5 -22t-8.5 -22.5t-22.5 -8.5q-17 2 -75 11.5t-87 11.5q0 -7 10 -187q12 -168 12 -208z" />
    <glyph glyph-name="daggerdbl" unicode="&#x2021;" 
d="M308 18q0 -35 -30 -35q-13 0 -21.5 9t-8.5 26q0 5 4.5 39.5l10 80.5t7.5 75q-29 -2 -87 -11.5t-75 -11.5q-14 -1 -22.5 8t-8.5 22t8.5 22.5t22.5 8.5q17 -2 75 -11.5t87 -11.5q0 2 -2 20.5t-3.5 43t-1.5 40.5q0 14 1.5 34.5t3.5 35.5t2 17q-29 -2 -87 -11.5t-75 -11.5
q-14 -1 -22.5 8.5t-8.5 22.5t8.5 22t22.5 8q17 -2 75 -11.5t87 -11.5q-2 29 -7.5 71t-10 72.5t-4.5 35.5q0 17 8.5 26t21.5 9q30 0 30 -35q0 -5 -4.5 -35.5t-10 -72.5t-7.5 -71q29 2 87 11.5t75 11.5q14 1 22.5 -8t8.5 -22t-8.5 -22.5t-22.5 -8.5q-17 2 -75 11.5t-87 11.5
q0 -2 2 -17t3.5 -35.5t1.5 -34.5q0 -16 -1.5 -40.5t-3.5 -43t-2 -20.5q29 2 87 11.5t75 11.5q14 1 22.5 -8.5t8.5 -22.5t-8.5 -22t-22.5 -8q-17 2 -75 11.5t-87 11.5q2 -29 7.5 -75l10 -80.5t4.5 -39.5z" />
    <glyph glyph-name="bullet" unicode="&#x2022;" horiz-adv-x="500" 
d="M359 314q0 -44 -32.5 -76t-76.5 -32q-45 0 -77 32t-32 76q0 45 32 77.5t77 32.5q44 0 76.5 -32.5t32.5 -77.5z" />
    <glyph glyph-name="ellipsis" unicode="&#x2026;" horiz-adv-x="1000" 
d="M216 37q0 -20 -14.5 -34.5t-34.5 -14.5t-34.5 14.5t-14.5 34.5t14.5 34.5t34.5 14.5t34.5 -14.5t14.5 -34.5zM549 37q0 -20 -14.5 -34.5t-34.5 -14.5t-34.5 14.5t-14.5 34.5t14.5 34.5t34.5 14.5t34.5 -14.5t14.5 -34.5zM882 37q0 -20 -14.5 -34.5t-34.5 -14.5
t-34.5 14.5t-14.5 34.5t14.5 34.5t34.5 14.5t34.5 -14.5t14.5 -34.5z" />
    <glyph glyph-name="perthousand" unicode="&#x2030;" horiz-adv-x="1167" 
d="M622 23q94 0 94 172q0 195 -87 195q-94 0 -94 -172q0 -195 87 -195zM603 631l-354 -631h-33l354 631h33zM185 241q94 0 94 172q0 195 -87 195q-94 0 -94 -172q0 -195 87 -195zM770 221q0 -94 -42 -157.5t-116 -63.5q-37 0 -63.5 16.5t-40.5 45.5t-20.5 61t-6.5 69
q0 94 42 157.5t116 63.5q37 0 63.5 -16.5t40.5 -45.5t20.5 -61t6.5 -69zM333 439q0 -94 -42 -157.5t-116 -63.5q-37 0 -63.5 16.5t-40.5 45.5t-20.5 61t-6.5 69q0 94 42 157.5t116 63.5q37 0 63.5 -16.5t40.5 -45.5t20.5 -61t6.5 -69zM1123 221q0 -94 -42 -157.5t-116 -63.5
q-37 0 -63.5 16.5t-40.5 45.5t-20.5 61t-6.5 69q0 94 42 157.5t116 63.5q69 0 100 -56t31 -136zM975 23q94 0 94 172q0 195 -87 195q-94 0 -94 -172q0 -195 87 -195z" />
    <glyph glyph-name="guilsinglleft" unicode="&#x2039;" horiz-adv-x="222" 
d="M99 158q10 -18 46.5 -75.5t43.5 -69.5q5 -7 5 -10q0 -6 -6 -6q-4 0 -16 12q-30 30 -110 120q-17 19 -17 29t17 29q80 90 110 120q12 12 16 12q6 0 6 -6q0 -3 -5 -10q-7 -12 -43.5 -69.5t-46.5 -75.5z" />
    <glyph glyph-name="guilsinglright" unicode="&#x203a;" horiz-adv-x="222" 
d="M160 129q-80 -90 -110 -120q-12 -12 -16 -12q-6 0 -6 6q0 3 5 10q7 12 43.5 69.5t46.5 75.5q-10 18 -46.5 75.5t-43.5 69.5q-5 7 -5 10q0 6 6 6q4 0 16 -12q30 -30 110 -120q17 -19 17 -29t-17 -29z" />
    <glyph glyph-name="fraction" unicode="&#x2044;" horiz-adv-x="222" 
d="M286 631l-323 -643h-27l323 643h27z" />
    <glyph glyph-name="Euro" unicode="&#x20ac;" 
d="M510 502h-18q-7 49 -45 72.5t-96 23.5q-92 0 -135.5 -58.5t-55.5 -168.5h296l-14 -31h-284q-1 -8 -1 -29v-30h258l-14 -31h-242q9 -110 58.5 -170t133.5 -60q54 0 93.5 23.5t47.5 75.5h18l-6 -71q-48 -59 -166 -59q-227 0 -250 261h-68l14 31h50q-1 8 -1 31q0 21 1 28
h-64l14 31h53q15 128 72.5 194t178.5 66t166 -56z" />
    <glyph glyph-name="afii61289" unicode="&#x2113;" horiz-adv-x="382" 
d="M348 102l16 -15q-56 -97 -152 -97q-60 0 -92 35q-32 38 -32 131v76l-61 -46l-11 20l71 56v113q0 118 9.5 167.5t40.5 82.5q33 37 74 37q39 0 60 -35t21 -84q0 -74 -37.5 -139t-105.5 -133v-81q0 -88 23 -122.5t68 -34.5q61 0 108 69zM149 432v-124q100 116 100 233
q0 40 -12.5 67t-35.5 27q-29 0 -40.5 -47t-11.5 -156z" />
    <glyph glyph-name="trademark" unicode="&#x2122;" horiz-adv-x="704" 
d="M96 423v17q18 2 23.5 2.5t15 5t12 14t2.5 25.5v191q-12 -2 -21 -4.5t-16.5 -8t-11.5 -8t-9 -12.5t-6 -12.5t-6.5 -18t-7.5 -19.5h-18l5 102h234l5 -102h-18q-2 5 -6.5 17.5t-6 16t-5.5 12t-6.5 11.5t-8 8.5t-11.5 8t-14.5 5t-19.5 4.5v-191q0 -16 1.5 -25t9.5 -13.5
t13.5 -5.5t23.5 -3v-17h-153zM310 423v17q16 3 22 4.5t13 6t9 13t2 23.5v156q0 25 -5 29t-29 6v19h100l55 -181h2l63 181h108v-19q-31 -4 -36 -11q-6 -8 -6 -30v-150q0 -30 6.5 -37t30.5 -10v-17h-124v17q15 3 20.5 5.5t10 12t4.5 29.5v184h-2l-84 -248h-16l-73 239h-2v-175
q0 -20 3.5 -29.5t8 -12t17.5 -5.5v-17h-98z" />
    <glyph glyph-name="Omega" unicode="&#x2126;" horiz-adv-x="728" 
d="M693 123l-25 -123h-227l-6 17q1 2 30 42t40 60l31.5 59.5t29 78.5t8.5 79q-1 138 -62 202.5t-149 64.5q-93 0 -151.5 -67t-58.5 -206q0 -25 4 -50t9 -44t16 -44t18 -39t22.5 -38.5t21.5 -33l24 -33.5t21 -30l-7 -18h-225l-23 123l20 1q15 -45 30 -59t45 -14h110
q-31 25 -53 46.5t-50.5 58t-44 82.5t-15.5 98q0 132 82.5 212.5t206.5 80.5q126 0 205 -76t79 -207q0 -60 -28.5 -120t-59 -95.5t-76.5 -79.5h112q32 0 45 12.5t29 60.5z" />
    <glyph glyph-name="estimated" unicode="&#x212e;" horiz-adv-x="774" 
d="M743 300h-577q-5 0 -5 -4v-175q0 -10 8 -20q93 -95 218 -95q138 0 230 107h51q-48 -57 -122.5 -90.5t-159.5 -33.5q-148 0 -252 93.5t-104 226.5t104 227t252 94t252.5 -94t104.5 -227v-9zM612 323v175q0 13 -8 21q-94 92 -217 92q-125 0 -217 -94q-9 -9 -9 -22v-172
q0 -6 5 -6h442q4 0 4 6z" />
    <glyph glyph-name="partialdiff" unicode="&#x2202;" horiz-adv-x="510" 
d="M253 394h1q38 0 77.5 -19t63.5 -54q6 60 6 93q2 78 -27 148q-17 38 -55 68.5t-81 30.5q-67 0 -133 -53q-12 -2 -22 16t-4 32q63 41 138 41q123 0 195 -127q46 -84 46 -208q0 -140 -45 -233q-69 -139 -193 -139q-81 0 -129 50.5t-48 135.5q0 87 56 150q27 30 68.5 49
t85.5 19zM271 360h-1q-71 0 -116 -54q-43 -57 -43 -157q-1 -56 28.5 -94t78.5 -38q75 0 122 94q32 61 49 174q-12 25 -45.5 50t-72.5 25z" />
    <glyph glyph-name="Delta" unicode="&#x2206;" horiz-adv-x="614" 
d="M578 0h-544v18l254 601l31 9l259 -610v-18zM496 37l-210 503l-206 -503h416z" />
    <glyph glyph-name="product" unicode="&#x220f;" horiz-adv-x="656" 
d="M628 622v-21q-62 -4 -75 -12.5t-13 -40.5v-540q0 -40 13.5 -50t72.5 -14v-21h-235v21q61 4 73 13t12 51v557q0 19 -6 24t-27 5h-233q-20 0 -25.5 -4t-5.5 -20v-562q0 -40 10.5 -50t67.5 -14v-21h-227v21q58 4 71 14t13 50v540q0 33 -12.5 41t-74.5 12v21h601z" />
    <glyph glyph-name="summation" unicode="&#x2211;" horiz-adv-x="536" 
d="M512 86l-40 -165h-445v19l220 322l-214 340v20h438l12 -146l-22 -5q-11 69 -32 98q-9 15 -27.5 20.5t-71.5 5.5h-212l188 -295l-217 -323h268q64 0 83.5 16.5t48.5 98.5z" />
    <glyph glyph-name="minus" unicode="&#x2212;" 
d="M518 261v-41h-480v41h480z" />
    <glyph glyph-name="uni2215" unicode="&#x2215;" horiz-adv-x="222" 
d="M286 631l-323 -643h-27l323 643h27z" />
    <glyph glyph-name="uni2219" unicode="&#x2219;" 
d="M327 316q0 -20 -14.5 -34.5t-34.5 -14.5t-34.5 14.5t-14.5 34.5t14.5 34.5t34.5 14.5t34.5 -14.5t14.5 -34.5z" />
    <glyph glyph-name="radical" unicode="&#x221a;" horiz-adv-x="525" 
d="M506 804l-155 -928l-17 -10l-213 501l-83 -42l-10 27l136 68l176 -422h1l133 815z" />
    <glyph glyph-name="infinity" unicode="&#x221e;" horiz-adv-x="716" 
d="M668 257v-1q0 -64 -41.5 -104.5t-98.5 -40.5q-42 0 -80 26t-89 84q-31 -35 -51.5 -55t-54.5 -37.5t-69 -17.5q-56 0 -96.5 41t-40.5 101q0 63 41 104t103 41q47 0 86.5 -29t84.5 -81q28 31 38 41t35 31.5t48.5 29.5t51.5 8q60 0 96.5 -39t36.5 -102zM190 153h1q12 0 24 3
t24 10t21 13t21.5 17.5t18.5 17.5t18.5 20t16.5 18l-44.5 52t-44 34t-61.5 19q-43 0 -68 -30.5t-25 -74.5q0 -42 27.5 -70.5t70.5 -28.5zM530 357h-1q-18 0 -35 -6.5t-34 -20t-27.5 -23.5t-27 -28.5t-20.5 -22.5q51 -57 81.5 -80t64.5 -23q42 0 67.5 30.5t25.5 69.5
q0 48 -26.5 76t-67.5 28z" />
    <glyph glyph-name="integral" unicode="&#x222b;" horiz-adv-x="341" 
d="M152 25l-17 372q-5 108 3 183t27.5 114.5t43.5 56.5t57 17q18 0 34 -10t17 -28q0 -16 -10 -25t-24 -9t-25.5 19t-21.5 19q-12 0 -22.5 -12t-18 -50.5t-4.5 -99.5l16 -355q5 -96 -0.5 -168.5t-17 -115t-30.5 -68t-38.5 -34.5t-44.5 -9q-22 0 -36.5 12t-15.5 28q0 14 12 25
t29 11q11 0 22 -19.5t21 -19.5q24 0 36 45.5t8 120.5z" />
    <glyph glyph-name="approxequal" unicode="&#x2248;" horiz-adv-x="531" 
d="M458 385l28 -25q-46 -85 -121 -85q-27 0 -48 8t-63 30q-52 31 -87 31q-50 0 -95 -68l-30 25q22 40 56.5 63t73.5 23q13 0 25.5 -2.5t24.5 -7.5t19.5 -8.5t20 -10.5t15.5 -9l10.5 -5.5l10.5 -5.5l9 -4.5t10 -4.5t9 -3.5t10 -3.5t9.5 -2t10.5 -1.5t11 -0.5q51 0 91 67z
M458 230l28 -26q-47 -85 -121 -85q-19 0 -38 5.5t-31.5 11.5t-41.5 22q-56 30 -87 30t-52 -17.5t-43 -50.5l-30 25q22 40 56.5 63t73.5 23q13 0 25 -2t25 -7.5l19 -8t20 -10.5t16 -9q4 -2 17 -9t18.5 -9.5t15.5 -6.5t19.5 -5.5t19.5 -1.5q28 0 48.5 16t42.5 52z" />
    <glyph glyph-name="notequal" unicode="&#x2260;" horiz-adv-x="531" 
d="M376 454l-43 -91h149v-44h-168l-63 -135h231v-43h-250l-51 -111l-35 17l43 94h-142v43h161l63 135h-224v44h243l50 108z" />
    <glyph glyph-name="lessequal" unicode="&#x2264;" horiz-adv-x="531" 
d="M480 84l-427 205v46l427 205v-51l-378 -175v-2l378 -177v-51zM482 2h-434v45h434v-45z" />
    <glyph glyph-name="greaterequal" unicode="&#x2265;" horiz-adv-x="531" 
d="M53 540l427 -205v-46l-426 -205v51l377 176v2l-378 176v51zM481 2h-433v45h433v-45z" />
    <glyph glyph-name="lozenge" unicode="&#x25ca;" horiz-adv-x="533" 
d="M486 298l-196 -364h-48l-196 364l197 368h48zM435 298l-166 318h-3l-169 -316l169 -319h2z" />
    </font>
</defs>
</svg>
